ISO-10303-21;
HEADER;
/* Generated by software containing ST-Developer
 * from STEP Tools, Inc. (www.steptools.com) 
 */

FILE_DESCRIPTION(
/* description */ (''),
/* implementation_level */ '2;1');

FILE_NAME(
/* name */ 'encoder_stand_1.step',
/* time_stamp */ '2026-05-25T07:11:09+05:30',
/* author */ (''),
/* organization */ (''),
/* preprocessor_version */ 'ST-DEVELOPER v20.1',
/* originating_system */ 'Autodesk Translation Framework v15.8.0.0',
/* authorisation */ '');

FILE_SCHEMA (('AUTOMOTIVE_DESIGN { 1 0 10303 214 3 1 1 }'));
ENDSEC;

DATA;
#10=MECHANICAL_DESIGN_GEOMETRIC_PRESENTATION_REPRESENTATION('',(#13),#1546);
#11=SHAPE_REPRESENTATION_RELATIONSHIP('SRR','None',#1553,#12);
#12=ADVANCED_BREP_SHAPE_REPRESENTATION('',(#14),#1545);
#13=STYLED_ITEM('',(#1562),#14);
#14=MANIFOLD_SOLID_BREP('Body1',#966);
#15=FACE_BOUND('',#154,.T.);
#16=FACE_BOUND('',#156,.T.);
#17=PLANE('',#983);
#18=PLANE('',#984);
#19=PLANE('',#985);
#20=PLANE('',#986);
#21=PLANE('',#987);
#22=PLANE('',#988);
#23=PLANE('',#989);
#24=PLANE('',#990);
#25=PLANE('',#991);
#26=PLANE('',#992);
#27=PLANE('',#993);
#28=PLANE('',#994);
#29=PLANE('',#995);
#30=PLANE('',#996);
#31=PLANE('',#997);
#32=PLANE('',#998);
#33=PLANE('',#999);
#34=PLANE('',#1000);
#35=PLANE('',#1001);
#36=PLANE('',#1002);
#37=PLANE('',#1003);
#38=PLANE('',#1004);
#39=PLANE('',#1005);
#40=PLANE('',#1006);
#41=PLANE('',#1007);
#42=PLANE('',#1008);
#43=PLANE('',#1009);
#44=PLANE('',#1010);
#45=PLANE('',#1011);
#46=PLANE('',#1012);
#47=PLANE('',#1013);
#48=PLANE('',#1014);
#49=PLANE('',#1015);
#50=PLANE('',#1016);
#51=PLANE('',#1017);
#52=PLANE('',#1018);
#53=PLANE('',#1019);
#54=PLANE('',#1020);
#55=PLANE('',#1021);
#56=PLANE('',#1025);
#57=PLANE('',#1026);
#58=PLANE('',#1027);
#59=PLANE('',#1031);
#60=PLANE('',#1032);
#61=FACE_OUTER_BOUND('',#108,.T.);
#62=FACE_OUTER_BOUND('',#109,.T.);
#63=FACE_OUTER_BOUND('',#110,.T.);
#64=FACE_OUTER_BOUND('',#111,.T.);
#65=FACE_OUTER_BOUND('',#112,.T.);
#66=FACE_OUTER_BOUND('',#113,.T.);
#67=FACE_OUTER_BOUND('',#114,.T.);
#68=FACE_OUTER_BOUND('',#115,.T.);
#69=FACE_OUTER_BOUND('',#116,.T.);
#70=FACE_OUTER_BOUND('',#117,.T.);
#71=FACE_OUTER_BOUND('',#118,.T.);
#72=FACE_OUTER_BOUND('',#119,.T.);
#73=FACE_OUTER_BOUND('',#120,.T.);
#74=FACE_OUTER_BOUND('',#121,.T.);
#75=FACE_OUTER_BOUND('',#122,.T.);
#76=FACE_OUTER_BOUND('',#123,.T.);
#77=FACE_OUTER_BOUND('',#124,.T.);
#78=FACE_OUTER_BOUND('',#125,.T.);
#79=FACE_OUTER_BOUND('',#126,.T.);
#80=FACE_OUTER_BOUND('',#127,.T.);
#81=FACE_OUTER_BOUND('',#128,.T.);
#82=FACE_OUTER_BOUND('',#129,.T.);
#83=FACE_OUTER_BOUND('',#130,.T.);
#84=FACE_OUTER_BOUND('',#131,.T.);
#85=FACE_OUTER_BOUND('',#132,.T.);
#86=FACE_OUTER_BOUND('',#133,.T.);
#87=FACE_OUTER_BOUND('',#134,.T.);
#88=FACE_OUTER_BOUND('',#135,.T.);
#89=FACE_OUTER_BOUND('',#136,.T.);
#90=FACE_OUTER_BOUND('',#137,.T.);
#91=FACE_OUTER_BOUND('',#138,.T.);
#92=FACE_OUTER_BOUND('',#139,.T.);
#93=FACE_OUTER_BOUND('',#140,.T.);
#94=FACE_OUTER_BOUND('',#141,.T.);
#95=FACE_OUTER_BOUND('',#142,.T.);
#96=FACE_OUTER_BOUND('',#143,.T.);
#97=FACE_OUTER_BOUND('',#144,.T.);
#98=FACE_OUTER_BOUND('',#145,.T.);
#99=FACE_OUTER_BOUND('',#146,.T.);
#100=FACE_OUTER_BOUND('',#147,.T.);
#101=FACE_OUTER_BOUND('',#148,.T.);
#102=FACE_OUTER_BOUND('',#149,.T.);
#103=FACE_OUTER_BOUND('',#150,.T.);
#104=FACE_OUTER_BOUND('',#151,.T.);
#105=FACE_OUTER_BOUND('',#152,.T.);
#106=FACE_OUTER_BOUND('',#153,.T.);
#107=FACE_OUTER_BOUND('',#155,.T.);
#108=EDGE_LOOP('',(#646,#647,#648,#649));
#109=EDGE_LOOP('',(#650,#651,#652,#653));
#110=EDGE_LOOP('',(#654,#655,#656,#657));
#111=EDGE_LOOP('',(#658,#659,#660,#661));
#112=EDGE_LOOP('',(#662,#663,#664,#665));
#113=EDGE_LOOP('',(#666,#667,#668,#669));
#114=EDGE_LOOP('',(#670,#671,#672,#673));
#115=EDGE_LOOP('',(#674,#675,#676,#677));
#116=EDGE_LOOP('',(#678,#679,#680,#681));
#117=EDGE_LOOP('',(#682,#683,#684,#685));
#118=EDGE_LOOP('',(#686,#687,#688,#689));
#119=EDGE_LOOP('',(#690,#691,#692,#693));
#120=EDGE_LOOP('',(#694,#695,#696,#697));
#121=EDGE_LOOP('',(#698,#699,#700,#701));
#122=EDGE_LOOP('',(#702,#703,#704,#705));
#123=EDGE_LOOP('',(#706,#707,#708,#709));
#124=EDGE_LOOP('',(#710,#711,#712,#713));
#125=EDGE_LOOP('',(#714,#715,#716,#717));
#126=EDGE_LOOP('',(#718,#719,#720,#721));
#127=EDGE_LOOP('',(#722,#723,#724,#725));
#128=EDGE_LOOP('',(#726,#727,#728,#729));
#129=EDGE_LOOP('',(#730,#731,#732,#733));
#130=EDGE_LOOP('',(#734,#735,#736,#737));
#131=EDGE_LOOP('',(#738,#739,#740,#741));
#132=EDGE_LOOP('',(#742,#743,#744,#745));
#133=EDGE_LOOP('',(#746,#747,#748,#749));
#134=EDGE_LOOP('',(#750,#751,#752,#753));
#135=EDGE_LOOP('',(#754,#755,#756,#757));
#136=EDGE_LOOP('',(#758,#759,#760,#761));
#137=EDGE_LOOP('',(#762,#763,#764,#765));
#138=EDGE_LOOP('',(#766,#767,#768,#769));
#139=EDGE_LOOP('',(#770,#771,#772,#773));
#140=EDGE_LOOP('',(#774,#775,#776,#777));
#141=EDGE_LOOP('',(#778,#779,#780,#781));
#142=EDGE_LOOP('',(#782,#783,#784,#785));
#143=EDGE_LOOP('',(#786,#787,#788,#789));
#144=EDGE_LOOP('',(#790,#791,#792,#793));
#145=EDGE_LOOP('',(#794,#795,#796,#797));
#146=EDGE_LOOP('',(#798,#799,#800,#801));
#147=EDGE_LOOP('',(#802,#803,#804,#805));
#148=EDGE_LOOP('',(#806,#807,#808,#809));
#149=EDGE_LOOP('',(#810,#811,#812,#813));
#150=EDGE_LOOP('',(#814,#815,#816,#817));
#151=EDGE_LOOP('',(#818,#819,#820,#821));
#152=EDGE_LOOP('',(#822,#823,#824,#825));
#153=EDGE_LOOP('',(#826,#827,#828,#829,#830,#831,#832,#833,#834,#835,#836,
#837,#838,#839,#840,#841,#842,#843,#844,#845,#846,#847,#848,#849,#850,#851,
#852,#853,#854,#855,#856,#857,#858,#859,#860,#861,#862,#863,#864,#865,#866,
#867,#868,#869));
#154=EDGE_LOOP('',(#870));
#155=EDGE_LOOP('',(#871,#872,#873,#874,#875,#876,#877,#878,#879,#880,#881,
#882,#883,#884,#885,#886,#887,#888,#889,#890,#891,#892,#893,#894,#895,#896,
#897,#898,#899,#900,#901,#902,#903,#904,#905,#906,#907,#908,#909,#910,#911,
#912,#913,#914));
#156=EDGE_LOOP('',(#915));
#157=LINE('',#1275,#286);
#158=LINE('',#1280,#287);
#159=LINE('',#1282,#288);
#160=LINE('',#1284,#289);
#161=LINE('',#1285,#290);
#162=LINE('',#1288,#291);
#163=LINE('',#1290,#292);
#164=LINE('',#1291,#293);
#165=LINE('',#1294,#294);
#166=LINE('',#1296,#295);
#167=LINE('',#1297,#296);
#168=LINE('',#1300,#297);
#169=LINE('',#1302,#298);
#170=LINE('',#1303,#299);
#171=LINE('',#1306,#300);
#172=LINE('',#1308,#301);
#173=LINE('',#1309,#302);
#174=LINE('',#1312,#303);
#175=LINE('',#1314,#304);
#176=LINE('',#1315,#305);
#177=LINE('',#1318,#306);
#178=LINE('',#1320,#307);
#179=LINE('',#1321,#308);
#180=LINE('',#1324,#309);
#181=LINE('',#1326,#310);
#182=LINE('',#1327,#311);
#183=LINE('',#1330,#312);
#184=LINE('',#1332,#313);
#185=LINE('',#1333,#314);
#186=LINE('',#1336,#315);
#187=LINE('',#1338,#316);
#188=LINE('',#1339,#317);
#189=LINE('',#1342,#318);
#190=LINE('',#1344,#319);
#191=LINE('',#1345,#320);
#192=LINE('',#1348,#321);
#193=LINE('',#1350,#322);
#194=LINE('',#1351,#323);
#195=LINE('',#1354,#324);
#196=LINE('',#1356,#325);
#197=LINE('',#1357,#326);
#198=LINE('',#1360,#327);
#199=LINE('',#1362,#328);
#200=LINE('',#1363,#329);
#201=LINE('',#1366,#330);
#202=LINE('',#1368,#331);
#203=LINE('',#1369,#332);
#204=LINE('',#1372,#333);
#205=LINE('',#1374,#334);
#206=LINE('',#1375,#335);
#207=LINE('',#1378,#336);
#208=LINE('',#1380,#337);
#209=LINE('',#1381,#338);
#210=LINE('',#1384,#339);
#211=LINE('',#1386,#340);
#212=LINE('',#1387,#341);
#213=LINE('',#1390,#342);
#214=LINE('',#1392,#343);
#215=LINE('',#1393,#344);
#216=LINE('',#1396,#345);
#217=LINE('',#1398,#346);
#218=LINE('',#1399,#347);
#219=LINE('',#1402,#348);
#220=LINE('',#1404,#349);
#221=LINE('',#1405,#350);
#222=LINE('',#1408,#351);
#223=LINE('',#1410,#352);
#224=LINE('',#1411,#353);
#225=LINE('',#1414,#354);
#226=LINE('',#1416,#355);
#227=LINE('',#1417,#356);
#228=LINE('',#1420,#357);
#229=LINE('',#1422,#358);
#230=LINE('',#1423,#359);
#231=LINE('',#1426,#360);
#232=LINE('',#1428,#361);
#233=LINE('',#1429,#362);
#234=LINE('',#1432,#363);
#235=LINE('',#1434,#364);
#236=LINE('',#1435,#365);
#237=LINE('',#1438,#366);
#238=LINE('',#1440,#367);
#239=LINE('',#1441,#368);
#240=LINE('',#1444,#369);
#241=LINE('',#1446,#370);
#242=LINE('',#1447,#371);
#243=LINE('',#1450,#372);
#244=LINE('',#1452,#373);
#245=LINE('',#1453,#374);
#246=LINE('',#1456,#375);
#247=LINE('',#1458,#376);
#248=LINE('',#1459,#377);
#249=LINE('',#1462,#378);
#250=LINE('',#1464,#379);
#251=LINE('',#1465,#380);
#252=LINE('',#1468,#381);
#253=LINE('',#1470,#382);
#254=LINE('',#1471,#383);
#255=LINE('',#1474,#384);
#256=LINE('',#1476,#385);
#257=LINE('',#1477,#386);
#258=LINE('',#1480,#387);
#259=LINE('',#1482,#388);
#260=LINE('',#1483,#389);
#261=LINE('',#1486,#390);
#262=LINE('',#1488,#391);
#263=LINE('',#1489,#392);
#264=LINE('',#1492,#393);
#265=LINE('',#1494,#394);
#266=LINE('',#1495,#395);
#267=LINE('',#1498,#396);
#268=LINE('',#1500,#397);
#269=LINE('',#1501,#398);
#270=LINE('',#1504,#399);
#271=LINE('',#1506,#400);
#272=LINE('',#1507,#401);
#273=LINE('',#1510,#402);
#274=LINE('',#1512,#403);
#275=LINE('',#1513,#404);
#276=LINE('',#1519,#405);
#277=LINE('',#1522,#406);
#278=LINE('',#1524,#407);
#279=LINE('',#1525,#408);
#280=LINE('',#1528,#409);
#281=LINE('',#1530,#410);
#282=LINE('',#1531,#411);
#283=LINE('',#1534,#412);
#284=LINE('',#1536,#413);
#285=LINE('',#1537,#414);
#286=VECTOR('',#1039,19.5);
#287=VECTOR('',#1044,10.);
#288=VECTOR('',#1045,10.);
#289=VECTOR('',#1046,10.);
#290=VECTOR('',#1047,10.);
#291=VECTOR('',#1050,10.);
#292=VECTOR('',#1051,10.);
#293=VECTOR('',#1052,10.);
#294=VECTOR('',#1055,10.);
#295=VECTOR('',#1056,10.);
#296=VECTOR('',#1057,10.);
#297=VECTOR('',#1060,10.);
#298=VECTOR('',#1061,10.);
#299=VECTOR('',#1062,10.);
#300=VECTOR('',#1065,10.);
#301=VECTOR('',#1066,10.);
#302=VECTOR('',#1067,10.);
#303=VECTOR('',#1070,10.);
#304=VECTOR('',#1071,10.);
#305=VECTOR('',#1072,10.);
#306=VECTOR('',#1075,10.);
#307=VECTOR('',#1076,10.);
#308=VECTOR('',#1077,10.);
#309=VECTOR('',#1080,10.);
#310=VECTOR('',#1081,10.);
#311=VECTOR('',#1082,10.);
#312=VECTOR('',#1085,10.);
#313=VECTOR('',#1086,10.);
#314=VECTOR('',#1087,10.);
#315=VECTOR('',#1090,10.);
#316=VECTOR('',#1091,10.);
#317=VECTOR('',#1092,10.);
#318=VECTOR('',#1095,10.);
#319=VECTOR('',#1096,10.);
#320=VECTOR('',#1097,10.);
#321=VECTOR('',#1100,10.);
#322=VECTOR('',#1101,10.);
#323=VECTOR('',#1102,10.);
#324=VECTOR('',#1105,10.);
#325=VECTOR('',#1106,10.);
#326=VECTOR('',#1107,10.);
#327=VECTOR('',#1110,10.);
#328=VECTOR('',#1111,10.);
#329=VECTOR('',#1112,10.);
#330=VECTOR('',#1115,10.);
#331=VECTOR('',#1116,10.);
#332=VECTOR('',#1117,10.);
#333=VECTOR('',#1120,10.);
#334=VECTOR('',#1121,10.);
#335=VECTOR('',#1122,10.);
#336=VECTOR('',#1125,10.);
#337=VECTOR('',#1126,10.);
#338=VECTOR('',#1127,10.);
#339=VECTOR('',#1130,10.);
#340=VECTOR('',#1131,10.);
#341=VECTOR('',#1132,10.);
#342=VECTOR('',#1135,10.);
#343=VECTOR('',#1136,10.);
#344=VECTOR('',#1137,10.);
#345=VECTOR('',#1140,10.);
#346=VECTOR('',#1141,10.);
#347=VECTOR('',#1142,10.);
#348=VECTOR('',#1145,10.);
#349=VECTOR('',#1146,10.);
#350=VECTOR('',#1147,10.);
#351=VECTOR('',#1150,10.);
#352=VECTOR('',#1151,10.);
#353=VECTOR('',#1152,10.);
#354=VECTOR('',#1155,10.);
#355=VECTOR('',#1156,10.);
#356=VECTOR('',#1157,10.);
#357=VECTOR('',#1160,10.);
#358=VECTOR('',#1161,10.);
#359=VECTOR('',#1162,10.);
#360=VECTOR('',#1165,10.);
#361=VECTOR('',#1166,10.);
#362=VECTOR('',#1167,10.);
#363=VECTOR('',#1170,10.);
#364=VECTOR('',#1171,10.);
#365=VECTOR('',#1172,10.);
#366=VECTOR('',#1175,10.);
#367=VECTOR('',#1176,10.);
#368=VECTOR('',#1177,10.);
#369=VECTOR('',#1180,10.);
#370=VECTOR('',#1181,10.);
#371=VECTOR('',#1182,10.);
#372=VECTOR('',#1185,10.);
#373=VECTOR('',#1186,10.);
#374=VECTOR('',#1187,10.);
#375=VECTOR('',#1190,10.);
#376=VECTOR('',#1191,10.);
#377=VECTOR('',#1192,10.);
#378=VECTOR('',#1195,10.);
#379=VECTOR('',#1196,10.);
#380=VECTOR('',#1197,10.);
#381=VECTOR('',#1200,10.);
#382=VECTOR('',#1201,10.);
#383=VECTOR('',#1202,10.);
#384=VECTOR('',#1205,10.);
#385=VECTOR('',#1206,10.);
#386=VECTOR('',#1207,10.);
#387=VECTOR('',#1210,10.);
#388=VECTOR('',#1211,10.);
#389=VECTOR('',#1212,10.);
#390=VECTOR('',#1215,10.);
#391=VECTOR('',#1216,10.);
#392=VECTOR('',#1217,10.);
#393=VECTOR('',#1220,10.);
#394=VECTOR('',#1221,10.);
#395=VECTOR('',#1222,10.);
#396=VECTOR('',#1225,10.);
#397=VECTOR('',#1226,10.);
#398=VECTOR('',#1227,10.);
#399=VECTOR('',#1230,10.);
#400=VECTOR('',#1231,10.);
#401=VECTOR('',#1232,10.);
#402=VECTOR('',#1235,10.);
#403=VECTOR('',#1236,10.);
#404=VECTOR('',#1237,10.);
#405=VECTOR('',#1244,10.);
#406=VECTOR('',#1247,10.);
#407=VECTOR('',#1248,10.);
#408=VECTOR('',#1249,10.);
#409=VECTOR('',#1252,10.);
#410=VECTOR('',#1253,10.);
#411=VECTOR('',#1254,10.);
#412=VECTOR('',#1257,10.);
#413=VECTOR('',#1258,10.);
#414=VECTOR('',#1259,10.);
#415=CIRCLE('',#981,19.5);
#416=CIRCLE('',#982,19.5);
#417=CIRCLE('',#1023,20.0000000000004);
#418=CIRCLE('',#1024,20.0000000000004);
#419=CIRCLE('',#1029,20.0000000000004);
#420=CIRCLE('',#1030,20.0000000000004);
#421=VERTEX_POINT('',#1272);
#422=VERTEX_POINT('',#1274);
#423=VERTEX_POINT('',#1278);
#424=VERTEX_POINT('',#1279);
#425=VERTEX_POINT('',#1281);
#426=VERTEX_POINT('',#1283);
#427=VERTEX_POINT('',#1287);
#428=VERTEX_POINT('',#1289);
#429=VERTEX_POINT('',#1293);
#430=VERTEX_POINT('',#1295);
#431=VERTEX_POINT('',#1299);
#432=VERTEX_POINT('',#1301);
#433=VERTEX_POINT('',#1305);
#434=VERTEX_POINT('',#1307);
#435=VERTEX_POINT('',#1311);
#436=VERTEX_POINT('',#1313);
#437=VERTEX_POINT('',#1317);
#438=VERTEX_POINT('',#1319);
#439=VERTEX_POINT('',#1323);
#440=VERTEX_POINT('',#1325);
#441=VERTEX_POINT('',#1329);
#442=VERTEX_POINT('',#1331);
#443=VERTEX_POINT('',#1335);
#444=VERTEX_POINT('',#1337);
#445=VERTEX_POINT('',#1341);
#446=VERTEX_POINT('',#1343);
#447=VERTEX_POINT('',#1347);
#448=VERTEX_POINT('',#1349);
#449=VERTEX_POINT('',#1353);
#450=VERTEX_POINT('',#1355);
#451=VERTEX_POINT('',#1359);
#452=VERTEX_POINT('',#1361);
#453=VERTEX_POINT('',#1365);
#454=VERTEX_POINT('',#1367);
#455=VERTEX_POINT('',#1371);
#456=VERTEX_POINT('',#1373);
#457=VERTEX_POINT('',#1377);
#458=VERTEX_POINT('',#1379);
#459=VERTEX_POINT('',#1383);
#460=VERTEX_POINT('',#1385);
#461=VERTEX_POINT('',#1389);
#462=VERTEX_POINT('',#1391);
#463=VERTEX_POINT('',#1395);
#464=VERTEX_POINT('',#1397);
#465=VERTEX_POINT('',#1401);
#466=VERTEX_POINT('',#1403);
#467=VERTEX_POINT('',#1407);
#468=VERTEX_POINT('',#1409);
#469=VERTEX_POINT('',#1413);
#470=VERTEX_POINT('',#1415);
#471=VERTEX_POINT('',#1419);
#472=VERTEX_POINT('',#1421);
#473=VERTEX_POINT('',#1425);
#474=VERTEX_POINT('',#1427);
#475=VERTEX_POINT('',#1431);
#476=VERTEX_POINT('',#1433);
#477=VERTEX_POINT('',#1437);
#478=VERTEX_POINT('',#1439);
#479=VERTEX_POINT('',#1443);
#480=VERTEX_POINT('',#1445);
#481=VERTEX_POINT('',#1449);
#482=VERTEX_POINT('',#1451);
#483=VERTEX_POINT('',#1455);
#484=VERTEX_POINT('',#1457);
#485=VERTEX_POINT('',#1461);
#486=VERTEX_POINT('',#1463);
#487=VERTEX_POINT('',#1467);
#488=VERTEX_POINT('',#1469);
#489=VERTEX_POINT('',#1473);
#490=VERTEX_POINT('',#1475);
#491=VERTEX_POINT('',#1479);
#492=VERTEX_POINT('',#1481);
#493=VERTEX_POINT('',#1485);
#494=VERTEX_POINT('',#1487);
#495=VERTEX_POINT('',#1491);
#496=VERTEX_POINT('',#1493);
#497=VERTEX_POINT('',#1497);
#498=VERTEX_POINT('',#1499);
#499=VERTEX_POINT('',#1503);
#500=VERTEX_POINT('',#1505);
#501=VERTEX_POINT('',#1509);
#502=VERTEX_POINT('',#1511);
#503=VERTEX_POINT('',#1515);
#504=VERTEX_POINT('',#1517);
#505=VERTEX_POINT('',#1521);
#506=VERTEX_POINT('',#1523);
#507=VERTEX_POINT('',#1527);
#508=VERTEX_POINT('',#1529);
#509=VERTEX_POINT('',#1533);
#510=VERTEX_POINT('',#1535);
#511=EDGE_CURVE('',#421,#421,#415,.T.);
#512=EDGE_CURVE('',#421,#422,#157,.T.);
#513=EDGE_CURVE('',#422,#422,#416,.T.);
#514=EDGE_CURVE('',#423,#424,#158,.T.);
#515=EDGE_CURVE('',#423,#425,#159,.T.);
#516=EDGE_CURVE('',#426,#425,#160,.T.);
#517=EDGE_CURVE('',#424,#426,#161,.T.);
#518=EDGE_CURVE('',#427,#424,#162,.T.);
#519=EDGE_CURVE('',#428,#426,#163,.T.);
#520=EDGE_CURVE('',#427,#428,#164,.T.);
#521=EDGE_CURVE('',#429,#427,#165,.T.);
#522=EDGE_CURVE('',#430,#428,#166,.T.);
#523=EDGE_CURVE('',#429,#430,#167,.T.);
#524=EDGE_CURVE('',#431,#429,#168,.T.);
#525=EDGE_CURVE('',#432,#430,#169,.T.);
#526=EDGE_CURVE('',#431,#432,#170,.T.);
#527=EDGE_CURVE('',#431,#433,#171,.T.);
#528=EDGE_CURVE('',#434,#432,#172,.T.);
#529=EDGE_CURVE('',#433,#434,#173,.T.);
#530=EDGE_CURVE('',#435,#433,#174,.T.);
#531=EDGE_CURVE('',#436,#434,#175,.T.);
#532=EDGE_CURVE('',#435,#436,#176,.T.);
#533=EDGE_CURVE('',#437,#435,#177,.T.);
#534=EDGE_CURVE('',#438,#436,#178,.T.);
#535=EDGE_CURVE('',#437,#438,#179,.T.);
#536=EDGE_CURVE('',#439,#437,#180,.T.);
#537=EDGE_CURVE('',#440,#438,#181,.T.);
#538=EDGE_CURVE('',#439,#440,#182,.T.);
#539=EDGE_CURVE('',#439,#441,#183,.T.);
#540=EDGE_CURVE('',#442,#440,#184,.T.);
#541=EDGE_CURVE('',#441,#442,#185,.T.);
#542=EDGE_CURVE('',#441,#443,#186,.T.);
#543=EDGE_CURVE('',#444,#442,#187,.T.);
#544=EDGE_CURVE('',#443,#444,#188,.T.);
#545=EDGE_CURVE('',#443,#445,#189,.T.);
#546=EDGE_CURVE('',#446,#444,#190,.T.);
#547=EDGE_CURVE('',#445,#446,#191,.T.);
#548=EDGE_CURVE('',#445,#447,#192,.T.);
#549=EDGE_CURVE('',#448,#446,#193,.T.);
#550=EDGE_CURVE('',#447,#448,#194,.T.);
#551=EDGE_CURVE('',#447,#449,#195,.T.);
#552=EDGE_CURVE('',#450,#448,#196,.T.);
#553=EDGE_CURVE('',#449,#450,#197,.T.);
#554=EDGE_CURVE('',#451,#449,#198,.T.);
#555=EDGE_CURVE('',#452,#450,#199,.T.);
#556=EDGE_CURVE('',#451,#452,#200,.T.);
#557=EDGE_CURVE('',#451,#453,#201,.T.);
#558=EDGE_CURVE('',#454,#452,#202,.T.);
#559=EDGE_CURVE('',#453,#454,#203,.T.);
#560=EDGE_CURVE('',#453,#455,#204,.T.);
#561=EDGE_CURVE('',#456,#454,#205,.T.);
#562=EDGE_CURVE('',#455,#456,#206,.T.);
#563=EDGE_CURVE('',#455,#457,#207,.T.);
#564=EDGE_CURVE('',#458,#456,#208,.T.);
#565=EDGE_CURVE('',#457,#458,#209,.T.);
#566=EDGE_CURVE('',#459,#457,#210,.T.);
#567=EDGE_CURVE('',#460,#458,#211,.T.);
#568=EDGE_CURVE('',#459,#460,#212,.T.);
#569=EDGE_CURVE('',#459,#461,#213,.T.);
#570=EDGE_CURVE('',#462,#460,#214,.T.);
#571=EDGE_CURVE('',#461,#462,#215,.T.);
#572=EDGE_CURVE('',#461,#463,#216,.T.);
#573=EDGE_CURVE('',#464,#462,#217,.T.);
#574=EDGE_CURVE('',#463,#464,#218,.T.);
#575=EDGE_CURVE('',#463,#465,#219,.T.);
#576=EDGE_CURVE('',#466,#464,#220,.T.);
#577=EDGE_CURVE('',#465,#466,#221,.T.);
#578=EDGE_CURVE('',#467,#465,#222,.T.);
#579=EDGE_CURVE('',#468,#466,#223,.T.);
#580=EDGE_CURVE('',#467,#468,#224,.T.);
#581=EDGE_CURVE('',#469,#467,#225,.T.);
#582=EDGE_CURVE('',#470,#468,#226,.T.);
#583=EDGE_CURVE('',#469,#470,#227,.T.);
#584=EDGE_CURVE('',#471,#469,#228,.T.);
#585=EDGE_CURVE('',#472,#470,#229,.T.);
#586=EDGE_CURVE('',#471,#472,#230,.T.);
#587=EDGE_CURVE('',#473,#471,#231,.T.);
#588=EDGE_CURVE('',#474,#472,#232,.T.);
#589=EDGE_CURVE('',#473,#474,#233,.T.);
#590=EDGE_CURVE('',#475,#473,#234,.T.);
#591=EDGE_CURVE('',#476,#474,#235,.T.);
#592=EDGE_CURVE('',#475,#476,#236,.T.);
#593=EDGE_CURVE('',#475,#477,#237,.T.);
#594=EDGE_CURVE('',#478,#476,#238,.T.);
#595=EDGE_CURVE('',#477,#478,#239,.T.);
#596=EDGE_CURVE('',#479,#477,#240,.T.);
#597=EDGE_CURVE('',#480,#478,#241,.T.);
#598=EDGE_CURVE('',#479,#480,#242,.T.);
#599=EDGE_CURVE('',#481,#479,#243,.T.);
#600=EDGE_CURVE('',#482,#480,#244,.T.);
#601=EDGE_CURVE('',#481,#482,#245,.T.);
#602=EDGE_CURVE('',#483,#481,#246,.T.);
#603=EDGE_CURVE('',#484,#482,#247,.T.);
#604=EDGE_CURVE('',#483,#484,#248,.T.);
#605=EDGE_CURVE('',#483,#485,#249,.T.);
#606=EDGE_CURVE('',#486,#484,#250,.T.);
#607=EDGE_CURVE('',#485,#486,#251,.T.);
#608=EDGE_CURVE('',#485,#487,#252,.T.);
#609=EDGE_CURVE('',#488,#486,#253,.T.);
#610=EDGE_CURVE('',#487,#488,#254,.T.);
#611=EDGE_CURVE('',#487,#489,#255,.T.);
#612=EDGE_CURVE('',#490,#488,#256,.T.);
#613=EDGE_CURVE('',#489,#490,#257,.T.);
#614=EDGE_CURVE('',#489,#491,#258,.T.);
#615=EDGE_CURVE('',#492,#490,#259,.T.);
#616=EDGE_CURVE('',#491,#492,#260,.T.);
#617=EDGE_CURVE('',#491,#493,#261,.T.);
#618=EDGE_CURVE('',#494,#492,#262,.T.);
#619=EDGE_CURVE('',#493,#494,#263,.T.);
#620=EDGE_CURVE('',#495,#493,#264,.T.);
#621=EDGE_CURVE('',#496,#494,#265,.T.);
#622=EDGE_CURVE('',#495,#496,#266,.T.);
#623=EDGE_CURVE('',#497,#495,#267,.T.);
#624=EDGE_CURVE('',#498,#496,#268,.T.);
#625=EDGE_CURVE('',#497,#498,#269,.T.);
#626=EDGE_CURVE('',#499,#497,#270,.T.);
#627=EDGE_CURVE('',#500,#498,#271,.T.);
#628=EDGE_CURVE('',#499,#500,#272,.T.);
#629=EDGE_CURVE('',#499,#501,#273,.T.);
#630=EDGE_CURVE('',#502,#500,#274,.T.);
#631=EDGE_CURVE('',#501,#502,#275,.T.);
#632=EDGE_CURVE('',#503,#501,#417,.T.);
#633=EDGE_CURVE('',#504,#502,#418,.T.);
#634=EDGE_CURVE('',#503,#504,#276,.T.);
#635=EDGE_CURVE('',#505,#503,#277,.T.);
#636=EDGE_CURVE('',#506,#504,#278,.T.);
#637=EDGE_CURVE('',#505,#506,#279,.T.);
#638=EDGE_CURVE('',#507,#505,#280,.T.);
#639=EDGE_CURVE('',#508,#506,#281,.T.);
#640=EDGE_CURVE('',#507,#508,#282,.T.);
#641=EDGE_CURVE('',#509,#507,#283,.T.);
#642=EDGE_CURVE('',#510,#508,#284,.T.);
#643=EDGE_CURVE('',#509,#510,#285,.T.);
#644=EDGE_CURVE('',#423,#509,#419,.T.);
#645=EDGE_CURVE('',#425,#510,#420,.T.);
#646=ORIENTED_EDGE('',*,*,#511,.F.);
#647=ORIENTED_EDGE('',*,*,#512,.T.);
#648=ORIENTED_EDGE('',*,*,#513,.T.);
#649=ORIENTED_EDGE('',*,*,#512,.F.);
#650=ORIENTED_EDGE('',*,*,#514,.F.);
#651=ORIENTED_EDGE('',*,*,#515,.T.);
#652=ORIENTED_EDGE('',*,*,#516,.F.);
#653=ORIENTED_EDGE('',*,*,#517,.F.);
#654=ORIENTED_EDGE('',*,*,#518,.T.);
#655=ORIENTED_EDGE('',*,*,#517,.T.);
#656=ORIENTED_EDGE('',*,*,#519,.F.);
#657=ORIENTED_EDGE('',*,*,#520,.F.);
#658=ORIENTED_EDGE('',*,*,#521,.T.);
#659=ORIENTED_EDGE('',*,*,#520,.T.);
#660=ORIENTED_EDGE('',*,*,#522,.F.);
#661=ORIENTED_EDGE('',*,*,#523,.F.);
#662=ORIENTED_EDGE('',*,*,#524,.T.);
#663=ORIENTED_EDGE('',*,*,#523,.T.);
#664=ORIENTED_EDGE('',*,*,#525,.F.);
#665=ORIENTED_EDGE('',*,*,#526,.F.);
#666=ORIENTED_EDGE('',*,*,#527,.F.);
#667=ORIENTED_EDGE('',*,*,#526,.T.);
#668=ORIENTED_EDGE('',*,*,#528,.F.);
#669=ORIENTED_EDGE('',*,*,#529,.F.);
#670=ORIENTED_EDGE('',*,*,#530,.T.);
#671=ORIENTED_EDGE('',*,*,#529,.T.);
#672=ORIENTED_EDGE('',*,*,#531,.F.);
#673=ORIENTED_EDGE('',*,*,#532,.F.);
#674=ORIENTED_EDGE('',*,*,#533,.T.);
#675=ORIENTED_EDGE('',*,*,#532,.T.);
#676=ORIENTED_EDGE('',*,*,#534,.F.);
#677=ORIENTED_EDGE('',*,*,#535,.F.);
#678=ORIENTED_EDGE('',*,*,#536,.T.);
#679=ORIENTED_EDGE('',*,*,#535,.T.);
#680=ORIENTED_EDGE('',*,*,#537,.F.);
#681=ORIENTED_EDGE('',*,*,#538,.F.);
#682=ORIENTED_EDGE('',*,*,#539,.F.);
#683=ORIENTED_EDGE('',*,*,#538,.T.);
#684=ORIENTED_EDGE('',*,*,#540,.F.);
#685=ORIENTED_EDGE('',*,*,#541,.F.);
#686=ORIENTED_EDGE('',*,*,#542,.F.);
#687=ORIENTED_EDGE('',*,*,#541,.T.);
#688=ORIENTED_EDGE('',*,*,#543,.F.);
#689=ORIENTED_EDGE('',*,*,#544,.F.);
#690=ORIENTED_EDGE('',*,*,#545,.F.);
#691=ORIENTED_EDGE('',*,*,#544,.T.);
#692=ORIENTED_EDGE('',*,*,#546,.F.);
#693=ORIENTED_EDGE('',*,*,#547,.F.);
#694=ORIENTED_EDGE('',*,*,#548,.F.);
#695=ORIENTED_EDGE('',*,*,#547,.T.);
#696=ORIENTED_EDGE('',*,*,#549,.F.);
#697=ORIENTED_EDGE('',*,*,#550,.F.);
#698=ORIENTED_EDGE('',*,*,#551,.F.);
#699=ORIENTED_EDGE('',*,*,#550,.T.);
#700=ORIENTED_EDGE('',*,*,#552,.F.);
#701=ORIENTED_EDGE('',*,*,#553,.F.);
#702=ORIENTED_EDGE('',*,*,#554,.T.);
#703=ORIENTED_EDGE('',*,*,#553,.T.);
#704=ORIENTED_EDGE('',*,*,#555,.F.);
#705=ORIENTED_EDGE('',*,*,#556,.F.);
#706=ORIENTED_EDGE('',*,*,#557,.F.);
#707=ORIENTED_EDGE('',*,*,#556,.T.);
#708=ORIENTED_EDGE('',*,*,#558,.F.);
#709=ORIENTED_EDGE('',*,*,#559,.F.);
#710=ORIENTED_EDGE('',*,*,#560,.F.);
#711=ORIENTED_EDGE('',*,*,#559,.T.);
#712=ORIENTED_EDGE('',*,*,#561,.F.);
#713=ORIENTED_EDGE('',*,*,#562,.F.);
#714=ORIENTED_EDGE('',*,*,#563,.F.);
#715=ORIENTED_EDGE('',*,*,#562,.T.);
#716=ORIENTED_EDGE('',*,*,#564,.F.);
#717=ORIENTED_EDGE('',*,*,#565,.F.);
#718=ORIENTED_EDGE('',*,*,#566,.T.);
#719=ORIENTED_EDGE('',*,*,#565,.T.);
#720=ORIENTED_EDGE('',*,*,#567,.F.);
#721=ORIENTED_EDGE('',*,*,#568,.F.);
#722=ORIENTED_EDGE('',*,*,#569,.F.);
#723=ORIENTED_EDGE('',*,*,#568,.T.);
#724=ORIENTED_EDGE('',*,*,#570,.F.);
#725=ORIENTED_EDGE('',*,*,#571,.F.);
#726=ORIENTED_EDGE('',*,*,#572,.F.);
#727=ORIENTED_EDGE('',*,*,#571,.T.);
#728=ORIENTED_EDGE('',*,*,#573,.F.);
#729=ORIENTED_EDGE('',*,*,#574,.F.);
#730=ORIENTED_EDGE('',*,*,#575,.F.);
#731=ORIENTED_EDGE('',*,*,#574,.T.);
#732=ORIENTED_EDGE('',*,*,#576,.F.);
#733=ORIENTED_EDGE('',*,*,#577,.F.);
#734=ORIENTED_EDGE('',*,*,#578,.T.);
#735=ORIENTED_EDGE('',*,*,#577,.T.);
#736=ORIENTED_EDGE('',*,*,#579,.F.);
#737=ORIENTED_EDGE('',*,*,#580,.F.);
#738=ORIENTED_EDGE('',*,*,#581,.T.);
#739=ORIENTED_EDGE('',*,*,#580,.T.);
#740=ORIENTED_EDGE('',*,*,#582,.F.);
#741=ORIENTED_EDGE('',*,*,#583,.F.);
#742=ORIENTED_EDGE('',*,*,#584,.T.);
#743=ORIENTED_EDGE('',*,*,#583,.T.);
#744=ORIENTED_EDGE('',*,*,#585,.F.);
#745=ORIENTED_EDGE('',*,*,#586,.F.);
#746=ORIENTED_EDGE('',*,*,#587,.T.);
#747=ORIENTED_EDGE('',*,*,#586,.T.);
#748=ORIENTED_EDGE('',*,*,#588,.F.);
#749=ORIENTED_EDGE('',*,*,#589,.F.);
#750=ORIENTED_EDGE('',*,*,#590,.T.);
#751=ORIENTED_EDGE('',*,*,#589,.T.);
#752=ORIENTED_EDGE('',*,*,#591,.F.);
#753=ORIENTED_EDGE('',*,*,#592,.F.);
#754=ORIENTED_EDGE('',*,*,#593,.F.);
#755=ORIENTED_EDGE('',*,*,#592,.T.);
#756=ORIENTED_EDGE('',*,*,#594,.F.);
#757=ORIENTED_EDGE('',*,*,#595,.F.);
#758=ORIENTED_EDGE('',*,*,#596,.T.);
#759=ORIENTED_EDGE('',*,*,#595,.T.);
#760=ORIENTED_EDGE('',*,*,#597,.F.);
#761=ORIENTED_EDGE('',*,*,#598,.F.);
#762=ORIENTED_EDGE('',*,*,#599,.T.);
#763=ORIENTED_EDGE('',*,*,#598,.T.);
#764=ORIENTED_EDGE('',*,*,#600,.F.);
#765=ORIENTED_EDGE('',*,*,#601,.F.);
#766=ORIENTED_EDGE('',*,*,#602,.T.);
#767=ORIENTED_EDGE('',*,*,#601,.T.);
#768=ORIENTED_EDGE('',*,*,#603,.F.);
#769=ORIENTED_EDGE('',*,*,#604,.F.);
#770=ORIENTED_EDGE('',*,*,#605,.F.);
#771=ORIENTED_EDGE('',*,*,#604,.T.);
#772=ORIENTED_EDGE('',*,*,#606,.F.);
#773=ORIENTED_EDGE('',*,*,#607,.F.);
#774=ORIENTED_EDGE('',*,*,#608,.F.);
#775=ORIENTED_EDGE('',*,*,#607,.T.);
#776=ORIENTED_EDGE('',*,*,#609,.F.);
#777=ORIENTED_EDGE('',*,*,#610,.F.);
#778=ORIENTED_EDGE('',*,*,#611,.F.);
#779=ORIENTED_EDGE('',*,*,#610,.T.);
#780=ORIENTED_EDGE('',*,*,#612,.F.);
#781=ORIENTED_EDGE('',*,*,#613,.F.);
#782=ORIENTED_EDGE('',*,*,#614,.F.);
#783=ORIENTED_EDGE('',*,*,#613,.T.);
#784=ORIENTED_EDGE('',*,*,#615,.F.);
#785=ORIENTED_EDGE('',*,*,#616,.F.);
#786=ORIENTED_EDGE('',*,*,#617,.F.);
#787=ORIENTED_EDGE('',*,*,#616,.T.);
#788=ORIENTED_EDGE('',*,*,#618,.F.);
#789=ORIENTED_EDGE('',*,*,#619,.F.);
#790=ORIENTED_EDGE('',*,*,#620,.T.);
#791=ORIENTED_EDGE('',*,*,#619,.T.);
#792=ORIENTED_EDGE('',*,*,#621,.F.);
#793=ORIENTED_EDGE('',*,*,#622,.F.);
#794=ORIENTED_EDGE('',*,*,#623,.T.);
#795=ORIENTED_EDGE('',*,*,#622,.T.);
#796=ORIENTED_EDGE('',*,*,#624,.F.);
#797=ORIENTED_EDGE('',*,*,#625,.F.);
#798=ORIENTED_EDGE('',*,*,#626,.T.);
#799=ORIENTED_EDGE('',*,*,#625,.T.);
#800=ORIENTED_EDGE('',*,*,#627,.F.);
#801=ORIENTED_EDGE('',*,*,#628,.F.);
#802=ORIENTED_EDGE('',*,*,#629,.F.);
#803=ORIENTED_EDGE('',*,*,#628,.T.);
#804=ORIENTED_EDGE('',*,*,#630,.F.);
#805=ORIENTED_EDGE('',*,*,#631,.F.);
#806=ORIENTED_EDGE('',*,*,#632,.T.);
#807=ORIENTED_EDGE('',*,*,#631,.T.);
#808=ORIENTED_EDGE('',*,*,#633,.F.);
#809=ORIENTED_EDGE('',*,*,#634,.F.);
#810=ORIENTED_EDGE('',*,*,#635,.T.);
#811=ORIENTED_EDGE('',*,*,#634,.T.);
#812=ORIENTED_EDGE('',*,*,#636,.F.);
#813=ORIENTED_EDGE('',*,*,#637,.F.);
#814=ORIENTED_EDGE('',*,*,#638,.T.);
#815=ORIENTED_EDGE('',*,*,#637,.T.);
#816=ORIENTED_EDGE('',*,*,#639,.F.);
#817=ORIENTED_EDGE('',*,*,#640,.F.);
#818=ORIENTED_EDGE('',*,*,#641,.T.);
#819=ORIENTED_EDGE('',*,*,#640,.T.);
#820=ORIENTED_EDGE('',*,*,#642,.F.);
#821=ORIENTED_EDGE('',*,*,#643,.F.);
#822=ORIENTED_EDGE('',*,*,#644,.T.);
#823=ORIENTED_EDGE('',*,*,#643,.T.);
#824=ORIENTED_EDGE('',*,*,#645,.F.);
#825=ORIENTED_EDGE('',*,*,#515,.F.);
#826=ORIENTED_EDGE('',*,*,#645,.T.);
#827=ORIENTED_EDGE('',*,*,#642,.T.);
#828=ORIENTED_EDGE('',*,*,#639,.T.);
#829=ORIENTED_EDGE('',*,*,#636,.T.);
#830=ORIENTED_EDGE('',*,*,#633,.T.);
#831=ORIENTED_EDGE('',*,*,#630,.T.);
#832=ORIENTED_EDGE('',*,*,#627,.T.);
#833=ORIENTED_EDGE('',*,*,#624,.T.);
#834=ORIENTED_EDGE('',*,*,#621,.T.);
#835=ORIENTED_EDGE('',*,*,#618,.T.);
#836=ORIENTED_EDGE('',*,*,#615,.T.);
#837=ORIENTED_EDGE('',*,*,#612,.T.);
#838=ORIENTED_EDGE('',*,*,#609,.T.);
#839=ORIENTED_EDGE('',*,*,#606,.T.);
#840=ORIENTED_EDGE('',*,*,#603,.T.);
#841=ORIENTED_EDGE('',*,*,#600,.T.);
#842=ORIENTED_EDGE('',*,*,#597,.T.);
#843=ORIENTED_EDGE('',*,*,#594,.T.);
#844=ORIENTED_EDGE('',*,*,#591,.T.);
#845=ORIENTED_EDGE('',*,*,#588,.T.);
#846=ORIENTED_EDGE('',*,*,#585,.T.);
#847=ORIENTED_EDGE('',*,*,#582,.T.);
#848=ORIENTED_EDGE('',*,*,#579,.T.);
#849=ORIENTED_EDGE('',*,*,#576,.T.);
#850=ORIENTED_EDGE('',*,*,#573,.T.);
#851=ORIENTED_EDGE('',*,*,#570,.T.);
#852=ORIENTED_EDGE('',*,*,#567,.T.);
#853=ORIENTED_EDGE('',*,*,#564,.T.);
#854=ORIENTED_EDGE('',*,*,#561,.T.);
#855=ORIENTED_EDGE('',*,*,#558,.T.);
#856=ORIENTED_EDGE('',*,*,#555,.T.);
#857=ORIENTED_EDGE('',*,*,#552,.T.);
#858=ORIENTED_EDGE('',*,*,#549,.T.);
#859=ORIENTED_EDGE('',*,*,#546,.T.);
#860=ORIENTED_EDGE('',*,*,#543,.T.);
#861=ORIENTED_EDGE('',*,*,#540,.T.);
#862=ORIENTED_EDGE('',*,*,#537,.T.);
#863=ORIENTED_EDGE('',*,*,#534,.T.);
#864=ORIENTED_EDGE('',*,*,#531,.T.);
#865=ORIENTED_EDGE('',*,*,#528,.T.);
#866=ORIENTED_EDGE('',*,*,#525,.T.);
#867=ORIENTED_EDGE('',*,*,#522,.T.);
#868=ORIENTED_EDGE('',*,*,#519,.T.);
#869=ORIENTED_EDGE('',*,*,#516,.T.);
#870=ORIENTED_EDGE('',*,*,#511,.T.);
#871=ORIENTED_EDGE('',*,*,#644,.F.);
#872=ORIENTED_EDGE('',*,*,#514,.T.);
#873=ORIENTED_EDGE('',*,*,#518,.F.);
#874=ORIENTED_EDGE('',*,*,#521,.F.);
#875=ORIENTED_EDGE('',*,*,#524,.F.);
#876=ORIENTED_EDGE('',*,*,#527,.T.);
#877=ORIENTED_EDGE('',*,*,#530,.F.);
#878=ORIENTED_EDGE('',*,*,#533,.F.);
#879=ORIENTED_EDGE('',*,*,#536,.F.);
#880=ORIENTED_EDGE('',*,*,#539,.T.);
#881=ORIENTED_EDGE('',*,*,#542,.T.);
#882=ORIENTED_EDGE('',*,*,#545,.T.);
#883=ORIENTED_EDGE('',*,*,#548,.T.);
#884=ORIENTED_EDGE('',*,*,#551,.T.);
#885=ORIENTED_EDGE('',*,*,#554,.F.);
#886=ORIENTED_EDGE('',*,*,#557,.T.);
#887=ORIENTED_EDGE('',*,*,#560,.T.);
#888=ORIENTED_EDGE('',*,*,#563,.T.);
#889=ORIENTED_EDGE('',*,*,#566,.F.);
#890=ORIENTED_EDGE('',*,*,#569,.T.);
#891=ORIENTED_EDGE('',*,*,#572,.T.);
#892=ORIENTED_EDGE('',*,*,#575,.T.);
#893=ORIENTED_EDGE('',*,*,#578,.F.);
#894=ORIENTED_EDGE('',*,*,#581,.F.);
#895=ORIENTED_EDGE('',*,*,#584,.F.);
#896=ORIENTED_EDGE('',*,*,#587,.F.);
#897=ORIENTED_EDGE('',*,*,#590,.F.);
#898=ORIENTED_EDGE('',*,*,#593,.T.);
#899=ORIENTED_EDGE('',*,*,#596,.F.);
#900=ORIENTED_EDGE('',*,*,#599,.F.);
#901=ORIENTED_EDGE('',*,*,#602,.F.);
#902=ORIENTED_EDGE('',*,*,#605,.T.);
#903=ORIENTED_EDGE('',*,*,#608,.T.);
#904=ORIENTED_EDGE('',*,*,#611,.T.);
#905=ORIENTED_EDGE('',*,*,#614,.T.);
#906=ORIENTED_EDGE('',*,*,#617,.T.);
#907=ORIENTED_EDGE('',*,*,#620,.F.);
#908=ORIENTED_EDGE('',*,*,#623,.F.);
#909=ORIENTED_EDGE('',*,*,#626,.F.);
#910=ORIENTED_EDGE('',*,*,#629,.T.);
#911=ORIENTED_EDGE('',*,*,#632,.F.);
#912=ORIENTED_EDGE('',*,*,#635,.F.);
#913=ORIENTED_EDGE('',*,*,#638,.F.);
#914=ORIENTED_EDGE('',*,*,#641,.F.);
#915=ORIENTED_EDGE('',*,*,#513,.F.);
#916=CYLINDRICAL_SURFACE('',#980,19.5);
#917=CYLINDRICAL_SURFACE('',#1022,20.0000000000004);
#918=CYLINDRICAL_SURFACE('',#1028,20.0000000000004);
#919=ADVANCED_FACE('',(#61),#916,.F.);
#920=ADVANCED_FACE('',(#62),#17,.T.);
#921=ADVANCED_FACE('',(#63),#18,.T.);
#922=ADVANCED_FACE('',(#64),#19,.T.);
#923=ADVANCED_FACE('',(#65),#20,.T.);
#924=ADVANCED_FACE('',(#66),#21,.T.);
#925=ADVANCED_FACE('',(#67),#22,.T.);
#926=ADVANCED_FACE('',(#68),#23,.T.);
#927=ADVANCED_FACE('',(#69),#24,.T.);
#928=ADVANCED_FACE('',(#70),#25,.T.);
#929=ADVANCED_FACE('',(#71),#26,.T.);
#930=ADVANCED_FACE('',(#72),#27,.T.);
#931=ADVANCED_FACE('',(#73),#28,.T.);
#932=ADVANCED_FACE('',(#74),#29,.T.);
#933=ADVANCED_FACE('',(#75),#30,.T.);
#934=ADVANCED_FACE('',(#76),#31,.T.);
#935=ADVANCED_FACE('',(#77),#32,.T.);
#936=ADVANCED_FACE('',(#78),#33,.T.);
#937=ADVANCED_FACE('',(#79),#34,.T.);
#938=ADVANCED_FACE('',(#80),#35,.T.);
#939=ADVANCED_FACE('',(#81),#36,.T.);
#940=ADVANCED_FACE('',(#82),#37,.T.);
#941=ADVANCED_FACE('',(#83),#38,.T.);
#942=ADVANCED_FACE('',(#84),#39,.T.);
#943=ADVANCED_FACE('',(#85),#40,.T.);
#944=ADVANCED_FACE('',(#86),#41,.T.);
#945=ADVANCED_FACE('',(#87),#42,.T.);
#946=ADVANCED_FACE('',(#88),#43,.T.);
#947=ADVANCED_FACE('',(#89),#44,.T.);
#948=ADVANCED_FACE('',(#90),#45,.T.);
#949=ADVANCED_FACE('',(#91),#46,.T.);
#950=ADVANCED_FACE('',(#92),#47,.T.);
#951=ADVANCED_FACE('',(#93),#48,.T.);
#952=ADVANCED_FACE('',(#94),#49,.T.);
#953=ADVANCED_FACE('',(#95),#50,.T.);
#954=ADVANCED_FACE('',(#96),#51,.T.);
#955=ADVANCED_FACE('',(#97),#52,.T.);
#956=ADVANCED_FACE('',(#98),#53,.T.);
#957=ADVANCED_FACE('',(#99),#54,.T.);
#958=ADVANCED_FACE('',(#100),#55,.T.);
#959=ADVANCED_FACE('',(#101),#917,.T.);
#960=ADVANCED_FACE('',(#102),#56,.T.);
#961=ADVANCED_FACE('',(#103),#57,.T.);
#962=ADVANCED_FACE('',(#104),#58,.T.);
#963=ADVANCED_FACE('',(#105),#918,.T.);
#964=ADVANCED_FACE('',(#106,#15),#59,.T.);
#965=ADVANCED_FACE('',(#107,#16),#60,.F.);
#966=CLOSED_SHELL('',(#919,#920,#921,#922,#923,#924,#925,#926,#927,#928,
#929,#930,#931,#932,#933,#934,#935,#936,#937,#938,#939,#940,#941,#942,#943,
#944,#945,#946,#947,#948,#949,#950,#951,#952,#953,#954,#955,#956,#957,#958,
#959,#960,#961,#962,#963,#964,#965));
#967=DERIVED_UNIT_ELEMENT(#969,1.);
#968=DERIVED_UNIT_ELEMENT(#1548,-3.);
#969=(
MASS_UNIT()
NAMED_UNIT(*)
SI_UNIT(.KILO.,.GRAM.)
);
#970=DERIVED_UNIT((#967,#968));
#971=MEASURE_REPRESENTATION_ITEM('density measure',
POSITIVE_RATIO_MEASURE(7850.),#970);
#972=PROPERTY_DEFINITION_REPRESENTATION(#977,#974);
#973=PROPERTY_DEFINITION_REPRESENTATION(#978,#975);
#974=REPRESENTATION('material name',(#976),#1545);
#975=REPRESENTATION('density',(#971),#1545);
#976=DESCRIPTIVE_REPRESENTATION_ITEM('Steel','Steel');
#977=PROPERTY_DEFINITION('material property','material name',#1555);
#978=PROPERTY_DEFINITION('material property','density of part',#1555);
#979=AXIS2_PLACEMENT_3D('',#1270,#1033,#1034);
#980=AXIS2_PLACEMENT_3D('',#1271,#1035,#1036);
#981=AXIS2_PLACEMENT_3D('',#1273,#1037,#1038);
#982=AXIS2_PLACEMENT_3D('',#1276,#1040,#1041);
#983=AXIS2_PLACEMENT_3D('',#1277,#1042,#1043);
#984=AXIS2_PLACEMENT_3D('',#1286,#1048,#1049);
#985=AXIS2_PLACEMENT_3D('',#1292,#1053,#1054);
#986=AXIS2_PLACEMENT_3D('',#1298,#1058,#1059);
#987=AXIS2_PLACEMENT_3D('',#1304,#1063,#1064);
#988=AXIS2_PLACEMENT_3D('',#1310,#1068,#1069);
#989=AXIS2_PLACEMENT_3D('',#1316,#1073,#1074);
#990=AXIS2_PLACEMENT_3D('',#1322,#1078,#1079);
#991=AXIS2_PLACEMENT_3D('',#1328,#1083,#1084);
#992=AXIS2_PLACEMENT_3D('',#1334,#1088,#1089);
#993=AXIS2_PLACEMENT_3D('',#1340,#1093,#1094);
#994=AXIS2_PLACEMENT_3D('',#1346,#1098,#1099);
#995=AXIS2_PLACEMENT_3D('',#1352,#1103,#1104);
#996=AXIS2_PLACEMENT_3D('',#1358,#1108,#1109);
#997=AXIS2_PLACEMENT_3D('',#1364,#1113,#1114);
#998=AXIS2_PLACEMENT_3D('',#1370,#1118,#1119);
#999=AXIS2_PLACEMENT_3D('',#1376,#1123,#1124);
#1000=AXIS2_PLACEMENT_3D('',#1382,#1128,#1129);
#1001=AXIS2_PLACEMENT_3D('',#1388,#1133,#1134);
#1002=AXIS2_PLACEMENT_3D('',#1394,#1138,#1139);
#1003=AXIS2_PLACEMENT_3D('',#1400,#1143,#1144);
#1004=AXIS2_PLACEMENT_3D('',#1406,#1148,#1149);
#1005=AXIS2_PLACEMENT_3D('',#1412,#1153,#1154);
#1006=AXIS2_PLACEMENT_3D('',#1418,#1158,#1159);
#1007=AXIS2_PLACEMENT_3D('',#1424,#1163,#1164);
#1008=AXIS2_PLACEMENT_3D('',#1430,#1168,#1169);
#1009=AXIS2_PLACEMENT_3D('',#1436,#1173,#1174);
#1010=AXIS2_PLACEMENT_3D('',#1442,#1178,#1179);
#1011=AXIS2_PLACEMENT_3D('',#1448,#1183,#1184);
#1012=AXIS2_PLACEMENT_3D('',#1454,#1188,#1189);
#1013=AXIS2_PLACEMENT_3D('',#1460,#1193,#1194);
#1014=AXIS2_PLACEMENT_3D('',#1466,#1198,#1199);
#1015=AXIS2_PLACEMENT_3D('',#1472,#1203,#1204);
#1016=AXIS2_PLACEMENT_3D('',#1478,#1208,#1209);
#1017=AXIS2_PLACEMENT_3D('',#1484,#1213,#1214);
#1018=AXIS2_PLACEMENT_3D('',#1490,#1218,#1219);
#1019=AXIS2_PLACEMENT_3D('',#1496,#1223,#1224);
#1020=AXIS2_PLACEMENT_3D('',#1502,#1228,#1229);
#1021=AXIS2_PLACEMENT_3D('',#1508,#1233,#1234);
#1022=AXIS2_PLACEMENT_3D('',#1514,#1238,#1239);
#1023=AXIS2_PLACEMENT_3D('',#1516,#1240,#1241);
#1024=AXIS2_PLACEMENT_3D('',#1518,#1242,#1243);
#1025=AXIS2_PLACEMENT_3D('',#1520,#1245,#1246);
#1026=AXIS2_PLACEMENT_3D('',#1526,#1250,#1251);
#1027=AXIS2_PLACEMENT_3D('',#1532,#1255,#1256);
#1028=AXIS2_PLACEMENT_3D('',#1538,#1260,#1261);
#1029=AXIS2_PLACEMENT_3D('',#1539,#1262,#1263);
#1030=AXIS2_PLACEMENT_3D('',#1540,#1264,#1265);
#1031=AXIS2_PLACEMENT_3D('',#1541,#1266,#1267);
#1032=AXIS2_PLACEMENT_3D('',#1542,#1268,#1269);
#1033=DIRECTION('axis',(0.,0.,1.));
#1034=DIRECTION('refdir',(1.,0.,0.));
#1035=DIRECTION('center_axis',(0.,-1.,0.));
#1036=DIRECTION('ref_axis',(1.,0.,0.));
#1037=DIRECTION('center_axis',(0.,1.,-2.35922392732846E-16));
#1038=DIRECTION('ref_axis',(1.,0.,0.));
#1039=DIRECTION('',(0.,1.,0.));
#1040=DIRECTION('center_axis',(0.,1.,-2.35922392732846E-16));
#1041=DIRECTION('ref_axis',(1.,0.,0.));
#1042=DIRECTION('center_axis',(0.977352667250009,0.,0.21161702157268));
#1043=DIRECTION('ref_axis',(-0.21161702157268,2.30579379801451E-16,0.977352667250009));
#1044=DIRECTION('',(0.21161702157268,-2.30579379801451E-16,-0.977352667250009));
#1045=DIRECTION('',(0.,-1.,0.));
#1046=DIRECTION('',(-0.21161702157268,2.30579379801451E-16,0.977352667250009));
#1047=DIRECTION('',(0.,-1.,0.));
#1048=DIRECTION('center_axis',(0.,0.,-1.));
#1049=DIRECTION('ref_axis',(1.,0.,0.));
#1050=DIRECTION('',(1.,0.,0.));
#1051=DIRECTION('',(1.,0.,0.));
#1052=DIRECTION('',(0.,-1.,0.));
#1053=DIRECTION('center_axis',(1.,0.,1.27611841910937E-15));
#1054=DIRECTION('ref_axis',(-1.27611841910937E-15,2.35922392732846E-16,
1.));
#1055=DIRECTION('',(-1.27611841910937E-15,2.35922392732846E-16,1.));
#1056=DIRECTION('',(-1.27611841910937E-15,2.35922392732846E-16,1.));
#1057=DIRECTION('',(0.,-1.,0.));
#1058=DIRECTION('center_axis',(0.,0.,1.));
#1059=DIRECTION('ref_axis',(-1.,0.,0.));
#1060=DIRECTION('',(-1.,0.,0.));
#1061=DIRECTION('',(-1.,0.,0.));
#1062=DIRECTION('',(0.,-1.,0.));
#1063=DIRECTION('center_axis',(0.977352667250009,0.,0.21161702157268));
#1064=DIRECTION('ref_axis',(-0.21161702157268,2.30579379801451E-16,0.977352667250009));
#1065=DIRECTION('',(0.21161702157268,-2.30579379801451E-16,-0.977352667250009));
#1066=DIRECTION('',(-0.21161702157268,2.30579379801451E-16,0.977352667250009));
#1067=DIRECTION('',(0.,-1.,0.));
#1068=DIRECTION('center_axis',(0.,0.,-1.));
#1069=DIRECTION('ref_axis',(1.,0.,0.));
#1070=DIRECTION('',(1.,0.,0.));
#1071=DIRECTION('',(1.,0.,0.));
#1072=DIRECTION('',(0.,-1.,0.));
#1073=DIRECTION('center_axis',(1.,0.,1.27611841910938E-15));
#1074=DIRECTION('ref_axis',(-1.27611841910938E-15,2.35922392732846E-16,
1.));
#1075=DIRECTION('',(-1.27611841910938E-15,2.35922392732846E-16,1.));
#1076=DIRECTION('',(-1.27611841910938E-15,2.35922392732846E-16,1.));
#1077=DIRECTION('',(0.,-1.,0.));
#1078=DIRECTION('center_axis',(0.,0.,1.));
#1079=DIRECTION('ref_axis',(-1.,0.,0.));
#1080=DIRECTION('',(-1.,0.,0.));
#1081=DIRECTION('',(-1.,0.,0.));
#1082=DIRECTION('',(0.,-1.,0.));
#1083=DIRECTION('center_axis',(0.977352667250009,0.,0.21161702157268));
#1084=DIRECTION('ref_axis',(-0.21161702157268,2.30579379801451E-16,0.977352667250009));
#1085=DIRECTION('',(0.21161702157268,-2.30579379801451E-16,-0.977352667250009));
#1086=DIRECTION('',(-0.21161702157268,2.30579379801451E-16,0.977352667250009));
#1087=DIRECTION('',(0.,-1.,0.));
#1088=DIRECTION('center_axis',(0.,0.,-1.));
#1089=DIRECTION('ref_axis',(1.,0.,0.));
#1090=DIRECTION('',(-1.,0.,0.));
#1091=DIRECTION('',(1.,0.,0.));
#1092=DIRECTION('',(0.,-1.,0.));
#1093=DIRECTION('center_axis',(1.,0.,0.));
#1094=DIRECTION('ref_axis',(0.,2.35922392732846E-16,1.));
#1095=DIRECTION('',(0.,-2.35922392732846E-16,-1.));
#1096=DIRECTION('',(0.,2.35922392732846E-16,1.));
#1097=DIRECTION('',(0.,-1.,0.));
#1098=DIRECTION('center_axis',(0.,0.,1.));
#1099=DIRECTION('ref_axis',(-1.,0.,0.));
#1100=DIRECTION('',(1.,0.,0.));
#1101=DIRECTION('',(-1.,0.,0.));
#1102=DIRECTION('',(0.,-1.,0.));
#1103=DIRECTION('center_axis',(0.977352667250009,0.,0.21161702157268));
#1104=DIRECTION('ref_axis',(-0.21161702157268,2.30579379801451E-16,0.977352667250009));
#1105=DIRECTION('',(0.21161702157268,-2.30579379801451E-16,-0.977352667250009));
#1106=DIRECTION('',(-0.21161702157268,2.30579379801451E-16,0.977352667250009));
#1107=DIRECTION('',(0.,-1.,0.));
#1108=DIRECTION('center_axis',(2.46519032881566E-32,0.,-1.));
#1109=DIRECTION('ref_axis',(1.,5.81593600916062E-48,2.46519032881566E-32));
#1110=DIRECTION('',(1.,5.81593600916062E-48,2.46519032881566E-32));
#1111=DIRECTION('',(1.,5.81593600916062E-48,2.46519032881566E-32));
#1112=DIRECTION('',(0.,-1.,0.));
#1113=DIRECTION('center_axis',(1.,0.,0.));
#1114=DIRECTION('ref_axis',(0.,2.35922392732846E-16,1.));
#1115=DIRECTION('',(0.,-2.35922392732846E-16,-1.));
#1116=DIRECTION('',(0.,2.35922392732846E-16,1.));
#1117=DIRECTION('',(0.,-1.,0.));
#1118=DIRECTION('center_axis',(0.,0.,-1.));
#1119=DIRECTION('ref_axis',(1.,0.,0.));
#1120=DIRECTION('',(-1.,0.,0.));
#1121=DIRECTION('',(1.,0.,0.));
#1122=DIRECTION('',(0.,-1.,0.));
#1123=DIRECTION('center_axis',(-1.,0.,0.));
#1124=DIRECTION('ref_axis',(0.,-2.35922392732846E-16,-1.));
#1125=DIRECTION('',(0.,2.35922392732846E-16,1.));
#1126=DIRECTION('',(0.,-2.35922392732846E-16,-1.));
#1127=DIRECTION('',(0.,-1.,0.));
#1128=DIRECTION('center_axis',(0.,0.,-1.));
#1129=DIRECTION('ref_axis',(1.,0.,0.));
#1130=DIRECTION('',(1.,0.,0.));
#1131=DIRECTION('',(1.,0.,0.));
#1132=DIRECTION('',(0.,-1.,0.));
#1133=DIRECTION('center_axis',(1.,0.,0.));
#1134=DIRECTION('ref_axis',(0.,2.35922392732846E-16,1.));
#1135=DIRECTION('',(0.,-2.35922392732846E-16,-1.));
#1136=DIRECTION('',(0.,2.35922392732846E-16,1.));
#1137=DIRECTION('',(0.,-1.,0.));
#1138=DIRECTION('center_axis',(0.,0.,-1.));
#1139=DIRECTION('ref_axis',(1.,0.,0.));
#1140=DIRECTION('',(-1.,0.,0.));
#1141=DIRECTION('',(1.,0.,0.));
#1142=DIRECTION('',(0.,-1.,0.));
#1143=DIRECTION('center_axis',(-1.,0.,0.));
#1144=DIRECTION('ref_axis',(0.,-2.35922392732846E-16,-1.));
#1145=DIRECTION('',(0.,2.35922392732846E-16,1.));
#1146=DIRECTION('',(0.,-2.35922392732846E-16,-1.));
#1147=DIRECTION('',(0.,-1.,0.));
#1148=DIRECTION('center_axis',(0.,0.,-1.));
#1149=DIRECTION('ref_axis',(1.,0.,0.));
#1150=DIRECTION('',(1.,0.,0.));
#1151=DIRECTION('',(1.,0.,0.));
#1152=DIRECTION('',(0.,-1.,0.));
#1153=DIRECTION('center_axis',(1.,0.,0.));
#1154=DIRECTION('ref_axis',(0.,2.35922392732846E-16,1.));
#1155=DIRECTION('',(0.,2.35922392732846E-16,1.));
#1156=DIRECTION('',(0.,2.35922392732846E-16,1.));
#1157=DIRECTION('',(0.,-1.,0.));
#1158=DIRECTION('center_axis',(0.,0.,-1.));
#1159=DIRECTION('ref_axis',(1.,0.,0.));
#1160=DIRECTION('',(1.,0.,0.));
#1161=DIRECTION('',(1.,0.,0.));
#1162=DIRECTION('',(0.,-1.,0.));
#1163=DIRECTION('center_axis',(-1.,0.,0.));
#1164=DIRECTION('ref_axis',(0.,-2.35922392732846E-16,-1.));
#1165=DIRECTION('',(0.,-2.35922392732846E-16,-1.));
#1166=DIRECTION('',(0.,-2.35922392732846E-16,-1.));
#1167=DIRECTION('',(0.,-1.,0.));
#1168=DIRECTION('center_axis',(0.,0.,-1.));
#1169=DIRECTION('ref_axis',(1.,0.,0.));
#1170=DIRECTION('',(1.,0.,0.));
#1171=DIRECTION('',(1.,0.,0.));
#1172=DIRECTION('',(0.,-1.,0.));
#1173=DIRECTION('center_axis',(-0.977352667250009,0.,0.21161702157268));
#1174=DIRECTION('ref_axis',(-0.21161702157268,-2.30579379801451E-16,-0.977352667250009));
#1175=DIRECTION('',(0.21161702157268,2.30579379801451E-16,0.977352667250009));
#1176=DIRECTION('',(-0.21161702157268,-2.30579379801451E-16,-0.977352667250009));
#1177=DIRECTION('',(0.,-1.,0.));
#1178=DIRECTION('center_axis',(0.,0.,1.));
#1179=DIRECTION('ref_axis',(-1.,0.,0.));
#1180=DIRECTION('',(-1.,0.,0.));
#1181=DIRECTION('',(-1.,0.,0.));
#1182=DIRECTION('',(0.,-1.,0.));
#1183=DIRECTION('center_axis',(-1.,0.,0.));
#1184=DIRECTION('ref_axis',(0.,-2.35922392732846E-16,-1.));
#1185=DIRECTION('',(0.,-2.35922392732846E-16,-1.));
#1186=DIRECTION('',(0.,-2.35922392732846E-16,-1.));
#1187=DIRECTION('',(0.,-1.,0.));
#1188=DIRECTION('center_axis',(0.,0.,-1.));
#1189=DIRECTION('ref_axis',(1.,0.,0.));
#1190=DIRECTION('',(1.,0.,0.));
#1191=DIRECTION('',(1.,0.,0.));
#1192=DIRECTION('',(0.,-1.,0.));
#1193=DIRECTION('center_axis',(-0.977352667250009,0.,0.21161702157268));
#1194=DIRECTION('ref_axis',(-0.21161702157268,-2.30579379801451E-16,-0.977352667250009));
#1195=DIRECTION('',(0.21161702157268,2.30579379801451E-16,0.977352667250009));
#1196=DIRECTION('',(-0.21161702157268,-2.30579379801451E-16,-0.977352667250009));
#1197=DIRECTION('',(0.,-1.,0.));
#1198=DIRECTION('center_axis',(0.,0.,1.));
#1199=DIRECTION('ref_axis',(-1.,0.,0.));
#1200=DIRECTION('',(1.,0.,0.));
#1201=DIRECTION('',(-1.,0.,0.));
#1202=DIRECTION('',(0.,-1.,0.));
#1203=DIRECTION('center_axis',(-1.,0.,-1.27611841910938E-15));
#1204=DIRECTION('ref_axis',(1.27611841910938E-15,-2.35922392732846E-16,
-1.));
#1205=DIRECTION('',(-1.27611841910938E-15,2.35922392732846E-16,1.));
#1206=DIRECTION('',(1.27611841910938E-15,-2.35922392732846E-16,-1.));
#1207=DIRECTION('',(0.,-1.,0.));
#1208=DIRECTION('center_axis',(0.,0.,-1.));
#1209=DIRECTION('ref_axis',(1.,0.,0.));
#1210=DIRECTION('',(-1.,0.,0.));
#1211=DIRECTION('',(1.,0.,0.));
#1212=DIRECTION('',(0.,-1.,0.));
#1213=DIRECTION('center_axis',(-0.977352667250009,0.,0.21161702157268));
#1214=DIRECTION('ref_axis',(-0.21161702157268,-2.30579379801451E-16,-0.977352667250009));
#1215=DIRECTION('',(0.21161702157268,2.30579379801451E-16,0.977352667250009));
#1216=DIRECTION('',(-0.21161702157268,-2.30579379801451E-16,-0.977352667250009));
#1217=DIRECTION('',(0.,-1.,0.));
#1218=DIRECTION('center_axis',(0.,0.,1.));
#1219=DIRECTION('ref_axis',(-1.,0.,0.));
#1220=DIRECTION('',(-1.,0.,0.));
#1221=DIRECTION('',(-1.,0.,0.));
#1222=DIRECTION('',(0.,-1.,0.));
#1223=DIRECTION('center_axis',(-1.,0.,1.27611841910937E-15));
#1224=DIRECTION('ref_axis',(-1.27611841910937E-15,-2.35922392732846E-16,
-1.));
#1225=DIRECTION('',(-1.27611841910937E-15,-2.35922392732846E-16,-1.));
#1226=DIRECTION('',(-1.27611841910937E-15,-2.35922392732846E-16,-1.));
#1227=DIRECTION('',(0.,-1.,0.));
#1228=DIRECTION('center_axis',(0.,0.,-1.));
#1229=DIRECTION('ref_axis',(1.,0.,0.));
#1230=DIRECTION('',(1.,0.,0.));
#1231=DIRECTION('',(1.,0.,0.));
#1232=DIRECTION('',(0.,-1.,0.));
#1233=DIRECTION('center_axis',(-0.977352667250009,0.,0.21161702157268));
#1234=DIRECTION('ref_axis',(-0.21161702157268,-2.30579379801451E-16,-0.977352667250009));
#1235=DIRECTION('',(0.21161702157268,2.30579379801451E-16,0.977352667250009));
#1236=DIRECTION('',(-0.21161702157268,-2.30579379801451E-16,-0.977352667250009));
#1237=DIRECTION('',(0.,-1.,0.));
#1238=DIRECTION('center_axis',(0.,-1.,0.));
#1239=DIRECTION('ref_axis',(0.977352667250009,0.,0.211617021572682));
#1240=DIRECTION('center_axis',(0.,-1.,2.35922392732846E-16));
#1241=DIRECTION('ref_axis',(0.977352667250009,4.99251940724252E-17,0.211617021572682));
#1242=DIRECTION('center_axis',(0.,-1.,2.35922392732846E-16));
#1243=DIRECTION('ref_axis',(0.977352667250009,4.99251940724252E-17,0.211617021572682));
#1244=DIRECTION('',(0.,-1.,0.));
#1245=DIRECTION('center_axis',(1.,0.,0.));
#1246=DIRECTION('ref_axis',(0.,2.35922392732846E-16,1.));
#1247=DIRECTION('',(0.,2.35922392732846E-16,1.));
#1248=DIRECTION('',(0.,2.35922392732846E-16,1.));
#1249=DIRECTION('',(0.,-1.,0.));
#1250=DIRECTION('center_axis',(0.,0.,1.));
#1251=DIRECTION('ref_axis',(-1.,0.,0.));
#1252=DIRECTION('',(-1.,0.,0.));
#1253=DIRECTION('',(-1.,0.,0.));
#1254=DIRECTION('',(0.,-1.,0.));
#1255=DIRECTION('center_axis',(-1.,0.,0.));
#1256=DIRECTION('ref_axis',(0.,-2.35922392732846E-16,-1.));
#1257=DIRECTION('',(0.,-2.35922392732846E-16,-1.));
#1258=DIRECTION('',(0.,-2.35922392732846E-16,-1.));
#1259=DIRECTION('',(0.,-1.,0.));
#1260=DIRECTION('center_axis',(0.,-1.,0.));
#1261=DIRECTION('ref_axis',(0.977352667250009,0.,0.211617021572682));
#1262=DIRECTION('center_axis',(0.,-1.,2.35922392732846E-16));
#1263=DIRECTION('ref_axis',(0.977352667250009,4.99251940724252E-17,0.211617021572682));
#1264=DIRECTION('center_axis',(0.,-1.,2.35922392732846E-16));
#1265=DIRECTION('ref_axis',(0.977352667250009,4.99251940724252E-17,0.211617021572682));
#1266=DIRECTION('center_axis',(0.,-1.,2.35922392732846E-16));
#1267=DIRECTION('ref_axis',(1.,0.,0.));
#1268=DIRECTION('center_axis',(0.,-1.,2.35922392732846E-16));
#1269=DIRECTION('ref_axis',(1.,0.,0.));
#1270=CARTESIAN_POINT('',(0.,0.,0.));
#1271=CARTESIAN_POINT('Origin',(0.,-350.,125.));
#1272=CARTESIAN_POINT('',(-19.5,-353.48,125.));
#1273=CARTESIAN_POINT('Origin',(0.,-353.48,125.));
#1274=CARTESIAN_POINT('',(-19.5,-350.,125.));
#1275=CARTESIAN_POINT('',(-19.5,-350.,125.));
#1276=CARTESIAN_POINT('Origin',(0.,-350.,125.));
#1277=CARTESIAN_POINT('Origin',(39.7596509023964,-350.,93.4800000000001));
#1278=CARTESIAN_POINT('',(19.5470533450005,-350.,186.83182958327));
#1279=CARTESIAN_POINT('',(39.7596509023964,-350.,93.4800000000001));
#1280=CARTESIAN_POINT('',(19.5470533450005,-350.,186.83182958327));
#1281=CARTESIAN_POINT('',(19.5470533450005,-353.48,186.83182958327));
#1282=CARTESIAN_POINT('',(19.5470533450005,-350.,186.83182958327));
#1283=CARTESIAN_POINT('',(39.7596509023964,-353.48,93.4800000000001));
#1284=CARTESIAN_POINT('',(19.5470533450005,-353.48,186.83182958327));
#1285=CARTESIAN_POINT('',(39.7596509023964,-350.,93.4800000000001));
#1286=CARTESIAN_POINT('Origin',(25.5131427173265,-350.,93.4800000000001));
#1287=CARTESIAN_POINT('',(25.5131427173265,-350.,93.4800000000001));
#1288=CARTESIAN_POINT('',(25.5131427173265,-350.,93.4800000000001));
#1289=CARTESIAN_POINT('',(25.5131427173265,-353.48,93.4800000000001));
#1290=CARTESIAN_POINT('',(25.5131427173265,-353.48,93.4800000000001));
#1291=CARTESIAN_POINT('',(25.5131427173265,-350.,93.4800000000001));
#1292=CARTESIAN_POINT('Origin',(25.5131427173265,-350.,90.0000000000001));
#1293=CARTESIAN_POINT('',(25.5131427173265,-350.,90.0000000000001));
#1294=CARTESIAN_POINT('',(25.5131427173265,-350.,90.0000000000001));
#1295=CARTESIAN_POINT('',(25.5131427173265,-353.48,90.0000000000001));
#1296=CARTESIAN_POINT('',(25.5131427173265,-353.48,90.0000000000001));
#1297=CARTESIAN_POINT('',(25.5131427173265,-350.,90.0000000000001));
#1298=CARTESIAN_POINT('Origin',(40.5131427173265,-350.,90.0000000000001));
#1299=CARTESIAN_POINT('',(40.5131427173265,-350.,90.0000000000001));
#1300=CARTESIAN_POINT('',(40.5131427173265,-350.,90.0000000000001));
#1301=CARTESIAN_POINT('',(40.5131427173265,-353.48,90.0000000000001));
#1302=CARTESIAN_POINT('',(40.5131427173265,-353.48,90.0000000000001));
#1303=CARTESIAN_POINT('',(40.5131427173265,-350.,90.0000000000001));
#1304=CARTESIAN_POINT('Origin',(46.2552699966209,-350.,63.4800000000001));
#1305=CARTESIAN_POINT('',(46.2552699966209,-350.,63.4800000000001));
#1306=CARTESIAN_POINT('',(19.5470533450005,-350.,186.83182958327));
#1307=CARTESIAN_POINT('',(46.2552699966209,-353.48,63.4800000000001));
#1308=CARTESIAN_POINT('',(19.5470533450005,-353.48,186.83182958327));
#1309=CARTESIAN_POINT('',(46.2552699966209,-350.,63.4800000000001));
#1310=CARTESIAN_POINT('Origin',(32.008761811551,-350.,63.4800000000001));
#1311=CARTESIAN_POINT('',(32.008761811551,-350.,63.4800000000001));
#1312=CARTESIAN_POINT('',(32.008761811551,-350.,63.4800000000001));
#1313=CARTESIAN_POINT('',(32.008761811551,-353.48,63.4800000000001));
#1314=CARTESIAN_POINT('',(32.008761811551,-353.48,63.4800000000001));
#1315=CARTESIAN_POINT('',(32.008761811551,-350.,63.4800000000001));
#1316=CARTESIAN_POINT('Origin',(32.008761811551,-350.,60.0000000000001));
#1317=CARTESIAN_POINT('',(32.008761811551,-350.,60.0000000000001));
#1318=CARTESIAN_POINT('',(32.008761811551,-350.,60.0000000000001));
#1319=CARTESIAN_POINT('',(32.008761811551,-353.48,60.0000000000001));
#1320=CARTESIAN_POINT('',(32.008761811551,-353.48,60.0000000000001));
#1321=CARTESIAN_POINT('',(32.008761811551,-350.,60.0000000000001));
#1322=CARTESIAN_POINT('Origin',(47.008761811551,-350.,60.0000000000001));
#1323=CARTESIAN_POINT('',(47.008761811551,-350.,60.0000000000001));
#1324=CARTESIAN_POINT('',(47.008761811551,-350.,60.0000000000001));
#1325=CARTESIAN_POINT('',(47.008761811551,-353.48,60.0000000000001));
#1326=CARTESIAN_POINT('',(47.008761811551,-353.48,60.0000000000001));
#1327=CARTESIAN_POINT('',(47.008761811551,-350.,60.0000000000001));
#1328=CARTESIAN_POINT('Origin',(52.7508890908454,-350.,33.4800000000001));
#1329=CARTESIAN_POINT('',(52.7508890908454,-350.,33.4800000000001));
#1330=CARTESIAN_POINT('',(19.5470533450005,-350.,186.83182958327));
#1331=CARTESIAN_POINT('',(52.7508890908454,-353.48,33.4800000000001));
#1332=CARTESIAN_POINT('',(19.5470533450005,-353.48,186.83182958327));
#1333=CARTESIAN_POINT('',(52.7508890908454,-350.,33.4800000000001));
#1334=CARTESIAN_POINT('Origin',(33.5043809057755,-350.,33.4800000000001));
#1335=CARTESIAN_POINT('',(33.5043809057755,-350.,33.4800000000001));
#1336=CARTESIAN_POINT('',(53.5043809057755,-350.,33.4800000000001));
#1337=CARTESIAN_POINT('',(33.5043809057755,-353.48,33.4800000000001));
#1338=CARTESIAN_POINT('',(53.5043809057755,-353.48,33.4800000000001));
#1339=CARTESIAN_POINT('',(33.5043809057755,-350.,33.4800000000001));
#1340=CARTESIAN_POINT('Origin',(33.5043809057755,-350.,30.0000000000001));
#1341=CARTESIAN_POINT('',(33.5043809057755,-350.,30.0000000000001));
#1342=CARTESIAN_POINT('',(33.5043809057755,-350.,33.4800000000001));
#1343=CARTESIAN_POINT('',(33.5043809057755,-353.48,30.0000000000001));
#1344=CARTESIAN_POINT('',(33.5043809057755,-353.48,33.4800000000001));
#1345=CARTESIAN_POINT('',(33.5043809057755,-350.,30.0000000000001));
#1346=CARTESIAN_POINT('Origin',(53.5043809057755,-350.,30.0000000000001));
#1347=CARTESIAN_POINT('',(53.5043809057755,-350.,30.0000000000001));
#1348=CARTESIAN_POINT('',(33.5043809057755,-350.,30.0000000000001));
#1349=CARTESIAN_POINT('',(53.5043809057755,-353.48,30.0000000000001));
#1350=CARTESIAN_POINT('',(33.5043809057755,-353.48,30.0000000000001));
#1351=CARTESIAN_POINT('',(53.5043809057755,-350.,30.0000000000001));
#1352=CARTESIAN_POINT('Origin',(60.,-350.,7.105427357601E-14));
#1353=CARTESIAN_POINT('',(60.,-350.,7.7715611723761E-14));
#1354=CARTESIAN_POINT('',(19.5470533450005,-350.,186.83182958327));
#1355=CARTESIAN_POINT('',(60.,-353.48,7.105427357601E-14));
#1356=CARTESIAN_POINT('',(19.5470533450005,-353.48,186.83182958327));
#1357=CARTESIAN_POINT('',(60.,-350.,7.7715611723761E-14));
#1358=CARTESIAN_POINT('Origin',(50.,-350.,7.7715611723761E-14));
#1359=CARTESIAN_POINT('',(50.,-350.,7.7715611723761E-14));
#1360=CARTESIAN_POINT('',(50.,-350.,7.7715611723761E-14));
#1361=CARTESIAN_POINT('',(50.,-353.48,7.105427357601E-14));
#1362=CARTESIAN_POINT('',(50.,-353.48,7.7715611723761E-14));
#1363=CARTESIAN_POINT('',(50.,-350.,7.7715611723761E-14));
#1364=CARTESIAN_POINT('Origin',(50.,-350.,-27.9999999999999));
#1365=CARTESIAN_POINT('',(50.,-350.,-27.9999999999999));
#1366=CARTESIAN_POINT('',(50.,-350.,7.7715611723761E-14));
#1367=CARTESIAN_POINT('',(50.,-353.48,-27.9999999999999));
#1368=CARTESIAN_POINT('',(50.,-353.48,7.7715611723761E-14));
#1369=CARTESIAN_POINT('',(50.,-350.,-27.9999999999999));
#1370=CARTESIAN_POINT('Origin',(30.,-350.,-27.9999999999999));
#1371=CARTESIAN_POINT('',(30.,-350.,-27.9999999999999));
#1372=CARTESIAN_POINT('',(50.,-350.,-27.9999999999999));
#1373=CARTESIAN_POINT('',(30.,-353.48,-27.9999999999999));
#1374=CARTESIAN_POINT('',(50.,-353.48,-27.9999999999999));
#1375=CARTESIAN_POINT('',(30.,-350.,-27.9999999999999));
#1376=CARTESIAN_POINT('Origin',(30.,-350.,7.99360577730113E-14));
#1377=CARTESIAN_POINT('',(30.,-350.,7.7715611723761E-14));
#1378=CARTESIAN_POINT('',(30.,-350.,-27.9999999999999));
#1379=CARTESIAN_POINT('',(30.,-353.48,7.105427357601E-14));
#1380=CARTESIAN_POINT('',(30.,-353.48,-27.9999999999999));
#1381=CARTESIAN_POINT('',(30.,-350.,7.7715611723761E-14));
#1382=CARTESIAN_POINT('Origin',(10.,-350.,7.7715611723761E-14));
#1383=CARTESIAN_POINT('',(10.,-350.,7.7715611723761E-14));
#1384=CARTESIAN_POINT('',(10.,-350.,7.7715611723761E-14));
#1385=CARTESIAN_POINT('',(10.,-353.48,7.105427357601E-14));
#1386=CARTESIAN_POINT('',(10.,-353.48,7.7715611723761E-14));
#1387=CARTESIAN_POINT('',(10.,-350.,7.7715611723761E-14));
#1388=CARTESIAN_POINT('Origin',(10.,-350.,-27.9999999999999));
#1389=CARTESIAN_POINT('',(10.,-350.,-27.9999999999999));
#1390=CARTESIAN_POINT('',(10.,-350.,7.7715611723761E-14));
#1391=CARTESIAN_POINT('',(10.,-353.48,-27.9999999999999));
#1392=CARTESIAN_POINT('',(10.,-353.48,7.7715611723761E-14));
#1393=CARTESIAN_POINT('',(10.,-350.,-27.9999999999999));
#1394=CARTESIAN_POINT('Origin',(-10.,-350.,-27.9999999999999));
#1395=CARTESIAN_POINT('',(-10.,-350.,-27.9999999999999));
#1396=CARTESIAN_POINT('',(10.,-350.,-27.9999999999999));
#1397=CARTESIAN_POINT('',(-10.,-353.48,-27.9999999999999));
#1398=CARTESIAN_POINT('',(10.,-353.48,-27.9999999999999));
#1399=CARTESIAN_POINT('',(-10.,-350.,-27.9999999999999));
#1400=CARTESIAN_POINT('Origin',(-10.,-350.,7.99360577730113E-14));
#1401=CARTESIAN_POINT('',(-10.,-350.,7.7715611723761E-14));
#1402=CARTESIAN_POINT('',(-10.,-350.,-27.9999999999999));
#1403=CARTESIAN_POINT('',(-10.,-353.48,7.105427357601E-14));
#1404=CARTESIAN_POINT('',(-10.,-353.48,-27.9999999999999));
#1405=CARTESIAN_POINT('',(-10.,-350.,7.7715611723761E-14));
#1406=CARTESIAN_POINT('Origin',(-30.,-350.,7.7715611723761E-14));
#1407=CARTESIAN_POINT('',(-30.,-350.,7.7715611723761E-14));
#1408=CARTESIAN_POINT('',(-30.,-350.,7.7715611723761E-14));
#1409=CARTESIAN_POINT('',(-30.,-353.48,7.105427357601E-14));
#1410=CARTESIAN_POINT('',(-30.,-353.48,7.7715611723761E-14));
#1411=CARTESIAN_POINT('',(-30.,-350.,7.7715611723761E-14));
#1412=CARTESIAN_POINT('Origin',(-30.,-350.,-27.9999999999999));
#1413=CARTESIAN_POINT('',(-30.,-350.,-27.9999999999999));
#1414=CARTESIAN_POINT('',(-30.,-350.,-27.9999999999999));
#1415=CARTESIAN_POINT('',(-30.,-353.48,-27.9999999999999));
#1416=CARTESIAN_POINT('',(-30.,-353.48,-27.9999999999999));
#1417=CARTESIAN_POINT('',(-30.,-350.,-27.9999999999999));
#1418=CARTESIAN_POINT('Origin',(-50.,-350.,-27.9999999999999));
#1419=CARTESIAN_POINT('',(-50.,-350.,-27.9999999999999));
#1420=CARTESIAN_POINT('',(-50.,-350.,-27.9999999999999));
#1421=CARTESIAN_POINT('',(-50.,-353.48,-27.9999999999999));
#1422=CARTESIAN_POINT('',(-50.,-353.48,-27.9999999999999));
#1423=CARTESIAN_POINT('',(-50.,-350.,-27.9999999999999));
#1424=CARTESIAN_POINT('Origin',(-50.,-350.,7.7715611723761E-14));
#1425=CARTESIAN_POINT('',(-50.,-350.,7.7715611723761E-14));
#1426=CARTESIAN_POINT('',(-50.,-350.,7.7715611723761E-14));
#1427=CARTESIAN_POINT('',(-50.,-353.48,7.105427357601E-14));
#1428=CARTESIAN_POINT('',(-50.,-353.48,7.7715611723761E-14));
#1429=CARTESIAN_POINT('',(-50.,-350.,7.7715611723761E-14));
#1430=CARTESIAN_POINT('Origin',(-60.,-350.,7.7715611723761E-14));
#1431=CARTESIAN_POINT('',(-60.,-350.,7.7715611723761E-14));
#1432=CARTESIAN_POINT('',(-60.,-350.,7.7715611723761E-14));
#1433=CARTESIAN_POINT('',(-60.,-353.48,7.105427357601E-14));
#1434=CARTESIAN_POINT('',(-60.,-353.48,7.7715611723761E-14));
#1435=CARTESIAN_POINT('',(-60.,-350.,7.7715611723761E-14));
#1436=CARTESIAN_POINT('Origin',(-53.5043809057755,-350.,30.0000000000001));
#1437=CARTESIAN_POINT('',(-53.5043809057755,-350.,30.0000000000001));
#1438=CARTESIAN_POINT('',(-60.,-350.,7.7715611723761E-14));
#1439=CARTESIAN_POINT('',(-53.5043809057755,-353.48,30.0000000000001));
#1440=CARTESIAN_POINT('',(-60.,-353.48,7.7715611723761E-14));
#1441=CARTESIAN_POINT('',(-53.5043809057755,-350.,30.0000000000001));
#1442=CARTESIAN_POINT('Origin',(-33.5043809057755,-350.,30.0000000000001));
#1443=CARTESIAN_POINT('',(-33.5043809057755,-350.,30.0000000000001));
#1444=CARTESIAN_POINT('',(-33.5043809057755,-350.,30.0000000000001));
#1445=CARTESIAN_POINT('',(-33.5043809057755,-353.48,30.0000000000001));
#1446=CARTESIAN_POINT('',(-33.5043809057755,-353.48,30.0000000000001));
#1447=CARTESIAN_POINT('',(-33.5043809057755,-350.,30.0000000000001));
#1448=CARTESIAN_POINT('Origin',(-33.5043809057755,-350.,33.4800000000001));
#1449=CARTESIAN_POINT('',(-33.5043809057755,-350.,33.4800000000001));
#1450=CARTESIAN_POINT('',(-33.5043809057755,-350.,33.4800000000001));
#1451=CARTESIAN_POINT('',(-33.5043809057755,-353.48,33.4800000000001));
#1452=CARTESIAN_POINT('',(-33.5043809057755,-353.48,33.4800000000001));
#1453=CARTESIAN_POINT('',(-33.5043809057755,-350.,33.4800000000001));
#1454=CARTESIAN_POINT('Origin',(-52.7508890908455,-350.,33.4800000000001));
#1455=CARTESIAN_POINT('',(-52.7508890908455,-350.,33.4800000000001));
#1456=CARTESIAN_POINT('',(-53.5043809057755,-350.,33.4800000000001));
#1457=CARTESIAN_POINT('',(-52.7508890908455,-353.48,33.4800000000001));
#1458=CARTESIAN_POINT('',(-53.5043809057755,-353.48,33.4800000000001));
#1459=CARTESIAN_POINT('',(-52.7508890908455,-350.,33.4800000000001));
#1460=CARTESIAN_POINT('Origin',(-47.008761811551,-350.,60.0000000000001));
#1461=CARTESIAN_POINT('',(-47.008761811551,-350.,60.0000000000001));
#1462=CARTESIAN_POINT('',(-60.,-350.,7.7715611723761E-14));
#1463=CARTESIAN_POINT('',(-47.008761811551,-353.48,60.0000000000001));
#1464=CARTESIAN_POINT('',(-60.,-353.48,7.7715611723761E-14));
#1465=CARTESIAN_POINT('',(-47.008761811551,-350.,60.0000000000001));
#1466=CARTESIAN_POINT('Origin',(-32.008761811551,-350.,60.0000000000001));
#1467=CARTESIAN_POINT('',(-32.008761811551,-350.,60.0000000000001));
#1468=CARTESIAN_POINT('',(-47.008761811551,-350.,60.0000000000001));
#1469=CARTESIAN_POINT('',(-32.008761811551,-353.48,60.0000000000001));
#1470=CARTESIAN_POINT('',(-47.008761811551,-353.48,60.0000000000001));
#1471=CARTESIAN_POINT('',(-32.008761811551,-350.,60.0000000000001));
#1472=CARTESIAN_POINT('Origin',(-32.008761811551,-350.,63.4800000000001));
#1473=CARTESIAN_POINT('',(-32.008761811551,-350.,63.4800000000001));
#1474=CARTESIAN_POINT('',(-32.008761811551,-350.,60.0000000000001));
#1475=CARTESIAN_POINT('',(-32.008761811551,-353.48,63.4800000000001));
#1476=CARTESIAN_POINT('',(-32.008761811551,-353.48,60.0000000000001));
#1477=CARTESIAN_POINT('',(-32.008761811551,-350.,63.4800000000001));
#1478=CARTESIAN_POINT('Origin',(-46.255269996621,-350.,63.4800000000001));
#1479=CARTESIAN_POINT('',(-46.255269996621,-350.,63.4800000000001));
#1480=CARTESIAN_POINT('',(-32.008761811551,-350.,63.4800000000001));
#1481=CARTESIAN_POINT('',(-46.255269996621,-353.48,63.4800000000001));
#1482=CARTESIAN_POINT('',(-32.008761811551,-353.48,63.4800000000001));
#1483=CARTESIAN_POINT('',(-46.255269996621,-350.,63.4800000000001));
#1484=CARTESIAN_POINT('Origin',(-40.5131427173265,-350.,90.0000000000001));
#1485=CARTESIAN_POINT('',(-40.5131427173265,-350.,90.0000000000001));
#1486=CARTESIAN_POINT('',(-60.,-350.,7.7715611723761E-14));
#1487=CARTESIAN_POINT('',(-40.5131427173265,-353.48,90.0000000000001));
#1488=CARTESIAN_POINT('',(-60.,-353.48,7.7715611723761E-14));
#1489=CARTESIAN_POINT('',(-40.5131427173265,-350.,90.0000000000001));
#1490=CARTESIAN_POINT('Origin',(-25.5131427173265,-350.,90.0000000000001));
#1491=CARTESIAN_POINT('',(-25.5131427173265,-350.,90.0000000000001));
#1492=CARTESIAN_POINT('',(-25.5131427173265,-350.,90.0000000000001));
#1493=CARTESIAN_POINT('',(-25.5131427173265,-353.48,90.0000000000001));
#1494=CARTESIAN_POINT('',(-25.5131427173265,-353.48,90.0000000000001));
#1495=CARTESIAN_POINT('',(-25.5131427173265,-350.,90.0000000000001));
#1496=CARTESIAN_POINT('Origin',(-25.5131427173265,-350.,93.4800000000001));
#1497=CARTESIAN_POINT('',(-25.5131427173265,-350.,93.4800000000001));
#1498=CARTESIAN_POINT('',(-25.5131427173265,-350.,93.4800000000001));
#1499=CARTESIAN_POINT('',(-25.5131427173265,-353.48,93.4800000000001));
#1500=CARTESIAN_POINT('',(-25.5131427173265,-353.48,93.4800000000001));
#1501=CARTESIAN_POINT('',(-25.5131427173265,-350.,93.4800000000001));
#1502=CARTESIAN_POINT('Origin',(-39.7596509023964,-350.,93.4800000000001));
#1503=CARTESIAN_POINT('',(-39.7596509023964,-350.,93.4800000000001));
#1504=CARTESIAN_POINT('',(-40.5131427173265,-350.,93.4800000000001));
#1505=CARTESIAN_POINT('',(-39.7596509023964,-353.48,93.4800000000001));
#1506=CARTESIAN_POINT('',(-40.5131427173265,-353.48,93.4800000000001));
#1507=CARTESIAN_POINT('',(-39.7596509023964,-350.,93.4800000000001));
#1508=CARTESIAN_POINT('Origin',(-19.5470533450005,-350.,186.83182958327));
#1509=CARTESIAN_POINT('',(-19.5470533450005,-350.,186.83182958327));
#1510=CARTESIAN_POINT('',(-60.,-350.,7.7715611723761E-14));
#1511=CARTESIAN_POINT('',(-19.5470533450005,-353.48,186.83182958327));
#1512=CARTESIAN_POINT('',(-60.,-353.48,7.7715611723761E-14));
#1513=CARTESIAN_POINT('',(-19.5470533450005,-350.,186.83182958327));
#1514=CARTESIAN_POINT('Origin',(-1.66533453693773E-15,-350.,182.599489151816));
#1515=CARTESIAN_POINT('',(-1.5,-350.,202.543159826995));
#1516=CARTESIAN_POINT('Origin',(-1.66533453693773E-15,-350.,182.599489151816));
#1517=CARTESIAN_POINT('',(-1.5,-353.48,202.543159826995));
#1518=CARTESIAN_POINT('Origin',(-1.66533453693773E-15,-353.48,182.599489151816));
#1519=CARTESIAN_POINT('',(-1.5,-350.,202.543159826995));
#1520=CARTESIAN_POINT('Origin',(-1.5,-350.,182.645602010379));
#1521=CARTESIAN_POINT('',(-1.5,-350.,182.645602010379));
#1522=CARTESIAN_POINT('',(-1.5,-350.,182.645602010379));
#1523=CARTESIAN_POINT('',(-1.5,-353.48,182.645602010379));
#1524=CARTESIAN_POINT('',(-1.5,-353.48,182.645602010379));
#1525=CARTESIAN_POINT('',(-1.5,-350.,182.645602010379));
#1526=CARTESIAN_POINT('Origin',(1.98,-350.,182.645602010379));
#1527=CARTESIAN_POINT('',(1.98,-350.,182.645602010379));
#1528=CARTESIAN_POINT('',(1.98,-350.,182.645602010379));
#1529=CARTESIAN_POINT('',(1.98,-353.48,182.645602010379));
#1530=CARTESIAN_POINT('',(1.98,-353.48,182.645602010379));
#1531=CARTESIAN_POINT('',(1.98,-350.,182.645602010379));
#1532=CARTESIAN_POINT('Origin',(1.98,-350.,202.501237818705));
#1533=CARTESIAN_POINT('',(1.98,-350.,202.501237818705));
#1534=CARTESIAN_POINT('',(1.98,-350.,202.645602010379));
#1535=CARTESIAN_POINT('',(1.98,-353.48,202.501237818705));
#1536=CARTESIAN_POINT('',(1.98,-353.48,202.645602010379));
#1537=CARTESIAN_POINT('',(1.98,-350.,202.501237818705));
#1538=CARTESIAN_POINT('Origin',(-1.66533453693773E-15,-350.,182.599489151816));
#1539=CARTESIAN_POINT('Origin',(-1.66533453693773E-15,-350.,182.599489151816));
#1540=CARTESIAN_POINT('Origin',(-1.66533453693773E-15,-353.48,182.599489151816));
#1541=CARTESIAN_POINT('Origin',(0.,-353.48,87.2715799134977));
#1542=CARTESIAN_POINT('Origin',(0.,-350.,87.2715799134977));
#1543=UNCERTAINTY_MEASURE_WITH_UNIT(LENGTH_MEASURE(0.01),#1547,
'DISTANCE_ACCURACY_VALUE',
'Maximum model space distance between geometric entities at asserted c
onnectivities');
#1544=UNCERTAINTY_MEASURE_WITH_UNIT(LENGTH_MEASURE(0.01),#1547,
'DISTANCE_ACCURACY_VALUE',
'Maximum model space distance between geometric entities at asserted c
onnectivities');
#1545=(
GEOMETRIC_REPRESENTATION_CONTEXT(3)
GLOBAL_UNCERTAINTY_ASSIGNED_CONTEXT((#1543))
GLOBAL_UNIT_ASSIGNED_CONTEXT((#1547,#1549,#1550))
REPRESENTATION_CONTEXT('','3D')
);
#1546=(
GEOMETRIC_REPRESENTATION_CONTEXT(3)
GLOBAL_UNCERTAINTY_ASSIGNED_CONTEXT((#1544))
GLOBAL_UNIT_ASSIGNED_CONTEXT((#1547,#1549,#1550))
REPRESENTATION_CONTEXT('','3D')
);
#1547=(
LENGTH_UNIT()
NAMED_UNIT(*)
SI_UNIT(.MILLI.,.METRE.)
);
#1548=(
LENGTH_UNIT()
NAMED_UNIT(*)
SI_UNIT($,.METRE.)
);
#1549=(
NAMED_UNIT(*)
PLANE_ANGLE_UNIT()
SI_UNIT($,.RADIAN.)
);
#1550=(
NAMED_UNIT(*)
SI_UNIT($,.STERADIAN.)
SOLID_ANGLE_UNIT()
);
#1551=SHAPE_DEFINITION_REPRESENTATION(#1552,#1553);
#1552=PRODUCT_DEFINITION_SHAPE('',$,#1555);
#1553=SHAPE_REPRESENTATION('',(#979),#1545);
#1554=PRODUCT_DEFINITION_CONTEXT('part definition',#1559,'design');
#1555=PRODUCT_DEFINITION('encoder_stand_1','encoder_stand_1',#1556,#1554);
#1556=PRODUCT_DEFINITION_FORMATION('',$,#1561);
#1557=PRODUCT_RELATED_PRODUCT_CATEGORY('encoder_stand_1',
'encoder_stand_1',(#1561));
#1558=APPLICATION_PROTOCOL_DEFINITION('international standard',
'automotive_design',2009,#1559);
#1559=APPLICATION_CONTEXT(
'Core Data for Automotive Mechanical Design Process');
#1560=PRODUCT_CONTEXT('part definition',#1559,'mechanical');
#1561=PRODUCT('encoder_stand_1','encoder_stand_1',$,(#1560));
#1562=PRESENTATION_STYLE_ASSIGNMENT((#1563));
#1563=SURFACE_STYLE_USAGE(.BOTH.,#1564);
#1564=SURFACE_SIDE_STYLE('',(#1565));
#1565=SURFACE_STYLE_FILL_AREA(#1566);
#1566=FILL_AREA_STYLE('Steel - Satin',(#1567));
#1567=FILL_AREA_STYLE_COLOUR('Steel - Satin',#1568);
#1568=COLOUR_RGB('Steel - Satin',0.627450980392157,0.627450980392157,0.627450980392157);
ENDSEC;
END-ISO-10303-21;
