ISO-10303-21;
HEADER;
/* Generated by software containing ST-Developer
 * from STEP Tools, Inc. (www.steptools.com) 
 */

FILE_DESCRIPTION(
/* description */ (''),
/* implementation_level */ '2;1');

FILE_NAME(
/* name */ 'encoder_stand_2.step',
/* time_stamp */ '2026-05-25T07:12:17+05:30',
/* author */ (''),
/* organization */ (''),
/* preprocessor_version */ 'ST-DEVELOPER v20.1',
/* originating_system */ 'Autodesk Translation Framework v15.8.0.0',
/* authorisation */ '');

FILE_SCHEMA (('AUTOMOTIVE_DESIGN { 1 0 10303 214 3 1 1 }'));
ENDSEC;

DATA;
#10=MECHANICAL_DESIGN_GEOMETRIC_PRESENTATION_REPRESENTATION('',(#13),#1663);
#11=SHAPE_REPRESENTATION_RELATIONSHIP('SRR','None',#1670,#12);
#12=ADVANCED_BREP_SHAPE_REPRESENTATION('',(#14),#1662);
#13=STYLED_ITEM('',(#1679),#14);
#14=MANIFOLD_SOLID_BREP('Body1',#1035);
#15=FACE_BOUND('',#166,.T.);
#16=FACE_BOUND('',#167,.T.);
#17=FACE_BOUND('',#168,.T.);
#18=FACE_BOUND('',#169,.T.);
#19=FACE_BOUND('',#171,.T.);
#20=FACE_BOUND('',#172,.T.);
#21=FACE_BOUND('',#173,.T.);
#22=FACE_BOUND('',#174,.T.);
#23=PLANE('',#1061);
#24=PLANE('',#1062);
#25=PLANE('',#1063);
#26=PLANE('',#1064);
#27=PLANE('',#1065);
#28=PLANE('',#1066);
#29=PLANE('',#1067);
#30=PLANE('',#1068);
#31=PLANE('',#1069);
#32=PLANE('',#1070);
#33=PLANE('',#1071);
#34=PLANE('',#1072);
#35=PLANE('',#1073);
#36=PLANE('',#1074);
#37=PLANE('',#1075);
#38=PLANE('',#1076);
#39=PLANE('',#1077);
#40=PLANE('',#1078);
#41=PLANE('',#1079);
#42=PLANE('',#1080);
#43=PLANE('',#1081);
#44=PLANE('',#1082);
#45=PLANE('',#1083);
#46=PLANE('',#1084);
#47=PLANE('',#1085);
#48=PLANE('',#1086);
#49=PLANE('',#1087);
#50=PLANE('',#1088);
#51=PLANE('',#1089);
#52=PLANE('',#1090);
#53=PLANE('',#1091);
#54=PLANE('',#1092);
#55=PLANE('',#1093);
#56=PLANE('',#1094);
#57=PLANE('',#1095);
#58=PLANE('',#1096);
#59=PLANE('',#1097);
#60=PLANE('',#1098);
#61=PLANE('',#1099);
#62=PLANE('',#1103);
#63=PLANE('',#1104);
#64=PLANE('',#1105);
#65=PLANE('',#1109);
#66=PLANE('',#1110);
#67=FACE_OUTER_BOUND('',#117,.T.);
#68=FACE_OUTER_BOUND('',#118,.T.);
#69=FACE_OUTER_BOUND('',#119,.T.);
#70=FACE_OUTER_BOUND('',#120,.T.);
#71=FACE_OUTER_BOUND('',#121,.T.);
#72=FACE_OUTER_BOUND('',#122,.T.);
#73=FACE_OUTER_BOUND('',#123,.T.);
#74=FACE_OUTER_BOUND('',#124,.T.);
#75=FACE_OUTER_BOUND('',#125,.T.);
#76=FACE_OUTER_BOUND('',#126,.T.);
#77=FACE_OUTER_BOUND('',#127,.T.);
#78=FACE_OUTER_BOUND('',#128,.T.);
#79=FACE_OUTER_BOUND('',#129,.T.);
#80=FACE_OUTER_BOUND('',#130,.T.);
#81=FACE_OUTER_BOUND('',#131,.T.);
#82=FACE_OUTER_BOUND('',#132,.T.);
#83=FACE_OUTER_BOUND('',#133,.T.);
#84=FACE_OUTER_BOUND('',#134,.T.);
#85=FACE_OUTER_BOUND('',#135,.T.);
#86=FACE_OUTER_BOUND('',#136,.T.);
#87=FACE_OUTER_BOUND('',#137,.T.);
#88=FACE_OUTER_BOUND('',#138,.T.);
#89=FACE_OUTER_BOUND('',#139,.T.);
#90=FACE_OUTER_BOUND('',#140,.T.);
#91=FACE_OUTER_BOUND('',#141,.T.);
#92=FACE_OUTER_BOUND('',#142,.T.);
#93=FACE_OUTER_BOUND('',#143,.T.);
#94=FACE_OUTER_BOUND('',#144,.T.);
#95=FACE_OUTER_BOUND('',#145,.T.);
#96=FACE_OUTER_BOUND('',#146,.T.);
#97=FACE_OUTER_BOUND('',#147,.T.);
#98=FACE_OUTER_BOUND('',#148,.T.);
#99=FACE_OUTER_BOUND('',#149,.T.);
#100=FACE_OUTER_BOUND('',#150,.T.);
#101=FACE_OUTER_BOUND('',#151,.T.);
#102=FACE_OUTER_BOUND('',#152,.T.);
#103=FACE_OUTER_BOUND('',#153,.T.);
#104=FACE_OUTER_BOUND('',#154,.T.);
#105=FACE_OUTER_BOUND('',#155,.T.);
#106=FACE_OUTER_BOUND('',#156,.T.);
#107=FACE_OUTER_BOUND('',#157,.T.);
#108=FACE_OUTER_BOUND('',#158,.T.);
#109=FACE_OUTER_BOUND('',#159,.T.);
#110=FACE_OUTER_BOUND('',#160,.T.);
#111=FACE_OUTER_BOUND('',#161,.T.);
#112=FACE_OUTER_BOUND('',#162,.T.);
#113=FACE_OUTER_BOUND('',#163,.T.);
#114=FACE_OUTER_BOUND('',#164,.T.);
#115=FACE_OUTER_BOUND('',#165,.T.);
#116=FACE_OUTER_BOUND('',#170,.T.);
#117=EDGE_LOOP('',(#691,#692,#693,#694));
#118=EDGE_LOOP('',(#695,#696,#697,#698));
#119=EDGE_LOOP('',(#699,#700,#701,#702));
#120=EDGE_LOOP('',(#703,#704,#705,#706));
#121=EDGE_LOOP('',(#707,#708,#709,#710));
#122=EDGE_LOOP('',(#711,#712,#713,#714));
#123=EDGE_LOOP('',(#715,#716,#717,#718));
#124=EDGE_LOOP('',(#719,#720,#721,#722));
#125=EDGE_LOOP('',(#723,#724,#725,#726));
#126=EDGE_LOOP('',(#727,#728,#729,#730));
#127=EDGE_LOOP('',(#731,#732,#733,#734));
#128=EDGE_LOOP('',(#735,#736,#737,#738));
#129=EDGE_LOOP('',(#739,#740,#741,#742));
#130=EDGE_LOOP('',(#743,#744,#745,#746));
#131=EDGE_LOOP('',(#747,#748,#749,#750));
#132=EDGE_LOOP('',(#751,#752,#753,#754));
#133=EDGE_LOOP('',(#755,#756,#757,#758));
#134=EDGE_LOOP('',(#759,#760,#761,#762));
#135=EDGE_LOOP('',(#763,#764,#765,#766));
#136=EDGE_LOOP('',(#767,#768,#769,#770));
#137=EDGE_LOOP('',(#771,#772,#773,#774));
#138=EDGE_LOOP('',(#775,#776,#777,#778));
#139=EDGE_LOOP('',(#779,#780,#781,#782));
#140=EDGE_LOOP('',(#783,#784,#785,#786));
#141=EDGE_LOOP('',(#787,#788,#789,#790));
#142=EDGE_LOOP('',(#791,#792,#793,#794));
#143=EDGE_LOOP('',(#795,#796,#797,#798));
#144=EDGE_LOOP('',(#799,#800,#801,#802));
#145=EDGE_LOOP('',(#803,#804,#805,#806));
#146=EDGE_LOOP('',(#807,#808,#809,#810));
#147=EDGE_LOOP('',(#811,#812,#813,#814));
#148=EDGE_LOOP('',(#815,#816,#817,#818));
#149=EDGE_LOOP('',(#819,#820,#821,#822));
#150=EDGE_LOOP('',(#823,#824,#825,#826));
#151=EDGE_LOOP('',(#827,#828,#829,#830));
#152=EDGE_LOOP('',(#831,#832,#833,#834));
#153=EDGE_LOOP('',(#835,#836,#837,#838));
#154=EDGE_LOOP('',(#839,#840,#841,#842));
#155=EDGE_LOOP('',(#843,#844,#845,#846));
#156=EDGE_LOOP('',(#847,#848,#849,#850));
#157=EDGE_LOOP('',(#851,#852,#853,#854));
#158=EDGE_LOOP('',(#855,#856,#857,#858));
#159=EDGE_LOOP('',(#859,#860,#861,#862));
#160=EDGE_LOOP('',(#863,#864,#865,#866));
#161=EDGE_LOOP('',(#867,#868,#869,#870));
#162=EDGE_LOOP('',(#871,#872,#873,#874));
#163=EDGE_LOOP('',(#875,#876,#877,#878));
#164=EDGE_LOOP('',(#879,#880,#881,#882));
#165=EDGE_LOOP('',(#883,#884,#885,#886,#887,#888,#889,#890,#891,#892,#893,
#894,#895,#896,#897,#898,#899,#900,#901,#902,#903,#904,#905,#906,#907,#908,
#909,#910,#911,#912,#913,#914,#915,#916,#917,#918,#919,#920,#921,#922,#923,
#924,#925,#926));
#166=EDGE_LOOP('',(#927));
#167=EDGE_LOOP('',(#928));
#168=EDGE_LOOP('',(#929));
#169=EDGE_LOOP('',(#930));
#170=EDGE_LOOP('',(#931,#932,#933,#934,#935,#936,#937,#938,#939,#940,#941,
#942,#943,#944,#945,#946,#947,#948,#949,#950,#951,#952,#953,#954,#955,#956,
#957,#958,#959,#960,#961,#962,#963,#964,#965,#966,#967,#968,#969,#970,#971,
#972,#973,#974));
#171=EDGE_LOOP('',(#975));
#172=EDGE_LOOP('',(#976));
#173=EDGE_LOOP('',(#977));
#174=EDGE_LOOP('',(#978));
#175=LINE('',#1374,#307);
#176=LINE('',#1380,#308);
#177=LINE('',#1386,#309);
#178=LINE('',#1392,#310);
#179=LINE('',#1397,#311);
#180=LINE('',#1399,#312);
#181=LINE('',#1401,#313);
#182=LINE('',#1402,#314);
#183=LINE('',#1405,#315);
#184=LINE('',#1407,#316);
#185=LINE('',#1408,#317);
#186=LINE('',#1411,#318);
#187=LINE('',#1413,#319);
#188=LINE('',#1414,#320);
#189=LINE('',#1417,#321);
#190=LINE('',#1419,#322);
#191=LINE('',#1420,#323);
#192=LINE('',#1423,#324);
#193=LINE('',#1425,#325);
#194=LINE('',#1426,#326);
#195=LINE('',#1429,#327);
#196=LINE('',#1431,#328);
#197=LINE('',#1432,#329);
#198=LINE('',#1435,#330);
#199=LINE('',#1437,#331);
#200=LINE('',#1438,#332);
#201=LINE('',#1441,#333);
#202=LINE('',#1443,#334);
#203=LINE('',#1444,#335);
#204=LINE('',#1447,#336);
#205=LINE('',#1449,#337);
#206=LINE('',#1450,#338);
#207=LINE('',#1453,#339);
#208=LINE('',#1455,#340);
#209=LINE('',#1456,#341);
#210=LINE('',#1459,#342);
#211=LINE('',#1461,#343);
#212=LINE('',#1462,#344);
#213=LINE('',#1465,#345);
#214=LINE('',#1467,#346);
#215=LINE('',#1468,#347);
#216=LINE('',#1471,#348);
#217=LINE('',#1473,#349);
#218=LINE('',#1474,#350);
#219=LINE('',#1477,#351);
#220=LINE('',#1479,#352);
#221=LINE('',#1480,#353);
#222=LINE('',#1483,#354);
#223=LINE('',#1485,#355);
#224=LINE('',#1486,#356);
#225=LINE('',#1489,#357);
#226=LINE('',#1491,#358);
#227=LINE('',#1492,#359);
#228=LINE('',#1495,#360);
#229=LINE('',#1497,#361);
#230=LINE('',#1498,#362);
#231=LINE('',#1501,#363);
#232=LINE('',#1503,#364);
#233=LINE('',#1504,#365);
#234=LINE('',#1507,#366);
#235=LINE('',#1509,#367);
#236=LINE('',#1510,#368);
#237=LINE('',#1513,#369);
#238=LINE('',#1515,#370);
#239=LINE('',#1516,#371);
#240=LINE('',#1519,#372);
#241=LINE('',#1521,#373);
#242=LINE('',#1522,#374);
#243=LINE('',#1525,#375);
#244=LINE('',#1527,#376);
#245=LINE('',#1528,#377);
#246=LINE('',#1531,#378);
#247=LINE('',#1533,#379);
#248=LINE('',#1534,#380);
#249=LINE('',#1537,#381);
#250=LINE('',#1539,#382);
#251=LINE('',#1540,#383);
#252=LINE('',#1543,#384);
#253=LINE('',#1545,#385);
#254=LINE('',#1546,#386);
#255=LINE('',#1549,#387);
#256=LINE('',#1551,#388);
#257=LINE('',#1552,#389);
#258=LINE('',#1555,#390);
#259=LINE('',#1557,#391);
#260=LINE('',#1558,#392);
#261=LINE('',#1561,#393);
#262=LINE('',#1563,#394);
#263=LINE('',#1564,#395);
#264=LINE('',#1567,#396);
#265=LINE('',#1569,#397);
#266=LINE('',#1570,#398);
#267=LINE('',#1573,#399);
#268=LINE('',#1575,#400);
#269=LINE('',#1576,#401);
#270=LINE('',#1579,#402);
#271=LINE('',#1581,#403);
#272=LINE('',#1582,#404);
#273=LINE('',#1585,#405);
#274=LINE('',#1587,#406);
#275=LINE('',#1588,#407);
#276=LINE('',#1591,#408);
#277=LINE('',#1593,#409);
#278=LINE('',#1594,#410);
#279=LINE('',#1597,#411);
#280=LINE('',#1599,#412);
#281=LINE('',#1600,#413);
#282=LINE('',#1603,#414);
#283=LINE('',#1605,#415);
#284=LINE('',#1606,#416);
#285=LINE('',#1609,#417);
#286=LINE('',#1611,#418);
#287=LINE('',#1612,#419);
#288=LINE('',#1615,#420);
#289=LINE('',#1617,#421);
#290=LINE('',#1618,#422);
#291=LINE('',#1621,#423);
#292=LINE('',#1623,#424);
#293=LINE('',#1624,#425);
#294=LINE('',#1627,#426);
#295=LINE('',#1629,#427);
#296=LINE('',#1630,#428);
#297=LINE('',#1636,#429);
#298=LINE('',#1639,#430);
#299=LINE('',#1641,#431);
#300=LINE('',#1642,#432);
#301=LINE('',#1645,#433);
#302=LINE('',#1647,#434);
#303=LINE('',#1648,#435);
#304=LINE('',#1651,#436);
#305=LINE('',#1653,#437);
#306=LINE('',#1654,#438);
#307=VECTOR('',#1117,9.99999999999999);
#308=VECTOR('',#1124,1.5);
#309=VECTOR('',#1131,1.5);
#310=VECTOR('',#1138,1.5);
#311=VECTOR('',#1143,10.);
#312=VECTOR('',#1144,10.);
#313=VECTOR('',#1145,10.);
#314=VECTOR('',#1146,10.);
#315=VECTOR('',#1149,10.);
#316=VECTOR('',#1150,10.);
#317=VECTOR('',#1151,10.);
#318=VECTOR('',#1154,10.);
#319=VECTOR('',#1155,10.);
#320=VECTOR('',#1156,10.);
#321=VECTOR('',#1159,10.);
#322=VECTOR('',#1160,10.);
#323=VECTOR('',#1161,10.);
#324=VECTOR('',#1164,10.);
#325=VECTOR('',#1165,10.);
#326=VECTOR('',#1166,10.);
#327=VECTOR('',#1169,10.);
#328=VECTOR('',#1170,10.);
#329=VECTOR('',#1171,10.);
#330=VECTOR('',#1174,10.);
#331=VECTOR('',#1175,10.);
#332=VECTOR('',#1176,10.);
#333=VECTOR('',#1179,10.);
#334=VECTOR('',#1180,10.);
#335=VECTOR('',#1181,10.);
#336=VECTOR('',#1184,10.);
#337=VECTOR('',#1185,10.);
#338=VECTOR('',#1186,10.);
#339=VECTOR('',#1189,10.);
#340=VECTOR('',#1190,10.);
#341=VECTOR('',#1191,10.);
#342=VECTOR('',#1194,10.);
#343=VECTOR('',#1195,10.);
#344=VECTOR('',#1196,10.);
#345=VECTOR('',#1199,10.);
#346=VECTOR('',#1200,10.);
#347=VECTOR('',#1201,10.);
#348=VECTOR('',#1204,10.);
#349=VECTOR('',#1205,10.);
#350=VECTOR('',#1206,10.);
#351=VECTOR('',#1209,10.);
#352=VECTOR('',#1210,10.);
#353=VECTOR('',#1211,10.);
#354=VECTOR('',#1214,10.);
#355=VECTOR('',#1215,10.);
#356=VECTOR('',#1216,10.);
#357=VECTOR('',#1219,10.);
#358=VECTOR('',#1220,10.);
#359=VECTOR('',#1221,10.);
#360=VECTOR('',#1224,10.);
#361=VECTOR('',#1225,10.);
#362=VECTOR('',#1226,10.);
#363=VECTOR('',#1229,10.);
#364=VECTOR('',#1230,10.);
#365=VECTOR('',#1231,10.);
#366=VECTOR('',#1234,10.);
#367=VECTOR('',#1235,10.);
#368=VECTOR('',#1236,10.);
#369=VECTOR('',#1239,10.);
#370=VECTOR('',#1240,10.);
#371=VECTOR('',#1241,10.);
#372=VECTOR('',#1244,10.);
#373=VECTOR('',#1245,10.);
#374=VECTOR('',#1246,10.);
#375=VECTOR('',#1249,10.);
#376=VECTOR('',#1250,10.);
#377=VECTOR('',#1251,10.);
#378=VECTOR('',#1254,10.);
#379=VECTOR('',#1255,10.);
#380=VECTOR('',#1256,10.);
#381=VECTOR('',#1259,10.);
#382=VECTOR('',#1260,10.);
#383=VECTOR('',#1261,10.);
#384=VECTOR('',#1264,10.);
#385=VECTOR('',#1265,10.);
#386=VECTOR('',#1266,10.);
#387=VECTOR('',#1269,10.);
#388=VECTOR('',#1270,10.);
#389=VECTOR('',#1271,10.);
#390=VECTOR('',#1274,10.);
#391=VECTOR('',#1275,10.);
#392=VECTOR('',#1276,10.);
#393=VECTOR('',#1279,10.);
#394=VECTOR('',#1280,10.);
#395=VECTOR('',#1281,10.);
#396=VECTOR('',#1284,10.);
#397=VECTOR('',#1285,10.);
#398=VECTOR('',#1286,10.);
#399=VECTOR('',#1289,10.);
#400=VECTOR('',#1290,10.);
#401=VECTOR('',#1291,10.);
#402=VECTOR('',#1294,10.);
#403=VECTOR('',#1295,10.);
#404=VECTOR('',#1296,10.);
#405=VECTOR('',#1299,10.);
#406=VECTOR('',#1300,10.);
#407=VECTOR('',#1301,10.);
#408=VECTOR('',#1304,10.);
#409=VECTOR('',#1305,10.);
#410=VECTOR('',#1306,10.);
#411=VECTOR('',#1309,10.);
#412=VECTOR('',#1310,10.);
#413=VECTOR('',#1311,10.);
#414=VECTOR('',#1314,10.);
#415=VECTOR('',#1315,10.);
#416=VECTOR('',#1316,10.);
#417=VECTOR('',#1319,10.);
#418=VECTOR('',#1320,10.);
#419=VECTOR('',#1321,10.);
#420=VECTOR('',#1324,10.);
#421=VECTOR('',#1325,10.);
#422=VECTOR('',#1326,10.);
#423=VECTOR('',#1329,10.);
#424=VECTOR('',#1330,10.);
#425=VECTOR('',#1331,10.);
#426=VECTOR('',#1334,10.);
#427=VECTOR('',#1335,10.);
#428=VECTOR('',#1336,10.);
#429=VECTOR('',#1343,10.);
#430=VECTOR('',#1346,10.);
#431=VECTOR('',#1347,10.);
#432=VECTOR('',#1348,10.);
#433=VECTOR('',#1351,10.);
#434=VECTOR('',#1352,10.);
#435=VECTOR('',#1353,10.);
#436=VECTOR('',#1356,10.);
#437=VECTOR('',#1357,10.);
#438=VECTOR('',#1358,10.);
#439=CIRCLE('',#1050,9.99999999999999);
#440=CIRCLE('',#1051,9.99999999999999);
#441=CIRCLE('',#1053,1.5);
#442=CIRCLE('',#1054,1.5);
#443=CIRCLE('',#1056,1.5);
#444=CIRCLE('',#1057,1.5);
#445=CIRCLE('',#1059,1.5);
#446=CIRCLE('',#1060,1.5);
#447=CIRCLE('',#1101,20.0000000000004);
#448=CIRCLE('',#1102,20.0000000000004);
#449=CIRCLE('',#1107,20.0000000000004);
#450=CIRCLE('',#1108,20.0000000000004);
#451=VERTEX_POINT('',#1371);
#452=VERTEX_POINT('',#1373);
#453=VERTEX_POINT('',#1377);
#454=VERTEX_POINT('',#1379);
#455=VERTEX_POINT('',#1383);
#456=VERTEX_POINT('',#1385);
#457=VERTEX_POINT('',#1389);
#458=VERTEX_POINT('',#1391);
#459=VERTEX_POINT('',#1395);
#460=VERTEX_POINT('',#1396);
#461=VERTEX_POINT('',#1398);
#462=VERTEX_POINT('',#1400);
#463=VERTEX_POINT('',#1404);
#464=VERTEX_POINT('',#1406);
#465=VERTEX_POINT('',#1410);
#466=VERTEX_POINT('',#1412);
#467=VERTEX_POINT('',#1416);
#468=VERTEX_POINT('',#1418);
#469=VERTEX_POINT('',#1422);
#470=VERTEX_POINT('',#1424);
#471=VERTEX_POINT('',#1428);
#472=VERTEX_POINT('',#1430);
#473=VERTEX_POINT('',#1434);
#474=VERTEX_POINT('',#1436);
#475=VERTEX_POINT('',#1440);
#476=VERTEX_POINT('',#1442);
#477=VERTEX_POINT('',#1446);
#478=VERTEX_POINT('',#1448);
#479=VERTEX_POINT('',#1452);
#480=VERTEX_POINT('',#1454);
#481=VERTEX_POINT('',#1458);
#482=VERTEX_POINT('',#1460);
#483=VERTEX_POINT('',#1464);
#484=VERTEX_POINT('',#1466);
#485=VERTEX_POINT('',#1470);
#486=VERTEX_POINT('',#1472);
#487=VERTEX_POINT('',#1476);
#488=VERTEX_POINT('',#1478);
#489=VERTEX_POINT('',#1482);
#490=VERTEX_POINT('',#1484);
#491=VERTEX_POINT('',#1488);
#492=VERTEX_POINT('',#1490);
#493=VERTEX_POINT('',#1494);
#494=VERTEX_POINT('',#1496);
#495=VERTEX_POINT('',#1500);
#496=VERTEX_POINT('',#1502);
#497=VERTEX_POINT('',#1506);
#498=VERTEX_POINT('',#1508);
#499=VERTEX_POINT('',#1512);
#500=VERTEX_POINT('',#1514);
#501=VERTEX_POINT('',#1518);
#502=VERTEX_POINT('',#1520);
#503=VERTEX_POINT('',#1524);
#504=VERTEX_POINT('',#1526);
#505=VERTEX_POINT('',#1530);
#506=VERTEX_POINT('',#1532);
#507=VERTEX_POINT('',#1536);
#508=VERTEX_POINT('',#1538);
#509=VERTEX_POINT('',#1542);
#510=VERTEX_POINT('',#1544);
#511=VERTEX_POINT('',#1548);
#512=VERTEX_POINT('',#1550);
#513=VERTEX_POINT('',#1554);
#514=VERTEX_POINT('',#1556);
#515=VERTEX_POINT('',#1560);
#516=VERTEX_POINT('',#1562);
#517=VERTEX_POINT('',#1566);
#518=VERTEX_POINT('',#1568);
#519=VERTEX_POINT('',#1572);
#520=VERTEX_POINT('',#1574);
#521=VERTEX_POINT('',#1578);
#522=VERTEX_POINT('',#1580);
#523=VERTEX_POINT('',#1584);
#524=VERTEX_POINT('',#1586);
#525=VERTEX_POINT('',#1590);
#526=VERTEX_POINT('',#1592);
#527=VERTEX_POINT('',#1596);
#528=VERTEX_POINT('',#1598);
#529=VERTEX_POINT('',#1602);
#530=VERTEX_POINT('',#1604);
#531=VERTEX_POINT('',#1608);
#532=VERTEX_POINT('',#1610);
#533=VERTEX_POINT('',#1614);
#534=VERTEX_POINT('',#1616);
#535=VERTEX_POINT('',#1620);
#536=VERTEX_POINT('',#1622);
#537=VERTEX_POINT('',#1626);
#538=VERTEX_POINT('',#1628);
#539=VERTEX_POINT('',#1632);
#540=VERTEX_POINT('',#1634);
#541=VERTEX_POINT('',#1638);
#542=VERTEX_POINT('',#1640);
#543=VERTEX_POINT('',#1644);
#544=VERTEX_POINT('',#1646);
#545=VERTEX_POINT('',#1650);
#546=VERTEX_POINT('',#1652);
#547=EDGE_CURVE('',#451,#451,#439,.T.);
#548=EDGE_CURVE('',#451,#452,#175,.T.);
#549=EDGE_CURVE('',#452,#452,#440,.T.);
#550=EDGE_CURVE('',#453,#453,#441,.T.);
#551=EDGE_CURVE('',#453,#454,#176,.T.);
#552=EDGE_CURVE('',#454,#454,#442,.T.);
#553=EDGE_CURVE('',#455,#455,#443,.T.);
#554=EDGE_CURVE('',#455,#456,#177,.T.);
#555=EDGE_CURVE('',#456,#456,#444,.T.);
#556=EDGE_CURVE('',#457,#457,#445,.T.);
#557=EDGE_CURVE('',#457,#458,#178,.T.);
#558=EDGE_CURVE('',#458,#458,#446,.T.);
#559=EDGE_CURVE('',#459,#460,#179,.T.);
#560=EDGE_CURVE('',#459,#461,#180,.T.);
#561=EDGE_CURVE('',#462,#461,#181,.T.);
#562=EDGE_CURVE('',#460,#462,#182,.T.);
#563=EDGE_CURVE('',#463,#460,#183,.T.);
#564=EDGE_CURVE('',#464,#462,#184,.T.);
#565=EDGE_CURVE('',#463,#464,#185,.T.);
#566=EDGE_CURVE('',#465,#463,#186,.T.);
#567=EDGE_CURVE('',#466,#464,#187,.T.);
#568=EDGE_CURVE('',#465,#466,#188,.T.);
#569=EDGE_CURVE('',#467,#465,#189,.T.);
#570=EDGE_CURVE('',#468,#466,#190,.T.);
#571=EDGE_CURVE('',#467,#468,#191,.T.);
#572=EDGE_CURVE('',#467,#469,#192,.T.);
#573=EDGE_CURVE('',#470,#468,#193,.T.);
#574=EDGE_CURVE('',#469,#470,#194,.T.);
#575=EDGE_CURVE('',#471,#469,#195,.T.);
#576=EDGE_CURVE('',#472,#470,#196,.T.);
#577=EDGE_CURVE('',#471,#472,#197,.T.);
#578=EDGE_CURVE('',#473,#471,#198,.T.);
#579=EDGE_CURVE('',#474,#472,#199,.T.);
#580=EDGE_CURVE('',#473,#474,#200,.T.);
#581=EDGE_CURVE('',#475,#473,#201,.T.);
#582=EDGE_CURVE('',#476,#474,#202,.T.);
#583=EDGE_CURVE('',#475,#476,#203,.T.);
#584=EDGE_CURVE('',#475,#477,#204,.T.);
#585=EDGE_CURVE('',#478,#476,#205,.T.);
#586=EDGE_CURVE('',#477,#478,#206,.T.);
#587=EDGE_CURVE('',#477,#479,#207,.T.);
#588=EDGE_CURVE('',#480,#478,#208,.T.);
#589=EDGE_CURVE('',#479,#480,#209,.T.);
#590=EDGE_CURVE('',#479,#481,#210,.T.);
#591=EDGE_CURVE('',#482,#480,#211,.T.);
#592=EDGE_CURVE('',#481,#482,#212,.T.);
#593=EDGE_CURVE('',#481,#483,#213,.T.);
#594=EDGE_CURVE('',#484,#482,#214,.T.);
#595=EDGE_CURVE('',#483,#484,#215,.T.);
#596=EDGE_CURVE('',#483,#485,#216,.T.);
#597=EDGE_CURVE('',#486,#484,#217,.T.);
#598=EDGE_CURVE('',#485,#486,#218,.T.);
#599=EDGE_CURVE('',#487,#485,#219,.T.);
#600=EDGE_CURVE('',#488,#486,#220,.T.);
#601=EDGE_CURVE('',#487,#488,#221,.T.);
#602=EDGE_CURVE('',#487,#489,#222,.T.);
#603=EDGE_CURVE('',#490,#488,#223,.T.);
#604=EDGE_CURVE('',#489,#490,#224,.T.);
#605=EDGE_CURVE('',#489,#491,#225,.T.);
#606=EDGE_CURVE('',#492,#490,#226,.T.);
#607=EDGE_CURVE('',#491,#492,#227,.T.);
#608=EDGE_CURVE('',#491,#493,#228,.T.);
#609=EDGE_CURVE('',#494,#492,#229,.T.);
#610=EDGE_CURVE('',#493,#494,#230,.T.);
#611=EDGE_CURVE('',#495,#493,#231,.T.);
#612=EDGE_CURVE('',#496,#494,#232,.T.);
#613=EDGE_CURVE('',#495,#496,#233,.T.);
#614=EDGE_CURVE('',#495,#497,#234,.T.);
#615=EDGE_CURVE('',#498,#496,#235,.T.);
#616=EDGE_CURVE('',#497,#498,#236,.T.);
#617=EDGE_CURVE('',#497,#499,#237,.T.);
#618=EDGE_CURVE('',#500,#498,#238,.T.);
#619=EDGE_CURVE('',#499,#500,#239,.T.);
#620=EDGE_CURVE('',#499,#501,#240,.T.);
#621=EDGE_CURVE('',#502,#500,#241,.T.);
#622=EDGE_CURVE('',#501,#502,#242,.T.);
#623=EDGE_CURVE('',#503,#501,#243,.T.);
#624=EDGE_CURVE('',#504,#502,#244,.T.);
#625=EDGE_CURVE('',#503,#504,#245,.T.);
#626=EDGE_CURVE('',#505,#503,#246,.T.);
#627=EDGE_CURVE('',#506,#504,#247,.T.);
#628=EDGE_CURVE('',#505,#506,#248,.T.);
#629=EDGE_CURVE('',#507,#505,#249,.T.);
#630=EDGE_CURVE('',#508,#506,#250,.T.);
#631=EDGE_CURVE('',#507,#508,#251,.T.);
#632=EDGE_CURVE('',#509,#507,#252,.T.);
#633=EDGE_CURVE('',#510,#508,#253,.T.);
#634=EDGE_CURVE('',#509,#510,#254,.T.);
#635=EDGE_CURVE('',#511,#509,#255,.T.);
#636=EDGE_CURVE('',#512,#510,#256,.T.);
#637=EDGE_CURVE('',#511,#512,#257,.T.);
#638=EDGE_CURVE('',#511,#513,#258,.T.);
#639=EDGE_CURVE('',#514,#512,#259,.T.);
#640=EDGE_CURVE('',#513,#514,#260,.T.);
#641=EDGE_CURVE('',#515,#513,#261,.T.);
#642=EDGE_CURVE('',#516,#514,#262,.T.);
#643=EDGE_CURVE('',#515,#516,#263,.T.);
#644=EDGE_CURVE('',#517,#515,#264,.T.);
#645=EDGE_CURVE('',#518,#516,#265,.T.);
#646=EDGE_CURVE('',#517,#518,#266,.T.);
#647=EDGE_CURVE('',#519,#517,#267,.T.);
#648=EDGE_CURVE('',#520,#518,#268,.T.);
#649=EDGE_CURVE('',#519,#520,#269,.T.);
#650=EDGE_CURVE('',#519,#521,#270,.T.);
#651=EDGE_CURVE('',#522,#520,#271,.T.);
#652=EDGE_CURVE('',#521,#522,#272,.T.);
#653=EDGE_CURVE('',#521,#523,#273,.T.);
#654=EDGE_CURVE('',#524,#522,#274,.T.);
#655=EDGE_CURVE('',#523,#524,#275,.T.);
#656=EDGE_CURVE('',#523,#525,#276,.T.);
#657=EDGE_CURVE('',#526,#524,#277,.T.);
#658=EDGE_CURVE('',#525,#526,#278,.T.);
#659=EDGE_CURVE('',#525,#527,#279,.T.);
#660=EDGE_CURVE('',#528,#526,#280,.T.);
#661=EDGE_CURVE('',#527,#528,#281,.T.);
#662=EDGE_CURVE('',#527,#529,#282,.T.);
#663=EDGE_CURVE('',#530,#528,#283,.T.);
#664=EDGE_CURVE('',#529,#530,#284,.T.);
#665=EDGE_CURVE('',#531,#529,#285,.T.);
#666=EDGE_CURVE('',#532,#530,#286,.T.);
#667=EDGE_CURVE('',#531,#532,#287,.T.);
#668=EDGE_CURVE('',#533,#531,#288,.T.);
#669=EDGE_CURVE('',#534,#532,#289,.T.);
#670=EDGE_CURVE('',#533,#534,#290,.T.);
#671=EDGE_CURVE('',#535,#533,#291,.T.);
#672=EDGE_CURVE('',#536,#534,#292,.T.);
#673=EDGE_CURVE('',#535,#536,#293,.T.);
#674=EDGE_CURVE('',#535,#537,#294,.T.);
#675=EDGE_CURVE('',#538,#536,#295,.T.);
#676=EDGE_CURVE('',#537,#538,#296,.T.);
#677=EDGE_CURVE('',#539,#537,#447,.T.);
#678=EDGE_CURVE('',#540,#538,#448,.T.);
#679=EDGE_CURVE('',#539,#540,#297,.T.);
#680=EDGE_CURVE('',#541,#539,#298,.T.);
#681=EDGE_CURVE('',#542,#540,#299,.T.);
#682=EDGE_CURVE('',#541,#542,#300,.T.);
#683=EDGE_CURVE('',#543,#541,#301,.T.);
#684=EDGE_CURVE('',#544,#542,#302,.T.);
#685=EDGE_CURVE('',#543,#544,#303,.T.);
#686=EDGE_CURVE('',#545,#543,#304,.T.);
#687=EDGE_CURVE('',#546,#544,#305,.T.);
#688=EDGE_CURVE('',#545,#546,#306,.T.);
#689=EDGE_CURVE('',#459,#545,#449,.T.);
#690=EDGE_CURVE('',#461,#546,#450,.T.);
#691=ORIENTED_EDGE('',*,*,#547,.F.);
#692=ORIENTED_EDGE('',*,*,#548,.T.);
#693=ORIENTED_EDGE('',*,*,#549,.T.);
#694=ORIENTED_EDGE('',*,*,#548,.F.);
#695=ORIENTED_EDGE('',*,*,#550,.F.);
#696=ORIENTED_EDGE('',*,*,#551,.T.);
#697=ORIENTED_EDGE('',*,*,#552,.T.);
#698=ORIENTED_EDGE('',*,*,#551,.F.);
#699=ORIENTED_EDGE('',*,*,#553,.F.);
#700=ORIENTED_EDGE('',*,*,#554,.T.);
#701=ORIENTED_EDGE('',*,*,#555,.T.);
#702=ORIENTED_EDGE('',*,*,#554,.F.);
#703=ORIENTED_EDGE('',*,*,#556,.F.);
#704=ORIENTED_EDGE('',*,*,#557,.T.);
#705=ORIENTED_EDGE('',*,*,#558,.T.);
#706=ORIENTED_EDGE('',*,*,#557,.F.);
#707=ORIENTED_EDGE('',*,*,#559,.F.);
#708=ORIENTED_EDGE('',*,*,#560,.T.);
#709=ORIENTED_EDGE('',*,*,#561,.F.);
#710=ORIENTED_EDGE('',*,*,#562,.F.);
#711=ORIENTED_EDGE('',*,*,#563,.T.);
#712=ORIENTED_EDGE('',*,*,#562,.T.);
#713=ORIENTED_EDGE('',*,*,#564,.F.);
#714=ORIENTED_EDGE('',*,*,#565,.F.);
#715=ORIENTED_EDGE('',*,*,#566,.T.);
#716=ORIENTED_EDGE('',*,*,#565,.T.);
#717=ORIENTED_EDGE('',*,*,#567,.F.);
#718=ORIENTED_EDGE('',*,*,#568,.F.);
#719=ORIENTED_EDGE('',*,*,#569,.T.);
#720=ORIENTED_EDGE('',*,*,#568,.T.);
#721=ORIENTED_EDGE('',*,*,#570,.F.);
#722=ORIENTED_EDGE('',*,*,#571,.F.);
#723=ORIENTED_EDGE('',*,*,#572,.F.);
#724=ORIENTED_EDGE('',*,*,#571,.T.);
#725=ORIENTED_EDGE('',*,*,#573,.F.);
#726=ORIENTED_EDGE('',*,*,#574,.F.);
#727=ORIENTED_EDGE('',*,*,#575,.T.);
#728=ORIENTED_EDGE('',*,*,#574,.T.);
#729=ORIENTED_EDGE('',*,*,#576,.F.);
#730=ORIENTED_EDGE('',*,*,#577,.F.);
#731=ORIENTED_EDGE('',*,*,#578,.T.);
#732=ORIENTED_EDGE('',*,*,#577,.T.);
#733=ORIENTED_EDGE('',*,*,#579,.F.);
#734=ORIENTED_EDGE('',*,*,#580,.F.);
#735=ORIENTED_EDGE('',*,*,#581,.T.);
#736=ORIENTED_EDGE('',*,*,#580,.T.);
#737=ORIENTED_EDGE('',*,*,#582,.F.);
#738=ORIENTED_EDGE('',*,*,#583,.F.);
#739=ORIENTED_EDGE('',*,*,#584,.F.);
#740=ORIENTED_EDGE('',*,*,#583,.T.);
#741=ORIENTED_EDGE('',*,*,#585,.F.);
#742=ORIENTED_EDGE('',*,*,#586,.F.);
#743=ORIENTED_EDGE('',*,*,#587,.F.);
#744=ORIENTED_EDGE('',*,*,#586,.T.);
#745=ORIENTED_EDGE('',*,*,#588,.F.);
#746=ORIENTED_EDGE('',*,*,#589,.F.);
#747=ORIENTED_EDGE('',*,*,#590,.F.);
#748=ORIENTED_EDGE('',*,*,#589,.T.);
#749=ORIENTED_EDGE('',*,*,#591,.F.);
#750=ORIENTED_EDGE('',*,*,#592,.F.);
#751=ORIENTED_EDGE('',*,*,#593,.F.);
#752=ORIENTED_EDGE('',*,*,#592,.T.);
#753=ORIENTED_EDGE('',*,*,#594,.F.);
#754=ORIENTED_EDGE('',*,*,#595,.F.);
#755=ORIENTED_EDGE('',*,*,#596,.F.);
#756=ORIENTED_EDGE('',*,*,#595,.T.);
#757=ORIENTED_EDGE('',*,*,#597,.F.);
#758=ORIENTED_EDGE('',*,*,#598,.F.);
#759=ORIENTED_EDGE('',*,*,#599,.T.);
#760=ORIENTED_EDGE('',*,*,#598,.T.);
#761=ORIENTED_EDGE('',*,*,#600,.F.);
#762=ORIENTED_EDGE('',*,*,#601,.F.);
#763=ORIENTED_EDGE('',*,*,#602,.F.);
#764=ORIENTED_EDGE('',*,*,#601,.T.);
#765=ORIENTED_EDGE('',*,*,#603,.F.);
#766=ORIENTED_EDGE('',*,*,#604,.F.);
#767=ORIENTED_EDGE('',*,*,#605,.F.);
#768=ORIENTED_EDGE('',*,*,#604,.T.);
#769=ORIENTED_EDGE('',*,*,#606,.F.);
#770=ORIENTED_EDGE('',*,*,#607,.F.);
#771=ORIENTED_EDGE('',*,*,#608,.F.);
#772=ORIENTED_EDGE('',*,*,#607,.T.);
#773=ORIENTED_EDGE('',*,*,#609,.F.);
#774=ORIENTED_EDGE('',*,*,#610,.F.);
#775=ORIENTED_EDGE('',*,*,#611,.T.);
#776=ORIENTED_EDGE('',*,*,#610,.T.);
#777=ORIENTED_EDGE('',*,*,#612,.F.);
#778=ORIENTED_EDGE('',*,*,#613,.F.);
#779=ORIENTED_EDGE('',*,*,#614,.F.);
#780=ORIENTED_EDGE('',*,*,#613,.T.);
#781=ORIENTED_EDGE('',*,*,#615,.F.);
#782=ORIENTED_EDGE('',*,*,#616,.F.);
#783=ORIENTED_EDGE('',*,*,#617,.F.);
#784=ORIENTED_EDGE('',*,*,#616,.T.);
#785=ORIENTED_EDGE('',*,*,#618,.F.);
#786=ORIENTED_EDGE('',*,*,#619,.F.);
#787=ORIENTED_EDGE('',*,*,#620,.F.);
#788=ORIENTED_EDGE('',*,*,#619,.T.);
#789=ORIENTED_EDGE('',*,*,#621,.F.);
#790=ORIENTED_EDGE('',*,*,#622,.F.);
#791=ORIENTED_EDGE('',*,*,#623,.T.);
#792=ORIENTED_EDGE('',*,*,#622,.T.);
#793=ORIENTED_EDGE('',*,*,#624,.F.);
#794=ORIENTED_EDGE('',*,*,#625,.F.);
#795=ORIENTED_EDGE('',*,*,#626,.T.);
#796=ORIENTED_EDGE('',*,*,#625,.T.);
#797=ORIENTED_EDGE('',*,*,#627,.F.);
#798=ORIENTED_EDGE('',*,*,#628,.F.);
#799=ORIENTED_EDGE('',*,*,#629,.T.);
#800=ORIENTED_EDGE('',*,*,#628,.T.);
#801=ORIENTED_EDGE('',*,*,#630,.F.);
#802=ORIENTED_EDGE('',*,*,#631,.F.);
#803=ORIENTED_EDGE('',*,*,#632,.T.);
#804=ORIENTED_EDGE('',*,*,#631,.T.);
#805=ORIENTED_EDGE('',*,*,#633,.F.);
#806=ORIENTED_EDGE('',*,*,#634,.F.);
#807=ORIENTED_EDGE('',*,*,#635,.T.);
#808=ORIENTED_EDGE('',*,*,#634,.T.);
#809=ORIENTED_EDGE('',*,*,#636,.F.);
#810=ORIENTED_EDGE('',*,*,#637,.F.);
#811=ORIENTED_EDGE('',*,*,#638,.F.);
#812=ORIENTED_EDGE('',*,*,#637,.T.);
#813=ORIENTED_EDGE('',*,*,#639,.F.);
#814=ORIENTED_EDGE('',*,*,#640,.F.);
#815=ORIENTED_EDGE('',*,*,#641,.T.);
#816=ORIENTED_EDGE('',*,*,#640,.T.);
#817=ORIENTED_EDGE('',*,*,#642,.F.);
#818=ORIENTED_EDGE('',*,*,#643,.F.);
#819=ORIENTED_EDGE('',*,*,#644,.T.);
#820=ORIENTED_EDGE('',*,*,#643,.T.);
#821=ORIENTED_EDGE('',*,*,#645,.F.);
#822=ORIENTED_EDGE('',*,*,#646,.F.);
#823=ORIENTED_EDGE('',*,*,#647,.T.);
#824=ORIENTED_EDGE('',*,*,#646,.T.);
#825=ORIENTED_EDGE('',*,*,#648,.F.);
#826=ORIENTED_EDGE('',*,*,#649,.F.);
#827=ORIENTED_EDGE('',*,*,#650,.F.);
#828=ORIENTED_EDGE('',*,*,#649,.T.);
#829=ORIENTED_EDGE('',*,*,#651,.F.);
#830=ORIENTED_EDGE('',*,*,#652,.F.);
#831=ORIENTED_EDGE('',*,*,#653,.F.);
#832=ORIENTED_EDGE('',*,*,#652,.T.);
#833=ORIENTED_EDGE('',*,*,#654,.F.);
#834=ORIENTED_EDGE('',*,*,#655,.F.);
#835=ORIENTED_EDGE('',*,*,#656,.F.);
#836=ORIENTED_EDGE('',*,*,#655,.T.);
#837=ORIENTED_EDGE('',*,*,#657,.F.);
#838=ORIENTED_EDGE('',*,*,#658,.F.);
#839=ORIENTED_EDGE('',*,*,#659,.F.);
#840=ORIENTED_EDGE('',*,*,#658,.T.);
#841=ORIENTED_EDGE('',*,*,#660,.F.);
#842=ORIENTED_EDGE('',*,*,#661,.F.);
#843=ORIENTED_EDGE('',*,*,#662,.F.);
#844=ORIENTED_EDGE('',*,*,#661,.T.);
#845=ORIENTED_EDGE('',*,*,#663,.F.);
#846=ORIENTED_EDGE('',*,*,#664,.F.);
#847=ORIENTED_EDGE('',*,*,#665,.T.);
#848=ORIENTED_EDGE('',*,*,#664,.T.);
#849=ORIENTED_EDGE('',*,*,#666,.F.);
#850=ORIENTED_EDGE('',*,*,#667,.F.);
#851=ORIENTED_EDGE('',*,*,#668,.T.);
#852=ORIENTED_EDGE('',*,*,#667,.T.);
#853=ORIENTED_EDGE('',*,*,#669,.F.);
#854=ORIENTED_EDGE('',*,*,#670,.F.);
#855=ORIENTED_EDGE('',*,*,#671,.T.);
#856=ORIENTED_EDGE('',*,*,#670,.T.);
#857=ORIENTED_EDGE('',*,*,#672,.F.);
#858=ORIENTED_EDGE('',*,*,#673,.F.);
#859=ORIENTED_EDGE('',*,*,#674,.F.);
#860=ORIENTED_EDGE('',*,*,#673,.T.);
#861=ORIENTED_EDGE('',*,*,#675,.F.);
#862=ORIENTED_EDGE('',*,*,#676,.F.);
#863=ORIENTED_EDGE('',*,*,#677,.T.);
#864=ORIENTED_EDGE('',*,*,#676,.T.);
#865=ORIENTED_EDGE('',*,*,#678,.F.);
#866=ORIENTED_EDGE('',*,*,#679,.F.);
#867=ORIENTED_EDGE('',*,*,#680,.T.);
#868=ORIENTED_EDGE('',*,*,#679,.T.);
#869=ORIENTED_EDGE('',*,*,#681,.F.);
#870=ORIENTED_EDGE('',*,*,#682,.F.);
#871=ORIENTED_EDGE('',*,*,#683,.T.);
#872=ORIENTED_EDGE('',*,*,#682,.T.);
#873=ORIENTED_EDGE('',*,*,#684,.F.);
#874=ORIENTED_EDGE('',*,*,#685,.F.);
#875=ORIENTED_EDGE('',*,*,#686,.T.);
#876=ORIENTED_EDGE('',*,*,#685,.T.);
#877=ORIENTED_EDGE('',*,*,#687,.F.);
#878=ORIENTED_EDGE('',*,*,#688,.F.);
#879=ORIENTED_EDGE('',*,*,#689,.T.);
#880=ORIENTED_EDGE('',*,*,#688,.T.);
#881=ORIENTED_EDGE('',*,*,#690,.F.);
#882=ORIENTED_EDGE('',*,*,#560,.F.);
#883=ORIENTED_EDGE('',*,*,#690,.T.);
#884=ORIENTED_EDGE('',*,*,#687,.T.);
#885=ORIENTED_EDGE('',*,*,#684,.T.);
#886=ORIENTED_EDGE('',*,*,#681,.T.);
#887=ORIENTED_EDGE('',*,*,#678,.T.);
#888=ORIENTED_EDGE('',*,*,#675,.T.);
#889=ORIENTED_EDGE('',*,*,#672,.T.);
#890=ORIENTED_EDGE('',*,*,#669,.T.);
#891=ORIENTED_EDGE('',*,*,#666,.T.);
#892=ORIENTED_EDGE('',*,*,#663,.T.);
#893=ORIENTED_EDGE('',*,*,#660,.T.);
#894=ORIENTED_EDGE('',*,*,#657,.T.);
#895=ORIENTED_EDGE('',*,*,#654,.T.);
#896=ORIENTED_EDGE('',*,*,#651,.T.);
#897=ORIENTED_EDGE('',*,*,#648,.T.);
#898=ORIENTED_EDGE('',*,*,#645,.T.);
#899=ORIENTED_EDGE('',*,*,#642,.T.);
#900=ORIENTED_EDGE('',*,*,#639,.T.);
#901=ORIENTED_EDGE('',*,*,#636,.T.);
#902=ORIENTED_EDGE('',*,*,#633,.T.);
#903=ORIENTED_EDGE('',*,*,#630,.T.);
#904=ORIENTED_EDGE('',*,*,#627,.T.);
#905=ORIENTED_EDGE('',*,*,#624,.T.);
#906=ORIENTED_EDGE('',*,*,#621,.T.);
#907=ORIENTED_EDGE('',*,*,#618,.T.);
#908=ORIENTED_EDGE('',*,*,#615,.T.);
#909=ORIENTED_EDGE('',*,*,#612,.T.);
#910=ORIENTED_EDGE('',*,*,#609,.T.);
#911=ORIENTED_EDGE('',*,*,#606,.T.);
#912=ORIENTED_EDGE('',*,*,#603,.T.);
#913=ORIENTED_EDGE('',*,*,#600,.T.);
#914=ORIENTED_EDGE('',*,*,#597,.T.);
#915=ORIENTED_EDGE('',*,*,#594,.T.);
#916=ORIENTED_EDGE('',*,*,#591,.T.);
#917=ORIENTED_EDGE('',*,*,#588,.T.);
#918=ORIENTED_EDGE('',*,*,#585,.T.);
#919=ORIENTED_EDGE('',*,*,#582,.T.);
#920=ORIENTED_EDGE('',*,*,#579,.T.);
#921=ORIENTED_EDGE('',*,*,#576,.T.);
#922=ORIENTED_EDGE('',*,*,#573,.T.);
#923=ORIENTED_EDGE('',*,*,#570,.T.);
#924=ORIENTED_EDGE('',*,*,#567,.T.);
#925=ORIENTED_EDGE('',*,*,#564,.T.);
#926=ORIENTED_EDGE('',*,*,#561,.T.);
#927=ORIENTED_EDGE('',*,*,#556,.T.);
#928=ORIENTED_EDGE('',*,*,#553,.T.);
#929=ORIENTED_EDGE('',*,*,#550,.T.);
#930=ORIENTED_EDGE('',*,*,#547,.T.);
#931=ORIENTED_EDGE('',*,*,#689,.F.);
#932=ORIENTED_EDGE('',*,*,#559,.T.);
#933=ORIENTED_EDGE('',*,*,#563,.F.);
#934=ORIENTED_EDGE('',*,*,#566,.F.);
#935=ORIENTED_EDGE('',*,*,#569,.F.);
#936=ORIENTED_EDGE('',*,*,#572,.T.);
#937=ORIENTED_EDGE('',*,*,#575,.F.);
#938=ORIENTED_EDGE('',*,*,#578,.F.);
#939=ORIENTED_EDGE('',*,*,#581,.F.);
#940=ORIENTED_EDGE('',*,*,#584,.T.);
#941=ORIENTED_EDGE('',*,*,#587,.T.);
#942=ORIENTED_EDGE('',*,*,#590,.T.);
#943=ORIENTED_EDGE('',*,*,#593,.T.);
#944=ORIENTED_EDGE('',*,*,#596,.T.);
#945=ORIENTED_EDGE('',*,*,#599,.F.);
#946=ORIENTED_EDGE('',*,*,#602,.T.);
#947=ORIENTED_EDGE('',*,*,#605,.T.);
#948=ORIENTED_EDGE('',*,*,#608,.T.);
#949=ORIENTED_EDGE('',*,*,#611,.F.);
#950=ORIENTED_EDGE('',*,*,#614,.T.);
#951=ORIENTED_EDGE('',*,*,#617,.T.);
#952=ORIENTED_EDGE('',*,*,#620,.T.);
#953=ORIENTED_EDGE('',*,*,#623,.F.);
#954=ORIENTED_EDGE('',*,*,#626,.F.);
#955=ORIENTED_EDGE('',*,*,#629,.F.);
#956=ORIENTED_EDGE('',*,*,#632,.F.);
#957=ORIENTED_EDGE('',*,*,#635,.F.);
#958=ORIENTED_EDGE('',*,*,#638,.T.);
#959=ORIENTED_EDGE('',*,*,#641,.F.);
#960=ORIENTED_EDGE('',*,*,#644,.F.);
#961=ORIENTED_EDGE('',*,*,#647,.F.);
#962=ORIENTED_EDGE('',*,*,#650,.T.);
#963=ORIENTED_EDGE('',*,*,#653,.T.);
#964=ORIENTED_EDGE('',*,*,#656,.T.);
#965=ORIENTED_EDGE('',*,*,#659,.T.);
#966=ORIENTED_EDGE('',*,*,#662,.T.);
#967=ORIENTED_EDGE('',*,*,#665,.F.);
#968=ORIENTED_EDGE('',*,*,#668,.F.);
#969=ORIENTED_EDGE('',*,*,#671,.F.);
#970=ORIENTED_EDGE('',*,*,#674,.T.);
#971=ORIENTED_EDGE('',*,*,#677,.F.);
#972=ORIENTED_EDGE('',*,*,#680,.F.);
#973=ORIENTED_EDGE('',*,*,#683,.F.);
#974=ORIENTED_EDGE('',*,*,#686,.F.);
#975=ORIENTED_EDGE('',*,*,#558,.F.);
#976=ORIENTED_EDGE('',*,*,#555,.F.);
#977=ORIENTED_EDGE('',*,*,#552,.F.);
#978=ORIENTED_EDGE('',*,*,#549,.F.);
#979=CYLINDRICAL_SURFACE('',#1049,9.99999999999999);
#980=CYLINDRICAL_SURFACE('',#1052,1.5);
#981=CYLINDRICAL_SURFACE('',#1055,1.5);
#982=CYLINDRICAL_SURFACE('',#1058,1.5);
#983=CYLINDRICAL_SURFACE('',#1100,20.0000000000004);
#984=CYLINDRICAL_SURFACE('',#1106,20.0000000000004);
#985=ADVANCED_FACE('',(#67),#979,.F.);
#986=ADVANCED_FACE('',(#68),#980,.F.);
#987=ADVANCED_FACE('',(#69),#981,.F.);
#988=ADVANCED_FACE('',(#70),#982,.F.);
#989=ADVANCED_FACE('',(#71),#23,.T.);
#990=ADVANCED_FACE('',(#72),#24,.T.);
#991=ADVANCED_FACE('',(#73),#25,.T.);
#992=ADVANCED_FACE('',(#74),#26,.T.);
#993=ADVANCED_FACE('',(#75),#27,.T.);
#994=ADVANCED_FACE('',(#76),#28,.T.);
#995=ADVANCED_FACE('',(#77),#29,.T.);
#996=ADVANCED_FACE('',(#78),#30,.T.);
#997=ADVANCED_FACE('',(#79),#31,.T.);
#998=ADVANCED_FACE('',(#80),#32,.T.);
#999=ADVANCED_FACE('',(#81),#33,.T.);
#1000=ADVANCED_FACE('',(#82),#34,.T.);
#1001=ADVANCED_FACE('',(#83),#35,.T.);
#1002=ADVANCED_FACE('',(#84),#36,.T.);
#1003=ADVANCED_FACE('',(#85),#37,.T.);
#1004=ADVANCED_FACE('',(#86),#38,.T.);
#1005=ADVANCED_FACE('',(#87),#39,.T.);
#1006=ADVANCED_FACE('',(#88),#40,.T.);
#1007=ADVANCED_FACE('',(#89),#41,.T.);
#1008=ADVANCED_FACE('',(#90),#42,.T.);
#1009=ADVANCED_FACE('',(#91),#43,.T.);
#1010=ADVANCED_FACE('',(#92),#44,.T.);
#1011=ADVANCED_FACE('',(#93),#45,.T.);
#1012=ADVANCED_FACE('',(#94),#46,.T.);
#1013=ADVANCED_FACE('',(#95),#47,.T.);
#1014=ADVANCED_FACE('',(#96),#48,.T.);
#1015=ADVANCED_FACE('',(#97),#49,.T.);
#1016=ADVANCED_FACE('',(#98),#50,.T.);
#1017=ADVANCED_FACE('',(#99),#51,.T.);
#1018=ADVANCED_FACE('',(#100),#52,.T.);
#1019=ADVANCED_FACE('',(#101),#53,.T.);
#1020=ADVANCED_FACE('',(#102),#54,.T.);
#1021=ADVANCED_FACE('',(#103),#55,.T.);
#1022=ADVANCED_FACE('',(#104),#56,.T.);
#1023=ADVANCED_FACE('',(#105),#57,.T.);
#1024=ADVANCED_FACE('',(#106),#58,.T.);
#1025=ADVANCED_FACE('',(#107),#59,.T.);
#1026=ADVANCED_FACE('',(#108),#60,.T.);
#1027=ADVANCED_FACE('',(#109),#61,.T.);
#1028=ADVANCED_FACE('',(#110),#983,.T.);
#1029=ADVANCED_FACE('',(#111),#62,.T.);
#1030=ADVANCED_FACE('',(#112),#63,.T.);
#1031=ADVANCED_FACE('',(#113),#64,.T.);
#1032=ADVANCED_FACE('',(#114),#984,.T.);
#1033=ADVANCED_FACE('',(#115,#15,#16,#17,#18),#65,.T.);
#1034=ADVANCED_FACE('',(#116,#19,#20,#21,#22),#66,.F.);
#1035=CLOSED_SHELL('',(#985,#986,#987,#988,#989,#990,#991,#992,#993,#994,
#995,#996,#997,#998,#999,#1000,#1001,#1002,#1003,#1004,#1005,#1006,#1007,
#1008,#1009,#1010,#1011,#1012,#1013,#1014,#1015,#1016,#1017,#1018,#1019,
#1020,#1021,#1022,#1023,#1024,#1025,#1026,#1027,#1028,#1029,#1030,#1031,
#1032,#1033,#1034));
#1036=DERIVED_UNIT_ELEMENT(#1038,1.);
#1037=DERIVED_UNIT_ELEMENT(#1665,-3.);
#1038=(
MASS_UNIT()
NAMED_UNIT(*)
SI_UNIT(.KILO.,.GRAM.)
);
#1039=DERIVED_UNIT((#1036,#1037));
#1040=MEASURE_REPRESENTATION_ITEM('density measure',
POSITIVE_RATIO_MEASURE(7850.),#1039);
#1041=PROPERTY_DEFINITION_REPRESENTATION(#1046,#1043);
#1042=PROPERTY_DEFINITION_REPRESENTATION(#1047,#1044);
#1043=REPRESENTATION('material name',(#1045),#1662);
#1044=REPRESENTATION('density',(#1040),#1662);
#1045=DESCRIPTIVE_REPRESENTATION_ITEM('Steel','Steel');
#1046=PROPERTY_DEFINITION('material property','material name',#1672);
#1047=PROPERTY_DEFINITION('material property','density of part',#1672);
#1048=AXIS2_PLACEMENT_3D('',#1369,#1111,#1112);
#1049=AXIS2_PLACEMENT_3D('',#1370,#1113,#1114);
#1050=AXIS2_PLACEMENT_3D('',#1372,#1115,#1116);
#1051=AXIS2_PLACEMENT_3D('',#1375,#1118,#1119);
#1052=AXIS2_PLACEMENT_3D('',#1376,#1120,#1121);
#1053=AXIS2_PLACEMENT_3D('',#1378,#1122,#1123);
#1054=AXIS2_PLACEMENT_3D('',#1381,#1125,#1126);
#1055=AXIS2_PLACEMENT_3D('',#1382,#1127,#1128);
#1056=AXIS2_PLACEMENT_3D('',#1384,#1129,#1130);
#1057=AXIS2_PLACEMENT_3D('',#1387,#1132,#1133);
#1058=AXIS2_PLACEMENT_3D('',#1388,#1134,#1135);
#1059=AXIS2_PLACEMENT_3D('',#1390,#1136,#1137);
#1060=AXIS2_PLACEMENT_3D('',#1393,#1139,#1140);
#1061=AXIS2_PLACEMENT_3D('',#1394,#1141,#1142);
#1062=AXIS2_PLACEMENT_3D('',#1403,#1147,#1148);
#1063=AXIS2_PLACEMENT_3D('',#1409,#1152,#1153);
#1064=AXIS2_PLACEMENT_3D('',#1415,#1157,#1158);
#1065=AXIS2_PLACEMENT_3D('',#1421,#1162,#1163);
#1066=AXIS2_PLACEMENT_3D('',#1427,#1167,#1168);
#1067=AXIS2_PLACEMENT_3D('',#1433,#1172,#1173);
#1068=AXIS2_PLACEMENT_3D('',#1439,#1177,#1178);
#1069=AXIS2_PLACEMENT_3D('',#1445,#1182,#1183);
#1070=AXIS2_PLACEMENT_3D('',#1451,#1187,#1188);
#1071=AXIS2_PLACEMENT_3D('',#1457,#1192,#1193);
#1072=AXIS2_PLACEMENT_3D('',#1463,#1197,#1198);
#1073=AXIS2_PLACEMENT_3D('',#1469,#1202,#1203);
#1074=AXIS2_PLACEMENT_3D('',#1475,#1207,#1208);
#1075=AXIS2_PLACEMENT_3D('',#1481,#1212,#1213);
#1076=AXIS2_PLACEMENT_3D('',#1487,#1217,#1218);
#1077=AXIS2_PLACEMENT_3D('',#1493,#1222,#1223);
#1078=AXIS2_PLACEMENT_3D('',#1499,#1227,#1228);
#1079=AXIS2_PLACEMENT_3D('',#1505,#1232,#1233);
#1080=AXIS2_PLACEMENT_3D('',#1511,#1237,#1238);
#1081=AXIS2_PLACEMENT_3D('',#1517,#1242,#1243);
#1082=AXIS2_PLACEMENT_3D('',#1523,#1247,#1248);
#1083=AXIS2_PLACEMENT_3D('',#1529,#1252,#1253);
#1084=AXIS2_PLACEMENT_3D('',#1535,#1257,#1258);
#1085=AXIS2_PLACEMENT_3D('',#1541,#1262,#1263);
#1086=AXIS2_PLACEMENT_3D('',#1547,#1267,#1268);
#1087=AXIS2_PLACEMENT_3D('',#1553,#1272,#1273);
#1088=AXIS2_PLACEMENT_3D('',#1559,#1277,#1278);
#1089=AXIS2_PLACEMENT_3D('',#1565,#1282,#1283);
#1090=AXIS2_PLACEMENT_3D('',#1571,#1287,#1288);
#1091=AXIS2_PLACEMENT_3D('',#1577,#1292,#1293);
#1092=AXIS2_PLACEMENT_3D('',#1583,#1297,#1298);
#1093=AXIS2_PLACEMENT_3D('',#1589,#1302,#1303);
#1094=AXIS2_PLACEMENT_3D('',#1595,#1307,#1308);
#1095=AXIS2_PLACEMENT_3D('',#1601,#1312,#1313);
#1096=AXIS2_PLACEMENT_3D('',#1607,#1317,#1318);
#1097=AXIS2_PLACEMENT_3D('',#1613,#1322,#1323);
#1098=AXIS2_PLACEMENT_3D('',#1619,#1327,#1328);
#1099=AXIS2_PLACEMENT_3D('',#1625,#1332,#1333);
#1100=AXIS2_PLACEMENT_3D('',#1631,#1337,#1338);
#1101=AXIS2_PLACEMENT_3D('',#1633,#1339,#1340);
#1102=AXIS2_PLACEMENT_3D('',#1635,#1341,#1342);
#1103=AXIS2_PLACEMENT_3D('',#1637,#1344,#1345);
#1104=AXIS2_PLACEMENT_3D('',#1643,#1349,#1350);
#1105=AXIS2_PLACEMENT_3D('',#1649,#1354,#1355);
#1106=AXIS2_PLACEMENT_3D('',#1655,#1359,#1360);
#1107=AXIS2_PLACEMENT_3D('',#1656,#1361,#1362);
#1108=AXIS2_PLACEMENT_3D('',#1657,#1363,#1364);
#1109=AXIS2_PLACEMENT_3D('',#1658,#1365,#1366);
#1110=AXIS2_PLACEMENT_3D('',#1659,#1367,#1368);
#1111=DIRECTION('axis',(0.,0.,1.));
#1112=DIRECTION('refdir',(1.,0.,0.));
#1113=DIRECTION('center_axis',(0.,-0.996194698091745,-0.08715574274766));
#1114=DIRECTION('ref_axis',(1.,0.,0.));
#1115=DIRECTION('center_axis',(0.,0.996194698091746,0.087155742747658));
#1116=DIRECTION('ref_axis',(1.,0.,0.));
#1117=DIRECTION('',(0.,0.996194698091745,0.08715574274766));
#1118=DIRECTION('center_axis',(0.,0.996194698091746,0.087155742747658));
#1119=DIRECTION('ref_axis',(1.,0.,0.));
#1120=DIRECTION('center_axis',(0.,-0.996194698091745,-0.08715574274766));
#1121=DIRECTION('ref_axis',(1.,0.,0.));
#1122=DIRECTION('center_axis',(0.,0.996194698091746,0.087155742747658));
#1123=DIRECTION('ref_axis',(1.,0.,0.));
#1124=DIRECTION('',(0.,0.996194698091745,0.08715574274766));
#1125=DIRECTION('center_axis',(0.,0.996194698091746,0.087155742747658));
#1126=DIRECTION('ref_axis',(1.,0.,0.));
#1127=DIRECTION('center_axis',(0.,-0.996194698091745,-0.08715574274766));
#1128=DIRECTION('ref_axis',(1.,0.,0.));
#1129=DIRECTION('center_axis',(0.,0.996194698091746,0.087155742747658));
#1130=DIRECTION('ref_axis',(1.,0.,0.));
#1131=DIRECTION('',(0.,0.996194698091745,0.08715574274766));
#1132=DIRECTION('center_axis',(0.,0.996194698091746,0.087155742747658));
#1133=DIRECTION('ref_axis',(1.,0.,0.));
#1134=DIRECTION('center_axis',(0.,-0.996194698091745,-0.08715574274766));
#1135=DIRECTION('ref_axis',(1.,0.,0.));
#1136=DIRECTION('center_axis',(0.,0.996194698091746,0.087155742747658));
#1137=DIRECTION('ref_axis',(1.,0.,0.));
#1138=DIRECTION('',(0.,0.996194698091745,0.08715574274766));
#1139=DIRECTION('center_axis',(0.,0.996194698091746,0.087155742747658));
#1140=DIRECTION('ref_axis',(1.,0.,0.));
#1141=DIRECTION('center_axis',(0.977352667250009,-0.0184436386932145,0.210811754916671));
#1142=DIRECTION('ref_axis',(-0.21161702157268,-0.0851818976405792,0.973633545280286));
#1143=DIRECTION('',(0.21161702157268,0.0851818976405792,-0.973633545280286));
#1144=DIRECTION('',(0.,-0.996194698091745,-0.08715574274766));
#1145=DIRECTION('',(-0.21161702157268,-0.0851818976405792,0.973633545280285));
#1146=DIRECTION('',(0.,-0.996194698091745,-0.08715574274766));
#1147=DIRECTION('center_axis',(0.,0.08715574274766,-0.996194698091745));
#1148=DIRECTION('ref_axis',(1.,0.,0.));
#1149=DIRECTION('',(1.,0.,0.));
#1150=DIRECTION('',(1.,0.,0.));
#1151=DIRECTION('',(0.,-0.996194698091745,-0.08715574274766));
#1152=DIRECTION('center_axis',(1.,-1.11221048651447E-16,1.27126240325398E-15));
#1153=DIRECTION('ref_axis',(-1.27611841910937E-15,-0.087155742747658,0.996194698091746));
#1154=DIRECTION('',(-1.27611841910937E-15,-0.087155742747658,0.996194698091746));
#1155=DIRECTION('',(-1.27611841910937E-15,-0.087155742747658,0.996194698091746));
#1156=DIRECTION('',(0.,-0.996194698091745,-0.08715574274766));
#1157=DIRECTION('center_axis',(0.,-0.08715574274766,0.996194698091745));
#1158=DIRECTION('ref_axis',(-1.,0.,0.));
#1159=DIRECTION('',(-1.,0.,0.));
#1160=DIRECTION('',(-1.,0.,0.));
#1161=DIRECTION('',(0.,-0.996194698091745,-0.08715574274766));
#1162=DIRECTION('center_axis',(0.977352667250009,-0.0184436386932145,0.210811754916671));
#1163=DIRECTION('ref_axis',(-0.21161702157268,-0.0851818976405792,0.973633545280286));
#1164=DIRECTION('',(0.21161702157268,0.0851818976405792,-0.973633545280286));
#1165=DIRECTION('',(-0.21161702157268,-0.0851818976405792,0.973633545280285));
#1166=DIRECTION('',(0.,-0.996194698091745,-0.08715574274766));
#1167=DIRECTION('center_axis',(0.,0.08715574274766,-0.996194698091745));
#1168=DIRECTION('ref_axis',(1.,0.,0.));
#1169=DIRECTION('',(1.,0.,0.));
#1170=DIRECTION('',(1.,0.,0.));
#1171=DIRECTION('',(0.,-0.996194698091745,-0.08715574274766));
#1172=DIRECTION('center_axis',(1.,-1.11221048651447E-16,1.27126240325398E-15));
#1173=DIRECTION('ref_axis',(-1.27611841910938E-15,-0.087155742747658,0.996194698091746));
#1174=DIRECTION('',(-1.27611841910938E-15,-0.087155742747658,0.996194698091746));
#1175=DIRECTION('',(-1.27611841910938E-15,-0.087155742747658,0.996194698091746));
#1176=DIRECTION('',(0.,-0.996194698091745,-0.08715574274766));
#1177=DIRECTION('center_axis',(0.,-0.08715574274766,0.996194698091745));
#1178=DIRECTION('ref_axis',(-1.,0.,0.));
#1179=DIRECTION('',(-1.,0.,0.));
#1180=DIRECTION('',(-1.,0.,0.));
#1181=DIRECTION('',(0.,-0.996194698091745,-0.08715574274766));
#1182=DIRECTION('center_axis',(0.977352667250009,-0.0184436386932145,0.210811754916671));
#1183=DIRECTION('ref_axis',(-0.21161702157268,-0.0851818976405792,0.973633545280286));
#1184=DIRECTION('',(0.21161702157268,0.0851818976405792,-0.973633545280286));
#1185=DIRECTION('',(-0.21161702157268,-0.0851818976405792,0.973633545280285));
#1186=DIRECTION('',(0.,-0.996194698091745,-0.08715574274766));
#1187=DIRECTION('center_axis',(0.,0.08715574274766,-0.996194698091745));
#1188=DIRECTION('ref_axis',(1.,0.,0.));
#1189=DIRECTION('',(-1.,0.,0.));
#1190=DIRECTION('',(1.,0.,0.));
#1191=DIRECTION('',(0.,-0.996194698091745,-0.08715574274766));
#1192=DIRECTION('center_axis',(1.,0.,0.));
#1193=DIRECTION('ref_axis',(0.,-0.087155742747658,0.996194698091746));
#1194=DIRECTION('',(0.,0.087155742747658,-0.996194698091746));
#1195=DIRECTION('',(0.,-0.087155742747658,0.996194698091746));
#1196=DIRECTION('',(0.,-0.996194698091745,-0.08715574274766));
#1197=DIRECTION('center_axis',(0.,-0.08715574274766,0.996194698091745));
#1198=DIRECTION('ref_axis',(-1.,0.,0.));
#1199=DIRECTION('',(1.,0.,0.));
#1200=DIRECTION('',(-1.,0.,0.));
#1201=DIRECTION('',(0.,-0.996194698091745,-0.08715574274766));
#1202=DIRECTION('center_axis',(0.977352667250009,-0.0184436386932145,0.210811754916671));
#1203=DIRECTION('ref_axis',(-0.21161702157268,-0.0851818976405792,0.973633545280286));
#1204=DIRECTION('',(0.21161702157268,0.0851818976405792,-0.973633545280286));
#1205=DIRECTION('',(-0.21161702157268,-0.0851818976405792,0.973633545280285));
#1206=DIRECTION('',(0.,-0.996194698091745,-0.08715574274766));
#1207=DIRECTION('center_axis',(2.46519032881566E-32,0.08715574274766,-0.996194698091745));
#1208=DIRECTION('ref_axis',(1.,-2.14855494122272E-33,2.45580953535321E-32));
#1209=DIRECTION('',(1.,-2.14855494122272E-33,2.45580953535321E-32));
#1210=DIRECTION('',(1.,-2.14855494122272E-33,2.45580953535321E-32));
#1211=DIRECTION('',(0.,-0.996194698091745,-0.08715574274766));
#1212=DIRECTION('center_axis',(1.,0.,0.));
#1213=DIRECTION('ref_axis',(0.,-0.087155742747658,0.996194698091746));
#1214=DIRECTION('',(0.,0.087155742747658,-0.996194698091746));
#1215=DIRECTION('',(0.,-0.087155742747658,0.996194698091746));
#1216=DIRECTION('',(0.,-0.996194698091745,-0.08715574274766));
#1217=DIRECTION('center_axis',(0.,0.08715574274766,-0.996194698091745));
#1218=DIRECTION('ref_axis',(1.,0.,0.));
#1219=DIRECTION('',(-1.,0.,0.));
#1220=DIRECTION('',(1.,0.,0.));
#1221=DIRECTION('',(0.,-0.996194698091745,-0.08715574274766));
#1222=DIRECTION('center_axis',(-1.,0.,0.));
#1223=DIRECTION('ref_axis',(0.,0.087155742747658,-0.996194698091746));
#1224=DIRECTION('',(0.,-0.087155742747658,0.996194698091746));
#1225=DIRECTION('',(0.,0.087155742747658,-0.996194698091746));
#1226=DIRECTION('',(0.,-0.996194698091745,-0.08715574274766));
#1227=DIRECTION('center_axis',(0.,0.08715574274766,-0.996194698091745));
#1228=DIRECTION('ref_axis',(1.,0.,0.));
#1229=DIRECTION('',(1.,0.,0.));
#1230=DIRECTION('',(1.,0.,0.));
#1231=DIRECTION('',(0.,-0.996194698091745,-0.08715574274766));
#1232=DIRECTION('center_axis',(1.,0.,0.));
#1233=DIRECTION('ref_axis',(0.,-0.087155742747658,0.996194698091746));
#1234=DIRECTION('',(0.,0.087155742747658,-0.996194698091746));
#1235=DIRECTION('',(0.,-0.087155742747658,0.996194698091746));
#1236=DIRECTION('',(0.,-0.996194698091745,-0.08715574274766));
#1237=DIRECTION('center_axis',(0.,0.08715574274766,-0.996194698091745));
#1238=DIRECTION('ref_axis',(1.,0.,0.));
#1239=DIRECTION('',(-1.,0.,0.));
#1240=DIRECTION('',(1.,0.,0.));
#1241=DIRECTION('',(0.,-0.996194698091745,-0.08715574274766));
#1242=DIRECTION('center_axis',(-1.,0.,0.));
#1243=DIRECTION('ref_axis',(0.,0.087155742747658,-0.996194698091746));
#1244=DIRECTION('',(0.,-0.087155742747658,0.996194698091746));
#1245=DIRECTION('',(0.,0.087155742747658,-0.996194698091746));
#1246=DIRECTION('',(0.,-0.996194698091745,-0.08715574274766));
#1247=DIRECTION('center_axis',(0.,0.08715574274766,-0.996194698091745));
#1248=DIRECTION('ref_axis',(1.,0.,0.));
#1249=DIRECTION('',(1.,0.,0.));
#1250=DIRECTION('',(1.,0.,0.));
#1251=DIRECTION('',(0.,-0.996194698091745,-0.08715574274766));
#1252=DIRECTION('center_axis',(1.,0.,0.));
#1253=DIRECTION('ref_axis',(0.,-0.087155742747658,0.996194698091746));
#1254=DIRECTION('',(0.,-0.087155742747658,0.996194698091746));
#1255=DIRECTION('',(0.,-0.087155742747658,0.996194698091746));
#1256=DIRECTION('',(0.,-0.996194698091745,-0.08715574274766));
#1257=DIRECTION('center_axis',(0.,0.08715574274766,-0.996194698091745));
#1258=DIRECTION('ref_axis',(1.,0.,0.));
#1259=DIRECTION('',(1.,0.,0.));
#1260=DIRECTION('',(1.,0.,0.));
#1261=DIRECTION('',(0.,-0.996194698091745,-0.08715574274766));
#1262=DIRECTION('center_axis',(-1.,0.,0.));
#1263=DIRECTION('ref_axis',(0.,0.087155742747658,-0.996194698091746));
#1264=DIRECTION('',(0.,0.087155742747658,-0.996194698091746));
#1265=DIRECTION('',(0.,0.087155742747658,-0.996194698091746));
#1266=DIRECTION('',(0.,-0.996194698091745,-0.08715574274766));
#1267=DIRECTION('center_axis',(0.,0.08715574274766,-0.996194698091745));
#1268=DIRECTION('ref_axis',(1.,0.,0.));
#1269=DIRECTION('',(1.,0.,0.));
#1270=DIRECTION('',(1.,0.,0.));
#1271=DIRECTION('',(0.,-0.996194698091745,-0.08715574274766));
#1272=DIRECTION('center_axis',(-0.977352667250009,-0.0184436386932145,0.210811754916671));
#1273=DIRECTION('ref_axis',(-0.21161702157268,0.0851818976405792,-0.973633545280286));
#1274=DIRECTION('',(0.21161702157268,-0.0851818976405792,0.973633545280286));
#1275=DIRECTION('',(-0.21161702157268,0.0851818976405792,-0.973633545280285));
#1276=DIRECTION('',(0.,-0.996194698091745,-0.08715574274766));
#1277=DIRECTION('center_axis',(0.,-0.08715574274766,0.996194698091745));
#1278=DIRECTION('ref_axis',(-1.,0.,0.));
#1279=DIRECTION('',(-1.,0.,0.));
#1280=DIRECTION('',(-1.,0.,0.));
#1281=DIRECTION('',(0.,-0.996194698091745,-0.08715574274766));
#1282=DIRECTION('center_axis',(-1.,0.,0.));
#1283=DIRECTION('ref_axis',(0.,0.087155742747658,-0.996194698091746));
#1284=DIRECTION('',(0.,0.087155742747658,-0.996194698091746));
#1285=DIRECTION('',(0.,0.087155742747658,-0.996194698091746));
#1286=DIRECTION('',(0.,-0.996194698091745,-0.08715574274766));
#1287=DIRECTION('center_axis',(0.,0.08715574274766,-0.996194698091745));
#1288=DIRECTION('ref_axis',(1.,0.,0.));
#1289=DIRECTION('',(1.,0.,0.));
#1290=DIRECTION('',(1.,0.,0.));
#1291=DIRECTION('',(0.,-0.996194698091745,-0.08715574274766));
#1292=DIRECTION('center_axis',(-0.977352667250009,-0.0184436386932145,0.210811754916671));
#1293=DIRECTION('ref_axis',(-0.21161702157268,0.0851818976405792,-0.973633545280286));
#1294=DIRECTION('',(0.21161702157268,-0.0851818976405792,0.973633545280286));
#1295=DIRECTION('',(-0.21161702157268,0.0851818976405792,-0.973633545280285));
#1296=DIRECTION('',(0.,-0.996194698091745,-0.08715574274766));
#1297=DIRECTION('center_axis',(0.,-0.08715574274766,0.996194698091745));
#1298=DIRECTION('ref_axis',(-1.,0.,0.));
#1299=DIRECTION('',(1.,0.,0.));
#1300=DIRECTION('',(-1.,0.,0.));
#1301=DIRECTION('',(0.,-0.996194698091745,-0.08715574274766));
#1302=DIRECTION('center_axis',(-1.,1.11221048651447E-16,-1.27126240325398E-15));
#1303=DIRECTION('ref_axis',(1.27611841910938E-15,0.087155742747658,-0.996194698091746));
#1304=DIRECTION('',(-1.27611841910938E-15,-0.087155742747658,0.996194698091746));
#1305=DIRECTION('',(1.27611841910938E-15,0.087155742747658,-0.996194698091746));
#1306=DIRECTION('',(0.,-0.996194698091745,-0.08715574274766));
#1307=DIRECTION('center_axis',(0.,0.08715574274766,-0.996194698091745));
#1308=DIRECTION('ref_axis',(1.,0.,0.));
#1309=DIRECTION('',(-1.,0.,0.));
#1310=DIRECTION('',(1.,0.,0.));
#1311=DIRECTION('',(0.,-0.996194698091745,-0.08715574274766));
#1312=DIRECTION('center_axis',(-0.977352667250009,-0.0184436386932145,0.210811754916671));
#1313=DIRECTION('ref_axis',(-0.21161702157268,0.0851818976405792,-0.973633545280286));
#1314=DIRECTION('',(0.21161702157268,-0.0851818976405792,0.973633545280286));
#1315=DIRECTION('',(-0.21161702157268,0.0851818976405792,-0.973633545280285));
#1316=DIRECTION('',(0.,-0.996194698091745,-0.08715574274766));
#1317=DIRECTION('center_axis',(0.,-0.08715574274766,0.996194698091745));
#1318=DIRECTION('ref_axis',(-1.,0.,0.));
#1319=DIRECTION('',(-1.,0.,0.));
#1320=DIRECTION('',(-1.,0.,0.));
#1321=DIRECTION('',(0.,-0.996194698091745,-0.08715574274766));
#1322=DIRECTION('center_axis',(-1.,-1.11221048651447E-16,1.27126240325398E-15));
#1323=DIRECTION('ref_axis',(-1.27611841910937E-15,0.087155742747658,-0.996194698091746));
#1324=DIRECTION('',(-1.27611841910937E-15,0.087155742747658,-0.996194698091746));
#1325=DIRECTION('',(-1.27611841910937E-15,0.087155742747658,-0.996194698091746));
#1326=DIRECTION('',(0.,-0.996194698091745,-0.08715574274766));
#1327=DIRECTION('center_axis',(0.,0.08715574274766,-0.996194698091745));
#1328=DIRECTION('ref_axis',(1.,0.,0.));
#1329=DIRECTION('',(1.,0.,0.));
#1330=DIRECTION('',(1.,0.,0.));
#1331=DIRECTION('',(0.,-0.996194698091745,-0.08715574274766));
#1332=DIRECTION('center_axis',(-0.977352667250009,-0.0184436386932145,0.210811754916671));
#1333=DIRECTION('ref_axis',(-0.21161702157268,0.0851818976405792,-0.973633545280286));
#1334=DIRECTION('',(0.21161702157268,-0.0851818976405792,0.973633545280286));
#1335=DIRECTION('',(-0.21161702157268,0.0851818976405792,-0.973633545280285));
#1336=DIRECTION('',(0.,-0.996194698091745,-0.08715574274766));
#1337=DIRECTION('center_axis',(0.,-0.996194698091745,-0.08715574274766));
#1338=DIRECTION('ref_axis',(0.977352667250009,-0.0184436386932146,0.210811754916672));
#1339=DIRECTION('center_axis',(0.,-0.996194698091746,-0.087155742747658));
#1340=DIRECTION('ref_axis',(0.977352667250009,-0.0184436386932142,0.210811754916672));
#1341=DIRECTION('center_axis',(0.,-0.996194698091746,-0.087155742747658));
#1342=DIRECTION('ref_axis',(0.977352667250009,-0.0184436386932142,0.210811754916672));
#1343=DIRECTION('',(0.,-0.996194698091745,-0.08715574274766));
#1344=DIRECTION('center_axis',(1.,0.,0.));
#1345=DIRECTION('ref_axis',(0.,-0.087155742747658,0.996194698091746));
#1346=DIRECTION('',(0.,-0.087155742747658,0.996194698091746));
#1347=DIRECTION('',(0.,-0.087155742747658,0.996194698091746));
#1348=DIRECTION('',(0.,-0.996194698091745,-0.08715574274766));
#1349=DIRECTION('center_axis',(0.,-0.08715574274766,0.996194698091745));
#1350=DIRECTION('ref_axis',(-1.,0.,0.));
#1351=DIRECTION('',(-1.,0.,0.));
#1352=DIRECTION('',(-1.,0.,0.));
#1353=DIRECTION('',(0.,-0.996194698091745,-0.08715574274766));
#1354=DIRECTION('center_axis',(-1.,0.,0.));
#1355=DIRECTION('ref_axis',(0.,0.087155742747658,-0.996194698091746));
#1356=DIRECTION('',(0.,0.087155742747658,-0.996194698091746));
#1357=DIRECTION('',(0.,0.087155742747658,-0.996194698091746));
#1358=DIRECTION('',(0.,-0.996194698091745,-0.08715574274766));
#1359=DIRECTION('center_axis',(0.,-0.996194698091745,-0.08715574274766));
#1360=DIRECTION('ref_axis',(0.977352667250009,-0.0184436386932146,0.210811754916672));
#1361=DIRECTION('center_axis',(0.,-0.996194698091746,-0.087155742747658));
#1362=DIRECTION('ref_axis',(0.977352667250009,-0.0184436386932142,0.210811754916672));
#1363=DIRECTION('center_axis',(0.,-0.996194698091746,-0.087155742747658));
#1364=DIRECTION('ref_axis',(0.977352667250009,-0.0184436386932142,0.210811754916672));
#1365=DIRECTION('center_axis',(0.,-0.996194698091746,-0.087155742747658));
#1366=DIRECTION('ref_axis',(1.,0.,0.));
#1367=DIRECTION('center_axis',(0.,-0.996194698091746,-0.087155742747658));
#1368=DIRECTION('ref_axis',(1.,0.,0.));
#1369=CARTESIAN_POINT('',(0.,0.,0.));
#1370=CARTESIAN_POINT('Origin',(0.,-449.529469513289,261.817218759769));
#1371=CARTESIAN_POINT('',(-9.99999999999999,-452.996227062649,261.513916775007));
#1372=CARTESIAN_POINT('Origin',(0.,-452.996227062649,261.513916775007));
#1373=CARTESIAN_POINT('',(-9.99999999999999,-449.529469513289,261.817218759769));
#1374=CARTESIAN_POINT('',(-9.99999999999999,-449.529469513289,261.817218759769));
#1375=CARTESIAN_POINT('Origin',(0.,-449.529469513289,261.817218759769));
#1376=CARTESIAN_POINT('Origin',(0.,-450.836805654504,276.760139231145));
#1377=CARTESIAN_POINT('',(-1.5,-454.303563203863,276.456837246383));
#1378=CARTESIAN_POINT('Origin',(0.,-454.303563203863,276.456837246383));
#1379=CARTESIAN_POINT('',(-1.5,-450.836805654504,276.760139231145));
#1380=CARTESIAN_POINT('',(-1.5,-450.836805654504,276.760139231145));
#1381=CARTESIAN_POINT('Origin',(0.,-450.836805654504,276.760139231145));
#1382=CARTESIAN_POINT('Origin',(-12.9903810567666,-448.875801442682,254.345758524081));
#1383=CARTESIAN_POINT('',(-14.4903810567666,-452.342558992041,254.042456539319));
#1384=CARTESIAN_POINT('Origin',(-12.9903810567666,-452.342558992041,254.042456539319));
#1385=CARTESIAN_POINT('',(-14.4903810567666,-448.875801442682,254.345758524081));
#1386=CARTESIAN_POINT('',(-14.4903810567666,-448.875801442682,254.345758524081));
#1387=CARTESIAN_POINT('Origin',(-12.9903810567666,-448.875801442682,254.345758524081));
#1388=CARTESIAN_POINT('Origin',(12.9903810567666,-448.875801442682,254.345758524081));
#1389=CARTESIAN_POINT('',(11.4903810567666,-452.342558992041,254.042456539319));
#1390=CARTESIAN_POINT('Origin',(12.9903810567666,-452.342558992041,254.042456539319));
#1391=CARTESIAN_POINT('',(11.4903810567666,-448.875801442682,254.345758524081));
#1392=CARTESIAN_POINT('',(11.4903810567666,-448.875801442682,254.345758524081));
#1393=CARTESIAN_POINT('Origin',(12.9903810567666,-448.875801442682,254.345758524081));
#1394=CARTESIAN_POINT('Origin',(39.7596509023964,-446.782320501883,230.417161875917));
#1395=CARTESIAN_POINT('',(19.5470533450005,-454.918468546066,323.413759563934));
#1396=CARTESIAN_POINT('',(39.7596509023964,-446.782320501883,230.417161875917));
#1397=CARTESIAN_POINT('',(19.5470533450005,-454.918468546066,323.413759563934));
#1398=CARTESIAN_POINT('',(19.5470533450005,-458.385226095425,323.110457579173));
#1399=CARTESIAN_POINT('',(19.5470533450005,-454.918468546066,323.413759563934));
#1400=CARTESIAN_POINT('',(39.7596509023964,-450.249078051242,230.113859891155));
#1401=CARTESIAN_POINT('',(19.5470533450005,-458.385226095425,323.110457579173));
#1402=CARTESIAN_POINT('',(39.7596509023964,-446.782320501883,230.417161875917));
#1403=CARTESIAN_POINT('Origin',(25.5131427173265,-446.782320501883,230.417161875917));
#1404=CARTESIAN_POINT('',(25.5131427173265,-446.782320501883,230.417161875917));
#1405=CARTESIAN_POINT('',(25.5131427173265,-446.782320501883,230.417161875917));
#1406=CARTESIAN_POINT('',(25.5131427173265,-450.249078051242,230.113859891155));
#1407=CARTESIAN_POINT('',(25.5131427173265,-450.249078051242,230.113859891155));
#1408=CARTESIAN_POINT('',(25.5131427173265,-446.782320501883,230.417161875917));
#1409=CARTESIAN_POINT('Origin',(25.5131427173265,-446.479018517121,226.950404326558));
#1410=CARTESIAN_POINT('',(25.5131427173265,-446.479018517121,226.950404326558));
#1411=CARTESIAN_POINT('',(25.5131427173265,-446.479018517121,226.950404326558));
#1412=CARTESIAN_POINT('',(25.5131427173265,-449.945776066481,226.647102341796));
#1413=CARTESIAN_POINT('',(25.5131427173265,-449.945776066481,226.647102341796));
#1414=CARTESIAN_POINT('',(25.5131427173265,-446.479018517121,226.950404326558));
#1415=CARTESIAN_POINT('Origin',(40.5131427173265,-446.479018517121,226.950404326558));
#1416=CARTESIAN_POINT('',(40.5131427173265,-446.479018517121,226.950404326558));
#1417=CARTESIAN_POINT('',(40.5131427173265,-446.479018517121,226.950404326558));
#1418=CARTESIAN_POINT('',(40.5131427173265,-449.945776066481,226.647102341796));
#1419=CARTESIAN_POINT('',(40.5131427173265,-449.945776066481,226.647102341796));
#1420=CARTESIAN_POINT('',(40.5131427173265,-446.479018517121,226.950404326558));
#1421=CARTESIAN_POINT('Origin',(46.2552699966209,-444.167648219453,200.531320933165));
#1422=CARTESIAN_POINT('',(46.2552699966209,-444.167648219453,200.531320933165));
#1423=CARTESIAN_POINT('',(19.5470533450005,-454.918468546066,323.413759563934));
#1424=CARTESIAN_POINT('',(46.2552699966209,-447.634405768813,200.228018948403));
#1425=CARTESIAN_POINT('',(19.5470533450005,-458.385226095425,323.110457579173));
#1426=CARTESIAN_POINT('',(46.2552699966209,-444.167648219453,200.531320933165));
#1427=CARTESIAN_POINT('Origin',(32.008761811551,-444.167648219453,200.531320933165));
#1428=CARTESIAN_POINT('',(32.008761811551,-444.167648219453,200.531320933165));
#1429=CARTESIAN_POINT('',(32.008761811551,-444.167648219453,200.531320933165));
#1430=CARTESIAN_POINT('',(32.008761811551,-447.634405768813,200.228018948403));
#1431=CARTESIAN_POINT('',(32.008761811551,-447.634405768813,200.228018948403));
#1432=CARTESIAN_POINT('',(32.008761811551,-444.167648219453,200.531320933165));
#1433=CARTESIAN_POINT('Origin',(32.008761811551,-443.864346234691,197.064563383806));
#1434=CARTESIAN_POINT('',(32.008761811551,-443.864346234691,197.064563383806));
#1435=CARTESIAN_POINT('',(32.008761811551,-443.864346234691,197.064563383806));
#1436=CARTESIAN_POINT('',(32.008761811551,-447.331103784051,196.761261399044));
#1437=CARTESIAN_POINT('',(32.008761811551,-447.331103784051,196.761261399044));
#1438=CARTESIAN_POINT('',(32.008761811551,-443.864346234691,197.064563383806));
#1439=CARTESIAN_POINT('Origin',(47.008761811551,-443.864346234691,197.064563383806));
#1440=CARTESIAN_POINT('',(47.008761811551,-443.864346234691,197.064563383806));
#1441=CARTESIAN_POINT('',(47.008761811551,-443.864346234691,197.064563383806));
#1442=CARTESIAN_POINT('',(47.008761811551,-447.331103784051,196.761261399044));
#1443=CARTESIAN_POINT('',(47.008761811551,-447.331103784051,196.761261399044));
#1444=CARTESIAN_POINT('',(47.008761811551,-443.864346234691,197.064563383806));
#1445=CARTESIAN_POINT('Origin',(52.7508890908454,-441.552975937024,170.645479990413));
#1446=CARTESIAN_POINT('',(52.7508890908454,-441.552975937024,170.645479990413));
#1447=CARTESIAN_POINT('',(19.5470533450005,-454.918468546066,323.413759563934));
#1448=CARTESIAN_POINT('',(52.7508890908454,-445.019733486383,170.342178005651));
#1449=CARTESIAN_POINT('',(19.5470533450005,-458.385226095425,323.110457579173));
#1450=CARTESIAN_POINT('',(52.7508890908454,-441.552975937024,170.645479990413));
#1451=CARTESIAN_POINT('Origin',(33.5043809057755,-441.552975937024,170.645479990413));
#1452=CARTESIAN_POINT('',(33.5043809057755,-441.552975937024,170.645479990413));
#1453=CARTESIAN_POINT('',(53.5043809057755,-441.552975937024,170.645479990413));
#1454=CARTESIAN_POINT('',(33.5043809057755,-445.019733486383,170.342178005651));
#1455=CARTESIAN_POINT('',(53.5043809057755,-445.019733486383,170.342178005651));
#1456=CARTESIAN_POINT('',(33.5043809057755,-441.552975937024,170.645479990413));
#1457=CARTESIAN_POINT('Origin',(33.5043809057755,-441.249673952262,167.178722441053));
#1458=CARTESIAN_POINT('',(33.5043809057755,-441.249673952262,167.178722441053));
#1459=CARTESIAN_POINT('',(33.5043809057755,-441.552975937024,170.645479990413));
#1460=CARTESIAN_POINT('',(33.5043809057755,-444.716431501621,166.875420456291));
#1461=CARTESIAN_POINT('',(33.5043809057755,-445.019733486383,170.342178005651));
#1462=CARTESIAN_POINT('',(33.5043809057755,-441.249673952262,167.178722441053));
#1463=CARTESIAN_POINT('Origin',(53.5043809057755,-441.249673952262,167.178722441053));
#1464=CARTESIAN_POINT('',(53.5043809057755,-441.249673952262,167.178722441053));
#1465=CARTESIAN_POINT('',(33.5043809057755,-441.249673952262,167.178722441053));
#1466=CARTESIAN_POINT('',(53.5043809057755,-444.716431501621,166.875420456291));
#1467=CARTESIAN_POINT('',(33.5043809057755,-444.716431501621,166.875420456291));
#1468=CARTESIAN_POINT('',(53.5043809057755,-441.249673952262,167.178722441053));
#1469=CARTESIAN_POINT('Origin',(60.,-438.635001669832,137.292881498301));
#1470=CARTESIAN_POINT('',(60.,-438.635001669832,137.292881498301));
#1471=CARTESIAN_POINT('',(19.5470533450005,-454.918468546066,323.413759563934));
#1472=CARTESIAN_POINT('',(60.,-442.101759219191,136.989579513539));
#1473=CARTESIAN_POINT('',(19.5470533450005,-458.385226095425,323.110457579173));
#1474=CARTESIAN_POINT('',(60.,-438.635001669832,137.292881498301));
#1475=CARTESIAN_POINT('Origin',(50.,-438.635001669832,137.292881498301));
#1476=CARTESIAN_POINT('',(50.,-438.635001669832,137.292881498301));
#1477=CARTESIAN_POINT('',(50.,-438.635001669832,137.292881498301));
#1478=CARTESIAN_POINT('',(50.,-442.101759219191,136.989579513539));
#1479=CARTESIAN_POINT('',(50.,-442.101759219191,136.989579513539));
#1480=CARTESIAN_POINT('',(50.,-438.635001669832,137.292881498301));
#1481=CARTESIAN_POINT('Origin',(50.,-436.194640872898,109.399429951732));
#1482=CARTESIAN_POINT('',(50.,-436.194640872898,109.399429951732));
#1483=CARTESIAN_POINT('',(50.,-438.635001669832,137.292881498301));
#1484=CARTESIAN_POINT('',(50.,-439.661398422257,109.09612796697));
#1485=CARTESIAN_POINT('',(50.,-442.101759219191,136.989579513539));
#1486=CARTESIAN_POINT('',(50.,-436.194640872898,109.399429951732));
#1487=CARTESIAN_POINT('Origin',(30.,-436.194640872898,109.399429951732));
#1488=CARTESIAN_POINT('',(30.,-436.194640872898,109.399429951732));
#1489=CARTESIAN_POINT('',(50.,-436.194640872898,109.399429951732));
#1490=CARTESIAN_POINT('',(30.,-439.661398422257,109.09612796697));
#1491=CARTESIAN_POINT('',(50.,-439.661398422257,109.09612796697));
#1492=CARTESIAN_POINT('',(30.,-436.194640872898,109.399429951732));
#1493=CARTESIAN_POINT('Origin',(30.,-438.635001669832,137.292881498301));
#1494=CARTESIAN_POINT('',(30.,-438.635001669832,137.292881498301));
#1495=CARTESIAN_POINT('',(30.,-436.194640872898,109.399429951732));
#1496=CARTESIAN_POINT('',(30.,-442.101759219191,136.989579513539));
#1497=CARTESIAN_POINT('',(30.,-439.661398422257,109.09612796697));
#1498=CARTESIAN_POINT('',(30.,-438.635001669832,137.292881498301));
#1499=CARTESIAN_POINT('Origin',(10.,-438.635001669832,137.292881498301));
#1500=CARTESIAN_POINT('',(10.,-438.635001669832,137.292881498301));
#1501=CARTESIAN_POINT('',(10.,-438.635001669832,137.292881498301));
#1502=CARTESIAN_POINT('',(10.,-442.101759219191,136.989579513539));
#1503=CARTESIAN_POINT('',(10.,-442.101759219191,136.989579513539));
#1504=CARTESIAN_POINT('',(10.,-438.635001669832,137.292881498301));
#1505=CARTESIAN_POINT('Origin',(10.,-436.194640872898,109.399429951732));
#1506=CARTESIAN_POINT('',(10.,-436.194640872898,109.399429951732));
#1507=CARTESIAN_POINT('',(10.,-438.635001669832,137.292881498301));
#1508=CARTESIAN_POINT('',(10.,-439.661398422257,109.09612796697));
#1509=CARTESIAN_POINT('',(10.,-442.101759219191,136.989579513539));
#1510=CARTESIAN_POINT('',(10.,-436.194640872898,109.399429951732));
#1511=CARTESIAN_POINT('Origin',(-10.,-436.194640872898,109.399429951732));
#1512=CARTESIAN_POINT('',(-10.,-436.194640872898,109.399429951732));
#1513=CARTESIAN_POINT('',(10.,-436.194640872898,109.399429951732));
#1514=CARTESIAN_POINT('',(-10.,-439.661398422257,109.09612796697));
#1515=CARTESIAN_POINT('',(10.,-439.661398422257,109.09612796697));
#1516=CARTESIAN_POINT('',(-10.,-436.194640872898,109.399429951732));
#1517=CARTESIAN_POINT('Origin',(-10.,-438.635001669832,137.292881498301));
#1518=CARTESIAN_POINT('',(-10.,-438.635001669832,137.292881498301));
#1519=CARTESIAN_POINT('',(-10.,-436.194640872898,109.399429951732));
#1520=CARTESIAN_POINT('',(-10.,-442.101759219191,136.989579513539));
#1521=CARTESIAN_POINT('',(-10.,-439.661398422257,109.09612796697));
#1522=CARTESIAN_POINT('',(-10.,-438.635001669832,137.292881498301));
#1523=CARTESIAN_POINT('Origin',(-30.,-438.635001669832,137.292881498301));
#1524=CARTESIAN_POINT('',(-30.,-438.635001669832,137.292881498301));
#1525=CARTESIAN_POINT('',(-30.,-438.635001669832,137.292881498301));
#1526=CARTESIAN_POINT('',(-30.,-442.101759219191,136.989579513539));
#1527=CARTESIAN_POINT('',(-30.,-442.101759219191,136.989579513539));
#1528=CARTESIAN_POINT('',(-30.,-438.635001669832,137.292881498301));
#1529=CARTESIAN_POINT('Origin',(-30.,-436.194640872898,109.399429951732));
#1530=CARTESIAN_POINT('',(-30.,-436.194640872898,109.399429951732));
#1531=CARTESIAN_POINT('',(-30.,-436.194640872898,109.399429951732));
#1532=CARTESIAN_POINT('',(-30.,-439.661398422257,109.09612796697));
#1533=CARTESIAN_POINT('',(-30.,-439.661398422257,109.09612796697));
#1534=CARTESIAN_POINT('',(-30.,-436.194640872898,109.399429951732));
#1535=CARTESIAN_POINT('Origin',(-50.,-436.194640872898,109.399429951732));
#1536=CARTESIAN_POINT('',(-50.,-436.194640872898,109.399429951732));
#1537=CARTESIAN_POINT('',(-50.,-436.194640872898,109.399429951732));
#1538=CARTESIAN_POINT('',(-50.,-439.661398422257,109.09612796697));
#1539=CARTESIAN_POINT('',(-50.,-439.661398422257,109.09612796697));
#1540=CARTESIAN_POINT('',(-50.,-436.194640872898,109.399429951732));
#1541=CARTESIAN_POINT('Origin',(-50.,-438.635001669832,137.292881498301));
#1542=CARTESIAN_POINT('',(-50.,-438.635001669832,137.292881498301));
#1543=CARTESIAN_POINT('',(-50.,-438.635001669832,137.292881498301));
#1544=CARTESIAN_POINT('',(-50.,-442.101759219191,136.989579513539));
#1545=CARTESIAN_POINT('',(-50.,-442.101759219191,136.989579513539));
#1546=CARTESIAN_POINT('',(-50.,-438.635001669832,137.292881498301));
#1547=CARTESIAN_POINT('Origin',(-60.,-438.635001669832,137.292881498301));
#1548=CARTESIAN_POINT('',(-60.,-438.635001669832,137.292881498301));
#1549=CARTESIAN_POINT('',(-60.,-438.635001669832,137.292881498301));
#1550=CARTESIAN_POINT('',(-60.,-442.101759219191,136.989579513539));
#1551=CARTESIAN_POINT('',(-60.,-442.101759219191,136.989579513539));
#1552=CARTESIAN_POINT('',(-60.,-438.635001669832,137.292881498301));
#1553=CARTESIAN_POINT('Origin',(-53.5043809057755,-441.249673952262,167.178722441053));
#1554=CARTESIAN_POINT('',(-53.5043809057755,-441.249673952262,167.178722441053));
#1555=CARTESIAN_POINT('',(-60.,-438.635001669832,137.292881498301));
#1556=CARTESIAN_POINT('',(-53.5043809057755,-444.716431501621,166.875420456291));
#1557=CARTESIAN_POINT('',(-60.,-442.101759219191,136.989579513539));
#1558=CARTESIAN_POINT('',(-53.5043809057755,-441.249673952262,167.178722441053));
#1559=CARTESIAN_POINT('Origin',(-33.5043809057755,-441.249673952262,167.178722441053));
#1560=CARTESIAN_POINT('',(-33.5043809057755,-441.249673952262,167.178722441053));
#1561=CARTESIAN_POINT('',(-33.5043809057755,-441.249673952262,167.178722441053));
#1562=CARTESIAN_POINT('',(-33.5043809057755,-444.716431501621,166.875420456291));
#1563=CARTESIAN_POINT('',(-33.5043809057755,-444.716431501621,166.875420456291));
#1564=CARTESIAN_POINT('',(-33.5043809057755,-441.249673952262,167.178722441053));
#1565=CARTESIAN_POINT('Origin',(-33.5043809057755,-441.552975937024,170.645479990413));
#1566=CARTESIAN_POINT('',(-33.5043809057755,-441.552975937024,170.645479990413));
#1567=CARTESIAN_POINT('',(-33.5043809057755,-441.552975937024,170.645479990413));
#1568=CARTESIAN_POINT('',(-33.5043809057755,-445.019733486383,170.342178005651));
#1569=CARTESIAN_POINT('',(-33.5043809057755,-445.019733486383,170.342178005651));
#1570=CARTESIAN_POINT('',(-33.5043809057755,-441.552975937024,170.645479990413));
#1571=CARTESIAN_POINT('Origin',(-52.7508890908455,-441.552975937024,170.645479990413));
#1572=CARTESIAN_POINT('',(-52.7508890908455,-441.552975937024,170.645479990413));
#1573=CARTESIAN_POINT('',(-53.5043809057755,-441.552975937024,170.645479990413));
#1574=CARTESIAN_POINT('',(-52.7508890908455,-445.019733486383,170.342178005651));
#1575=CARTESIAN_POINT('',(-53.5043809057755,-445.019733486383,170.342178005651));
#1576=CARTESIAN_POINT('',(-52.7508890908455,-441.552975937024,170.645479990413));
#1577=CARTESIAN_POINT('Origin',(-47.008761811551,-443.864346234691,197.064563383806));
#1578=CARTESIAN_POINT('',(-47.008761811551,-443.864346234691,197.064563383806));
#1579=CARTESIAN_POINT('',(-60.,-438.635001669832,137.292881498301));
#1580=CARTESIAN_POINT('',(-47.008761811551,-447.331103784051,196.761261399044));
#1581=CARTESIAN_POINT('',(-60.,-442.101759219191,136.989579513539));
#1582=CARTESIAN_POINT('',(-47.008761811551,-443.864346234691,197.064563383806));
#1583=CARTESIAN_POINT('Origin',(-32.008761811551,-443.864346234691,197.064563383806));
#1584=CARTESIAN_POINT('',(-32.008761811551,-443.864346234691,197.064563383806));
#1585=CARTESIAN_POINT('',(-47.008761811551,-443.864346234691,197.064563383806));
#1586=CARTESIAN_POINT('',(-32.008761811551,-447.331103784051,196.761261399044));
#1587=CARTESIAN_POINT('',(-47.008761811551,-447.331103784051,196.761261399044));
#1588=CARTESIAN_POINT('',(-32.008761811551,-443.864346234691,197.064563383806));
#1589=CARTESIAN_POINT('Origin',(-32.008761811551,-444.167648219453,200.531320933165));
#1590=CARTESIAN_POINT('',(-32.008761811551,-444.167648219453,200.531320933165));
#1591=CARTESIAN_POINT('',(-32.008761811551,-443.864346234691,197.064563383806));
#1592=CARTESIAN_POINT('',(-32.008761811551,-447.634405768813,200.228018948403));
#1593=CARTESIAN_POINT('',(-32.008761811551,-447.331103784051,196.761261399044));
#1594=CARTESIAN_POINT('',(-32.008761811551,-444.167648219453,200.531320933165));
#1595=CARTESIAN_POINT('Origin',(-46.255269996621,-444.167648219453,200.531320933165));
#1596=CARTESIAN_POINT('',(-46.255269996621,-444.167648219453,200.531320933165));
#1597=CARTESIAN_POINT('',(-32.008761811551,-444.167648219453,200.531320933165));
#1598=CARTESIAN_POINT('',(-46.255269996621,-447.634405768813,200.228018948403));
#1599=CARTESIAN_POINT('',(-32.008761811551,-447.634405768813,200.228018948403));
#1600=CARTESIAN_POINT('',(-46.255269996621,-444.167648219453,200.531320933165));
#1601=CARTESIAN_POINT('Origin',(-40.5131427173265,-446.479018517121,226.950404326558));
#1602=CARTESIAN_POINT('',(-40.5131427173265,-446.479018517121,226.950404326558));
#1603=CARTESIAN_POINT('',(-60.,-438.635001669832,137.292881498301));
#1604=CARTESIAN_POINT('',(-40.5131427173265,-449.945776066481,226.647102341796));
#1605=CARTESIAN_POINT('',(-60.,-442.101759219191,136.989579513539));
#1606=CARTESIAN_POINT('',(-40.5131427173265,-446.479018517121,226.950404326558));
#1607=CARTESIAN_POINT('Origin',(-25.5131427173265,-446.479018517121,226.950404326558));
#1608=CARTESIAN_POINT('',(-25.5131427173265,-446.479018517121,226.950404326558));
#1609=CARTESIAN_POINT('',(-25.5131427173265,-446.479018517121,226.950404326558));
#1610=CARTESIAN_POINT('',(-25.5131427173265,-449.945776066481,226.647102341796));
#1611=CARTESIAN_POINT('',(-25.5131427173265,-449.945776066481,226.647102341796));
#1612=CARTESIAN_POINT('',(-25.5131427173265,-446.479018517121,226.950404326558));
#1613=CARTESIAN_POINT('Origin',(-25.5131427173265,-446.782320501883,230.417161875917));
#1614=CARTESIAN_POINT('',(-25.5131427173265,-446.782320501883,230.417161875917));
#1615=CARTESIAN_POINT('',(-25.5131427173265,-446.782320501883,230.417161875917));
#1616=CARTESIAN_POINT('',(-25.5131427173265,-450.249078051242,230.113859891155));
#1617=CARTESIAN_POINT('',(-25.5131427173265,-450.249078051242,230.113859891155));
#1618=CARTESIAN_POINT('',(-25.5131427173265,-446.782320501883,230.417161875917));
#1619=CARTESIAN_POINT('Origin',(-39.7596509023964,-446.782320501883,230.417161875917));
#1620=CARTESIAN_POINT('',(-39.7596509023964,-446.782320501883,230.417161875917));
#1621=CARTESIAN_POINT('',(-40.5131427173265,-446.782320501883,230.417161875917));
#1622=CARTESIAN_POINT('',(-39.7596509023964,-450.249078051242,230.113859891155));
#1623=CARTESIAN_POINT('',(-40.5131427173265,-450.249078051242,230.113859891155));
#1624=CARTESIAN_POINT('',(-39.7596509023964,-446.782320501883,230.417161875917));
#1625=CARTESIAN_POINT('Origin',(-19.5470533450005,-454.918468546066,323.413759563934));
#1626=CARTESIAN_POINT('',(-19.5470533450005,-454.918468546066,323.413759563934));
#1627=CARTESIAN_POINT('',(-60.,-438.635001669832,137.292881498301));
#1628=CARTESIAN_POINT('',(-19.5470533450005,-458.385226095425,323.110457579173));
#1629=CARTESIAN_POINT('',(-60.,-442.101759219191,136.989579513539));
#1630=CARTESIAN_POINT('',(-19.5470533450005,-454.918468546066,323.413759563934));
#1631=CARTESIAN_POINT('Origin',(-1.66533453693773E-15,-454.549595772201,
319.197524465601));
#1632=CARTESIAN_POINT('',(-1.5,-456.287801203011,339.065303452703));
#1633=CARTESIAN_POINT('Origin',(-1.66533453693773E-15,-454.549595772201,
319.197524465601));
#1634=CARTESIAN_POINT('',(-1.5,-459.754558752371,338.762001467941));
#1635=CARTESIAN_POINT('Origin',(-1.66533453693773E-15,-458.016353321561,
318.894222480839));
#1636=CARTESIAN_POINT('',(-1.5,-456.287801203011,339.065303452703));
#1637=CARTESIAN_POINT('Origin',(-1.5,-454.55361477264,319.243461850815));
#1638=CARTESIAN_POINT('',(-1.5,-454.55361477264,319.243461850815));
#1639=CARTESIAN_POINT('',(-1.5,-454.55361477264,319.243461850815));
#1640=CARTESIAN_POINT('',(-1.5,-458.020372321999,318.940159866053));
#1641=CARTESIAN_POINT('',(-1.5,-458.020372321999,318.940159866053));
#1642=CARTESIAN_POINT('',(-1.5,-454.55361477264,319.243461850815));
#1643=CARTESIAN_POINT('Origin',(1.98,-454.55361477264,319.243461850815));
#1644=CARTESIAN_POINT('',(1.98,-454.55361477264,319.243461850815));
#1645=CARTESIAN_POINT('',(1.98,-454.55361477264,319.243461850815));
#1646=CARTESIAN_POINT('',(1.98,-458.020372321999,318.940159866053));
#1647=CARTESIAN_POINT('',(1.98,-458.020372321999,318.940159866053));
#1648=CARTESIAN_POINT('',(1.98,-454.55361477264,319.243461850815));
#1649=CARTESIAN_POINT('Origin',(1.98,-456.284147459241,339.02354097031));
#1650=CARTESIAN_POINT('',(1.98,-456.284147459241,339.02354097031));
#1651=CARTESIAN_POINT('',(1.98,-456.296729627593,339.16735581265));
#1652=CARTESIAN_POINT('',(1.98,-459.750905008601,338.720238985548));
#1653=CARTESIAN_POINT('',(1.98,-459.763487176952,338.864053827888));
#1654=CARTESIAN_POINT('',(1.98,-456.284147459241,339.02354097031));
#1655=CARTESIAN_POINT('Origin',(-1.66533453693773E-15,-454.549595772201,
319.197524465601));
#1656=CARTESIAN_POINT('Origin',(-1.66533453693773E-15,-454.549595772201,
319.197524465601));
#1657=CARTESIAN_POINT('Origin',(-1.66533453693773E-15,-458.016353321561,
318.894222480839));
#1658=CARTESIAN_POINT('Origin',(0.,-449.707978587314,223.929064717455));
#1659=CARTESIAN_POINT('Origin',(0.,-446.241221037955,224.232366702217));
#1660=UNCERTAINTY_MEASURE_WITH_UNIT(LENGTH_MEASURE(0.01),#1664,
'DISTANCE_ACCURACY_VALUE',
'Maximum model space distance between geometric entities at asserted c
onnectivities');
#1661=UNCERTAINTY_MEASURE_WITH_UNIT(LENGTH_MEASURE(0.01),#1664,
'DISTANCE_ACCURACY_VALUE',
'Maximum model space distance between geometric entities at asserted c
onnectivities');
#1662=(
GEOMETRIC_REPRESENTATION_CONTEXT(3)
GLOBAL_UNCERTAINTY_ASSIGNED_CONTEXT((#1660))
GLOBAL_UNIT_ASSIGNED_CONTEXT((#1664,#1666,#1667))
REPRESENTATION_CONTEXT('','3D')
);
#1663=(
GEOMETRIC_REPRESENTATION_CONTEXT(3)
GLOBAL_UNCERTAINTY_ASSIGNED_CONTEXT((#1661))
GLOBAL_UNIT_ASSIGNED_CONTEXT((#1664,#1666,#1667))
REPRESENTATION_CONTEXT('','3D')
);
#1664=(
LENGTH_UNIT()
NAMED_UNIT(*)
SI_UNIT(.MILLI.,.METRE.)
);
#1665=(
LENGTH_UNIT()
NAMED_UNIT(*)
SI_UNIT($,.METRE.)
);
#1666=(
NAMED_UNIT(*)
PLANE_ANGLE_UNIT()
SI_UNIT($,.RADIAN.)
);
#1667=(
NAMED_UNIT(*)
SI_UNIT($,.STERADIAN.)
SOLID_ANGLE_UNIT()
);
#1668=SHAPE_DEFINITION_REPRESENTATION(#1669,#1670);
#1669=PRODUCT_DEFINITION_SHAPE('',$,#1672);
#1670=SHAPE_REPRESENTATION('',(#1048),#1662);
#1671=PRODUCT_DEFINITION_CONTEXT('part definition',#1676,'design');
#1672=PRODUCT_DEFINITION('encoder_stand_2','encoder_stand_2',#1673,#1671);
#1673=PRODUCT_DEFINITION_FORMATION('',$,#1678);
#1674=PRODUCT_RELATED_PRODUCT_CATEGORY('encoder_stand_2',
'encoder_stand_2',(#1678));
#1675=APPLICATION_PROTOCOL_DEFINITION('international standard',
'automotive_design',2009,#1676);
#1676=APPLICATION_CONTEXT(
'Core Data for Automotive Mechanical Design Process');
#1677=PRODUCT_CONTEXT('part definition',#1676,'mechanical');
#1678=PRODUCT('encoder_stand_2','encoder_stand_2',$,(#1677));
#1679=PRESENTATION_STYLE_ASSIGNMENT((#1680));
#1680=SURFACE_STYLE_USAGE(.BOTH.,#1681);
#1681=SURFACE_SIDE_STYLE('',(#1682));
#1682=SURFACE_STYLE_FILL_AREA(#1683);
#1683=FILL_AREA_STYLE('Steel - Satin',(#1684));
#1684=FILL_AREA_STYLE_COLOUR('Steel - Satin',#1685);
#1685=COLOUR_RGB('Steel - Satin',0.627450980392157,0.627450980392157,0.627450980392157);
ENDSEC;
END-ISO-10303-21;
