ISO-10303-21;
HEADER;
/* Generated by software containing ST-Developer
 * from STEP Tools, Inc. (www.steptools.com) 
 */

FILE_DESCRIPTION(
/* description */ (''),
/* implementation_level */ '2;1');

FILE_NAME(
/* name */ 'motor_coupler.step',
/* time_stamp */ '2026-05-25T06:55:03+05:30',
/* author */ (''),
/* organization */ (''),
/* preprocessor_version */ 'ST-DEVELOPER v20.1',
/* originating_system */ 'Autodesk Translation Framework v15.8.0.0',
/* authorisation */ '');

FILE_SCHEMA (('AUTOMOTIVE_DESIGN { 1 0 10303 214 3 1 1 }'));
ENDSEC;

DATA;
#10=MECHANICAL_DESIGN_GEOMETRIC_PRESENTATION_REPRESENTATION('',(#13),#236);
#11=SHAPE_REPRESENTATION_RELATIONSHIP('SRR','None',#243,#12);
#12=ADVANCED_BREP_SHAPE_REPRESENTATION('',(#14),#235);
#13=STYLED_ITEM('',(#252),#14);
#14=MANIFOLD_SOLID_BREP('Body6',#132);
#15=FACE_BOUND('',#38,.T.);
#16=FACE_BOUND('',#43,.T.);
#17=FACE_BOUND('',#45,.T.);
#18=CIRCLE('',#148,4.25);
#19=CIRCLE('',#149,4.25);
#20=CIRCLE('',#151,7.5);
#21=CIRCLE('',#154,2.75);
#22=CIRCLE('',#155,2.75);
#23=CIRCLE('',#157,7.5);
#24=CYLINDRICAL_SURFACE('',#147,4.25);
#25=CYLINDRICAL_SURFACE('',#153,2.75);
#26=CYLINDRICAL_SURFACE('',#156,7.5);
#27=FACE_OUTER_BOUND('',#35,.T.);
#28=FACE_OUTER_BOUND('',#36,.T.);
#29=FACE_OUTER_BOUND('',#37,.T.);
#30=FACE_OUTER_BOUND('',#39,.T.);
#31=FACE_OUTER_BOUND('',#40,.T.);
#32=FACE_OUTER_BOUND('',#41,.T.);
#33=FACE_OUTER_BOUND('',#42,.T.);
#34=FACE_OUTER_BOUND('',#44,.T.);
#35=EDGE_LOOP('',(#89,#90,#91,#92));
#36=EDGE_LOOP('',(#93,#94,#95,#96));
#37=EDGE_LOOP('',(#97));
#38=EDGE_LOOP('',(#98,#99));
#39=EDGE_LOOP('',(#100,#101,#102,#103));
#40=EDGE_LOOP('',(#104,#105,#106,#107));
#41=EDGE_LOOP('',(#108,#109,#110,#111));
#42=EDGE_LOOP('',(#112,#113));
#43=EDGE_LOOP('',(#114,#115));
#44=EDGE_LOOP('',(#116));
#45=EDGE_LOOP('',(#117,#118));
#46=LINE('',#203,#55);
#47=LINE('',#205,#56);
#48=LINE('',#207,#57);
#49=LINE('',#208,#58);
#50=LINE('',#218,#59);
#51=LINE('',#220,#60);
#52=LINE('',#222,#61);
#53=LINE('',#223,#62);
#54=LINE('',#229,#63);
#55=VECTOR('',#164,10.);
#56=VECTOR('',#165,10.);
#57=VECTOR('',#166,10.);
#58=VECTOR('',#167,10.);
#59=VECTOR('',#180,10.);
#60=VECTOR('',#181,10.);
#61=VECTOR('',#182,10.);
#62=VECTOR('',#183,10.);
#63=VECTOR('',#192,7.5);
#64=VERTEX_POINT('',#201);
#65=VERTEX_POINT('',#202);
#66=VERTEX_POINT('',#204);
#67=VERTEX_POINT('',#206);
#68=VERTEX_POINT('',#213);
#69=VERTEX_POINT('',#216);
#70=VERTEX_POINT('',#217);
#71=VERTEX_POINT('',#219);
#72=VERTEX_POINT('',#221);
#73=VERTEX_POINT('',#228);
#74=EDGE_CURVE('',#64,#65,#46,.T.);
#75=EDGE_CURVE('',#64,#66,#47,.T.);
#76=EDGE_CURVE('',#67,#66,#48,.T.);
#77=EDGE_CURVE('',#65,#67,#49,.T.);
#78=EDGE_CURVE('',#65,#64,#18,.T.);
#79=EDGE_CURVE('',#66,#67,#19,.T.);
#80=EDGE_CURVE('',#68,#68,#20,.T.);
#81=EDGE_CURVE('',#69,#70,#50,.T.);
#82=EDGE_CURVE('',#70,#71,#51,.T.);
#83=EDGE_CURVE('',#72,#71,#52,.T.);
#84=EDGE_CURVE('',#69,#72,#53,.T.);
#85=EDGE_CURVE('',#70,#69,#21,.T.);
#86=EDGE_CURVE('',#71,#72,#22,.T.);
#87=EDGE_CURVE('',#68,#73,#54,.T.);
#88=EDGE_CURVE('',#73,#73,#23,.T.);
#89=ORIENTED_EDGE('',*,*,#74,.F.);
#90=ORIENTED_EDGE('',*,*,#75,.T.);
#91=ORIENTED_EDGE('',*,*,#76,.F.);
#92=ORIENTED_EDGE('',*,*,#77,.F.);
#93=ORIENTED_EDGE('',*,*,#78,.F.);
#94=ORIENTED_EDGE('',*,*,#77,.T.);
#95=ORIENTED_EDGE('',*,*,#79,.F.);
#96=ORIENTED_EDGE('',*,*,#75,.F.);
#97=ORIENTED_EDGE('',*,*,#80,.T.);
#98=ORIENTED_EDGE('',*,*,#79,.T.);
#99=ORIENTED_EDGE('',*,*,#76,.T.);
#100=ORIENTED_EDGE('',*,*,#81,.T.);
#101=ORIENTED_EDGE('',*,*,#82,.T.);
#102=ORIENTED_EDGE('',*,*,#83,.F.);
#103=ORIENTED_EDGE('',*,*,#84,.F.);
#104=ORIENTED_EDGE('',*,*,#85,.T.);
#105=ORIENTED_EDGE('',*,*,#84,.T.);
#106=ORIENTED_EDGE('',*,*,#86,.F.);
#107=ORIENTED_EDGE('',*,*,#82,.F.);
#108=ORIENTED_EDGE('',*,*,#80,.F.);
#109=ORIENTED_EDGE('',*,*,#87,.T.);
#110=ORIENTED_EDGE('',*,*,#88,.T.);
#111=ORIENTED_EDGE('',*,*,#87,.F.);
#112=ORIENTED_EDGE('',*,*,#74,.T.);
#113=ORIENTED_EDGE('',*,*,#78,.T.);
#114=ORIENTED_EDGE('',*,*,#86,.T.);
#115=ORIENTED_EDGE('',*,*,#83,.T.);
#116=ORIENTED_EDGE('',*,*,#88,.F.);
#117=ORIENTED_EDGE('',*,*,#85,.F.);
#118=ORIENTED_EDGE('',*,*,#81,.F.);
#119=PLANE('',#146);
#120=PLANE('',#150);
#121=PLANE('',#152);
#122=PLANE('',#158);
#123=PLANE('',#159);
#124=ADVANCED_FACE('',(#27),#119,.T.);
#125=ADVANCED_FACE('',(#28),#24,.F.);
#126=ADVANCED_FACE('',(#29,#15),#120,.T.);
#127=ADVANCED_FACE('',(#30),#121,.T.);
#128=ADVANCED_FACE('',(#31),#25,.F.);
#129=ADVANCED_FACE('',(#32),#26,.T.);
#130=ADVANCED_FACE('',(#33,#16),#122,.T.);
#131=ADVANCED_FACE('',(#34,#17),#123,.F.);
#132=CLOSED_SHELL('',(#124,#125,#126,#127,#128,#129,#130,#131));
#133=DERIVED_UNIT_ELEMENT(#135,1.);
#134=DERIVED_UNIT_ELEMENT(#238,-3.);
#135=(
MASS_UNIT()
NAMED_UNIT(*)
SI_UNIT(.KILO.,.GRAM.)
);
#136=DERIVED_UNIT((#133,#134));
#137=MEASURE_REPRESENTATION_ITEM('density measure',
POSITIVE_RATIO_MEASURE(7850.),#136);
#138=PROPERTY_DEFINITION_REPRESENTATION(#143,#140);
#139=PROPERTY_DEFINITION_REPRESENTATION(#144,#141);
#140=REPRESENTATION('material name',(#142),#235);
#141=REPRESENTATION('density',(#137),#235);
#142=DESCRIPTIVE_REPRESENTATION_ITEM('Steel','Steel');
#143=PROPERTY_DEFINITION('material property','material name',#245);
#144=PROPERTY_DEFINITION('material property','density of part',#245);
#145=AXIS2_PLACEMENT_3D('',#199,#160,#161);
#146=AXIS2_PLACEMENT_3D('',#200,#162,#163);
#147=AXIS2_PLACEMENT_3D('',#209,#168,#169);
#148=AXIS2_PLACEMENT_3D('',#210,#170,#171);
#149=AXIS2_PLACEMENT_3D('',#211,#172,#173);
#150=AXIS2_PLACEMENT_3D('',#212,#174,#175);
#151=AXIS2_PLACEMENT_3D('',#214,#176,#177);
#152=AXIS2_PLACEMENT_3D('',#215,#178,#179);
#153=AXIS2_PLACEMENT_3D('',#224,#184,#185);
#154=AXIS2_PLACEMENT_3D('',#225,#186,#187);
#155=AXIS2_PLACEMENT_3D('',#226,#188,#189);
#156=AXIS2_PLACEMENT_3D('',#227,#190,#191);
#157=AXIS2_PLACEMENT_3D('',#230,#193,#194);
#158=AXIS2_PLACEMENT_3D('',#231,#195,#196);
#159=AXIS2_PLACEMENT_3D('',#232,#197,#198);
#160=DIRECTION('axis',(0.,0.,1.));
#161=DIRECTION('refdir',(1.,0.,0.));
#162=DIRECTION('center_axis',(-1.,0.,0.));
#163=DIRECTION('ref_axis',(0.,-1.,0.));
#164=DIRECTION('',(0.,1.,0.));
#165=DIRECTION('',(0.,0.,1.));
#166=DIRECTION('',(0.,-1.,0.));
#167=DIRECTION('',(0.,0.,1.));
#168=DIRECTION('center_axis',(0.,0.,1.));
#169=DIRECTION('ref_axis',(-1.,1.95921710227969E-16,0.));
#170=DIRECTION('center_axis',(0.,0.,1.));
#171=DIRECTION('ref_axis',(0.68235294117647,0.731022888607341,0.));
#172=DIRECTION('center_axis',(0.,0.,-1.));
#173=DIRECTION('ref_axis',(0.68235294117647,0.731022888607341,0.));
#174=DIRECTION('center_axis',(0.,0.,1.));
#175=DIRECTION('ref_axis',(-1.,0.,0.));
#176=DIRECTION('center_axis',(0.,0.,1.));
#177=DIRECTION('ref_axis',(-1.,0.,0.));
#178=DIRECTION('center_axis',(-1.,0.,0.));
#179=DIRECTION('ref_axis',(0.,-1.,0.));
#180=DIRECTION('',(0.,-1.,0.));
#181=DIRECTION('',(0.,0.,1.));
#182=DIRECTION('',(0.,-1.,0.));
#183=DIRECTION('',(0.,0.,1.));
#184=DIRECTION('center_axis',(0.,0.,1.));
#185=DIRECTION('ref_axis',(-1.,2.01858731750028E-16,0.));
#186=DIRECTION('center_axis',(0.,0.,-1.));
#187=DIRECTION('ref_axis',(0.618181818181818,0.786035138953356,0.));
#188=DIRECTION('center_axis',(0.,0.,-1.));
#189=DIRECTION('ref_axis',(0.618181818181818,0.786035138953356,0.));
#190=DIRECTION('center_axis',(0.,0.,1.));
#191=DIRECTION('ref_axis',(1.,0.,0.));
#192=DIRECTION('',(0.,0.,-1.));
#193=DIRECTION('center_axis',(0.,0.,1.));
#194=DIRECTION('ref_axis',(1.,0.,0.));
#195=DIRECTION('center_axis',(0.,0.,1.));
#196=DIRECTION('ref_axis',(1.,0.,0.));
#197=DIRECTION('center_axis',(0.,0.,1.));
#198=DIRECTION('ref_axis',(1.,0.,0.));
#199=CARTESIAN_POINT('',(0.,0.,0.));
#200=CARTESIAN_POINT('Origin',(2.9,3.1068472765812,10.));
#201=CARTESIAN_POINT('',(2.9,-3.1068472765812,10.));
#202=CARTESIAN_POINT('',(2.9,3.1068472765812,10.));
#203=CARTESIAN_POINT('',(2.9,1.5534236382906,10.));
#204=CARTESIAN_POINT('',(2.9,-3.1068472765812,20.));
#205=CARTESIAN_POINT('',(2.9,-3.1068472765812,10.));
#206=CARTESIAN_POINT('',(2.9,3.1068472765812,20.));
#207=CARTESIAN_POINT('',(2.9,3.1068472765812,20.));
#208=CARTESIAN_POINT('',(2.9,3.1068472765812,10.));
#209=CARTESIAN_POINT('Origin',(0.,0.,10.));
#210=CARTESIAN_POINT('Origin',(0.,0.,10.));
#211=CARTESIAN_POINT('Origin',(0.,0.,20.));
#212=CARTESIAN_POINT('Origin',(0.,0.,20.));
#213=CARTESIAN_POINT('',(-7.5,-9.18485099360515E-16,20.));
#214=CARTESIAN_POINT('Origin',(0.,0.,20.));
#215=CARTESIAN_POINT('Origin',(1.7,2.16159663212173,0.));
#216=CARTESIAN_POINT('',(1.7,2.16159663212173,0.));
#217=CARTESIAN_POINT('',(1.7,-2.16159663212173,0.));
#218=CARTESIAN_POINT('',(1.7,2.16159663212173,0.));
#219=CARTESIAN_POINT('',(1.7,-2.16159663212173,10.));
#220=CARTESIAN_POINT('',(1.7,-2.16159663212173,0.));
#221=CARTESIAN_POINT('',(1.7,2.16159663212173,10.));
#222=CARTESIAN_POINT('',(1.7,2.16159663212173,10.));
#223=CARTESIAN_POINT('',(1.7,2.16159663212173,0.));
#224=CARTESIAN_POINT('Origin',(0.,0.,0.));
#225=CARTESIAN_POINT('Origin',(0.,0.,0.));
#226=CARTESIAN_POINT('Origin',(0.,0.,10.));
#227=CARTESIAN_POINT('Origin',(0.,0.,0.));
#228=CARTESIAN_POINT('',(-7.5,-9.18485099360515E-16,0.));
#229=CARTESIAN_POINT('',(-7.5,-9.18485099360515E-16,0.));
#230=CARTESIAN_POINT('Origin',(0.,0.,0.));
#231=CARTESIAN_POINT('Origin',(0.,0.,10.));
#232=CARTESIAN_POINT('Origin',(0.,0.,0.));
#233=UNCERTAINTY_MEASURE_WITH_UNIT(LENGTH_MEASURE(0.01),#237,
'DISTANCE_ACCURACY_VALUE',
'Maximum model space distance between geometric entities at asserted c
onnectivities');
#234=UNCERTAINTY_MEASURE_WITH_UNIT(LENGTH_MEASURE(0.01),#237,
'DISTANCE_ACCURACY_VALUE',
'Maximum model space distance between geometric entities at asserted c
onnectivities');
#235=(
GEOMETRIC_REPRESENTATION_CONTEXT(3)
GLOBAL_UNCERTAINTY_ASSIGNED_CONTEXT((#233))
GLOBAL_UNIT_ASSIGNED_CONTEXT((#237,#239,#240))
REPRESENTATION_CONTEXT('','3D')
);
#236=(
GEOMETRIC_REPRESENTATION_CONTEXT(3)
GLOBAL_UNCERTAINTY_ASSIGNED_CONTEXT((#234))
GLOBAL_UNIT_ASSIGNED_CONTEXT((#237,#239,#240))
REPRESENTATION_CONTEXT('','3D')
);
#237=(
LENGTH_UNIT()
NAMED_UNIT(*)
SI_UNIT(.MILLI.,.METRE.)
);
#238=(
LENGTH_UNIT()
NAMED_UNIT(*)
SI_UNIT($,.METRE.)
);
#239=(
NAMED_UNIT(*)
PLANE_ANGLE_UNIT()
SI_UNIT($,.RADIAN.)
);
#240=(
NAMED_UNIT(*)
SI_UNIT($,.STERADIAN.)
SOLID_ANGLE_UNIT()
);
#241=SHAPE_DEFINITION_REPRESENTATION(#242,#243);
#242=PRODUCT_DEFINITION_SHAPE('',$,#245);
#243=SHAPE_REPRESENTATION('',(#145),#235);
#244=PRODUCT_DEFINITION_CONTEXT('part definition',#249,'design');
#245=PRODUCT_DEFINITION('ct motor coupler','ct motor coupler v7',#246,#244);
#246=PRODUCT_DEFINITION_FORMATION('',$,#251);
#247=PRODUCT_RELATED_PRODUCT_CATEGORY('ct motor coupler v7',
'ct motor coupler v7',(#251));
#248=APPLICATION_PROTOCOL_DEFINITION('international standard',
'automotive_design',2009,#249);
#249=APPLICATION_CONTEXT(
'Core Data for Automotive Mechanical Design Process');
#250=PRODUCT_CONTEXT('part definition',#249,'mechanical');
#251=PRODUCT('ct motor coupler','ct motor coupler v7',$,(#250));
#252=PRESENTATION_STYLE_ASSIGNMENT((#253));
#253=SURFACE_STYLE_USAGE(.BOTH.,#254);
#254=SURFACE_SIDE_STYLE('',(#255));
#255=SURFACE_STYLE_FILL_AREA(#256);
#256=FILL_AREA_STYLE('Steel - Satin',(#257));
#257=FILL_AREA_STYLE_COLOUR('Steel - Satin',#258);
#258=COLOUR_RGB('Steel - Satin',0.627450980392157,0.627450980392157,0.627450980392157);
ENDSEC;
END-ISO-10303-21;
