ISO-10303-21;
HEADER;
/* Generated by software containing ST-Developer
 * from STEP Tools, Inc. (www.steptools.com) 
 */

FILE_DESCRIPTION(
/* description */ (''),
/* implementation_level */ '2;1');

FILE_NAME(
/* name */ 'swinging_support_rod.step',
/* time_stamp */ '2026-05-25T06:51:36+05:30',
/* author */ (''),
/* organization */ (''),
/* preprocessor_version */ 'ST-DEVELOPER v20.1',
/* originating_system */ 'Autodesk Translation Framework v15.8.0.0',
/* authorisation */ '');

FILE_SCHEMA (('AUTOMOTIVE_DESIGN { 1 0 10303 214 3 1 1 }'));
ENDSEC;

DATA;
#10=MECHANICAL_DESIGN_GEOMETRIC_PRESENTATION_REPRESENTATION('',(#13),#215);
#11=SHAPE_REPRESENTATION_RELATIONSHIP('SRR','None',#222,#12);
#12=ADVANCED_BREP_SHAPE_REPRESENTATION('',(#14),#214);
#13=STYLED_ITEM('',(#231),#14);
#14=MANIFOLD_SOLID_BREP('Body1',#83);
#15=PLANE('',#101);
#16=PLANE('',#102);
#17=FACE_BOUND('',#26,.T.);
#18=CIRCLE('',#99,3.99999999999999);
#19=CIRCLE('',#100,3.99999999999999);
#20=FACE_OUTER_BOUND('',#24,.T.);
#21=FACE_OUTER_BOUND('',#25,.T.);
#22=FACE_OUTER_BOUND('',#27,.T.);
#23=FACE_OUTER_BOUND('',#28,.T.);
#24=EDGE_LOOP('',(#57,#58,#59,#60,#61,#62,#63));
#25=EDGE_LOOP('',(#64,#65,#66,#67,#68,#69,#70,#71,#72));
#26=EDGE_LOOP('',(#73,#74));
#27=EDGE_LOOP('',(#75));
#28=EDGE_LOOP('',(#76));
#29=LINE('',#162,#32);
#30=LINE('',#206,#33);
#31=LINE('',#208,#34);
#32=VECTOR('',#107,1.5);
#33=VECTOR('',#112,3.99999999999999);
#34=VECTOR('',#113,3.99999999999999);
#35=B_SPLINE_CURVE_WITH_KNOTS('',3,(#124,#125,#126,#127,#128,#129,#130,
#131,#132,#133,#134,#135,#136,#137,#138,#139,#140,#141),.UNSPECIFIED.,.F.,
 .F.,(4,2,2,2,2,2,2,2,4),(0.228452691371071,0.285543988105224,0.342635284839376,
0.399770333790759,0.456905382742142,0.514040431693524,0.571175480644907,
0.628266777379059,0.685358074113212),.UNSPECIFIED.);
#36=B_SPLINE_CURVE_WITH_KNOTS('',3,(#142,#143,#144,#145,#146,#147,#148,
#149,#150,#151,#152,#153,#154,#155,#156,#157,#158,#159,#160),
 .UNSPECIFIED.,.F.,.F.,(4,2,2,2,3,2,2,2,4),(0.685358074113212,0.742449370847365,
0.799540667581518,0.8566757165329,0.913810765484282,0.970945814435665,1.02808086338705,
1.0851721601212,1.14226345685535),.UNSPECIFIED.);
#37=B_SPLINE_CURVE_WITH_KNOTS('',3,(#164,#165,#166,#167,#168,#169,#170,
#171,#172,#173),.UNSPECIFIED.,.F.,.F.,(4,2,2,2,4),(0.,0.0571350489513822,
0.114270097902764,0.171361394636917,0.228452691371071),.UNSPECIFIED.);
#38=B_SPLINE_CURVE_WITH_KNOTS('',3,(#175,#176,#177,#178,#179,#180,#181,
#182,#183,#184),.UNSPECIFIED.,.F.,.F.,(4,2,2,2,4),(0.685358074113213,0.742449370847365,
0.799540667581518,0.856675716532901,0.913810765484284),.UNSPECIFIED.);
#39=B_SPLINE_CURVE_WITH_KNOTS('',3,(#185,#186,#187,#188,#189,#190,#191,
#192,#193,#194,#195,#196,#197,#198,#199,#200,#201,#202),.UNSPECIFIED.,.F.,
 .F.,(4,2,2,2,2,2,2,2,4),(0.228452691371071,0.285543988105224,0.342635284839377,
0.399770333790759,0.456905382742141,0.514040431693524,0.571175480644907,
0.62826677737906,0.685358074113213),.UNSPECIFIED.);
#40=VERTEX_POINT('',#122);
#41=VERTEX_POINT('',#123);
#42=VERTEX_POINT('',#161);
#43=VERTEX_POINT('',#163);
#44=VERTEX_POINT('',#174);
#45=VERTEX_POINT('',#204);
#46=VERTEX_POINT('',#207);
#47=EDGE_CURVE('',#40,#41,#35,.T.);
#48=EDGE_CURVE('',#41,#40,#36,.T.);
#49=EDGE_CURVE('',#41,#42,#29,.T.);
#50=EDGE_CURVE('',#43,#42,#37,.T.);
#51=EDGE_CURVE('',#44,#43,#38,.T.);
#52=EDGE_CURVE('',#42,#44,#39,.T.);
#53=EDGE_CURVE('',#45,#45,#18,.T.);
#54=EDGE_CURVE('',#45,#44,#30,.T.);
#55=EDGE_CURVE('',#42,#46,#31,.T.);
#56=EDGE_CURVE('',#46,#46,#19,.T.);
#57=ORIENTED_EDGE('',*,*,#47,.F.);
#58=ORIENTED_EDGE('',*,*,#48,.F.);
#59=ORIENTED_EDGE('',*,*,#49,.T.);
#60=ORIENTED_EDGE('',*,*,#50,.F.);
#61=ORIENTED_EDGE('',*,*,#51,.F.);
#62=ORIENTED_EDGE('',*,*,#52,.F.);
#63=ORIENTED_EDGE('',*,*,#49,.F.);
#64=ORIENTED_EDGE('',*,*,#53,.F.);
#65=ORIENTED_EDGE('',*,*,#54,.T.);
#66=ORIENTED_EDGE('',*,*,#51,.T.);
#67=ORIENTED_EDGE('',*,*,#50,.T.);
#68=ORIENTED_EDGE('',*,*,#55,.T.);
#69=ORIENTED_EDGE('',*,*,#56,.T.);
#70=ORIENTED_EDGE('',*,*,#55,.F.);
#71=ORIENTED_EDGE('',*,*,#52,.T.);
#72=ORIENTED_EDGE('',*,*,#54,.F.);
#73=ORIENTED_EDGE('',*,*,#47,.T.);
#74=ORIENTED_EDGE('',*,*,#48,.T.);
#75=ORIENTED_EDGE('',*,*,#53,.T.);
#76=ORIENTED_EDGE('',*,*,#56,.F.);
#77=CYLINDRICAL_SURFACE('',#97,1.5);
#78=CYLINDRICAL_SURFACE('',#98,3.99999999999999);
#79=ADVANCED_FACE('',(#20),#77,.F.);
#80=ADVANCED_FACE('',(#21,#17),#78,.T.);
#81=ADVANCED_FACE('',(#22),#15,.T.);
#82=ADVANCED_FACE('',(#23),#16,.F.);
#83=CLOSED_SHELL('',(#79,#80,#81,#82));
#84=DERIVED_UNIT_ELEMENT(#86,1.);
#85=DERIVED_UNIT_ELEMENT(#217,-3.);
#86=(
MASS_UNIT()
NAMED_UNIT(*)
SI_UNIT(.KILO.,.GRAM.)
);
#87=DERIVED_UNIT((#84,#85));
#88=MEASURE_REPRESENTATION_ITEM('density measure',
POSITIVE_RATIO_MEASURE(7850.),#87);
#89=PROPERTY_DEFINITION_REPRESENTATION(#94,#91);
#90=PROPERTY_DEFINITION_REPRESENTATION(#95,#92);
#91=REPRESENTATION('material name',(#93),#214);
#92=REPRESENTATION('density',(#88),#214);
#93=DESCRIPTIVE_REPRESENTATION_ITEM('Steel','Steel');
#94=PROPERTY_DEFINITION('material property','material name',#224);
#95=PROPERTY_DEFINITION('material property','density of part',#224);
#96=AXIS2_PLACEMENT_3D('',#120,#103,#104);
#97=AXIS2_PLACEMENT_3D('',#121,#105,#106);
#98=AXIS2_PLACEMENT_3D('',#203,#108,#109);
#99=AXIS2_PLACEMENT_3D('',#205,#110,#111);
#100=AXIS2_PLACEMENT_3D('',#209,#114,#115);
#101=AXIS2_PLACEMENT_3D('',#210,#116,#117);
#102=AXIS2_PLACEMENT_3D('',#211,#118,#119);
#103=DIRECTION('axis',(0.,0.,1.));
#104=DIRECTION('refdir',(1.,0.,0.));
#105=DIRECTION('center_axis',(-1.,1.63757896132205E-15,-5.32907051820075E-15));
#106=DIRECTION('ref_axis',(-5.32907051820074E-15,7.50788320402763E-15,1.));
#107=DIRECTION('',(-1.,1.63757896132205E-15,-5.32907051820075E-15));
#108=DIRECTION('center_axis',(0.,0.,1.));
#109=DIRECTION('ref_axis',(1.,0.,0.));
#110=DIRECTION('center_axis',(0.,0.,1.));
#111=DIRECTION('ref_axis',(1.,0.,0.));
#112=DIRECTION('',(0.,0.,-1.));
#113=DIRECTION('',(0.,0.,-1.));
#114=DIRECTION('center_axis',(0.,0.,1.));
#115=DIRECTION('ref_axis',(1.,0.,0.));
#116=DIRECTION('center_axis',(0.,0.,1.));
#117=DIRECTION('ref_axis',(1.,0.,0.));
#118=DIRECTION('center_axis',(0.,0.,1.));
#119=DIRECTION('ref_axis',(1.,0.,0.));
#120=CARTESIAN_POINT('',(0.,0.,0.));
#121=CARTESIAN_POINT('Origin',(204.,0.,72.6183414459229));
#122=CARTESIAN_POINT('',(204.,-6.5503158452883E-15,74.1183414459229));
#123=CARTESIAN_POINT('',(204.,-1.77635683940025E-14,71.1183414459229));
#124=CARTESIAN_POINT('Ctrl Pts',(204.,8.32667268468867E-16,74.1183414459229));
#125=CARTESIAN_POINT('Ctrl Pts',(204.,0.190304322447176,74.1183414459229));
#126=CARTESIAN_POINT('Ctrl Pts',(203.985105247563,0.392059700480878,74.0799313852247));
#127=CARTESIAN_POINT('Ctrl Pts',(203.931343948416,0.76112377472577,73.9262582989055));
#128=CARTESIAN_POINT('Ctrl Pts',(203.893138477346,0.928569041387315,73.8110927480952));
#129=CARTESIAN_POINT('Ctrl Pts',(203.820457994056,1.19285253090878,73.5468092585737));
#130=CARTESIAN_POINT('Ctrl Pts',(203.781004258888,1.30794083477173,73.3794031220598));
#131=CARTESIAN_POINT('Ctrl Pts',(203.724319883013,1.46155542357574,73.0104885431661));
#132=CARTESIAN_POINT('Ctrl Pts',(203.708099243548,1.5,72.8087916090941));
#133=CARTESIAN_POINT('Ctrl Pts',(203.708099243548,1.5,72.4278912827516));
#134=CARTESIAN_POINT('Ctrl Pts',(203.724319883013,1.46155542357575,72.2261943486797));
#135=CARTESIAN_POINT('Ctrl Pts',(203.781004258888,1.30794083477174,71.8572797697859));
#136=CARTESIAN_POINT('Ctrl Pts',(203.820457994056,1.19285253090878,71.689873633272));
#137=CARTESIAN_POINT('Ctrl Pts',(203.893138477346,0.928569041387317,71.4255901437505));
#138=CARTESIAN_POINT('Ctrl Pts',(203.931343948416,0.761123774725774,71.3104245929402));
#139=CARTESIAN_POINT('Ctrl Pts',(203.985105247563,0.392059700480882,71.156751506621));
#140=CARTESIAN_POINT('Ctrl Pts',(204.,0.190304322447175,71.1183414459229));
#141=CARTESIAN_POINT('Ctrl Pts',(204.,-9.71445146547012E-16,71.1183414459229));
#142=CARTESIAN_POINT('Ctrl Pts',(204.,1.38777878078145E-16,71.1183414459229));
#143=CARTESIAN_POINT('Ctrl Pts',(204.,-0.190304322447176,71.1183414459229));
#144=CARTESIAN_POINT('Ctrl Pts',(203.985105247563,-0.392059700480882,71.156751506621));
#145=CARTESIAN_POINT('Ctrl Pts',(203.931343948416,-0.761123774725774,71.3104245929402));
#146=CARTESIAN_POINT('Ctrl Pts',(203.893138477346,-0.928569041387317,71.4255901437505));
#147=CARTESIAN_POINT('Ctrl Pts',(203.820457994056,-1.19285253090878,71.689873633272));
#148=CARTESIAN_POINT('Ctrl Pts',(203.781004258888,-1.30794083477174,71.8572797697859));
#149=CARTESIAN_POINT('Ctrl Pts',(203.724319883013,-1.46155542357575,72.2261943486797));
#150=CARTESIAN_POINT('Ctrl Pts',(203.708099243548,-1.5,72.4278912827516));
#151=CARTESIAN_POINT('Ctrl Pts',(203.708099243548,-1.5,72.6183414459229));
#152=CARTESIAN_POINT('Ctrl Pts',(203.708099243548,-1.5,72.8087916090941));
#153=CARTESIAN_POINT('Ctrl Pts',(203.724319883013,-1.46155542357574,73.0104885431661));
#154=CARTESIAN_POINT('Ctrl Pts',(203.781004258888,-1.30794083477173,73.3794031220598));
#155=CARTESIAN_POINT('Ctrl Pts',(203.820457994056,-1.19285253090878,73.5468092585737));
#156=CARTESIAN_POINT('Ctrl Pts',(203.893138477346,-0.928569041387315,73.8110927480952));
#157=CARTESIAN_POINT('Ctrl Pts',(203.931343948416,-0.761123774725769,73.9262582989055));
#158=CARTESIAN_POINT('Ctrl Pts',(203.985105247563,-0.392059700480878,74.0799313852247));
#159=CARTESIAN_POINT('Ctrl Pts',(204.,-0.190304322447174,74.1183414459229));
#160=CARTESIAN_POINT('Ctrl Pts',(204.,1.04083408558608E-15,74.1183414459229));
#161=CARTESIAN_POINT('',(196.,1.65510986466277E-15,71.1183414459228));
#162=CARTESIAN_POINT('',(204.,-1.14455218259136E-14,71.1183414459229));
#163=CARTESIAN_POINT('',(196.291900756452,-1.49999999999999,72.6183414459228));
#164=CARTESIAN_POINT('Ctrl Pts',(196.291900756452,-1.49999999999999,72.6183414459228));
#165=CARTESIAN_POINT('Ctrl Pts',(196.291900756452,-1.49999999999999,72.4278912827515));
#166=CARTESIAN_POINT('Ctrl Pts',(196.275680116987,-1.46155542357573,72.2261943486796));
#167=CARTESIAN_POINT('Ctrl Pts',(196.218995741112,-1.30794083477173,71.8572797697859));
#168=CARTESIAN_POINT('Ctrl Pts',(196.179542005944,-1.19285253090877,71.689873633272));
#169=CARTESIAN_POINT('Ctrl Pts',(196.106861522654,-0.928569041387303,71.4255901437505));
#170=CARTESIAN_POINT('Ctrl Pts',(196.068656051584,-0.761123774725747,71.3104245929401));
#171=CARTESIAN_POINT('Ctrl Pts',(196.014894752437,-0.392059700480851,71.1567515066209));
#172=CARTESIAN_POINT('Ctrl Pts',(196.,-0.190304322447165,71.1183414459228));
#173=CARTESIAN_POINT('Ctrl Pts',(196.,1.16226472890446E-14,71.1183414459228));
#174=CARTESIAN_POINT('',(196.,6.97152030023405E-15,74.1183414459228));
#175=CARTESIAN_POINT('Ctrl Pts',(196.,1.50920942409982E-14,74.1183414459228));
#176=CARTESIAN_POINT('Ctrl Pts',(196.,-0.19030432244716,74.1183414459228));
#177=CARTESIAN_POINT('Ctrl Pts',(196.014894752437,-0.392059700480862,74.0799313852247));
#178=CARTESIAN_POINT('Ctrl Pts',(196.068656051584,-0.761123774725748,73.9262582989055));
#179=CARTESIAN_POINT('Ctrl Pts',(196.106861522654,-0.928569041387301,73.8110927480951));
#180=CARTESIAN_POINT('Ctrl Pts',(196.179542005944,-1.19285253090877,73.5468092585737));
#181=CARTESIAN_POINT('Ctrl Pts',(196.218995741112,-1.30794083477172,73.3794031220597));
#182=CARTESIAN_POINT('Ctrl Pts',(196.275680116987,-1.46155542357573,73.010488543166));
#183=CARTESIAN_POINT('Ctrl Pts',(196.291900756452,-1.49999999999999,72.8087916090941));
#184=CARTESIAN_POINT('Ctrl Pts',(196.291900756452,-1.49999999999999,72.6183414459228));
#185=CARTESIAN_POINT('Ctrl Pts',(196.,1.22471477403963E-14,71.1183414459228));
#186=CARTESIAN_POINT('Ctrl Pts',(196.,0.190304322447189,71.1183414459228));
#187=CARTESIAN_POINT('Ctrl Pts',(196.014894752437,0.392059700480889,71.1567515066209));
#188=CARTESIAN_POINT('Ctrl Pts',(196.068656051584,0.761123774725784,71.3104245929401));
#189=CARTESIAN_POINT('Ctrl Pts',(196.106861522654,0.928569041387329,71.4255901437505));
#190=CARTESIAN_POINT('Ctrl Pts',(196.179542005944,1.1928525309088,71.689873633272));
#191=CARTESIAN_POINT('Ctrl Pts',(196.218995741112,1.30794083477175,71.8572797697859));
#192=CARTESIAN_POINT('Ctrl Pts',(196.275680116987,1.46155542357576,72.2261943486796));
#193=CARTESIAN_POINT('Ctrl Pts',(196.291900756452,1.50000000000001,72.4278912827515));
#194=CARTESIAN_POINT('Ctrl Pts',(196.291900756452,1.50000000000001,72.8087916090941));
#195=CARTESIAN_POINT('Ctrl Pts',(196.275680116987,1.46155542357576,73.010488543166));
#196=CARTESIAN_POINT('Ctrl Pts',(196.218995741112,1.30794083477175,73.3794031220597));
#197=CARTESIAN_POINT('Ctrl Pts',(196.179542005944,1.1928525309088,73.5468092585737));
#198=CARTESIAN_POINT('Ctrl Pts',(196.106861522654,0.928569041387328,73.8110927480951));
#199=CARTESIAN_POINT('Ctrl Pts',(196.068656051584,0.761123774725778,73.9262582989055));
#200=CARTESIAN_POINT('Ctrl Pts',(196.014894752437,0.392059700480885,74.0799313852247));
#201=CARTESIAN_POINT('Ctrl Pts',(196.,0.190304322447187,74.1183414459228));
#202=CARTESIAN_POINT('Ctrl Pts',(196.,1.14838694109665E-14,74.1183414459228));
#203=CARTESIAN_POINT('Origin',(200.,0.,0.));
#204=CARTESIAN_POINT('',(196.,-4.8985871965894E-16,135.6));
#205=CARTESIAN_POINT('Origin',(200.,0.,135.6));
#206=CARTESIAN_POINT('',(196.,-4.8985871965894E-16,0.));
#207=CARTESIAN_POINT('',(196.,-4.8985871965894E-16,0.));
#208=CARTESIAN_POINT('',(196.,-4.8985871965894E-16,0.));
#209=CARTESIAN_POINT('Origin',(200.,0.,0.));
#210=CARTESIAN_POINT('Origin',(200.,0.,135.6));
#211=CARTESIAN_POINT('Origin',(200.,0.,0.));
#212=UNCERTAINTY_MEASURE_WITH_UNIT(LENGTH_MEASURE(0.01),#216,
'DISTANCE_ACCURACY_VALUE',
'Maximum model space distance between geometric entities at asserted c
onnectivities');
#213=UNCERTAINTY_MEASURE_WITH_UNIT(LENGTH_MEASURE(0.01),#216,
'DISTANCE_ACCURACY_VALUE',
'Maximum model space distance between geometric entities at asserted c
onnectivities');
#214=(
GEOMETRIC_REPRESENTATION_CONTEXT(3)
GLOBAL_UNCERTAINTY_ASSIGNED_CONTEXT((#212))
GLOBAL_UNIT_ASSIGNED_CONTEXT((#216,#218,#219))
REPRESENTATION_CONTEXT('','3D')
);
#215=(
GEOMETRIC_REPRESENTATION_CONTEXT(3)
GLOBAL_UNCERTAINTY_ASSIGNED_CONTEXT((#213))
GLOBAL_UNIT_ASSIGNED_CONTEXT((#216,#218,#219))
REPRESENTATION_CONTEXT('','3D')
);
#216=(
LENGTH_UNIT()
NAMED_UNIT(*)
SI_UNIT(.MILLI.,.METRE.)
);
#217=(
LENGTH_UNIT()
NAMED_UNIT(*)
SI_UNIT($,.METRE.)
);
#218=(
NAMED_UNIT(*)
PLANE_ANGLE_UNIT()
SI_UNIT($,.RADIAN.)
);
#219=(
NAMED_UNIT(*)
SI_UNIT($,.STERADIAN.)
SOLID_ANGLE_UNIT()
);
#220=SHAPE_DEFINITION_REPRESENTATION(#221,#222);
#221=PRODUCT_DEFINITION_SHAPE('',$,#224);
#222=SHAPE_REPRESENTATION('',(#96),#214);
#223=PRODUCT_DEFINITION_CONTEXT('part definition',#228,'design');
#224=PRODUCT_DEFINITION('swinging_support_rod','swinging_support_rod',#225,
#223);
#225=PRODUCT_DEFINITION_FORMATION('',$,#230);
#226=PRODUCT_RELATED_PRODUCT_CATEGORY('swinging_support_rod',
'swinging_support_rod',(#230));
#227=APPLICATION_PROTOCOL_DEFINITION('international standard',
'automotive_design',2009,#228);
#228=APPLICATION_CONTEXT(
'Core Data for Automotive Mechanical Design Process');
#229=PRODUCT_CONTEXT('part definition',#228,'mechanical');
#230=PRODUCT('swinging_support_rod','swinging_support_rod',$,(#229));
#231=PRESENTATION_STYLE_ASSIGNMENT((#232));
#232=SURFACE_STYLE_USAGE(.BOTH.,#233);
#233=SURFACE_SIDE_STYLE('',(#234));
#234=SURFACE_STYLE_FILL_AREA(#235);
#235=FILL_AREA_STYLE('Steel - Satin',(#236));
#236=FILL_AREA_STYLE_COLOUR('Steel - Satin',#237);
#237=COLOUR_RGB('Steel - Satin',0.627450980392157,0.627450980392157,0.627450980392157);
ENDSEC;
END-ISO-10303-21;
