ISO-10303-21;
HEADER;
/* Generated by software containing ST-Developer
 * from STEP Tools, Inc. (www.steptools.com) 
 */

FILE_DESCRIPTION(
/* description */ (''),
/* implementation_level */ '2;1');

FILE_NAME(
/* name */ 'base_bottom.step',
/* time_stamp */ '2026-05-25T07:12:37+05:30',
/* author */ (''),
/* organization */ (''),
/* preprocessor_version */ 'ST-DEVELOPER v20.1',
/* originating_system */ 'Autodesk Translation Framework v15.8.0.0',
/* authorisation */ '');

FILE_SCHEMA (('AUTOMOTIVE_DESIGN { 1 0 10303 214 3 1 1 }'));
ENDSEC;

DATA;
#10=MECHANICAL_DESIGN_GEOMETRIC_PRESENTATION_REPRESENTATION('',(#13),#2219);
#11=SHAPE_REPRESENTATION_RELATIONSHIP('SRR','None',#2226,#12);
#12=ADVANCED_BREP_SHAPE_REPRESENTATION('',(#14),#2218);
#13=STYLED_ITEM('',(#2235),#14);
#14=MANIFOLD_SOLID_BREP('Body1',#1407);
#15=FACE_BOUND('',#182,.T.);
#16=FACE_BOUND('',#183,.T.);
#17=FACE_BOUND('',#184,.T.);
#18=FACE_BOUND('',#185,.T.);
#19=FACE_BOUND('',#186,.T.);
#20=FACE_BOUND('',#187,.T.);
#21=FACE_BOUND('',#188,.T.);
#22=FACE_BOUND('',#189,.T.);
#23=FACE_BOUND('',#190,.T.);
#24=FACE_BOUND('',#191,.T.);
#25=FACE_BOUND('',#192,.T.);
#26=FACE_BOUND('',#193,.T.);
#27=FACE_BOUND('',#195,.T.);
#28=FACE_BOUND('',#196,.T.);
#29=FACE_BOUND('',#197,.T.);
#30=FACE_BOUND('',#198,.T.);
#31=FACE_BOUND('',#199,.T.);
#32=FACE_BOUND('',#200,.T.);
#33=FACE_BOUND('',#201,.T.);
#34=FACE_BOUND('',#202,.T.);
#35=FACE_BOUND('',#203,.T.);
#36=FACE_BOUND('',#204,.T.);
#37=FACE_BOUND('',#205,.T.);
#38=FACE_BOUND('',#206,.T.);
#39=CIRCLE('',#1472,150.);
#40=CIRCLE('',#1473,150.);
#41=CIRCLE('',#1478,150.);
#42=CIRCLE('',#1479,150.);
#43=CIRCLE('',#1484,150.);
#44=CIRCLE('',#1485,150.);
#45=CIRCLE('',#1490,150.);
#46=CIRCLE('',#1491,150.);
#47=CYLINDRICAL_SURFACE('',#1471,150.);
#48=CYLINDRICAL_SURFACE('',#1477,150.);
#49=CYLINDRICAL_SURFACE('',#1483,150.);
#50=CYLINDRICAL_SURFACE('',#1489,150.);
#51=FACE_OUTER_BOUND('',#117,.T.);
#52=FACE_OUTER_BOUND('',#118,.T.);
#53=FACE_OUTER_BOUND('',#119,.T.);
#54=FACE_OUTER_BOUND('',#120,.T.);
#55=FACE_OUTER_BOUND('',#121,.T.);
#56=FACE_OUTER_BOUND('',#122,.T.);
#57=FACE_OUTER_BOUND('',#123,.T.);
#58=FACE_OUTER_BOUND('',#124,.T.);
#59=FACE_OUTER_BOUND('',#125,.T.);
#60=FACE_OUTER_BOUND('',#126,.T.);
#61=FACE_OUTER_BOUND('',#127,.T.);
#62=FACE_OUTER_BOUND('',#128,.T.);
#63=FACE_OUTER_BOUND('',#129,.T.);
#64=FACE_OUTER_BOUND('',#130,.T.);
#65=FACE_OUTER_BOUND('',#131,.T.);
#66=FACE_OUTER_BOUND('',#132,.T.);
#67=FACE_OUTER_BOUND('',#133,.T.);
#68=FACE_OUTER_BOUND('',#134,.T.);
#69=FACE_OUTER_BOUND('',#135,.T.);
#70=FACE_OUTER_BOUND('',#136,.T.);
#71=FACE_OUTER_BOUND('',#137,.T.);
#72=FACE_OUTER_BOUND('',#138,.T.);
#73=FACE_OUTER_BOUND('',#139,.T.);
#74=FACE_OUTER_BOUND('',#140,.T.);
#75=FACE_OUTER_BOUND('',#141,.T.);
#76=FACE_OUTER_BOUND('',#142,.T.);
#77=FACE_OUTER_BOUND('',#143,.T.);
#78=FACE_OUTER_BOUND('',#144,.T.);
#79=FACE_OUTER_BOUND('',#145,.T.);
#80=FACE_OUTER_BOUND('',#146,.T.);
#81=FACE_OUTER_BOUND('',#147,.T.);
#82=FACE_OUTER_BOUND('',#148,.T.);
#83=FACE_OUTER_BOUND('',#149,.T.);
#84=FACE_OUTER_BOUND('',#150,.T.);
#85=FACE_OUTER_BOUND('',#151,.T.);
#86=FACE_OUTER_BOUND('',#152,.T.);
#87=FACE_OUTER_BOUND('',#153,.T.);
#88=FACE_OUTER_BOUND('',#154,.T.);
#89=FACE_OUTER_BOUND('',#155,.T.);
#90=FACE_OUTER_BOUND('',#156,.T.);
#91=FACE_OUTER_BOUND('',#157,.T.);
#92=FACE_OUTER_BOUND('',#158,.T.);
#93=FACE_OUTER_BOUND('',#159,.T.);
#94=FACE_OUTER_BOUND('',#160,.T.);
#95=FACE_OUTER_BOUND('',#161,.T.);
#96=FACE_OUTER_BOUND('',#162,.T.);
#97=FACE_OUTER_BOUND('',#163,.T.);
#98=FACE_OUTER_BOUND('',#164,.T.);
#99=FACE_OUTER_BOUND('',#165,.T.);
#100=FACE_OUTER_BOUND('',#166,.T.);
#101=FACE_OUTER_BOUND('',#167,.T.);
#102=FACE_OUTER_BOUND('',#168,.T.);
#103=FACE_OUTER_BOUND('',#169,.T.);
#104=FACE_OUTER_BOUND('',#170,.T.);
#105=FACE_OUTER_BOUND('',#171,.T.);
#106=FACE_OUTER_BOUND('',#172,.T.);
#107=FACE_OUTER_BOUND('',#173,.T.);
#108=FACE_OUTER_BOUND('',#174,.T.);
#109=FACE_OUTER_BOUND('',#175,.T.);
#110=FACE_OUTER_BOUND('',#176,.T.);
#111=FACE_OUTER_BOUND('',#177,.T.);
#112=FACE_OUTER_BOUND('',#178,.T.);
#113=FACE_OUTER_BOUND('',#179,.T.);
#114=FACE_OUTER_BOUND('',#180,.T.);
#115=FACE_OUTER_BOUND('',#181,.T.);
#116=FACE_OUTER_BOUND('',#194,.T.);
#117=EDGE_LOOP('',(#895,#896,#897,#898));
#118=EDGE_LOOP('',(#899,#900,#901,#902));
#119=EDGE_LOOP('',(#903,#904,#905,#906));
#120=EDGE_LOOP('',(#907,#908,#909,#910));
#121=EDGE_LOOP('',(#911,#912,#913,#914));
#122=EDGE_LOOP('',(#915,#916,#917,#918));
#123=EDGE_LOOP('',(#919,#920,#921,#922));
#124=EDGE_LOOP('',(#923,#924,#925,#926));
#125=EDGE_LOOP('',(#927,#928,#929,#930));
#126=EDGE_LOOP('',(#931,#932,#933,#934));
#127=EDGE_LOOP('',(#935,#936,#937,#938));
#128=EDGE_LOOP('',(#939,#940,#941,#942));
#129=EDGE_LOOP('',(#943,#944,#945,#946));
#130=EDGE_LOOP('',(#947,#948,#949,#950));
#131=EDGE_LOOP('',(#951,#952,#953,#954));
#132=EDGE_LOOP('',(#955,#956,#957,#958));
#133=EDGE_LOOP('',(#959,#960,#961,#962));
#134=EDGE_LOOP('',(#963,#964,#965,#966));
#135=EDGE_LOOP('',(#967,#968,#969,#970));
#136=EDGE_LOOP('',(#971,#972,#973,#974));
#137=EDGE_LOOP('',(#975,#976,#977,#978));
#138=EDGE_LOOP('',(#979,#980,#981,#982));
#139=EDGE_LOOP('',(#983,#984,#985,#986));
#140=EDGE_LOOP('',(#987,#988,#989,#990));
#141=EDGE_LOOP('',(#991,#992,#993,#994));
#142=EDGE_LOOP('',(#995,#996,#997,#998));
#143=EDGE_LOOP('',(#999,#1000,#1001,#1002));
#144=EDGE_LOOP('',(#1003,#1004,#1005,#1006));
#145=EDGE_LOOP('',(#1007,#1008,#1009,#1010));
#146=EDGE_LOOP('',(#1011,#1012,#1013,#1014));
#147=EDGE_LOOP('',(#1015,#1016,#1017,#1018));
#148=EDGE_LOOP('',(#1019,#1020,#1021,#1022));
#149=EDGE_LOOP('',(#1023,#1024,#1025,#1026));
#150=EDGE_LOOP('',(#1027,#1028,#1029,#1030));
#151=EDGE_LOOP('',(#1031,#1032,#1033,#1034));
#152=EDGE_LOOP('',(#1035,#1036,#1037,#1038));
#153=EDGE_LOOP('',(#1039,#1040,#1041,#1042));
#154=EDGE_LOOP('',(#1043,#1044,#1045,#1046));
#155=EDGE_LOOP('',(#1047,#1048,#1049,#1050));
#156=EDGE_LOOP('',(#1051,#1052,#1053,#1054));
#157=EDGE_LOOP('',(#1055,#1056,#1057,#1058));
#158=EDGE_LOOP('',(#1059,#1060,#1061,#1062));
#159=EDGE_LOOP('',(#1063,#1064,#1065,#1066));
#160=EDGE_LOOP('',(#1067,#1068,#1069,#1070));
#161=EDGE_LOOP('',(#1071,#1072,#1073,#1074));
#162=EDGE_LOOP('',(#1075,#1076,#1077,#1078));
#163=EDGE_LOOP('',(#1079,#1080,#1081,#1082));
#164=EDGE_LOOP('',(#1083,#1084,#1085,#1086));
#165=EDGE_LOOP('',(#1087,#1088,#1089,#1090));
#166=EDGE_LOOP('',(#1091,#1092,#1093,#1094));
#167=EDGE_LOOP('',(#1095,#1096,#1097,#1098));
#168=EDGE_LOOP('',(#1099,#1100,#1101,#1102));
#169=EDGE_LOOP('',(#1103,#1104,#1105,#1106));
#170=EDGE_LOOP('',(#1107,#1108,#1109,#1110));
#171=EDGE_LOOP('',(#1111,#1112,#1113,#1114));
#172=EDGE_LOOP('',(#1115,#1116,#1117,#1118));
#173=EDGE_LOOP('',(#1119,#1120,#1121,#1122));
#174=EDGE_LOOP('',(#1123,#1124,#1125,#1126));
#175=EDGE_LOOP('',(#1127,#1128,#1129,#1130));
#176=EDGE_LOOP('',(#1131,#1132,#1133,#1134));
#177=EDGE_LOOP('',(#1135,#1136,#1137,#1138));
#178=EDGE_LOOP('',(#1139,#1140,#1141,#1142));
#179=EDGE_LOOP('',(#1143,#1144,#1145,#1146));
#180=EDGE_LOOP('',(#1147,#1148,#1149,#1150));
#181=EDGE_LOOP('',(#1151,#1152,#1153,#1154,#1155,#1156,#1157,#1158,#1159,
#1160,#1161,#1162,#1163,#1164,#1165,#1166));
#182=EDGE_LOOP('',(#1167,#1168,#1169,#1170));
#183=EDGE_LOOP('',(#1171,#1172,#1173,#1174));
#184=EDGE_LOOP('',(#1175,#1176,#1177,#1178));
#185=EDGE_LOOP('',(#1179,#1180,#1181,#1182));
#186=EDGE_LOOP('',(#1183,#1184,#1185,#1186));
#187=EDGE_LOOP('',(#1187,#1188,#1189,#1190));
#188=EDGE_LOOP('',(#1191,#1192,#1193,#1194));
#189=EDGE_LOOP('',(#1195,#1196,#1197,#1198));
#190=EDGE_LOOP('',(#1199,#1200,#1201,#1202));
#191=EDGE_LOOP('',(#1203,#1204,#1205,#1206));
#192=EDGE_LOOP('',(#1207,#1208,#1209,#1210));
#193=EDGE_LOOP('',(#1211,#1212,#1213,#1214));
#194=EDGE_LOOP('',(#1215,#1216,#1217,#1218,#1219,#1220,#1221,#1222,#1223,
#1224,#1225,#1226,#1227,#1228,#1229,#1230));
#195=EDGE_LOOP('',(#1231,#1232,#1233,#1234));
#196=EDGE_LOOP('',(#1235,#1236,#1237,#1238));
#197=EDGE_LOOP('',(#1239,#1240,#1241,#1242));
#198=EDGE_LOOP('',(#1243,#1244,#1245,#1246));
#199=EDGE_LOOP('',(#1247,#1248,#1249,#1250));
#200=EDGE_LOOP('',(#1251,#1252,#1253,#1254));
#201=EDGE_LOOP('',(#1255,#1256,#1257,#1258));
#202=EDGE_LOOP('',(#1259,#1260,#1261,#1262));
#203=EDGE_LOOP('',(#1263,#1264,#1265,#1266));
#204=EDGE_LOOP('',(#1267,#1268,#1269,#1270));
#205=EDGE_LOOP('',(#1271,#1272,#1273,#1274));
#206=EDGE_LOOP('',(#1275,#1276,#1277,#1278));
#207=LINE('',#1833,#391);
#208=LINE('',#1835,#392);
#209=LINE('',#1837,#393);
#210=LINE('',#1838,#394);
#211=LINE('',#1841,#395);
#212=LINE('',#1843,#396);
#213=LINE('',#1844,#397);
#214=LINE('',#1847,#398);
#215=LINE('',#1849,#399);
#216=LINE('',#1850,#400);
#217=LINE('',#1852,#401);
#218=LINE('',#1853,#402);
#219=LINE('',#1857,#403);
#220=LINE('',#1859,#404);
#221=LINE('',#1861,#405);
#222=LINE('',#1862,#406);
#223=LINE('',#1865,#407);
#224=LINE('',#1867,#408);
#225=LINE('',#1868,#409);
#226=LINE('',#1871,#410);
#227=LINE('',#1873,#411);
#228=LINE('',#1874,#412);
#229=LINE('',#1876,#413);
#230=LINE('',#1877,#414);
#231=LINE('',#1881,#415);
#232=LINE('',#1883,#416);
#233=LINE('',#1885,#417);
#234=LINE('',#1886,#418);
#235=LINE('',#1889,#419);
#236=LINE('',#1891,#420);
#237=LINE('',#1892,#421);
#238=LINE('',#1895,#422);
#239=LINE('',#1897,#423);
#240=LINE('',#1898,#424);
#241=LINE('',#1900,#425);
#242=LINE('',#1901,#426);
#243=LINE('',#1905,#427);
#244=LINE('',#1907,#428);
#245=LINE('',#1909,#429);
#246=LINE('',#1910,#430);
#247=LINE('',#1913,#431);
#248=LINE('',#1915,#432);
#249=LINE('',#1916,#433);
#250=LINE('',#1919,#434);
#251=LINE('',#1921,#435);
#252=LINE('',#1922,#436);
#253=LINE('',#1924,#437);
#254=LINE('',#1925,#438);
#255=LINE('',#1929,#439);
#256=LINE('',#1931,#440);
#257=LINE('',#1933,#441);
#258=LINE('',#1934,#442);
#259=LINE('',#1937,#443);
#260=LINE('',#1939,#444);
#261=LINE('',#1940,#445);
#262=LINE('',#1943,#446);
#263=LINE('',#1945,#447);
#264=LINE('',#1946,#448);
#265=LINE('',#1948,#449);
#266=LINE('',#1949,#450);
#267=LINE('',#1953,#451);
#268=LINE('',#1955,#452);
#269=LINE('',#1957,#453);
#270=LINE('',#1958,#454);
#271=LINE('',#1961,#455);
#272=LINE('',#1963,#456);
#273=LINE('',#1964,#457);
#274=LINE('',#1967,#458);
#275=LINE('',#1969,#459);
#276=LINE('',#1970,#460);
#277=LINE('',#1972,#461);
#278=LINE('',#1973,#462);
#279=LINE('',#1977,#463);
#280=LINE('',#1979,#464);
#281=LINE('',#1981,#465);
#282=LINE('',#1982,#466);
#283=LINE('',#1985,#467);
#284=LINE('',#1987,#468);
#285=LINE('',#1988,#469);
#286=LINE('',#1991,#470);
#287=LINE('',#1993,#471);
#288=LINE('',#1994,#472);
#289=LINE('',#1996,#473);
#290=LINE('',#1997,#474);
#291=LINE('',#2001,#475);
#292=LINE('',#2003,#476);
#293=LINE('',#2005,#477);
#294=LINE('',#2006,#478);
#295=LINE('',#2009,#479);
#296=LINE('',#2011,#480);
#297=LINE('',#2012,#481);
#298=LINE('',#2015,#482);
#299=LINE('',#2017,#483);
#300=LINE('',#2018,#484);
#301=LINE('',#2020,#485);
#302=LINE('',#2021,#486);
#303=LINE('',#2025,#487);
#304=LINE('',#2027,#488);
#305=LINE('',#2029,#489);
#306=LINE('',#2030,#490);
#307=LINE('',#2033,#491);
#308=LINE('',#2035,#492);
#309=LINE('',#2036,#493);
#310=LINE('',#2039,#494);
#311=LINE('',#2041,#495);
#312=LINE('',#2042,#496);
#313=LINE('',#2044,#497);
#314=LINE('',#2045,#498);
#315=LINE('',#2049,#499);
#316=LINE('',#2051,#500);
#317=LINE('',#2053,#501);
#318=LINE('',#2054,#502);
#319=LINE('',#2057,#503);
#320=LINE('',#2059,#504);
#321=LINE('',#2060,#505);
#322=LINE('',#2063,#506);
#323=LINE('',#2065,#507);
#324=LINE('',#2066,#508);
#325=LINE('',#2068,#509);
#326=LINE('',#2069,#510);
#327=LINE('',#2073,#511);
#328=LINE('',#2075,#512);
#329=LINE('',#2077,#513);
#330=LINE('',#2078,#514);
#331=LINE('',#2081,#515);
#332=LINE('',#2083,#516);
#333=LINE('',#2084,#517);
#334=LINE('',#2087,#518);
#335=LINE('',#2089,#519);
#336=LINE('',#2090,#520);
#337=LINE('',#2092,#521);
#338=LINE('',#2093,#522);
#339=LINE('',#2097,#523);
#340=LINE('',#2099,#524);
#341=LINE('',#2101,#525);
#342=LINE('',#2102,#526);
#343=LINE('',#2105,#527);
#344=LINE('',#2107,#528);
#345=LINE('',#2108,#529);
#346=LINE('',#2111,#530);
#347=LINE('',#2113,#531);
#348=LINE('',#2114,#532);
#349=LINE('',#2116,#533);
#350=LINE('',#2117,#534);
#351=LINE('',#2121,#535);
#352=LINE('',#2123,#536);
#353=LINE('',#2125,#537);
#354=LINE('',#2126,#538);
#355=LINE('',#2129,#539);
#356=LINE('',#2131,#540);
#357=LINE('',#2132,#541);
#358=LINE('',#2138,#542);
#359=LINE('',#2141,#543);
#360=LINE('',#2143,#544);
#361=LINE('',#2144,#545);
#362=LINE('',#2147,#546);
#363=LINE('',#2149,#547);
#364=LINE('',#2150,#548);
#365=LINE('',#2153,#549);
#366=LINE('',#2155,#550);
#367=LINE('',#2156,#551);
#368=LINE('',#2162,#552);
#369=LINE('',#2165,#553);
#370=LINE('',#2167,#554);
#371=LINE('',#2168,#555);
#372=LINE('',#2171,#556);
#373=LINE('',#2173,#557);
#374=LINE('',#2174,#558);
#375=LINE('',#2177,#559);
#376=LINE('',#2179,#560);
#377=LINE('',#2180,#561);
#378=LINE('',#2186,#562);
#379=LINE('',#2189,#563);
#380=LINE('',#2191,#564);
#381=LINE('',#2192,#565);
#382=LINE('',#2195,#566);
#383=LINE('',#2197,#567);
#384=LINE('',#2198,#568);
#385=LINE('',#2201,#569);
#386=LINE('',#2203,#570);
#387=LINE('',#2204,#571);
#388=LINE('',#2210,#572);
#389=LINE('',#2212,#573);
#390=LINE('',#2213,#574);
#391=VECTOR('',#1499,10.);
#392=VECTOR('',#1500,10.);
#393=VECTOR('',#1501,10.);
#394=VECTOR('',#1502,10.);
#395=VECTOR('',#1505,10.);
#396=VECTOR('',#1506,10.);
#397=VECTOR('',#1507,10.);
#398=VECTOR('',#1510,10.);
#399=VECTOR('',#1511,10.);
#400=VECTOR('',#1512,10.);
#401=VECTOR('',#1515,10.);
#402=VECTOR('',#1516,10.);
#403=VECTOR('',#1519,10.);
#404=VECTOR('',#1520,10.);
#405=VECTOR('',#1521,10.);
#406=VECTOR('',#1522,10.);
#407=VECTOR('',#1525,10.);
#408=VECTOR('',#1526,10.);
#409=VECTOR('',#1527,10.);
#410=VECTOR('',#1530,10.);
#411=VECTOR('',#1531,10.);
#412=VECTOR('',#1532,10.);
#413=VECTOR('',#1535,10.);
#414=VECTOR('',#1536,10.);
#415=VECTOR('',#1539,10.);
#416=VECTOR('',#1540,10.);
#417=VECTOR('',#1541,10.);
#418=VECTOR('',#1542,10.);
#419=VECTOR('',#1545,10.);
#420=VECTOR('',#1546,10.);
#421=VECTOR('',#1547,10.);
#422=VECTOR('',#1550,10.);
#423=VECTOR('',#1551,10.);
#424=VECTOR('',#1552,10.);
#425=VECTOR('',#1555,10.);
#426=VECTOR('',#1556,10.);
#427=VECTOR('',#1559,10.);
#428=VECTOR('',#1560,10.);
#429=VECTOR('',#1561,10.);
#430=VECTOR('',#1562,10.);
#431=VECTOR('',#1565,10.);
#432=VECTOR('',#1566,10.);
#433=VECTOR('',#1567,10.);
#434=VECTOR('',#1570,10.);
#435=VECTOR('',#1571,10.);
#436=VECTOR('',#1572,10.);
#437=VECTOR('',#1575,10.);
#438=VECTOR('',#1576,10.);
#439=VECTOR('',#1579,10.);
#440=VECTOR('',#1580,10.);
#441=VECTOR('',#1581,10.);
#442=VECTOR('',#1582,10.);
#443=VECTOR('',#1585,10.);
#444=VECTOR('',#1586,10.);
#445=VECTOR('',#1587,10.);
#446=VECTOR('',#1590,10.);
#447=VECTOR('',#1591,10.);
#448=VECTOR('',#1592,10.);
#449=VECTOR('',#1595,10.);
#450=VECTOR('',#1596,10.);
#451=VECTOR('',#1599,10.);
#452=VECTOR('',#1600,10.);
#453=VECTOR('',#1601,10.);
#454=VECTOR('',#1602,10.);
#455=VECTOR('',#1605,10.);
#456=VECTOR('',#1606,10.);
#457=VECTOR('',#1607,10.);
#458=VECTOR('',#1610,10.);
#459=VECTOR('',#1611,10.);
#460=VECTOR('',#1612,10.);
#461=VECTOR('',#1615,10.);
#462=VECTOR('',#1616,10.);
#463=VECTOR('',#1619,10.);
#464=VECTOR('',#1620,10.);
#465=VECTOR('',#1621,10.);
#466=VECTOR('',#1622,10.);
#467=VECTOR('',#1625,10.);
#468=VECTOR('',#1626,10.);
#469=VECTOR('',#1627,10.);
#470=VECTOR('',#1630,10.);
#471=VECTOR('',#1631,10.);
#472=VECTOR('',#1632,10.);
#473=VECTOR('',#1635,10.);
#474=VECTOR('',#1636,10.);
#475=VECTOR('',#1639,10.);
#476=VECTOR('',#1640,10.);
#477=VECTOR('',#1641,10.);
#478=VECTOR('',#1642,10.);
#479=VECTOR('',#1645,10.);
#480=VECTOR('',#1646,10.);
#481=VECTOR('',#1647,10.);
#482=VECTOR('',#1650,10.);
#483=VECTOR('',#1651,10.);
#484=VECTOR('',#1652,10.);
#485=VECTOR('',#1655,10.);
#486=VECTOR('',#1656,10.);
#487=VECTOR('',#1659,10.);
#488=VECTOR('',#1660,10.);
#489=VECTOR('',#1661,10.);
#490=VECTOR('',#1662,10.);
#491=VECTOR('',#1665,10.);
#492=VECTOR('',#1666,10.);
#493=VECTOR('',#1667,10.);
#494=VECTOR('',#1670,10.);
#495=VECTOR('',#1671,10.);
#496=VECTOR('',#1672,10.);
#497=VECTOR('',#1675,10.);
#498=VECTOR('',#1676,10.);
#499=VECTOR('',#1679,10.);
#500=VECTOR('',#1680,10.);
#501=VECTOR('',#1681,10.);
#502=VECTOR('',#1682,10.);
#503=VECTOR('',#1685,10.);
#504=VECTOR('',#1686,10.);
#505=VECTOR('',#1687,10.);
#506=VECTOR('',#1690,10.);
#507=VECTOR('',#1691,10.);
#508=VECTOR('',#1692,10.);
#509=VECTOR('',#1695,10.);
#510=VECTOR('',#1696,10.);
#511=VECTOR('',#1699,10.);
#512=VECTOR('',#1700,10.);
#513=VECTOR('',#1701,10.);
#514=VECTOR('',#1702,10.);
#515=VECTOR('',#1705,10.);
#516=VECTOR('',#1706,10.);
#517=VECTOR('',#1707,10.);
#518=VECTOR('',#1710,10.);
#519=VECTOR('',#1711,10.);
#520=VECTOR('',#1712,10.);
#521=VECTOR('',#1715,10.);
#522=VECTOR('',#1716,10.);
#523=VECTOR('',#1719,10.);
#524=VECTOR('',#1720,10.);
#525=VECTOR('',#1721,10.);
#526=VECTOR('',#1722,10.);
#527=VECTOR('',#1725,10.);
#528=VECTOR('',#1726,10.);
#529=VECTOR('',#1727,10.);
#530=VECTOR('',#1730,10.);
#531=VECTOR('',#1731,10.);
#532=VECTOR('',#1732,10.);
#533=VECTOR('',#1735,10.);
#534=VECTOR('',#1736,10.);
#535=VECTOR('',#1739,10.);
#536=VECTOR('',#1740,10.);
#537=VECTOR('',#1741,10.);
#538=VECTOR('',#1742,10.);
#539=VECTOR('',#1745,10.);
#540=VECTOR('',#1746,10.);
#541=VECTOR('',#1747,10.);
#542=VECTOR('',#1754,10.);
#543=VECTOR('',#1757,10.);
#544=VECTOR('',#1758,10.);
#545=VECTOR('',#1759,10.);
#546=VECTOR('',#1762,10.);
#547=VECTOR('',#1763,10.);
#548=VECTOR('',#1764,10.);
#549=VECTOR('',#1767,10.);
#550=VECTOR('',#1768,10.);
#551=VECTOR('',#1769,10.);
#552=VECTOR('',#1776,10.);
#553=VECTOR('',#1779,10.);
#554=VECTOR('',#1780,10.);
#555=VECTOR('',#1781,10.);
#556=VECTOR('',#1784,10.);
#557=VECTOR('',#1785,10.);
#558=VECTOR('',#1786,10.);
#559=VECTOR('',#1789,10.);
#560=VECTOR('',#1790,10.);
#561=VECTOR('',#1791,10.);
#562=VECTOR('',#1798,10.);
#563=VECTOR('',#1801,10.);
#564=VECTOR('',#1802,10.);
#565=VECTOR('',#1803,10.);
#566=VECTOR('',#1806,10.);
#567=VECTOR('',#1807,10.);
#568=VECTOR('',#1808,10.);
#569=VECTOR('',#1811,10.);
#570=VECTOR('',#1812,10.);
#571=VECTOR('',#1813,10.);
#572=VECTOR('',#1820,10.);
#573=VECTOR('',#1823,10.);
#574=VECTOR('',#1824,10.);
#575=VERTEX_POINT('',#1831);
#576=VERTEX_POINT('',#1832);
#577=VERTEX_POINT('',#1834);
#578=VERTEX_POINT('',#1836);
#579=VERTEX_POINT('',#1840);
#580=VERTEX_POINT('',#1842);
#581=VERTEX_POINT('',#1846);
#582=VERTEX_POINT('',#1848);
#583=VERTEX_POINT('',#1855);
#584=VERTEX_POINT('',#1856);
#585=VERTEX_POINT('',#1858);
#586=VERTEX_POINT('',#1860);
#587=VERTEX_POINT('',#1864);
#588=VERTEX_POINT('',#1866);
#589=VERTEX_POINT('',#1870);
#590=VERTEX_POINT('',#1872);
#591=VERTEX_POINT('',#1879);
#592=VERTEX_POINT('',#1880);
#593=VERTEX_POINT('',#1882);
#594=VERTEX_POINT('',#1884);
#595=VERTEX_POINT('',#1888);
#596=VERTEX_POINT('',#1890);
#597=VERTEX_POINT('',#1894);
#598=VERTEX_POINT('',#1896);
#599=VERTEX_POINT('',#1903);
#600=VERTEX_POINT('',#1904);
#601=VERTEX_POINT('',#1906);
#602=VERTEX_POINT('',#1908);
#603=VERTEX_POINT('',#1912);
#604=VERTEX_POINT('',#1914);
#605=VERTEX_POINT('',#1918);
#606=VERTEX_POINT('',#1920);
#607=VERTEX_POINT('',#1927);
#608=VERTEX_POINT('',#1928);
#609=VERTEX_POINT('',#1930);
#610=VERTEX_POINT('',#1932);
#611=VERTEX_POINT('',#1936);
#612=VERTEX_POINT('',#1938);
#613=VERTEX_POINT('',#1942);
#614=VERTEX_POINT('',#1944);
#615=VERTEX_POINT('',#1951);
#616=VERTEX_POINT('',#1952);
#617=VERTEX_POINT('',#1954);
#618=VERTEX_POINT('',#1956);
#619=VERTEX_POINT('',#1960);
#620=VERTEX_POINT('',#1962);
#621=VERTEX_POINT('',#1966);
#622=VERTEX_POINT('',#1968);
#623=VERTEX_POINT('',#1975);
#624=VERTEX_POINT('',#1976);
#625=VERTEX_POINT('',#1978);
#626=VERTEX_POINT('',#1980);
#627=VERTEX_POINT('',#1984);
#628=VERTEX_POINT('',#1986);
#629=VERTEX_POINT('',#1990);
#630=VERTEX_POINT('',#1992);
#631=VERTEX_POINT('',#1999);
#632=VERTEX_POINT('',#2000);
#633=VERTEX_POINT('',#2002);
#634=VERTEX_POINT('',#2004);
#635=VERTEX_POINT('',#2008);
#636=VERTEX_POINT('',#2010);
#637=VERTEX_POINT('',#2014);
#638=VERTEX_POINT('',#2016);
#639=VERTEX_POINT('',#2023);
#640=VERTEX_POINT('',#2024);
#641=VERTEX_POINT('',#2026);
#642=VERTEX_POINT('',#2028);
#643=VERTEX_POINT('',#2032);
#644=VERTEX_POINT('',#2034);
#645=VERTEX_POINT('',#2038);
#646=VERTEX_POINT('',#2040);
#647=VERTEX_POINT('',#2047);
#648=VERTEX_POINT('',#2048);
#649=VERTEX_POINT('',#2050);
#650=VERTEX_POINT('',#2052);
#651=VERTEX_POINT('',#2056);
#652=VERTEX_POINT('',#2058);
#653=VERTEX_POINT('',#2062);
#654=VERTEX_POINT('',#2064);
#655=VERTEX_POINT('',#2071);
#656=VERTEX_POINT('',#2072);
#657=VERTEX_POINT('',#2074);
#658=VERTEX_POINT('',#2076);
#659=VERTEX_POINT('',#2080);
#660=VERTEX_POINT('',#2082);
#661=VERTEX_POINT('',#2086);
#662=VERTEX_POINT('',#2088);
#663=VERTEX_POINT('',#2095);
#664=VERTEX_POINT('',#2096);
#665=VERTEX_POINT('',#2098);
#666=VERTEX_POINT('',#2100);
#667=VERTEX_POINT('',#2104);
#668=VERTEX_POINT('',#2106);
#669=VERTEX_POINT('',#2110);
#670=VERTEX_POINT('',#2112);
#671=VERTEX_POINT('',#2119);
#672=VERTEX_POINT('',#2120);
#673=VERTEX_POINT('',#2122);
#674=VERTEX_POINT('',#2124);
#675=VERTEX_POINT('',#2128);
#676=VERTEX_POINT('',#2130);
#677=VERTEX_POINT('',#2134);
#678=VERTEX_POINT('',#2136);
#679=VERTEX_POINT('',#2140);
#680=VERTEX_POINT('',#2142);
#681=VERTEX_POINT('',#2146);
#682=VERTEX_POINT('',#2148);
#683=VERTEX_POINT('',#2152);
#684=VERTEX_POINT('',#2154);
#685=VERTEX_POINT('',#2158);
#686=VERTEX_POINT('',#2160);
#687=VERTEX_POINT('',#2164);
#688=VERTEX_POINT('',#2166);
#689=VERTEX_POINT('',#2170);
#690=VERTEX_POINT('',#2172);
#691=VERTEX_POINT('',#2176);
#692=VERTEX_POINT('',#2178);
#693=VERTEX_POINT('',#2182);
#694=VERTEX_POINT('',#2184);
#695=VERTEX_POINT('',#2188);
#696=VERTEX_POINT('',#2190);
#697=VERTEX_POINT('',#2194);
#698=VERTEX_POINT('',#2196);
#699=VERTEX_POINT('',#2200);
#700=VERTEX_POINT('',#2202);
#701=VERTEX_POINT('',#2206);
#702=VERTEX_POINT('',#2208);
#703=EDGE_CURVE('',#575,#576,#207,.T.);
#704=EDGE_CURVE('',#576,#577,#208,.T.);
#705=EDGE_CURVE('',#578,#577,#209,.T.);
#706=EDGE_CURVE('',#575,#578,#210,.T.);
#707=EDGE_CURVE('',#579,#575,#211,.T.);
#708=EDGE_CURVE('',#580,#578,#212,.T.);
#709=EDGE_CURVE('',#579,#580,#213,.T.);
#710=EDGE_CURVE('',#581,#579,#214,.T.);
#711=EDGE_CURVE('',#582,#580,#215,.T.);
#712=EDGE_CURVE('',#581,#582,#216,.T.);
#713=EDGE_CURVE('',#576,#581,#217,.T.);
#714=EDGE_CURVE('',#577,#582,#218,.T.);
#715=EDGE_CURVE('',#583,#584,#219,.T.);
#716=EDGE_CURVE('',#584,#585,#220,.T.);
#717=EDGE_CURVE('',#586,#585,#221,.T.);
#718=EDGE_CURVE('',#583,#586,#222,.T.);
#719=EDGE_CURVE('',#587,#583,#223,.T.);
#720=EDGE_CURVE('',#588,#586,#224,.T.);
#721=EDGE_CURVE('',#587,#588,#225,.T.);
#722=EDGE_CURVE('',#589,#587,#226,.T.);
#723=EDGE_CURVE('',#590,#588,#227,.T.);
#724=EDGE_CURVE('',#589,#590,#228,.T.);
#725=EDGE_CURVE('',#584,#589,#229,.T.);
#726=EDGE_CURVE('',#585,#590,#230,.T.);
#727=EDGE_CURVE('',#591,#592,#231,.T.);
#728=EDGE_CURVE('',#592,#593,#232,.T.);
#729=EDGE_CURVE('',#594,#593,#233,.T.);
#730=EDGE_CURVE('',#591,#594,#234,.T.);
#731=EDGE_CURVE('',#595,#591,#235,.T.);
#732=EDGE_CURVE('',#596,#594,#236,.T.);
#733=EDGE_CURVE('',#595,#596,#237,.T.);
#734=EDGE_CURVE('',#597,#595,#238,.T.);
#735=EDGE_CURVE('',#598,#596,#239,.T.);
#736=EDGE_CURVE('',#597,#598,#240,.T.);
#737=EDGE_CURVE('',#592,#597,#241,.T.);
#738=EDGE_CURVE('',#593,#598,#242,.T.);
#739=EDGE_CURVE('',#599,#600,#243,.T.);
#740=EDGE_CURVE('',#600,#601,#244,.T.);
#741=EDGE_CURVE('',#602,#601,#245,.T.);
#742=EDGE_CURVE('',#599,#602,#246,.T.);
#743=EDGE_CURVE('',#603,#599,#247,.T.);
#744=EDGE_CURVE('',#604,#602,#248,.T.);
#745=EDGE_CURVE('',#603,#604,#249,.T.);
#746=EDGE_CURVE('',#605,#603,#250,.T.);
#747=EDGE_CURVE('',#606,#604,#251,.T.);
#748=EDGE_CURVE('',#605,#606,#252,.T.);
#749=EDGE_CURVE('',#600,#605,#253,.T.);
#750=EDGE_CURVE('',#601,#606,#254,.T.);
#751=EDGE_CURVE('',#607,#608,#255,.T.);
#752=EDGE_CURVE('',#608,#609,#256,.T.);
#753=EDGE_CURVE('',#610,#609,#257,.T.);
#754=EDGE_CURVE('',#607,#610,#258,.T.);
#755=EDGE_CURVE('',#611,#607,#259,.T.);
#756=EDGE_CURVE('',#612,#610,#260,.T.);
#757=EDGE_CURVE('',#611,#612,#261,.T.);
#758=EDGE_CURVE('',#613,#611,#262,.T.);
#759=EDGE_CURVE('',#614,#612,#263,.T.);
#760=EDGE_CURVE('',#613,#614,#264,.T.);
#761=EDGE_CURVE('',#608,#613,#265,.T.);
#762=EDGE_CURVE('',#609,#614,#266,.T.);
#763=EDGE_CURVE('',#615,#616,#267,.T.);
#764=EDGE_CURVE('',#616,#617,#268,.T.);
#765=EDGE_CURVE('',#618,#617,#269,.T.);
#766=EDGE_CURVE('',#615,#618,#270,.T.);
#767=EDGE_CURVE('',#619,#615,#271,.T.);
#768=EDGE_CURVE('',#620,#618,#272,.T.);
#769=EDGE_CURVE('',#619,#620,#273,.T.);
#770=EDGE_CURVE('',#621,#619,#274,.T.);
#771=EDGE_CURVE('',#622,#620,#275,.T.);
#772=EDGE_CURVE('',#621,#622,#276,.T.);
#773=EDGE_CURVE('',#616,#621,#277,.T.);
#774=EDGE_CURVE('',#617,#622,#278,.T.);
#775=EDGE_CURVE('',#623,#624,#279,.T.);
#776=EDGE_CURVE('',#624,#625,#280,.T.);
#777=EDGE_CURVE('',#626,#625,#281,.T.);
#778=EDGE_CURVE('',#623,#626,#282,.T.);
#779=EDGE_CURVE('',#627,#623,#283,.T.);
#780=EDGE_CURVE('',#628,#626,#284,.T.);
#781=EDGE_CURVE('',#627,#628,#285,.T.);
#782=EDGE_CURVE('',#629,#627,#286,.T.);
#783=EDGE_CURVE('',#630,#628,#287,.T.);
#784=EDGE_CURVE('',#629,#630,#288,.T.);
#785=EDGE_CURVE('',#624,#629,#289,.T.);
#786=EDGE_CURVE('',#625,#630,#290,.T.);
#787=EDGE_CURVE('',#631,#632,#291,.T.);
#788=EDGE_CURVE('',#632,#633,#292,.T.);
#789=EDGE_CURVE('',#634,#633,#293,.T.);
#790=EDGE_CURVE('',#631,#634,#294,.T.);
#791=EDGE_CURVE('',#635,#631,#295,.T.);
#792=EDGE_CURVE('',#636,#634,#296,.T.);
#793=EDGE_CURVE('',#635,#636,#297,.T.);
#794=EDGE_CURVE('',#637,#635,#298,.T.);
#795=EDGE_CURVE('',#638,#636,#299,.T.);
#796=EDGE_CURVE('',#637,#638,#300,.T.);
#797=EDGE_CURVE('',#632,#637,#301,.T.);
#798=EDGE_CURVE('',#633,#638,#302,.T.);
#799=EDGE_CURVE('',#639,#640,#303,.T.);
#800=EDGE_CURVE('',#640,#641,#304,.T.);
#801=EDGE_CURVE('',#642,#641,#305,.T.);
#802=EDGE_CURVE('',#639,#642,#306,.T.);
#803=EDGE_CURVE('',#643,#639,#307,.T.);
#804=EDGE_CURVE('',#644,#642,#308,.T.);
#805=EDGE_CURVE('',#643,#644,#309,.T.);
#806=EDGE_CURVE('',#645,#643,#310,.T.);
#807=EDGE_CURVE('',#646,#644,#311,.T.);
#808=EDGE_CURVE('',#645,#646,#312,.T.);
#809=EDGE_CURVE('',#640,#645,#313,.T.);
#810=EDGE_CURVE('',#641,#646,#314,.T.);
#811=EDGE_CURVE('',#647,#648,#315,.T.);
#812=EDGE_CURVE('',#648,#649,#316,.T.);
#813=EDGE_CURVE('',#650,#649,#317,.T.);
#814=EDGE_CURVE('',#647,#650,#318,.T.);
#815=EDGE_CURVE('',#651,#647,#319,.T.);
#816=EDGE_CURVE('',#652,#650,#320,.T.);
#817=EDGE_CURVE('',#651,#652,#321,.T.);
#818=EDGE_CURVE('',#653,#651,#322,.T.);
#819=EDGE_CURVE('',#654,#652,#323,.T.);
#820=EDGE_CURVE('',#653,#654,#324,.T.);
#821=EDGE_CURVE('',#648,#653,#325,.T.);
#822=EDGE_CURVE('',#649,#654,#326,.T.);
#823=EDGE_CURVE('',#655,#656,#327,.T.);
#824=EDGE_CURVE('',#656,#657,#328,.T.);
#825=EDGE_CURVE('',#658,#657,#329,.T.);
#826=EDGE_CURVE('',#655,#658,#330,.T.);
#827=EDGE_CURVE('',#659,#655,#331,.T.);
#828=EDGE_CURVE('',#660,#658,#332,.T.);
#829=EDGE_CURVE('',#659,#660,#333,.T.);
#830=EDGE_CURVE('',#661,#659,#334,.T.);
#831=EDGE_CURVE('',#662,#660,#335,.T.);
#832=EDGE_CURVE('',#661,#662,#336,.T.);
#833=EDGE_CURVE('',#656,#661,#337,.T.);
#834=EDGE_CURVE('',#657,#662,#338,.T.);
#835=EDGE_CURVE('',#663,#664,#339,.T.);
#836=EDGE_CURVE('',#664,#665,#340,.T.);
#837=EDGE_CURVE('',#666,#665,#341,.T.);
#838=EDGE_CURVE('',#663,#666,#342,.T.);
#839=EDGE_CURVE('',#667,#663,#343,.T.);
#840=EDGE_CURVE('',#668,#666,#344,.T.);
#841=EDGE_CURVE('',#667,#668,#345,.T.);
#842=EDGE_CURVE('',#669,#667,#346,.T.);
#843=EDGE_CURVE('',#670,#668,#347,.T.);
#844=EDGE_CURVE('',#669,#670,#348,.T.);
#845=EDGE_CURVE('',#664,#669,#349,.T.);
#846=EDGE_CURVE('',#665,#670,#350,.T.);
#847=EDGE_CURVE('',#671,#672,#351,.T.);
#848=EDGE_CURVE('',#672,#673,#352,.T.);
#849=EDGE_CURVE('',#674,#673,#353,.T.);
#850=EDGE_CURVE('',#671,#674,#354,.T.);
#851=EDGE_CURVE('',#675,#671,#355,.T.);
#852=EDGE_CURVE('',#676,#674,#356,.T.);
#853=EDGE_CURVE('',#675,#676,#357,.T.);
#854=EDGE_CURVE('',#677,#675,#39,.T.);
#855=EDGE_CURVE('',#678,#676,#40,.T.);
#856=EDGE_CURVE('',#677,#678,#358,.T.);
#857=EDGE_CURVE('',#679,#677,#359,.T.);
#858=EDGE_CURVE('',#680,#678,#360,.T.);
#859=EDGE_CURVE('',#679,#680,#361,.T.);
#860=EDGE_CURVE('',#681,#679,#362,.T.);
#861=EDGE_CURVE('',#682,#680,#363,.T.);
#862=EDGE_CURVE('',#681,#682,#364,.T.);
#863=EDGE_CURVE('',#683,#681,#365,.T.);
#864=EDGE_CURVE('',#684,#682,#366,.T.);
#865=EDGE_CURVE('',#683,#684,#367,.T.);
#866=EDGE_CURVE('',#685,#683,#41,.T.);
#867=EDGE_CURVE('',#686,#684,#42,.T.);
#868=EDGE_CURVE('',#685,#686,#368,.T.);
#869=EDGE_CURVE('',#687,#685,#369,.T.);
#870=EDGE_CURVE('',#688,#686,#370,.T.);
#871=EDGE_CURVE('',#687,#688,#371,.T.);
#872=EDGE_CURVE('',#689,#687,#372,.T.);
#873=EDGE_CURVE('',#690,#688,#373,.T.);
#874=EDGE_CURVE('',#689,#690,#374,.T.);
#875=EDGE_CURVE('',#691,#689,#375,.T.);
#876=EDGE_CURVE('',#692,#690,#376,.T.);
#877=EDGE_CURVE('',#691,#692,#377,.T.);
#878=EDGE_CURVE('',#693,#691,#43,.T.);
#879=EDGE_CURVE('',#694,#692,#44,.T.);
#880=EDGE_CURVE('',#693,#694,#378,.T.);
#881=EDGE_CURVE('',#695,#693,#379,.T.);
#882=EDGE_CURVE('',#696,#694,#380,.T.);
#883=EDGE_CURVE('',#695,#696,#381,.T.);
#884=EDGE_CURVE('',#697,#695,#382,.T.);
#885=EDGE_CURVE('',#698,#696,#383,.T.);
#886=EDGE_CURVE('',#697,#698,#384,.T.);
#887=EDGE_CURVE('',#699,#697,#385,.T.);
#888=EDGE_CURVE('',#700,#698,#386,.T.);
#889=EDGE_CURVE('',#699,#700,#387,.T.);
#890=EDGE_CURVE('',#701,#699,#45,.T.);
#891=EDGE_CURVE('',#702,#700,#46,.T.);
#892=EDGE_CURVE('',#701,#702,#388,.T.);
#893=EDGE_CURVE('',#672,#701,#389,.T.);
#894=EDGE_CURVE('',#673,#702,#390,.T.);
#895=ORIENTED_EDGE('',*,*,#703,.T.);
#896=ORIENTED_EDGE('',*,*,#704,.T.);
#897=ORIENTED_EDGE('',*,*,#705,.F.);
#898=ORIENTED_EDGE('',*,*,#706,.F.);
#899=ORIENTED_EDGE('',*,*,#707,.T.);
#900=ORIENTED_EDGE('',*,*,#706,.T.);
#901=ORIENTED_EDGE('',*,*,#708,.F.);
#902=ORIENTED_EDGE('',*,*,#709,.F.);
#903=ORIENTED_EDGE('',*,*,#710,.T.);
#904=ORIENTED_EDGE('',*,*,#709,.T.);
#905=ORIENTED_EDGE('',*,*,#711,.F.);
#906=ORIENTED_EDGE('',*,*,#712,.F.);
#907=ORIENTED_EDGE('',*,*,#713,.T.);
#908=ORIENTED_EDGE('',*,*,#712,.T.);
#909=ORIENTED_EDGE('',*,*,#714,.F.);
#910=ORIENTED_EDGE('',*,*,#704,.F.);
#911=ORIENTED_EDGE('',*,*,#715,.T.);
#912=ORIENTED_EDGE('',*,*,#716,.T.);
#913=ORIENTED_EDGE('',*,*,#717,.F.);
#914=ORIENTED_EDGE('',*,*,#718,.F.);
#915=ORIENTED_EDGE('',*,*,#719,.T.);
#916=ORIENTED_EDGE('',*,*,#718,.T.);
#917=ORIENTED_EDGE('',*,*,#720,.F.);
#918=ORIENTED_EDGE('',*,*,#721,.F.);
#919=ORIENTED_EDGE('',*,*,#722,.T.);
#920=ORIENTED_EDGE('',*,*,#721,.T.);
#921=ORIENTED_EDGE('',*,*,#723,.F.);
#922=ORIENTED_EDGE('',*,*,#724,.F.);
#923=ORIENTED_EDGE('',*,*,#725,.T.);
#924=ORIENTED_EDGE('',*,*,#724,.T.);
#925=ORIENTED_EDGE('',*,*,#726,.F.);
#926=ORIENTED_EDGE('',*,*,#716,.F.);
#927=ORIENTED_EDGE('',*,*,#727,.T.);
#928=ORIENTED_EDGE('',*,*,#728,.T.);
#929=ORIENTED_EDGE('',*,*,#729,.F.);
#930=ORIENTED_EDGE('',*,*,#730,.F.);
#931=ORIENTED_EDGE('',*,*,#731,.T.);
#932=ORIENTED_EDGE('',*,*,#730,.T.);
#933=ORIENTED_EDGE('',*,*,#732,.F.);
#934=ORIENTED_EDGE('',*,*,#733,.F.);
#935=ORIENTED_EDGE('',*,*,#734,.T.);
#936=ORIENTED_EDGE('',*,*,#733,.T.);
#937=ORIENTED_EDGE('',*,*,#735,.F.);
#938=ORIENTED_EDGE('',*,*,#736,.F.);
#939=ORIENTED_EDGE('',*,*,#737,.T.);
#940=ORIENTED_EDGE('',*,*,#736,.T.);
#941=ORIENTED_EDGE('',*,*,#738,.F.);
#942=ORIENTED_EDGE('',*,*,#728,.F.);
#943=ORIENTED_EDGE('',*,*,#739,.T.);
#944=ORIENTED_EDGE('',*,*,#740,.T.);
#945=ORIENTED_EDGE('',*,*,#741,.F.);
#946=ORIENTED_EDGE('',*,*,#742,.F.);
#947=ORIENTED_EDGE('',*,*,#743,.T.);
#948=ORIENTED_EDGE('',*,*,#742,.T.);
#949=ORIENTED_EDGE('',*,*,#744,.F.);
#950=ORIENTED_EDGE('',*,*,#745,.F.);
#951=ORIENTED_EDGE('',*,*,#746,.T.);
#952=ORIENTED_EDGE('',*,*,#745,.T.);
#953=ORIENTED_EDGE('',*,*,#747,.F.);
#954=ORIENTED_EDGE('',*,*,#748,.F.);
#955=ORIENTED_EDGE('',*,*,#749,.T.);
#956=ORIENTED_EDGE('',*,*,#748,.T.);
#957=ORIENTED_EDGE('',*,*,#750,.F.);
#958=ORIENTED_EDGE('',*,*,#740,.F.);
#959=ORIENTED_EDGE('',*,*,#751,.T.);
#960=ORIENTED_EDGE('',*,*,#752,.T.);
#961=ORIENTED_EDGE('',*,*,#753,.F.);
#962=ORIENTED_EDGE('',*,*,#754,.F.);
#963=ORIENTED_EDGE('',*,*,#755,.T.);
#964=ORIENTED_EDGE('',*,*,#754,.T.);
#965=ORIENTED_EDGE('',*,*,#756,.F.);
#966=ORIENTED_EDGE('',*,*,#757,.F.);
#967=ORIENTED_EDGE('',*,*,#758,.T.);
#968=ORIENTED_EDGE('',*,*,#757,.T.);
#969=ORIENTED_EDGE('',*,*,#759,.F.);
#970=ORIENTED_EDGE('',*,*,#760,.F.);
#971=ORIENTED_EDGE('',*,*,#761,.T.);
#972=ORIENTED_EDGE('',*,*,#760,.T.);
#973=ORIENTED_EDGE('',*,*,#762,.F.);
#974=ORIENTED_EDGE('',*,*,#752,.F.);
#975=ORIENTED_EDGE('',*,*,#763,.T.);
#976=ORIENTED_EDGE('',*,*,#764,.T.);
#977=ORIENTED_EDGE('',*,*,#765,.F.);
#978=ORIENTED_EDGE('',*,*,#766,.F.);
#979=ORIENTED_EDGE('',*,*,#767,.T.);
#980=ORIENTED_EDGE('',*,*,#766,.T.);
#981=ORIENTED_EDGE('',*,*,#768,.F.);
#982=ORIENTED_EDGE('',*,*,#769,.F.);
#983=ORIENTED_EDGE('',*,*,#770,.T.);
#984=ORIENTED_EDGE('',*,*,#769,.T.);
#985=ORIENTED_EDGE('',*,*,#771,.F.);
#986=ORIENTED_EDGE('',*,*,#772,.F.);
#987=ORIENTED_EDGE('',*,*,#773,.T.);
#988=ORIENTED_EDGE('',*,*,#772,.T.);
#989=ORIENTED_EDGE('',*,*,#774,.F.);
#990=ORIENTED_EDGE('',*,*,#764,.F.);
#991=ORIENTED_EDGE('',*,*,#775,.T.);
#992=ORIENTED_EDGE('',*,*,#776,.T.);
#993=ORIENTED_EDGE('',*,*,#777,.F.);
#994=ORIENTED_EDGE('',*,*,#778,.F.);
#995=ORIENTED_EDGE('',*,*,#779,.T.);
#996=ORIENTED_EDGE('',*,*,#778,.T.);
#997=ORIENTED_EDGE('',*,*,#780,.F.);
#998=ORIENTED_EDGE('',*,*,#781,.F.);
#999=ORIENTED_EDGE('',*,*,#782,.T.);
#1000=ORIENTED_EDGE('',*,*,#781,.T.);
#1001=ORIENTED_EDGE('',*,*,#783,.F.);
#1002=ORIENTED_EDGE('',*,*,#784,.F.);
#1003=ORIENTED_EDGE('',*,*,#785,.T.);
#1004=ORIENTED_EDGE('',*,*,#784,.T.);
#1005=ORIENTED_EDGE('',*,*,#786,.F.);
#1006=ORIENTED_EDGE('',*,*,#776,.F.);
#1007=ORIENTED_EDGE('',*,*,#787,.T.);
#1008=ORIENTED_EDGE('',*,*,#788,.T.);
#1009=ORIENTED_EDGE('',*,*,#789,.F.);
#1010=ORIENTED_EDGE('',*,*,#790,.F.);
#1011=ORIENTED_EDGE('',*,*,#791,.T.);
#1012=ORIENTED_EDGE('',*,*,#790,.T.);
#1013=ORIENTED_EDGE('',*,*,#792,.F.);
#1014=ORIENTED_EDGE('',*,*,#793,.F.);
#1015=ORIENTED_EDGE('',*,*,#794,.T.);
#1016=ORIENTED_EDGE('',*,*,#793,.T.);
#1017=ORIENTED_EDGE('',*,*,#795,.F.);
#1018=ORIENTED_EDGE('',*,*,#796,.F.);
#1019=ORIENTED_EDGE('',*,*,#797,.T.);
#1020=ORIENTED_EDGE('',*,*,#796,.T.);
#1021=ORIENTED_EDGE('',*,*,#798,.F.);
#1022=ORIENTED_EDGE('',*,*,#788,.F.);
#1023=ORIENTED_EDGE('',*,*,#799,.T.);
#1024=ORIENTED_EDGE('',*,*,#800,.T.);
#1025=ORIENTED_EDGE('',*,*,#801,.F.);
#1026=ORIENTED_EDGE('',*,*,#802,.F.);
#1027=ORIENTED_EDGE('',*,*,#803,.T.);
#1028=ORIENTED_EDGE('',*,*,#802,.T.);
#1029=ORIENTED_EDGE('',*,*,#804,.F.);
#1030=ORIENTED_EDGE('',*,*,#805,.F.);
#1031=ORIENTED_EDGE('',*,*,#806,.T.);
#1032=ORIENTED_EDGE('',*,*,#805,.T.);
#1033=ORIENTED_EDGE('',*,*,#807,.F.);
#1034=ORIENTED_EDGE('',*,*,#808,.F.);
#1035=ORIENTED_EDGE('',*,*,#809,.T.);
#1036=ORIENTED_EDGE('',*,*,#808,.T.);
#1037=ORIENTED_EDGE('',*,*,#810,.F.);
#1038=ORIENTED_EDGE('',*,*,#800,.F.);
#1039=ORIENTED_EDGE('',*,*,#811,.T.);
#1040=ORIENTED_EDGE('',*,*,#812,.T.);
#1041=ORIENTED_EDGE('',*,*,#813,.F.);
#1042=ORIENTED_EDGE('',*,*,#814,.F.);
#1043=ORIENTED_EDGE('',*,*,#815,.T.);
#1044=ORIENTED_EDGE('',*,*,#814,.T.);
#1045=ORIENTED_EDGE('',*,*,#816,.F.);
#1046=ORIENTED_EDGE('',*,*,#817,.F.);
#1047=ORIENTED_EDGE('',*,*,#818,.T.);
#1048=ORIENTED_EDGE('',*,*,#817,.T.);
#1049=ORIENTED_EDGE('',*,*,#819,.F.);
#1050=ORIENTED_EDGE('',*,*,#820,.F.);
#1051=ORIENTED_EDGE('',*,*,#821,.T.);
#1052=ORIENTED_EDGE('',*,*,#820,.T.);
#1053=ORIENTED_EDGE('',*,*,#822,.F.);
#1054=ORIENTED_EDGE('',*,*,#812,.F.);
#1055=ORIENTED_EDGE('',*,*,#823,.T.);
#1056=ORIENTED_EDGE('',*,*,#824,.T.);
#1057=ORIENTED_EDGE('',*,*,#825,.F.);
#1058=ORIENTED_EDGE('',*,*,#826,.F.);
#1059=ORIENTED_EDGE('',*,*,#827,.T.);
#1060=ORIENTED_EDGE('',*,*,#826,.T.);
#1061=ORIENTED_EDGE('',*,*,#828,.F.);
#1062=ORIENTED_EDGE('',*,*,#829,.F.);
#1063=ORIENTED_EDGE('',*,*,#830,.T.);
#1064=ORIENTED_EDGE('',*,*,#829,.T.);
#1065=ORIENTED_EDGE('',*,*,#831,.F.);
#1066=ORIENTED_EDGE('',*,*,#832,.F.);
#1067=ORIENTED_EDGE('',*,*,#833,.T.);
#1068=ORIENTED_EDGE('',*,*,#832,.T.);
#1069=ORIENTED_EDGE('',*,*,#834,.F.);
#1070=ORIENTED_EDGE('',*,*,#824,.F.);
#1071=ORIENTED_EDGE('',*,*,#835,.T.);
#1072=ORIENTED_EDGE('',*,*,#836,.T.);
#1073=ORIENTED_EDGE('',*,*,#837,.F.);
#1074=ORIENTED_EDGE('',*,*,#838,.F.);
#1075=ORIENTED_EDGE('',*,*,#839,.T.);
#1076=ORIENTED_EDGE('',*,*,#838,.T.);
#1077=ORIENTED_EDGE('',*,*,#840,.F.);
#1078=ORIENTED_EDGE('',*,*,#841,.F.);
#1079=ORIENTED_EDGE('',*,*,#842,.T.);
#1080=ORIENTED_EDGE('',*,*,#841,.T.);
#1081=ORIENTED_EDGE('',*,*,#843,.F.);
#1082=ORIENTED_EDGE('',*,*,#844,.F.);
#1083=ORIENTED_EDGE('',*,*,#845,.T.);
#1084=ORIENTED_EDGE('',*,*,#844,.T.);
#1085=ORIENTED_EDGE('',*,*,#846,.F.);
#1086=ORIENTED_EDGE('',*,*,#836,.F.);
#1087=ORIENTED_EDGE('',*,*,#847,.T.);
#1088=ORIENTED_EDGE('',*,*,#848,.T.);
#1089=ORIENTED_EDGE('',*,*,#849,.F.);
#1090=ORIENTED_EDGE('',*,*,#850,.F.);
#1091=ORIENTED_EDGE('',*,*,#851,.T.);
#1092=ORIENTED_EDGE('',*,*,#850,.T.);
#1093=ORIENTED_EDGE('',*,*,#852,.F.);
#1094=ORIENTED_EDGE('',*,*,#853,.F.);
#1095=ORIENTED_EDGE('',*,*,#854,.T.);
#1096=ORIENTED_EDGE('',*,*,#853,.T.);
#1097=ORIENTED_EDGE('',*,*,#855,.F.);
#1098=ORIENTED_EDGE('',*,*,#856,.F.);
#1099=ORIENTED_EDGE('',*,*,#857,.T.);
#1100=ORIENTED_EDGE('',*,*,#856,.T.);
#1101=ORIENTED_EDGE('',*,*,#858,.F.);
#1102=ORIENTED_EDGE('',*,*,#859,.F.);
#1103=ORIENTED_EDGE('',*,*,#860,.T.);
#1104=ORIENTED_EDGE('',*,*,#859,.T.);
#1105=ORIENTED_EDGE('',*,*,#861,.F.);
#1106=ORIENTED_EDGE('',*,*,#862,.F.);
#1107=ORIENTED_EDGE('',*,*,#863,.T.);
#1108=ORIENTED_EDGE('',*,*,#862,.T.);
#1109=ORIENTED_EDGE('',*,*,#864,.F.);
#1110=ORIENTED_EDGE('',*,*,#865,.F.);
#1111=ORIENTED_EDGE('',*,*,#866,.T.);
#1112=ORIENTED_EDGE('',*,*,#865,.T.);
#1113=ORIENTED_EDGE('',*,*,#867,.F.);
#1114=ORIENTED_EDGE('',*,*,#868,.F.);
#1115=ORIENTED_EDGE('',*,*,#869,.T.);
#1116=ORIENTED_EDGE('',*,*,#868,.T.);
#1117=ORIENTED_EDGE('',*,*,#870,.F.);
#1118=ORIENTED_EDGE('',*,*,#871,.F.);
#1119=ORIENTED_EDGE('',*,*,#872,.T.);
#1120=ORIENTED_EDGE('',*,*,#871,.T.);
#1121=ORIENTED_EDGE('',*,*,#873,.F.);
#1122=ORIENTED_EDGE('',*,*,#874,.F.);
#1123=ORIENTED_EDGE('',*,*,#875,.T.);
#1124=ORIENTED_EDGE('',*,*,#874,.T.);
#1125=ORIENTED_EDGE('',*,*,#876,.F.);
#1126=ORIENTED_EDGE('',*,*,#877,.F.);
#1127=ORIENTED_EDGE('',*,*,#878,.T.);
#1128=ORIENTED_EDGE('',*,*,#877,.T.);
#1129=ORIENTED_EDGE('',*,*,#879,.F.);
#1130=ORIENTED_EDGE('',*,*,#880,.F.);
#1131=ORIENTED_EDGE('',*,*,#881,.T.);
#1132=ORIENTED_EDGE('',*,*,#880,.T.);
#1133=ORIENTED_EDGE('',*,*,#882,.F.);
#1134=ORIENTED_EDGE('',*,*,#883,.F.);
#1135=ORIENTED_EDGE('',*,*,#884,.T.);
#1136=ORIENTED_EDGE('',*,*,#883,.T.);
#1137=ORIENTED_EDGE('',*,*,#885,.F.);
#1138=ORIENTED_EDGE('',*,*,#886,.F.);
#1139=ORIENTED_EDGE('',*,*,#887,.T.);
#1140=ORIENTED_EDGE('',*,*,#886,.T.);
#1141=ORIENTED_EDGE('',*,*,#888,.F.);
#1142=ORIENTED_EDGE('',*,*,#889,.F.);
#1143=ORIENTED_EDGE('',*,*,#890,.T.);
#1144=ORIENTED_EDGE('',*,*,#889,.T.);
#1145=ORIENTED_EDGE('',*,*,#891,.F.);
#1146=ORIENTED_EDGE('',*,*,#892,.F.);
#1147=ORIENTED_EDGE('',*,*,#893,.T.);
#1148=ORIENTED_EDGE('',*,*,#892,.T.);
#1149=ORIENTED_EDGE('',*,*,#894,.F.);
#1150=ORIENTED_EDGE('',*,*,#848,.F.);
#1151=ORIENTED_EDGE('',*,*,#894,.T.);
#1152=ORIENTED_EDGE('',*,*,#891,.T.);
#1153=ORIENTED_EDGE('',*,*,#888,.T.);
#1154=ORIENTED_EDGE('',*,*,#885,.T.);
#1155=ORIENTED_EDGE('',*,*,#882,.T.);
#1156=ORIENTED_EDGE('',*,*,#879,.T.);
#1157=ORIENTED_EDGE('',*,*,#876,.T.);
#1158=ORIENTED_EDGE('',*,*,#873,.T.);
#1159=ORIENTED_EDGE('',*,*,#870,.T.);
#1160=ORIENTED_EDGE('',*,*,#867,.T.);
#1161=ORIENTED_EDGE('',*,*,#864,.T.);
#1162=ORIENTED_EDGE('',*,*,#861,.T.);
#1163=ORIENTED_EDGE('',*,*,#858,.T.);
#1164=ORIENTED_EDGE('',*,*,#855,.T.);
#1165=ORIENTED_EDGE('',*,*,#852,.T.);
#1166=ORIENTED_EDGE('',*,*,#849,.T.);
#1167=ORIENTED_EDGE('',*,*,#846,.T.);
#1168=ORIENTED_EDGE('',*,*,#843,.T.);
#1169=ORIENTED_EDGE('',*,*,#840,.T.);
#1170=ORIENTED_EDGE('',*,*,#837,.T.);
#1171=ORIENTED_EDGE('',*,*,#834,.T.);
#1172=ORIENTED_EDGE('',*,*,#831,.T.);
#1173=ORIENTED_EDGE('',*,*,#828,.T.);
#1174=ORIENTED_EDGE('',*,*,#825,.T.);
#1175=ORIENTED_EDGE('',*,*,#822,.T.);
#1176=ORIENTED_EDGE('',*,*,#819,.T.);
#1177=ORIENTED_EDGE('',*,*,#816,.T.);
#1178=ORIENTED_EDGE('',*,*,#813,.T.);
#1179=ORIENTED_EDGE('',*,*,#810,.T.);
#1180=ORIENTED_EDGE('',*,*,#807,.T.);
#1181=ORIENTED_EDGE('',*,*,#804,.T.);
#1182=ORIENTED_EDGE('',*,*,#801,.T.);
#1183=ORIENTED_EDGE('',*,*,#798,.T.);
#1184=ORIENTED_EDGE('',*,*,#795,.T.);
#1185=ORIENTED_EDGE('',*,*,#792,.T.);
#1186=ORIENTED_EDGE('',*,*,#789,.T.);
#1187=ORIENTED_EDGE('',*,*,#786,.T.);
#1188=ORIENTED_EDGE('',*,*,#783,.T.);
#1189=ORIENTED_EDGE('',*,*,#780,.T.);
#1190=ORIENTED_EDGE('',*,*,#777,.T.);
#1191=ORIENTED_EDGE('',*,*,#774,.T.);
#1192=ORIENTED_EDGE('',*,*,#771,.T.);
#1193=ORIENTED_EDGE('',*,*,#768,.T.);
#1194=ORIENTED_EDGE('',*,*,#765,.T.);
#1195=ORIENTED_EDGE('',*,*,#762,.T.);
#1196=ORIENTED_EDGE('',*,*,#759,.T.);
#1197=ORIENTED_EDGE('',*,*,#756,.T.);
#1198=ORIENTED_EDGE('',*,*,#753,.T.);
#1199=ORIENTED_EDGE('',*,*,#750,.T.);
#1200=ORIENTED_EDGE('',*,*,#747,.T.);
#1201=ORIENTED_EDGE('',*,*,#744,.T.);
#1202=ORIENTED_EDGE('',*,*,#741,.T.);
#1203=ORIENTED_EDGE('',*,*,#738,.T.);
#1204=ORIENTED_EDGE('',*,*,#735,.T.);
#1205=ORIENTED_EDGE('',*,*,#732,.T.);
#1206=ORIENTED_EDGE('',*,*,#729,.T.);
#1207=ORIENTED_EDGE('',*,*,#726,.T.);
#1208=ORIENTED_EDGE('',*,*,#723,.T.);
#1209=ORIENTED_EDGE('',*,*,#720,.T.);
#1210=ORIENTED_EDGE('',*,*,#717,.T.);
#1211=ORIENTED_EDGE('',*,*,#714,.T.);
#1212=ORIENTED_EDGE('',*,*,#711,.T.);
#1213=ORIENTED_EDGE('',*,*,#708,.T.);
#1214=ORIENTED_EDGE('',*,*,#705,.T.);
#1215=ORIENTED_EDGE('',*,*,#893,.F.);
#1216=ORIENTED_EDGE('',*,*,#847,.F.);
#1217=ORIENTED_EDGE('',*,*,#851,.F.);
#1218=ORIENTED_EDGE('',*,*,#854,.F.);
#1219=ORIENTED_EDGE('',*,*,#857,.F.);
#1220=ORIENTED_EDGE('',*,*,#860,.F.);
#1221=ORIENTED_EDGE('',*,*,#863,.F.);
#1222=ORIENTED_EDGE('',*,*,#866,.F.);
#1223=ORIENTED_EDGE('',*,*,#869,.F.);
#1224=ORIENTED_EDGE('',*,*,#872,.F.);
#1225=ORIENTED_EDGE('',*,*,#875,.F.);
#1226=ORIENTED_EDGE('',*,*,#878,.F.);
#1227=ORIENTED_EDGE('',*,*,#881,.F.);
#1228=ORIENTED_EDGE('',*,*,#884,.F.);
#1229=ORIENTED_EDGE('',*,*,#887,.F.);
#1230=ORIENTED_EDGE('',*,*,#890,.F.);
#1231=ORIENTED_EDGE('',*,*,#845,.F.);
#1232=ORIENTED_EDGE('',*,*,#835,.F.);
#1233=ORIENTED_EDGE('',*,*,#839,.F.);
#1234=ORIENTED_EDGE('',*,*,#842,.F.);
#1235=ORIENTED_EDGE('',*,*,#833,.F.);
#1236=ORIENTED_EDGE('',*,*,#823,.F.);
#1237=ORIENTED_EDGE('',*,*,#827,.F.);
#1238=ORIENTED_EDGE('',*,*,#830,.F.);
#1239=ORIENTED_EDGE('',*,*,#821,.F.);
#1240=ORIENTED_EDGE('',*,*,#811,.F.);
#1241=ORIENTED_EDGE('',*,*,#815,.F.);
#1242=ORIENTED_EDGE('',*,*,#818,.F.);
#1243=ORIENTED_EDGE('',*,*,#809,.F.);
#1244=ORIENTED_EDGE('',*,*,#799,.F.);
#1245=ORIENTED_EDGE('',*,*,#803,.F.);
#1246=ORIENTED_EDGE('',*,*,#806,.F.);
#1247=ORIENTED_EDGE('',*,*,#797,.F.);
#1248=ORIENTED_EDGE('',*,*,#787,.F.);
#1249=ORIENTED_EDGE('',*,*,#791,.F.);
#1250=ORIENTED_EDGE('',*,*,#794,.F.);
#1251=ORIENTED_EDGE('',*,*,#785,.F.);
#1252=ORIENTED_EDGE('',*,*,#775,.F.);
#1253=ORIENTED_EDGE('',*,*,#779,.F.);
#1254=ORIENTED_EDGE('',*,*,#782,.F.);
#1255=ORIENTED_EDGE('',*,*,#773,.F.);
#1256=ORIENTED_EDGE('',*,*,#763,.F.);
#1257=ORIENTED_EDGE('',*,*,#767,.F.);
#1258=ORIENTED_EDGE('',*,*,#770,.F.);
#1259=ORIENTED_EDGE('',*,*,#761,.F.);
#1260=ORIENTED_EDGE('',*,*,#751,.F.);
#1261=ORIENTED_EDGE('',*,*,#755,.F.);
#1262=ORIENTED_EDGE('',*,*,#758,.F.);
#1263=ORIENTED_EDGE('',*,*,#749,.F.);
#1264=ORIENTED_EDGE('',*,*,#739,.F.);
#1265=ORIENTED_EDGE('',*,*,#743,.F.);
#1266=ORIENTED_EDGE('',*,*,#746,.F.);
#1267=ORIENTED_EDGE('',*,*,#737,.F.);
#1268=ORIENTED_EDGE('',*,*,#727,.F.);
#1269=ORIENTED_EDGE('',*,*,#731,.F.);
#1270=ORIENTED_EDGE('',*,*,#734,.F.);
#1271=ORIENTED_EDGE('',*,*,#725,.F.);
#1272=ORIENTED_EDGE('',*,*,#715,.F.);
#1273=ORIENTED_EDGE('',*,*,#719,.F.);
#1274=ORIENTED_EDGE('',*,*,#722,.F.);
#1275=ORIENTED_EDGE('',*,*,#713,.F.);
#1276=ORIENTED_EDGE('',*,*,#703,.F.);
#1277=ORIENTED_EDGE('',*,*,#707,.F.);
#1278=ORIENTED_EDGE('',*,*,#710,.F.);
#1279=PLANE('',#1421);
#1280=PLANE('',#1422);
#1281=PLANE('',#1423);
#1282=PLANE('',#1424);
#1283=PLANE('',#1425);
#1284=PLANE('',#1426);
#1285=PLANE('',#1427);
#1286=PLANE('',#1428);
#1287=PLANE('',#1429);
#1288=PLANE('',#1430);
#1289=PLANE('',#1431);
#1290=PLANE('',#1432);
#1291=PLANE('',#1433);
#1292=PLANE('',#1434);
#1293=PLANE('',#1435);
#1294=PLANE('',#1436);
#1295=PLANE('',#1437);
#1296=PLANE('',#1438);
#1297=PLANE('',#1439);
#1298=PLANE('',#1440);
#1299=PLANE('',#1441);
#1300=PLANE('',#1442);
#1301=PLANE('',#1443);
#1302=PLANE('',#1444);
#1303=PLANE('',#1445);
#1304=PLANE('',#1446);
#1305=PLANE('',#1447);
#1306=PLANE('',#1448);
#1307=PLANE('',#1449);
#1308=PLANE('',#1450);
#1309=PLANE('',#1451);
#1310=PLANE('',#1452);
#1311=PLANE('',#1453);
#1312=PLANE('',#1454);
#1313=PLANE('',#1455);
#1314=PLANE('',#1456);
#1315=PLANE('',#1457);
#1316=PLANE('',#1458);
#1317=PLANE('',#1459);
#1318=PLANE('',#1460);
#1319=PLANE('',#1461);
#1320=PLANE('',#1462);
#1321=PLANE('',#1463);
#1322=PLANE('',#1464);
#1323=PLANE('',#1465);
#1324=PLANE('',#1466);
#1325=PLANE('',#1467);
#1326=PLANE('',#1468);
#1327=PLANE('',#1469);
#1328=PLANE('',#1470);
#1329=PLANE('',#1474);
#1330=PLANE('',#1475);
#1331=PLANE('',#1476);
#1332=PLANE('',#1480);
#1333=PLANE('',#1481);
#1334=PLANE('',#1482);
#1335=PLANE('',#1486);
#1336=PLANE('',#1487);
#1337=PLANE('',#1488);
#1338=PLANE('',#1492);
#1339=PLANE('',#1493);
#1340=PLANE('',#1494);
#1341=ADVANCED_FACE('',(#51),#1279,.T.);
#1342=ADVANCED_FACE('',(#52),#1280,.T.);
#1343=ADVANCED_FACE('',(#53),#1281,.T.);
#1344=ADVANCED_FACE('',(#54),#1282,.T.);
#1345=ADVANCED_FACE('',(#55),#1283,.T.);
#1346=ADVANCED_FACE('',(#56),#1284,.T.);
#1347=ADVANCED_FACE('',(#57),#1285,.T.);
#1348=ADVANCED_FACE('',(#58),#1286,.T.);
#1349=ADVANCED_FACE('',(#59),#1287,.T.);
#1350=ADVANCED_FACE('',(#60),#1288,.T.);
#1351=ADVANCED_FACE('',(#61),#1289,.T.);
#1352=ADVANCED_FACE('',(#62),#1290,.T.);
#1353=ADVANCED_FACE('',(#63),#1291,.T.);
#1354=ADVANCED_FACE('',(#64),#1292,.T.);
#1355=ADVANCED_FACE('',(#65),#1293,.T.);
#1356=ADVANCED_FACE('',(#66),#1294,.T.);
#1357=ADVANCED_FACE('',(#67),#1295,.T.);
#1358=ADVANCED_FACE('',(#68),#1296,.T.);
#1359=ADVANCED_FACE('',(#69),#1297,.T.);
#1360=ADVANCED_FACE('',(#70),#1298,.T.);
#1361=ADVANCED_FACE('',(#71),#1299,.T.);
#1362=ADVANCED_FACE('',(#72),#1300,.T.);
#1363=ADVANCED_FACE('',(#73),#1301,.T.);
#1364=ADVANCED_FACE('',(#74),#1302,.T.);
#1365=ADVANCED_FACE('',(#75),#1303,.T.);
#1366=ADVANCED_FACE('',(#76),#1304,.T.);
#1367=ADVANCED_FACE('',(#77),#1305,.T.);
#1368=ADVANCED_FACE('',(#78),#1306,.T.);
#1369=ADVANCED_FACE('',(#79),#1307,.T.);
#1370=ADVANCED_FACE('',(#80),#1308,.T.);
#1371=ADVANCED_FACE('',(#81),#1309,.T.);
#1372=ADVANCED_FACE('',(#82),#1310,.T.);
#1373=ADVANCED_FACE('',(#83),#1311,.T.);
#1374=ADVANCED_FACE('',(#84),#1312,.T.);
#1375=ADVANCED_FACE('',(#85),#1313,.T.);
#1376=ADVANCED_FACE('',(#86),#1314,.T.);
#1377=ADVANCED_FACE('',(#87),#1315,.T.);
#1378=ADVANCED_FACE('',(#88),#1316,.T.);
#1379=ADVANCED_FACE('',(#89),#1317,.T.);
#1380=ADVANCED_FACE('',(#90),#1318,.T.);
#1381=ADVANCED_FACE('',(#91),#1319,.T.);
#1382=ADVANCED_FACE('',(#92),#1320,.T.);
#1383=ADVANCED_FACE('',(#93),#1321,.T.);
#1384=ADVANCED_FACE('',(#94),#1322,.T.);
#1385=ADVANCED_FACE('',(#95),#1323,.T.);
#1386=ADVANCED_FACE('',(#96),#1324,.T.);
#1387=ADVANCED_FACE('',(#97),#1325,.T.);
#1388=ADVANCED_FACE('',(#98),#1326,.T.);
#1389=ADVANCED_FACE('',(#99),#1327,.T.);
#1390=ADVANCED_FACE('',(#100),#1328,.T.);
#1391=ADVANCED_FACE('',(#101),#47,.T.);
#1392=ADVANCED_FACE('',(#102),#1329,.T.);
#1393=ADVANCED_FACE('',(#103),#1330,.T.);
#1394=ADVANCED_FACE('',(#104),#1331,.T.);
#1395=ADVANCED_FACE('',(#105),#48,.T.);
#1396=ADVANCED_FACE('',(#106),#1332,.T.);
#1397=ADVANCED_FACE('',(#107),#1333,.T.);
#1398=ADVANCED_FACE('',(#108),#1334,.T.);
#1399=ADVANCED_FACE('',(#109),#49,.T.);
#1400=ADVANCED_FACE('',(#110),#1335,.T.);
#1401=ADVANCED_FACE('',(#111),#1336,.T.);
#1402=ADVANCED_FACE('',(#112),#1337,.T.);
#1403=ADVANCED_FACE('',(#113),#50,.T.);
#1404=ADVANCED_FACE('',(#114),#1338,.T.);
#1405=ADVANCED_FACE('',(#115,#15,#16,#17,#18,#19,#20,#21,#22,#23,#24,#25,
#26),#1339,.T.);
#1406=ADVANCED_FACE('',(#116,#27,#28,#29,#30,#31,#32,#33,#34,#35,#36,#37,
#38),#1340,.F.);
#1407=CLOSED_SHELL('',(#1341,#1342,#1343,#1344,#1345,#1346,#1347,#1348,
#1349,#1350,#1351,#1352,#1353,#1354,#1355,#1356,#1357,#1358,#1359,#1360,
#1361,#1362,#1363,#1364,#1365,#1366,#1367,#1368,#1369,#1370,#1371,#1372,
#1373,#1374,#1375,#1376,#1377,#1378,#1379,#1380,#1381,#1382,#1383,#1384,
#1385,#1386,#1387,#1388,#1389,#1390,#1391,#1392,#1393,#1394,#1395,#1396,
#1397,#1398,#1399,#1400,#1401,#1402,#1403,#1404,#1405,#1406));
#1408=DERIVED_UNIT_ELEMENT(#1410,1.);
#1409=DERIVED_UNIT_ELEMENT(#2221,-3.);
#1410=(
MASS_UNIT()
NAMED_UNIT(*)
SI_UNIT(.KILO.,.GRAM.)
);
#1411=DERIVED_UNIT((#1408,#1409));
#1412=MEASURE_REPRESENTATION_ITEM('density measure',
POSITIVE_RATIO_MEASURE(7850.),#1411);
#1413=PROPERTY_DEFINITION_REPRESENTATION(#1418,#1415);
#1414=PROPERTY_DEFINITION_REPRESENTATION(#1419,#1416);
#1415=REPRESENTATION('material name',(#1417),#2218);
#1416=REPRESENTATION('density',(#1412),#2218);
#1417=DESCRIPTIVE_REPRESENTATION_ITEM('Steel','Steel');
#1418=PROPERTY_DEFINITION('material property','material name',#2228);
#1419=PROPERTY_DEFINITION('material property','density of part',#2228);
#1420=AXIS2_PLACEMENT_3D('',#1829,#1495,#1496);
#1421=AXIS2_PLACEMENT_3D('',#1830,#1497,#1498);
#1422=AXIS2_PLACEMENT_3D('',#1839,#1503,#1504);
#1423=AXIS2_PLACEMENT_3D('',#1845,#1508,#1509);
#1424=AXIS2_PLACEMENT_3D('',#1851,#1513,#1514);
#1425=AXIS2_PLACEMENT_3D('',#1854,#1517,#1518);
#1426=AXIS2_PLACEMENT_3D('',#1863,#1523,#1524);
#1427=AXIS2_PLACEMENT_3D('',#1869,#1528,#1529);
#1428=AXIS2_PLACEMENT_3D('',#1875,#1533,#1534);
#1429=AXIS2_PLACEMENT_3D('',#1878,#1537,#1538);
#1430=AXIS2_PLACEMENT_3D('',#1887,#1543,#1544);
#1431=AXIS2_PLACEMENT_3D('',#1893,#1548,#1549);
#1432=AXIS2_PLACEMENT_3D('',#1899,#1553,#1554);
#1433=AXIS2_PLACEMENT_3D('',#1902,#1557,#1558);
#1434=AXIS2_PLACEMENT_3D('',#1911,#1563,#1564);
#1435=AXIS2_PLACEMENT_3D('',#1917,#1568,#1569);
#1436=AXIS2_PLACEMENT_3D('',#1923,#1573,#1574);
#1437=AXIS2_PLACEMENT_3D('',#1926,#1577,#1578);
#1438=AXIS2_PLACEMENT_3D('',#1935,#1583,#1584);
#1439=AXIS2_PLACEMENT_3D('',#1941,#1588,#1589);
#1440=AXIS2_PLACEMENT_3D('',#1947,#1593,#1594);
#1441=AXIS2_PLACEMENT_3D('',#1950,#1597,#1598);
#1442=AXIS2_PLACEMENT_3D('',#1959,#1603,#1604);
#1443=AXIS2_PLACEMENT_3D('',#1965,#1608,#1609);
#1444=AXIS2_PLACEMENT_3D('',#1971,#1613,#1614);
#1445=AXIS2_PLACEMENT_3D('',#1974,#1617,#1618);
#1446=AXIS2_PLACEMENT_3D('',#1983,#1623,#1624);
#1447=AXIS2_PLACEMENT_3D('',#1989,#1628,#1629);
#1448=AXIS2_PLACEMENT_3D('',#1995,#1633,#1634);
#1449=AXIS2_PLACEMENT_3D('',#1998,#1637,#1638);
#1450=AXIS2_PLACEMENT_3D('',#2007,#1643,#1644);
#1451=AXIS2_PLACEMENT_3D('',#2013,#1648,#1649);
#1452=AXIS2_PLACEMENT_3D('',#2019,#1653,#1654);
#1453=AXIS2_PLACEMENT_3D('',#2022,#1657,#1658);
#1454=AXIS2_PLACEMENT_3D('',#2031,#1663,#1664);
#1455=AXIS2_PLACEMENT_3D('',#2037,#1668,#1669);
#1456=AXIS2_PLACEMENT_3D('',#2043,#1673,#1674);
#1457=AXIS2_PLACEMENT_3D('',#2046,#1677,#1678);
#1458=AXIS2_PLACEMENT_3D('',#2055,#1683,#1684);
#1459=AXIS2_PLACEMENT_3D('',#2061,#1688,#1689);
#1460=AXIS2_PLACEMENT_3D('',#2067,#1693,#1694);
#1461=AXIS2_PLACEMENT_3D('',#2070,#1697,#1698);
#1462=AXIS2_PLACEMENT_3D('',#2079,#1703,#1704);
#1463=AXIS2_PLACEMENT_3D('',#2085,#1708,#1709);
#1464=AXIS2_PLACEMENT_3D('',#2091,#1713,#1714);
#1465=AXIS2_PLACEMENT_3D('',#2094,#1717,#1718);
#1466=AXIS2_PLACEMENT_3D('',#2103,#1723,#1724);
#1467=AXIS2_PLACEMENT_3D('',#2109,#1728,#1729);
#1468=AXIS2_PLACEMENT_3D('',#2115,#1733,#1734);
#1469=AXIS2_PLACEMENT_3D('',#2118,#1737,#1738);
#1470=AXIS2_PLACEMENT_3D('',#2127,#1743,#1744);
#1471=AXIS2_PLACEMENT_3D('',#2133,#1748,#1749);
#1472=AXIS2_PLACEMENT_3D('',#2135,#1750,#1751);
#1473=AXIS2_PLACEMENT_3D('',#2137,#1752,#1753);
#1474=AXIS2_PLACEMENT_3D('',#2139,#1755,#1756);
#1475=AXIS2_PLACEMENT_3D('',#2145,#1760,#1761);
#1476=AXIS2_PLACEMENT_3D('',#2151,#1765,#1766);
#1477=AXIS2_PLACEMENT_3D('',#2157,#1770,#1771);
#1478=AXIS2_PLACEMENT_3D('',#2159,#1772,#1773);
#1479=AXIS2_PLACEMENT_3D('',#2161,#1774,#1775);
#1480=AXIS2_PLACEMENT_3D('',#2163,#1777,#1778);
#1481=AXIS2_PLACEMENT_3D('',#2169,#1782,#1783);
#1482=AXIS2_PLACEMENT_3D('',#2175,#1787,#1788);
#1483=AXIS2_PLACEMENT_3D('',#2181,#1792,#1793);
#1484=AXIS2_PLACEMENT_3D('',#2183,#1794,#1795);
#1485=AXIS2_PLACEMENT_3D('',#2185,#1796,#1797);
#1486=AXIS2_PLACEMENT_3D('',#2187,#1799,#1800);
#1487=AXIS2_PLACEMENT_3D('',#2193,#1804,#1805);
#1488=AXIS2_PLACEMENT_3D('',#2199,#1809,#1810);
#1489=AXIS2_PLACEMENT_3D('',#2205,#1814,#1815);
#1490=AXIS2_PLACEMENT_3D('',#2207,#1816,#1817);
#1491=AXIS2_PLACEMENT_3D('',#2209,#1818,#1819);
#1492=AXIS2_PLACEMENT_3D('',#2211,#1821,#1822);
#1493=AXIS2_PLACEMENT_3D('',#2214,#1825,#1826);
#1494=AXIS2_PLACEMENT_3D('',#2215,#1827,#1828);
#1495=DIRECTION('axis',(0.,0.,1.));
#1496=DIRECTION('refdir',(1.,0.,0.));
#1497=DIRECTION('center_axis',(-1.,0.,0.));
#1498=DIRECTION('ref_axis',(0.,-1.,0.));
#1499=DIRECTION('',(0.,-1.,0.));
#1500=DIRECTION('',(0.,0.,1.));
#1501=DIRECTION('',(0.,-1.,0.));
#1502=DIRECTION('',(0.,0.,1.));
#1503=DIRECTION('center_axis',(0.,-1.,0.));
#1504=DIRECTION('ref_axis',(1.,0.,0.));
#1505=DIRECTION('',(1.,0.,0.));
#1506=DIRECTION('',(1.,0.,0.));
#1507=DIRECTION('',(0.,0.,1.));
#1508=DIRECTION('center_axis',(1.,0.,0.));
#1509=DIRECTION('ref_axis',(0.,1.,0.));
#1510=DIRECTION('',(0.,1.,0.));
#1511=DIRECTION('',(0.,1.,0.));
#1512=DIRECTION('',(0.,0.,1.));
#1513=DIRECTION('center_axis',(0.,1.,0.));
#1514=DIRECTION('ref_axis',(-1.,0.,0.));
#1515=DIRECTION('',(-1.,0.,0.));
#1516=DIRECTION('',(-1.,0.,0.));
#1517=DIRECTION('center_axis',(-1.,0.,0.));
#1518=DIRECTION('ref_axis',(0.,-1.,0.));
#1519=DIRECTION('',(0.,-1.,0.));
#1520=DIRECTION('',(0.,0.,1.));
#1521=DIRECTION('',(0.,-1.,0.));
#1522=DIRECTION('',(0.,0.,1.));
#1523=DIRECTION('center_axis',(0.,-1.,0.));
#1524=DIRECTION('ref_axis',(1.,0.,0.));
#1525=DIRECTION('',(1.,0.,0.));
#1526=DIRECTION('',(1.,0.,0.));
#1527=DIRECTION('',(0.,0.,1.));
#1528=DIRECTION('center_axis',(1.,0.,0.));
#1529=DIRECTION('ref_axis',(0.,1.,0.));
#1530=DIRECTION('',(0.,1.,0.));
#1531=DIRECTION('',(0.,1.,0.));
#1532=DIRECTION('',(0.,0.,1.));
#1533=DIRECTION('center_axis',(0.,1.,0.));
#1534=DIRECTION('ref_axis',(-1.,0.,0.));
#1535=DIRECTION('',(-1.,0.,0.));
#1536=DIRECTION('',(-1.,0.,0.));
#1537=DIRECTION('center_axis',(0.,-1.,0.));
#1538=DIRECTION('ref_axis',(1.,0.,0.));
#1539=DIRECTION('',(1.,0.,0.));
#1540=DIRECTION('',(0.,0.,1.));
#1541=DIRECTION('',(1.,0.,0.));
#1542=DIRECTION('',(0.,0.,1.));
#1543=DIRECTION('center_axis',(1.,0.,0.));
#1544=DIRECTION('ref_axis',(0.,1.,0.));
#1545=DIRECTION('',(0.,1.,0.));
#1546=DIRECTION('',(0.,1.,0.));
#1547=DIRECTION('',(0.,0.,1.));
#1548=DIRECTION('center_axis',(0.,1.,0.));
#1549=DIRECTION('ref_axis',(-1.,0.,0.));
#1550=DIRECTION('',(-1.,0.,0.));
#1551=DIRECTION('',(-1.,0.,0.));
#1552=DIRECTION('',(0.,0.,1.));
#1553=DIRECTION('center_axis',(-1.,0.,0.));
#1554=DIRECTION('ref_axis',(0.,-1.,0.));
#1555=DIRECTION('',(0.,-1.,0.));
#1556=DIRECTION('',(0.,-1.,0.));
#1557=DIRECTION('center_axis',(-1.,0.,0.));
#1558=DIRECTION('ref_axis',(0.,-1.,0.));
#1559=DIRECTION('',(0.,-1.,0.));
#1560=DIRECTION('',(0.,0.,1.));
#1561=DIRECTION('',(0.,-1.,0.));
#1562=DIRECTION('',(0.,0.,1.));
#1563=DIRECTION('center_axis',(0.,-1.,0.));
#1564=DIRECTION('ref_axis',(1.,0.,0.));
#1565=DIRECTION('',(1.,0.,0.));
#1566=DIRECTION('',(1.,0.,0.));
#1567=DIRECTION('',(0.,0.,1.));
#1568=DIRECTION('center_axis',(1.,0.,0.));
#1569=DIRECTION('ref_axis',(0.,1.,0.));
#1570=DIRECTION('',(0.,1.,0.));
#1571=DIRECTION('',(0.,1.,0.));
#1572=DIRECTION('',(0.,0.,1.));
#1573=DIRECTION('center_axis',(0.,1.,0.));
#1574=DIRECTION('ref_axis',(-1.,0.,0.));
#1575=DIRECTION('',(-1.,0.,0.));
#1576=DIRECTION('',(-1.,0.,0.));
#1577=DIRECTION('center_axis',(-1.,0.,0.));
#1578=DIRECTION('ref_axis',(0.,-1.,0.));
#1579=DIRECTION('',(0.,-1.,0.));
#1580=DIRECTION('',(0.,0.,1.));
#1581=DIRECTION('',(0.,-1.,0.));
#1582=DIRECTION('',(0.,0.,1.));
#1583=DIRECTION('center_axis',(0.,-1.,0.));
#1584=DIRECTION('ref_axis',(1.,0.,0.));
#1585=DIRECTION('',(1.,0.,0.));
#1586=DIRECTION('',(1.,0.,0.));
#1587=DIRECTION('',(0.,0.,1.));
#1588=DIRECTION('center_axis',(0.999999999999989,-1.49011611798103E-7,0.));
#1589=DIRECTION('ref_axis',(1.49011611798103E-7,0.999999999999989,0.));
#1590=DIRECTION('',(1.49011611798103E-7,0.999999999999989,0.));
#1591=DIRECTION('',(1.49011611798103E-7,0.999999999999989,0.));
#1592=DIRECTION('',(0.,0.,1.));
#1593=DIRECTION('center_axis',(0.,1.,0.));
#1594=DIRECTION('ref_axis',(-1.,0.,0.));
#1595=DIRECTION('',(-1.,0.,0.));
#1596=DIRECTION('',(-1.,0.,0.));
#1597=DIRECTION('center_axis',(0.,-1.,0.));
#1598=DIRECTION('ref_axis',(1.,0.,0.));
#1599=DIRECTION('',(1.,0.,0.));
#1600=DIRECTION('',(0.,0.,1.));
#1601=DIRECTION('',(1.,0.,0.));
#1602=DIRECTION('',(0.,0.,1.));
#1603=DIRECTION('center_axis',(1.,0.,0.));
#1604=DIRECTION('ref_axis',(0.,1.,0.));
#1605=DIRECTION('',(0.,1.,0.));
#1606=DIRECTION('',(0.,1.,0.));
#1607=DIRECTION('',(0.,0.,1.));
#1608=DIRECTION('center_axis',(0.,1.,0.));
#1609=DIRECTION('ref_axis',(-1.,0.,0.));
#1610=DIRECTION('',(-1.,0.,0.));
#1611=DIRECTION('',(-1.,0.,0.));
#1612=DIRECTION('',(0.,0.,1.));
#1613=DIRECTION('center_axis',(-1.,0.,0.));
#1614=DIRECTION('ref_axis',(0.,-1.,0.));
#1615=DIRECTION('',(0.,-1.,0.));
#1616=DIRECTION('',(0.,-1.,0.));
#1617=DIRECTION('center_axis',(0.,-1.,0.));
#1618=DIRECTION('ref_axis',(1.,0.,0.));
#1619=DIRECTION('',(1.,0.,0.));
#1620=DIRECTION('',(0.,0.,1.));
#1621=DIRECTION('',(1.,0.,0.));
#1622=DIRECTION('',(0.,0.,1.));
#1623=DIRECTION('center_axis',(1.,0.,0.));
#1624=DIRECTION('ref_axis',(0.,1.,0.));
#1625=DIRECTION('',(0.,1.,0.));
#1626=DIRECTION('',(0.,1.,0.));
#1627=DIRECTION('',(0.,0.,1.));
#1628=DIRECTION('center_axis',(0.,1.,0.));
#1629=DIRECTION('ref_axis',(-1.,0.,0.));
#1630=DIRECTION('',(-1.,0.,0.));
#1631=DIRECTION('',(-1.,0.,0.));
#1632=DIRECTION('',(0.,0.,1.));
#1633=DIRECTION('center_axis',(-1.,0.,0.));
#1634=DIRECTION('ref_axis',(0.,-1.,0.));
#1635=DIRECTION('',(0.,-1.,0.));
#1636=DIRECTION('',(0.,-1.,0.));
#1637=DIRECTION('center_axis',(-1.,0.,0.));
#1638=DIRECTION('ref_axis',(0.,-1.,0.));
#1639=DIRECTION('',(0.,-1.,0.));
#1640=DIRECTION('',(0.,0.,1.));
#1641=DIRECTION('',(0.,-1.,0.));
#1642=DIRECTION('',(0.,0.,1.));
#1643=DIRECTION('center_axis',(0.,-1.,0.));
#1644=DIRECTION('ref_axis',(1.,0.,0.));
#1645=DIRECTION('',(1.,0.,0.));
#1646=DIRECTION('',(1.,0.,0.));
#1647=DIRECTION('',(0.,0.,1.));
#1648=DIRECTION('center_axis',(0.999999999999989,1.49011611479073E-7,0.));
#1649=DIRECTION('ref_axis',(-1.49011611479073E-7,0.999999999999989,0.));
#1650=DIRECTION('',(-1.49011611479073E-7,0.999999999999989,0.));
#1651=DIRECTION('',(-1.49011611479073E-7,0.999999999999989,0.));
#1652=DIRECTION('',(0.,0.,1.));
#1653=DIRECTION('center_axis',(0.,1.,0.));
#1654=DIRECTION('ref_axis',(-1.,0.,0.));
#1655=DIRECTION('',(-1.,0.,0.));
#1656=DIRECTION('',(-1.,0.,0.));
#1657=DIRECTION('center_axis',(-1.,-3.08299879878238E-8,0.));
#1658=DIRECTION('ref_axis',(3.08299879878238E-8,-0.999999999999999,0.));
#1659=DIRECTION('',(3.08299879878238E-8,-0.999999999999999,0.));
#1660=DIRECTION('',(0.,0.,1.));
#1661=DIRECTION('',(3.08299879878238E-8,-0.999999999999999,0.));
#1662=DIRECTION('',(0.,0.,1.));
#1663=DIRECTION('center_axis',(0.,-1.,0.));
#1664=DIRECTION('ref_axis',(1.,0.,0.));
#1665=DIRECTION('',(1.,0.,0.));
#1666=DIRECTION('',(1.,0.,0.));
#1667=DIRECTION('',(0.,0.,1.));
#1668=DIRECTION('center_axis',(0.999999999999945,-3.30743172951512E-7,0.));
#1669=DIRECTION('ref_axis',(3.30743172951512E-7,0.999999999999945,0.));
#1670=DIRECTION('',(3.30743172951512E-7,0.999999999999945,0.));
#1671=DIRECTION('',(3.30743172951512E-7,0.999999999999945,0.));
#1672=DIRECTION('',(0.,0.,1.));
#1673=DIRECTION('center_axis',(0.,1.,0.));
#1674=DIRECTION('ref_axis',(-1.,0.,0.));
#1675=DIRECTION('',(-1.,0.,0.));
#1676=DIRECTION('',(-1.,0.,0.));
#1677=DIRECTION('center_axis',(0.,-1.,0.));
#1678=DIRECTION('ref_axis',(1.,0.,0.));
#1679=DIRECTION('',(1.,0.,0.));
#1680=DIRECTION('',(0.,0.,1.));
#1681=DIRECTION('',(1.,0.,0.));
#1682=DIRECTION('',(0.,0.,1.));
#1683=DIRECTION('center_axis',(1.,0.,0.));
#1684=DIRECTION('ref_axis',(0.,1.,0.));
#1685=DIRECTION('',(0.,1.,0.));
#1686=DIRECTION('',(0.,1.,0.));
#1687=DIRECTION('',(0.,0.,1.));
#1688=DIRECTION('center_axis',(0.,1.,0.));
#1689=DIRECTION('ref_axis',(-1.,0.,0.));
#1690=DIRECTION('',(-1.,0.,0.));
#1691=DIRECTION('',(-1.,0.,0.));
#1692=DIRECTION('',(0.,0.,1.));
#1693=DIRECTION('center_axis',(-1.,0.,0.));
#1694=DIRECTION('ref_axis',(0.,-1.,0.));
#1695=DIRECTION('',(0.,-1.,0.));
#1696=DIRECTION('',(0.,-1.,0.));
#1697=DIRECTION('center_axis',(-1.,0.,0.));
#1698=DIRECTION('ref_axis',(0.,-1.,0.));
#1699=DIRECTION('',(0.,-1.,0.));
#1700=DIRECTION('',(0.,0.,1.));
#1701=DIRECTION('',(0.,-1.,0.));
#1702=DIRECTION('',(0.,0.,1.));
#1703=DIRECTION('center_axis',(0.,-1.,0.));
#1704=DIRECTION('ref_axis',(1.,0.,0.));
#1705=DIRECTION('',(1.,0.,0.));
#1706=DIRECTION('',(1.,0.,0.));
#1707=DIRECTION('',(0.,0.,1.));
#1708=DIRECTION('center_axis',(1.,0.,0.));
#1709=DIRECTION('ref_axis',(0.,1.,0.));
#1710=DIRECTION('',(0.,1.,0.));
#1711=DIRECTION('',(0.,1.,0.));
#1712=DIRECTION('',(0.,0.,1.));
#1713=DIRECTION('center_axis',(0.,1.,0.));
#1714=DIRECTION('ref_axis',(-1.,0.,0.));
#1715=DIRECTION('',(-1.,0.,0.));
#1716=DIRECTION('',(-1.,0.,0.));
#1717=DIRECTION('center_axis',(-1.,0.,0.));
#1718=DIRECTION('ref_axis',(0.,-1.,0.));
#1719=DIRECTION('',(0.,-1.,0.));
#1720=DIRECTION('',(0.,0.,1.));
#1721=DIRECTION('',(0.,-1.,0.));
#1722=DIRECTION('',(0.,0.,1.));
#1723=DIRECTION('center_axis',(0.,-1.,0.));
#1724=DIRECTION('ref_axis',(1.,0.,0.));
#1725=DIRECTION('',(1.,0.,0.));
#1726=DIRECTION('',(1.,0.,0.));
#1727=DIRECTION('',(0.,0.,1.));
#1728=DIRECTION('center_axis',(1.,0.,0.));
#1729=DIRECTION('ref_axis',(0.,1.,0.));
#1730=DIRECTION('',(0.,1.,0.));
#1731=DIRECTION('',(0.,1.,0.));
#1732=DIRECTION('',(0.,0.,1.));
#1733=DIRECTION('center_axis',(0.,1.,0.));
#1734=DIRECTION('ref_axis',(-1.,0.,0.));
#1735=DIRECTION('',(-1.,0.,0.));
#1736=DIRECTION('',(-1.,0.,0.));
#1737=DIRECTION('center_axis',(-0.707106781186548,0.707106781186548,0.));
#1738=DIRECTION('ref_axis',(-0.707106781186548,-0.707106781186548,0.));
#1739=DIRECTION('',(-0.707106781186548,-0.707106781186548,0.));
#1740=DIRECTION('',(0.,0.,1.));
#1741=DIRECTION('',(-0.707106781186548,-0.707106781186548,0.));
#1742=DIRECTION('',(0.,0.,1.));
#1743=DIRECTION('center_axis',(-0.707106781186548,-0.707106781186547,0.));
#1744=DIRECTION('ref_axis',(0.707106781186547,-0.707106781186548,0.));
#1745=DIRECTION('',(0.707106781186547,-0.707106781186548,0.));
#1746=DIRECTION('',(0.707106781186547,-0.707106781186548,0.));
#1747=DIRECTION('',(0.,0.,1.));
#1748=DIRECTION('center_axis',(0.,0.,1.));
#1749=DIRECTION('ref_axis',(1.,0.,0.));
#1750=DIRECTION('center_axis',(0.,0.,1.));
#1751=DIRECTION('ref_axis',(1.,0.,0.));
#1752=DIRECTION('center_axis',(0.,0.,1.));
#1753=DIRECTION('ref_axis',(1.,0.,0.));
#1754=DIRECTION('',(0.,0.,1.));
#1755=DIRECTION('center_axis',(0.707106781186548,-0.707106781186547,0.));
#1756=DIRECTION('ref_axis',(0.707106781186547,0.707106781186548,0.));
#1757=DIRECTION('',(0.707106781186547,0.707106781186548,0.));
#1758=DIRECTION('',(0.707106781186547,0.707106781186548,0.));
#1759=DIRECTION('',(0.,0.,1.));
#1760=DIRECTION('center_axis',(0.707106781186542,0.707106781186553,0.));
#1761=DIRECTION('ref_axis',(-0.707106781186553,0.707106781186542,0.));
#1762=DIRECTION('',(-0.707106781186553,0.707106781186542,0.));
#1763=DIRECTION('',(-0.707106781186553,0.707106781186542,0.));
#1764=DIRECTION('',(0.,0.,1.));
#1765=DIRECTION('center_axis',(-0.707106781186548,0.707106781186547,0.));
#1766=DIRECTION('ref_axis',(-0.707106781186547,-0.707106781186548,0.));
#1767=DIRECTION('',(-0.707106781186547,-0.707106781186548,0.));
#1768=DIRECTION('',(-0.707106781186547,-0.707106781186548,0.));
#1769=DIRECTION('',(0.,0.,1.));
#1770=DIRECTION('center_axis',(0.,0.,1.));
#1771=DIRECTION('ref_axis',(1.,0.,0.));
#1772=DIRECTION('center_axis',(0.,0.,1.));
#1773=DIRECTION('ref_axis',(1.,0.,0.));
#1774=DIRECTION('center_axis',(0.,0.,1.));
#1775=DIRECTION('ref_axis',(1.,0.,0.));
#1776=DIRECTION('',(0.,0.,1.));
#1777=DIRECTION('center_axis',(-0.707106781186548,-0.707106781186548,0.));
#1778=DIRECTION('ref_axis',(0.707106781186548,-0.707106781186548,0.));
#1779=DIRECTION('',(0.707106781186547,-0.707106781186547,0.));
#1780=DIRECTION('',(0.707106781186547,-0.707106781186547,0.));
#1781=DIRECTION('',(0.,0.,1.));
#1782=DIRECTION('center_axis',(0.70710678118655,-0.707106781186545,0.));
#1783=DIRECTION('ref_axis',(0.707106781186545,0.70710678118655,0.));
#1784=DIRECTION('',(0.707106781186545,0.70710678118655,0.));
#1785=DIRECTION('',(0.707106781186545,0.70710678118655,0.));
#1786=DIRECTION('',(0.,0.,1.));
#1787=DIRECTION('center_axis',(0.707106781186548,0.707106781186547,0.));
#1788=DIRECTION('ref_axis',(-0.707106781186547,0.707106781186548,0.));
#1789=DIRECTION('',(-0.707106781186547,0.707106781186548,0.));
#1790=DIRECTION('',(-0.707106781186547,0.707106781186548,0.));
#1791=DIRECTION('',(0.,0.,1.));
#1792=DIRECTION('center_axis',(0.,0.,1.));
#1793=DIRECTION('ref_axis',(1.,0.,0.));
#1794=DIRECTION('center_axis',(0.,0.,1.));
#1795=DIRECTION('ref_axis',(1.,0.,0.));
#1796=DIRECTION('center_axis',(0.,0.,1.));
#1797=DIRECTION('ref_axis',(1.,0.,0.));
#1798=DIRECTION('',(0.,0.,1.));
#1799=DIRECTION('center_axis',(-0.707106781186547,0.707106781186548,0.));
#1800=DIRECTION('ref_axis',(-0.707106781186548,-0.707106781186547,0.));
#1801=DIRECTION('',(-0.707106781186548,-0.707106781186547,0.));
#1802=DIRECTION('',(-0.707106781186548,-0.707106781186547,0.));
#1803=DIRECTION('',(0.,0.,1.));
#1804=DIRECTION('center_axis',(-0.707106781186553,-0.707106781186542,0.));
#1805=DIRECTION('ref_axis',(0.707106781186542,-0.707106781186553,0.));
#1806=DIRECTION('',(0.707106781186542,-0.707106781186553,0.));
#1807=DIRECTION('',(0.707106781186542,-0.707106781186553,0.));
#1808=DIRECTION('',(0.,0.,1.));
#1809=DIRECTION('center_axis',(0.707106781186547,-0.707106781186548,0.));
#1810=DIRECTION('ref_axis',(0.707106781186548,0.707106781186547,0.));
#1811=DIRECTION('',(0.707106781186548,0.707106781186547,0.));
#1812=DIRECTION('',(0.707106781186548,0.707106781186547,0.));
#1813=DIRECTION('',(0.,0.,1.));
#1814=DIRECTION('center_axis',(0.,0.,1.));
#1815=DIRECTION('ref_axis',(-1.,1.22464679914735E-16,0.));
#1816=DIRECTION('center_axis',(0.,0.,1.));
#1817=DIRECTION('ref_axis',(1.,0.,0.));
#1818=DIRECTION('center_axis',(0.,0.,1.));
#1819=DIRECTION('ref_axis',(1.,0.,0.));
#1820=DIRECTION('',(0.,0.,1.));
#1821=DIRECTION('center_axis',(0.707106781186548,0.707106781186547,0.));
#1822=DIRECTION('ref_axis',(-0.707106781186547,0.707106781186548,0.));
#1823=DIRECTION('',(-0.707106781186547,0.707106781186548,0.));
#1824=DIRECTION('',(-0.707106781186547,0.707106781186548,0.));
#1825=DIRECTION('center_axis',(0.,0.,1.));
#1826=DIRECTION('ref_axis',(1.,0.,0.));
#1827=DIRECTION('center_axis',(0.,0.,1.));
#1828=DIRECTION('ref_axis',(1.,0.,0.));
#1829=CARTESIAN_POINT('',(0.,0.,0.));
#1830=CARTESIAN_POINT('Origin',(10.,120.,0.));
#1831=CARTESIAN_POINT('',(10.,120.,0.));
#1832=CARTESIAN_POINT('',(10.,116.52,0.));
#1833=CARTESIAN_POINT('',(10.,120.,0.));
#1834=CARTESIAN_POINT('',(10.,116.52,3.5));
#1835=CARTESIAN_POINT('',(10.,116.52,0.));
#1836=CARTESIAN_POINT('',(10.,120.,3.5));
#1837=CARTESIAN_POINT('',(10.,120.,3.5));
#1838=CARTESIAN_POINT('',(10.,120.,0.));
#1839=CARTESIAN_POINT('Origin',(-10.,120.,0.));
#1840=CARTESIAN_POINT('',(-10.,120.,0.));
#1841=CARTESIAN_POINT('',(-10.,120.,0.));
#1842=CARTESIAN_POINT('',(-10.,120.,3.5));
#1843=CARTESIAN_POINT('',(-10.,120.,3.5));
#1844=CARTESIAN_POINT('',(-10.,120.,0.));
#1845=CARTESIAN_POINT('Origin',(-10.,116.52,0.));
#1846=CARTESIAN_POINT('',(-10.,116.52,0.));
#1847=CARTESIAN_POINT('',(-10.,116.52,0.));
#1848=CARTESIAN_POINT('',(-10.,116.52,3.5));
#1849=CARTESIAN_POINT('',(-10.,116.52,3.5));
#1850=CARTESIAN_POINT('',(-10.,116.52,0.));
#1851=CARTESIAN_POINT('Origin',(10.,116.52,0.));
#1852=CARTESIAN_POINT('',(10.,116.52,0.));
#1853=CARTESIAN_POINT('',(10.,116.52,3.5));
#1854=CARTESIAN_POINT('Origin',(50.,120.,0.));
#1855=CARTESIAN_POINT('',(50.,120.,0.));
#1856=CARTESIAN_POINT('',(50.,116.52,0.));
#1857=CARTESIAN_POINT('',(50.,120.,0.));
#1858=CARTESIAN_POINT('',(50.,116.52,3.5));
#1859=CARTESIAN_POINT('',(50.,116.52,0.));
#1860=CARTESIAN_POINT('',(50.,120.,3.5));
#1861=CARTESIAN_POINT('',(50.,120.,3.5));
#1862=CARTESIAN_POINT('',(50.,120.,0.));
#1863=CARTESIAN_POINT('Origin',(30.,120.,0.));
#1864=CARTESIAN_POINT('',(30.,120.,0.));
#1865=CARTESIAN_POINT('',(30.,120.,0.));
#1866=CARTESIAN_POINT('',(30.,120.,3.5));
#1867=CARTESIAN_POINT('',(30.,120.,3.5));
#1868=CARTESIAN_POINT('',(30.,120.,0.));
#1869=CARTESIAN_POINT('Origin',(30.,116.52,0.));
#1870=CARTESIAN_POINT('',(30.,116.52,0.));
#1871=CARTESIAN_POINT('',(30.,116.52,0.));
#1872=CARTESIAN_POINT('',(30.,116.52,3.5));
#1873=CARTESIAN_POINT('',(30.,116.52,3.5));
#1874=CARTESIAN_POINT('',(30.,116.52,0.));
#1875=CARTESIAN_POINT('Origin',(50.,116.52,0.));
#1876=CARTESIAN_POINT('',(50.,116.52,0.));
#1877=CARTESIAN_POINT('',(50.,116.52,3.5));
#1878=CARTESIAN_POINT('Origin',(-50.,-120.48,0.));
#1879=CARTESIAN_POINT('',(-50.,-120.48,0.));
#1880=CARTESIAN_POINT('',(-30.,-120.48,0.));
#1881=CARTESIAN_POINT('',(-30.,-120.48,0.));
#1882=CARTESIAN_POINT('',(-30.,-120.48,3.5));
#1883=CARTESIAN_POINT('',(-30.,-120.48,0.));
#1884=CARTESIAN_POINT('',(-50.,-120.48,3.5));
#1885=CARTESIAN_POINT('',(-30.,-120.48,3.5));
#1886=CARTESIAN_POINT('',(-50.,-120.48,0.));
#1887=CARTESIAN_POINT('Origin',(-50.,-123.96,0.));
#1888=CARTESIAN_POINT('',(-50.,-123.96,0.));
#1889=CARTESIAN_POINT('',(-50.,-120.48,0.));
#1890=CARTESIAN_POINT('',(-50.,-123.96,3.5));
#1891=CARTESIAN_POINT('',(-50.,-120.48,3.5));
#1892=CARTESIAN_POINT('',(-50.,-123.96,0.));
#1893=CARTESIAN_POINT('Origin',(-30.,-123.96,0.));
#1894=CARTESIAN_POINT('',(-30.,-123.96,0.));
#1895=CARTESIAN_POINT('',(-50.,-123.96,0.));
#1896=CARTESIAN_POINT('',(-30.,-123.96,3.5));
#1897=CARTESIAN_POINT('',(-50.,-123.96,3.5));
#1898=CARTESIAN_POINT('',(-30.,-123.96,0.));
#1899=CARTESIAN_POINT('Origin',(-30.,-120.48,0.));
#1900=CARTESIAN_POINT('',(-30.,-123.96,0.));
#1901=CARTESIAN_POINT('',(-30.,-123.96,3.5));
#1902=CARTESIAN_POINT('Origin',(50.,96.52,0.));
#1903=CARTESIAN_POINT('',(50.,96.52,0.));
#1904=CARTESIAN_POINT('',(50.,93.04,0.));
#1905=CARTESIAN_POINT('',(50.,96.52,0.));
#1906=CARTESIAN_POINT('',(50.,93.04,3.5));
#1907=CARTESIAN_POINT('',(50.,93.04,0.));
#1908=CARTESIAN_POINT('',(50.,96.52,3.5));
#1909=CARTESIAN_POINT('',(50.,96.52,3.5));
#1910=CARTESIAN_POINT('',(50.,96.52,0.));
#1911=CARTESIAN_POINT('Origin',(30.,96.52,0.));
#1912=CARTESIAN_POINT('',(30.,96.52,0.));
#1913=CARTESIAN_POINT('',(30.,96.52,0.));
#1914=CARTESIAN_POINT('',(30.,96.52,3.5));
#1915=CARTESIAN_POINT('',(30.,96.52,3.5));
#1916=CARTESIAN_POINT('',(30.,96.52,0.));
#1917=CARTESIAN_POINT('Origin',(30.,93.04,0.));
#1918=CARTESIAN_POINT('',(30.,93.04,0.));
#1919=CARTESIAN_POINT('',(30.,93.04,0.));
#1920=CARTESIAN_POINT('',(30.,93.04,3.5));
#1921=CARTESIAN_POINT('',(30.,93.04,3.5));
#1922=CARTESIAN_POINT('',(30.,93.04,0.));
#1923=CARTESIAN_POINT('Origin',(50.,93.04,0.));
#1924=CARTESIAN_POINT('',(50.,93.04,0.));
#1925=CARTESIAN_POINT('',(50.,93.04,3.5));
#1926=CARTESIAN_POINT('Origin',(10.0000004470348,-120.48,0.));
#1927=CARTESIAN_POINT('',(10.0000004470348,-120.48,0.));
#1928=CARTESIAN_POINT('',(10.0000004470348,-123.96,0.));
#1929=CARTESIAN_POINT('',(10.0000004470348,-120.48,0.));
#1930=CARTESIAN_POINT('',(10.0000004470348,-123.96,3.5));
#1931=CARTESIAN_POINT('',(10.0000004470348,-123.96,0.));
#1932=CARTESIAN_POINT('',(10.0000004470348,-120.48,3.5));
#1933=CARTESIAN_POINT('',(10.0000004470348,-120.48,3.5));
#1934=CARTESIAN_POINT('',(10.0000004470348,-120.48,0.));
#1935=CARTESIAN_POINT('Origin',(-9.99999955296517,-120.48,0.));
#1936=CARTESIAN_POINT('',(-9.99999955296517,-120.48,0.));
#1937=CARTESIAN_POINT('',(-9.99999955296517,-120.48,0.));
#1938=CARTESIAN_POINT('',(-9.99999955296516,-120.48,3.5));
#1939=CARTESIAN_POINT('',(-9.99999955296517,-120.48,3.5));
#1940=CARTESIAN_POINT('',(-9.99999955296517,-120.48,0.));
#1941=CARTESIAN_POINT('Origin',(-10.0000000715256,-123.96,0.));
#1942=CARTESIAN_POINT('',(-10.0000000715256,-123.96,0.));
#1943=CARTESIAN_POINT('',(-10.0000000715256,-123.96,0.));
#1944=CARTESIAN_POINT('',(-10.0000000715256,-123.96,3.5));
#1945=CARTESIAN_POINT('',(-10.0000000715256,-123.96,3.5));
#1946=CARTESIAN_POINT('',(-10.0000000715256,-123.96,0.));
#1947=CARTESIAN_POINT('Origin',(10.0000004470348,-123.96,0.));
#1948=CARTESIAN_POINT('',(10.0000004470348,-123.96,0.));
#1949=CARTESIAN_POINT('',(10.0000004470348,-123.96,3.5));
#1950=CARTESIAN_POINT('Origin',(-50.0000004470348,-75.,0.));
#1951=CARTESIAN_POINT('',(-50.0000004470348,-75.,0.));
#1952=CARTESIAN_POINT('',(-30.0000004470348,-75.,0.));
#1953=CARTESIAN_POINT('',(-30.0000004470348,-75.,0.));
#1954=CARTESIAN_POINT('',(-30.0000004470348,-75.,3.5));
#1955=CARTESIAN_POINT('',(-30.0000004470348,-75.,0.));
#1956=CARTESIAN_POINT('',(-50.0000004470348,-75.,3.5));
#1957=CARTESIAN_POINT('',(-30.0000004470348,-75.,3.5));
#1958=CARTESIAN_POINT('',(-50.0000004470348,-75.,0.));
#1959=CARTESIAN_POINT('Origin',(-50.0000004470348,-78.48,0.));
#1960=CARTESIAN_POINT('',(-50.0000004470348,-78.48,0.));
#1961=CARTESIAN_POINT('',(-50.0000004470348,-75.,0.));
#1962=CARTESIAN_POINT('',(-50.0000004470348,-78.48,3.5));
#1963=CARTESIAN_POINT('',(-50.0000004470348,-75.,3.5));
#1964=CARTESIAN_POINT('',(-50.0000004470348,-78.48,0.));
#1965=CARTESIAN_POINT('Origin',(-30.0000004470348,-78.48,0.));
#1966=CARTESIAN_POINT('',(-30.0000004470348,-78.48,0.));
#1967=CARTESIAN_POINT('',(-50.0000004470348,-78.48,0.));
#1968=CARTESIAN_POINT('',(-30.0000004470348,-78.48,3.5));
#1969=CARTESIAN_POINT('',(-50.0000004470348,-78.48,3.5));
#1970=CARTESIAN_POINT('',(-30.0000004470348,-78.48,0.));
#1971=CARTESIAN_POINT('Origin',(-30.0000004470348,-75.,0.));
#1972=CARTESIAN_POINT('',(-30.0000004470348,-78.48,0.));
#1973=CARTESIAN_POINT('',(-30.0000004470348,-78.48,3.5));
#1974=CARTESIAN_POINT('Origin',(-50.,96.52,0.));
#1975=CARTESIAN_POINT('',(-50.,96.52,0.));
#1976=CARTESIAN_POINT('',(-30.,96.52,0.));
#1977=CARTESIAN_POINT('',(-30.,96.52,0.));
#1978=CARTESIAN_POINT('',(-30.,96.52,3.5));
#1979=CARTESIAN_POINT('',(-30.,96.52,0.));
#1980=CARTESIAN_POINT('',(-50.,96.52,3.5));
#1981=CARTESIAN_POINT('',(-30.,96.52,3.5));
#1982=CARTESIAN_POINT('',(-50.,96.52,0.));
#1983=CARTESIAN_POINT('Origin',(-50.,93.04,0.));
#1984=CARTESIAN_POINT('',(-50.,93.04,0.));
#1985=CARTESIAN_POINT('',(-50.,96.52,0.));
#1986=CARTESIAN_POINT('',(-50.,93.04,3.5));
#1987=CARTESIAN_POINT('',(-50.,96.52,3.5));
#1988=CARTESIAN_POINT('',(-50.,93.04,0.));
#1989=CARTESIAN_POINT('Origin',(-30.,93.04,0.));
#1990=CARTESIAN_POINT('',(-30.,93.04,0.));
#1991=CARTESIAN_POINT('',(-50.,93.04,0.));
#1992=CARTESIAN_POINT('',(-30.,93.04,3.5));
#1993=CARTESIAN_POINT('',(-50.,93.04,3.5));
#1994=CARTESIAN_POINT('',(-30.,93.04,0.));
#1995=CARTESIAN_POINT('Origin',(-30.,96.52,0.));
#1996=CARTESIAN_POINT('',(-30.,93.04,0.));
#1997=CARTESIAN_POINT('',(-30.,93.04,3.5));
#1998=CARTESIAN_POINT('Origin',(50.,-120.480001445413,0.));
#1999=CARTESIAN_POINT('',(50.,-120.480001445413,0.));
#2000=CARTESIAN_POINT('',(50.,-123.960001445413,0.));
#2001=CARTESIAN_POINT('',(50.,-120.480001445413,0.));
#2002=CARTESIAN_POINT('',(50.,-123.960001445413,3.5));
#2003=CARTESIAN_POINT('',(50.,-123.960001445413,0.));
#2004=CARTESIAN_POINT('',(50.,-120.480001445413,3.5));
#2005=CARTESIAN_POINT('',(50.,-120.480001445413,3.5));
#2006=CARTESIAN_POINT('',(50.,-120.480001445413,0.));
#2007=CARTESIAN_POINT('Origin',(30.,-120.480001445413,0.));
#2008=CARTESIAN_POINT('',(30.,-120.480001445413,0.));
#2009=CARTESIAN_POINT('',(30.,-120.480001445413,0.));
#2010=CARTESIAN_POINT('',(30.,-120.480001445413,3.5));
#2011=CARTESIAN_POINT('',(30.,-120.480001445413,3.5));
#2012=CARTESIAN_POINT('',(30.,-120.480001445413,0.));
#2013=CARTESIAN_POINT('Origin',(30.0000005185604,-123.960001445413,0.));
#2014=CARTESIAN_POINT('',(30.0000005185604,-123.960001445413,0.));
#2015=CARTESIAN_POINT('',(30.0000005185604,-123.960001445413,0.));
#2016=CARTESIAN_POINT('',(30.0000005185604,-123.960001445413,3.5));
#2017=CARTESIAN_POINT('',(30.0000005185604,-123.960001445413,3.5));
#2018=CARTESIAN_POINT('',(30.0000005185604,-123.960001445413,0.));
#2019=CARTESIAN_POINT('Origin',(50.,-123.960001445413,0.));
#2020=CARTESIAN_POINT('',(50.,-123.960001445413,0.));
#2021=CARTESIAN_POINT('',(50.,-123.960001445413,3.5));
#2022=CARTESIAN_POINT('Origin',(10.0000004470348,-75.0000000000002,0.));
#2023=CARTESIAN_POINT('',(10.0000004470348,-75.0000000000002,0.));
#2024=CARTESIAN_POINT('',(10.0000005543232,-78.48,0.));
#2025=CARTESIAN_POINT('',(10.0000004470348,-75.0000000000002,0.));
#2026=CARTESIAN_POINT('',(10.0000005543232,-78.48,3.5));
#2027=CARTESIAN_POINT('',(10.0000005543232,-78.48,0.));
#2028=CARTESIAN_POINT('',(10.0000004470348,-75.0000000000002,3.5));
#2029=CARTESIAN_POINT('',(10.0000004470348,-75.0000000000002,3.5));
#2030=CARTESIAN_POINT('',(10.0000004470348,-75.0000000000002,0.));
#2031=CARTESIAN_POINT('Origin',(-9.99999955296516,-75.0000000000002,0.));
#2032=CARTESIAN_POINT('',(-9.99999955296516,-75.0000000000002,0.));
#2033=CARTESIAN_POINT('',(-9.99999955296516,-75.0000000000002,0.));
#2034=CARTESIAN_POINT('',(-9.99999955296516,-75.0000000000002,3.5));
#2035=CARTESIAN_POINT('',(-9.99999955296516,-75.0000000000002,3.5));
#2036=CARTESIAN_POINT('',(-9.99999955296516,-75.0000000000002,0.));
#2037=CARTESIAN_POINT('Origin',(-10.0000007039514,-78.48,0.));
#2038=CARTESIAN_POINT('',(-10.0000007039514,-78.48,0.));
#2039=CARTESIAN_POINT('',(-10.0000007039514,-78.48,0.));
#2040=CARTESIAN_POINT('',(-10.0000007039514,-78.48,3.5));
#2041=CARTESIAN_POINT('',(-10.0000007039514,-78.48,3.5));
#2042=CARTESIAN_POINT('',(-10.0000007039514,-78.48,0.));
#2043=CARTESIAN_POINT('Origin',(10.0000005543232,-78.48,0.));
#2044=CARTESIAN_POINT('',(10.0000005543232,-78.48,0.));
#2045=CARTESIAN_POINT('',(10.0000005543232,-78.48,3.5));
#2046=CARTESIAN_POINT('Origin',(-50.,120.,0.));
#2047=CARTESIAN_POINT('',(-50.,120.,0.));
#2048=CARTESIAN_POINT('',(-30.,120.,0.));
#2049=CARTESIAN_POINT('',(-30.,120.,0.));
#2050=CARTESIAN_POINT('',(-30.,120.,3.5));
#2051=CARTESIAN_POINT('',(-30.,120.,0.));
#2052=CARTESIAN_POINT('',(-50.,120.,3.5));
#2053=CARTESIAN_POINT('',(-30.,120.,3.5));
#2054=CARTESIAN_POINT('',(-50.,120.,0.));
#2055=CARTESIAN_POINT('Origin',(-50.,116.52,0.));
#2056=CARTESIAN_POINT('',(-50.,116.52,0.));
#2057=CARTESIAN_POINT('',(-50.,120.,0.));
#2058=CARTESIAN_POINT('',(-50.,116.52,3.5));
#2059=CARTESIAN_POINT('',(-50.,120.,3.5));
#2060=CARTESIAN_POINT('',(-50.,116.52,0.));
#2061=CARTESIAN_POINT('Origin',(-30.,116.52,0.));
#2062=CARTESIAN_POINT('',(-30.,116.52,0.));
#2063=CARTESIAN_POINT('',(-50.,116.52,0.));
#2064=CARTESIAN_POINT('',(-30.,116.52,3.5));
#2065=CARTESIAN_POINT('',(-50.,116.52,3.5));
#2066=CARTESIAN_POINT('',(-30.,116.52,0.));
#2067=CARTESIAN_POINT('Origin',(-30.,120.,0.));
#2068=CARTESIAN_POINT('',(-30.,116.52,0.));
#2069=CARTESIAN_POINT('',(-30.,116.52,3.5));
#2070=CARTESIAN_POINT('Origin',(10.,96.52,0.));
#2071=CARTESIAN_POINT('',(10.,96.52,0.));
#2072=CARTESIAN_POINT('',(10.,93.04,0.));
#2073=CARTESIAN_POINT('',(10.,96.52,0.));
#2074=CARTESIAN_POINT('',(10.,93.04,3.5));
#2075=CARTESIAN_POINT('',(10.,93.04,0.));
#2076=CARTESIAN_POINT('',(10.,96.52,3.5));
#2077=CARTESIAN_POINT('',(10.,96.52,3.5));
#2078=CARTESIAN_POINT('',(10.,96.52,0.));
#2079=CARTESIAN_POINT('Origin',(-10.,96.52,0.));
#2080=CARTESIAN_POINT('',(-10.,96.52,0.));
#2081=CARTESIAN_POINT('',(-10.,96.52,0.));
#2082=CARTESIAN_POINT('',(-10.,96.52,3.5));
#2083=CARTESIAN_POINT('',(-10.,96.52,3.5));
#2084=CARTESIAN_POINT('',(-10.,96.52,0.));
#2085=CARTESIAN_POINT('Origin',(-10.,93.04,0.));
#2086=CARTESIAN_POINT('',(-10.,93.04,0.));
#2087=CARTESIAN_POINT('',(-10.,93.04,0.));
#2088=CARTESIAN_POINT('',(-10.,93.04,3.5));
#2089=CARTESIAN_POINT('',(-10.,93.04,3.5));
#2090=CARTESIAN_POINT('',(-10.,93.04,0.));
#2091=CARTESIAN_POINT('Origin',(10.,93.04,0.));
#2092=CARTESIAN_POINT('',(10.,93.04,0.));
#2093=CARTESIAN_POINT('',(10.,93.04,3.5));
#2094=CARTESIAN_POINT('Origin',(50.0000004470348,-75.0000014454126,0.));
#2095=CARTESIAN_POINT('',(50.0000004470348,-75.0000014454126,0.));
#2096=CARTESIAN_POINT('',(50.0000004470348,-78.4800014454126,0.));
#2097=CARTESIAN_POINT('',(50.0000004470348,-75.0000014454126,0.));
#2098=CARTESIAN_POINT('',(50.0000004470348,-78.4800014454126,3.5));
#2099=CARTESIAN_POINT('',(50.0000004470348,-78.4800014454126,0.));
#2100=CARTESIAN_POINT('',(50.0000004470348,-75.0000014454126,3.5));
#2101=CARTESIAN_POINT('',(50.0000004470348,-75.0000014454126,3.5));
#2102=CARTESIAN_POINT('',(50.0000004470348,-75.0000014454126,0.));
#2103=CARTESIAN_POINT('Origin',(30.0000004470348,-75.0000014454126,0.));
#2104=CARTESIAN_POINT('',(30.0000004470348,-75.0000014454126,0.));
#2105=CARTESIAN_POINT('',(30.0000004470348,-75.0000014454126,0.));
#2106=CARTESIAN_POINT('',(30.0000004470348,-75.0000014454126,3.5));
#2107=CARTESIAN_POINT('',(30.0000004470348,-75.0000014454126,3.5));
#2108=CARTESIAN_POINT('',(30.0000004470348,-75.0000014454126,0.));
#2109=CARTESIAN_POINT('Origin',(30.0000004470348,-78.4800014454126,0.));
#2110=CARTESIAN_POINT('',(30.0000004470348,-78.4800014454126,0.));
#2111=CARTESIAN_POINT('',(30.0000004470348,-78.4800014454126,0.));
#2112=CARTESIAN_POINT('',(30.0000004470348,-78.4800014454126,3.5));
#2113=CARTESIAN_POINT('',(30.0000004470348,-78.4800014454126,3.5));
#2114=CARTESIAN_POINT('',(30.0000004470348,-78.4800014454126,0.));
#2115=CARTESIAN_POINT('Origin',(50.0000004470348,-78.4800014454126,0.));
#2116=CARTESIAN_POINT('',(50.0000004470348,-78.4800014454126,0.));
#2117=CARTESIAN_POINT('',(50.0000004470348,-78.4800014454126,3.5));
#2118=CARTESIAN_POINT('Origin',(-90.6864446871747,93.1613184213276,0.));
#2119=CARTESIAN_POINT('',(-90.6864446871747,93.1613184213276,0.));
#2120=CARTESIAN_POINT('',(-93.1613184213276,90.6864446871747,0.));
#2121=CARTESIAN_POINT('',(-90.6864446871747,93.1613184213276,0.));
#2122=CARTESIAN_POINT('',(-93.1613184213276,90.6864446871748,3.5));
#2123=CARTESIAN_POINT('',(-93.1613184213276,90.6864446871747,0.));
#2124=CARTESIAN_POINT('',(-90.6864446871747,93.1613184213276,3.5));
#2125=CARTESIAN_POINT('',(-90.6864446871747,93.1613184213276,3.5));
#2126=CARTESIAN_POINT('',(-90.6864446871747,93.1613184213276,0.));
#2127=CARTESIAN_POINT('Origin',(-104.821361683539,107.296235417692,0.));
#2128=CARTESIAN_POINT('',(-104.821361683539,107.296235417692,0.));
#2129=CARTESIAN_POINT('',(-104.828580310906,107.303454045059,0.));
#2130=CARTESIAN_POINT('',(-104.821361683539,107.296235417692,3.5));
#2131=CARTESIAN_POINT('',(-104.828580310906,107.303454045059,3.5));
#2132=CARTESIAN_POINT('',(-104.821361683539,107.296235417692,0.));
#2133=CARTESIAN_POINT('Origin',(0.,0.,0.));
#2134=CARTESIAN_POINT('',(104.835667878975,107.28225734188,0.));
#2135=CARTESIAN_POINT('Origin',(0.,0.,0.));
#2136=CARTESIAN_POINT('',(104.835667878975,107.28225734188,3.5));
#2137=CARTESIAN_POINT('Origin',(0.,0.,3.5));
#2138=CARTESIAN_POINT('',(104.835667878975,107.28225734188,0.));
#2139=CARTESIAN_POINT('Origin',(90.7005868227985,93.1471762857038,0.));
#2140=CARTESIAN_POINT('',(90.7005868227985,93.1471762857038,0.));
#2141=CARTESIAN_POINT('',(90.7005868227985,93.1471762857038,0.));
#2142=CARTESIAN_POINT('',(90.7005868227985,93.1471762857038,3.5));
#2143=CARTESIAN_POINT('',(90.7005868227985,93.1471762857038,3.5));
#2144=CARTESIAN_POINT('',(90.7005868227985,93.1471762857038,0.));
#2145=CARTESIAN_POINT('Origin',(93.1613184213277,90.6864446871747,0.));
#2146=CARTESIAN_POINT('',(93.1613184213277,90.6864446871747,0.));
#2147=CARTESIAN_POINT('',(93.1613184213277,90.6864446871747,0.));
#2148=CARTESIAN_POINT('',(93.1613184213277,90.6864446871747,3.5));
#2149=CARTESIAN_POINT('',(93.1613184213277,90.6864446871747,3.5));
#2150=CARTESIAN_POINT('',(93.1613184213277,90.6864446871747,0.));
#2151=CARTESIAN_POINT('Origin',(107.296235417692,104.821361683539,0.));
#2152=CARTESIAN_POINT('',(107.296235417692,104.821361683539,0.));
#2153=CARTESIAN_POINT('',(107.303454045059,104.828580310906,0.));
#2154=CARTESIAN_POINT('',(107.296235417692,104.821361683539,3.5));
#2155=CARTESIAN_POINT('',(107.303454045059,104.828580310906,3.5));
#2156=CARTESIAN_POINT('',(107.296235417692,104.821361683539,0.));
#2157=CARTESIAN_POINT('Origin',(0.,0.,0.));
#2158=CARTESIAN_POINT('',(107.296235417692,-104.821361683539,0.));
#2159=CARTESIAN_POINT('Origin',(0.,0.,0.));
#2160=CARTESIAN_POINT('',(107.296235417692,-104.821361683539,3.5));
#2161=CARTESIAN_POINT('Origin',(0.,0.,3.5));
#2162=CARTESIAN_POINT('',(107.296235417692,-104.821361683539,0.));
#2163=CARTESIAN_POINT('Origin',(93.1613184213277,-90.6864446871747,0.));
#2164=CARTESIAN_POINT('',(93.1613184213277,-90.6864446871747,0.));
#2165=CARTESIAN_POINT('',(93.1613184213277,-90.6864446871747,0.));
#2166=CARTESIAN_POINT('',(93.1613184213277,-90.6864446871747,3.5));
#2167=CARTESIAN_POINT('',(93.1613184213277,-90.6864446871747,3.5));
#2168=CARTESIAN_POINT('',(93.1613184213277,-90.6864446871747,0.));
#2169=CARTESIAN_POINT('Origin',(90.6864446871748,-93.1613184213276,0.));
#2170=CARTESIAN_POINT('',(90.6864446871748,-93.1613184213276,0.));
#2171=CARTESIAN_POINT('',(90.6864446871748,-93.1613184213276,0.));
#2172=CARTESIAN_POINT('',(90.6864446871748,-93.1613184213276,3.5));
#2173=CARTESIAN_POINT('',(90.6864446871748,-93.1613184213276,3.5));
#2174=CARTESIAN_POINT('',(90.6864446871748,-93.1613184213276,0.));
#2175=CARTESIAN_POINT('Origin',(104.821361683539,-107.296235417692,0.));
#2176=CARTESIAN_POINT('',(104.821361683539,-107.296235417692,0.));
#2177=CARTESIAN_POINT('',(104.828580310906,-107.303454045059,0.));
#2178=CARTESIAN_POINT('',(104.821361683539,-107.296235417692,3.5));
#2179=CARTESIAN_POINT('',(104.828580310906,-107.303454045059,3.5));
#2180=CARTESIAN_POINT('',(104.821361683539,-107.296235417692,0.));
#2181=CARTESIAN_POINT('Origin',(0.,0.,0.));
#2182=CARTESIAN_POINT('',(-104.835667878975,-107.28225734188,0.));
#2183=CARTESIAN_POINT('Origin',(0.,0.,0.));
#2184=CARTESIAN_POINT('',(-104.835667878975,-107.28225734188,3.5));
#2185=CARTESIAN_POINT('Origin',(0.,0.,3.5));
#2186=CARTESIAN_POINT('',(-104.835667878975,-107.28225734188,0.));
#2187=CARTESIAN_POINT('Origin',(-90.7005868227985,-93.1471762857039,0.));
#2188=CARTESIAN_POINT('',(-90.7005868227985,-93.1471762857039,0.));
#2189=CARTESIAN_POINT('',(-90.7005868227985,-93.1471762857039,0.));
#2190=CARTESIAN_POINT('',(-90.7005868227985,-93.1471762857039,3.5));
#2191=CARTESIAN_POINT('',(-90.7005868227985,-93.1471762857039,3.5));
#2192=CARTESIAN_POINT('',(-90.7005868227985,-93.1471762857039,0.));
#2193=CARTESIAN_POINT('Origin',(-93.1613184213276,-90.6864446871747,0.));
#2194=CARTESIAN_POINT('',(-93.1613184213276,-90.6864446871747,0.));
#2195=CARTESIAN_POINT('',(-93.1613184213276,-90.6864446871747,0.));
#2196=CARTESIAN_POINT('',(-93.1613184213276,-90.6864446871747,3.5));
#2197=CARTESIAN_POINT('',(-93.1613184213276,-90.6864446871747,3.5));
#2198=CARTESIAN_POINT('',(-93.1613184213276,-90.6864446871747,0.));
#2199=CARTESIAN_POINT('Origin',(-107.296235417692,-104.821361683539,0.));
#2200=CARTESIAN_POINT('',(-107.296235417692,-104.821361683539,0.));
#2201=CARTESIAN_POINT('',(-107.303454045059,-104.828580310906,0.));
#2202=CARTESIAN_POINT('',(-107.296235417692,-104.821361683539,3.5));
#2203=CARTESIAN_POINT('',(-107.303454045059,-104.828580310906,3.5));
#2204=CARTESIAN_POINT('',(-107.296235417692,-104.821361683539,0.));
#2205=CARTESIAN_POINT('Origin',(0.,0.,0.));
#2206=CARTESIAN_POINT('',(-107.296235417692,104.821361683539,0.));
#2207=CARTESIAN_POINT('Origin',(0.,0.,0.));
#2208=CARTESIAN_POINT('',(-107.296235417692,104.821361683539,3.5));
#2209=CARTESIAN_POINT('Origin',(0.,0.,3.5));
#2210=CARTESIAN_POINT('',(-107.296235417692,104.821361683539,0.));
#2211=CARTESIAN_POINT('Origin',(-93.1613184213276,90.6864446871747,0.));
#2212=CARTESIAN_POINT('',(-93.1613184213276,90.6864446871747,0.));
#2213=CARTESIAN_POINT('',(-93.1613184213276,90.6864446871747,3.5));
#2214=CARTESIAN_POINT('Origin',(0.,0.,3.5));
#2215=CARTESIAN_POINT('Origin',(0.,0.,0.));
#2216=UNCERTAINTY_MEASURE_WITH_UNIT(LENGTH_MEASURE(0.01),#2220,
'DISTANCE_ACCURACY_VALUE',
'Maximum model space distance between geometric entities at asserted c
onnectivities');
#2217=UNCERTAINTY_MEASURE_WITH_UNIT(LENGTH_MEASURE(0.01),#2220,
'DISTANCE_ACCURACY_VALUE',
'Maximum model space distance between geometric entities at asserted c
onnectivities');
#2218=(
GEOMETRIC_REPRESENTATION_CONTEXT(3)
GLOBAL_UNCERTAINTY_ASSIGNED_CONTEXT((#2216))
GLOBAL_UNIT_ASSIGNED_CONTEXT((#2220,#2222,#2223))
REPRESENTATION_CONTEXT('','3D')
);
#2219=(
GEOMETRIC_REPRESENTATION_CONTEXT(3)
GLOBAL_UNCERTAINTY_ASSIGNED_CONTEXT((#2217))
GLOBAL_UNIT_ASSIGNED_CONTEXT((#2220,#2222,#2223))
REPRESENTATION_CONTEXT('','3D')
);
#2220=(
LENGTH_UNIT()
NAMED_UNIT(*)
SI_UNIT(.MILLI.,.METRE.)
);
#2221=(
LENGTH_UNIT()
NAMED_UNIT(*)
SI_UNIT($,.METRE.)
);
#2222=(
NAMED_UNIT(*)
PLANE_ANGLE_UNIT()
SI_UNIT($,.RADIAN.)
);
#2223=(
NAMED_UNIT(*)
SI_UNIT($,.STERADIAN.)
SOLID_ANGLE_UNIT()
);
#2224=SHAPE_DEFINITION_REPRESENTATION(#2225,#2226);
#2225=PRODUCT_DEFINITION_SHAPE('',$,#2228);
#2226=SHAPE_REPRESENTATION('',(#1420),#2218);
#2227=PRODUCT_DEFINITION_CONTEXT('part definition',#2232,'design');
#2228=PRODUCT_DEFINITION('base_bottom','base_bottom',#2229,#2227);
#2229=PRODUCT_DEFINITION_FORMATION('',$,#2234);
#2230=PRODUCT_RELATED_PRODUCT_CATEGORY('base_bottom','base_bottom',(#2234));
#2231=APPLICATION_PROTOCOL_DEFINITION('international standard',
'automotive_design',2009,#2232);
#2232=APPLICATION_CONTEXT(
'Core Data for Automotive Mechanical Design Process');
#2233=PRODUCT_CONTEXT('part definition',#2232,'mechanical');
#2234=PRODUCT('base_bottom','base_bottom',$,(#2233));
#2235=PRESENTATION_STYLE_ASSIGNMENT((#2236));
#2236=SURFACE_STYLE_USAGE(.BOTH.,#2237);
#2237=SURFACE_SIDE_STYLE('',(#2238));
#2238=SURFACE_STYLE_FILL_AREA(#2239);
#2239=FILL_AREA_STYLE('Steel - Satin',(#2240));
#2240=FILL_AREA_STYLE_COLOUR('Steel - Satin',#2241);
#2241=COLOUR_RGB('Steel - Satin',0.627450980392157,0.627450980392157,0.627450980392157);
ENDSEC;
END-ISO-10303-21;
