ISO-10303-21;
HEADER;
/* Generated by software containing ST-Developer
 * from STEP Tools, Inc. (www.steptools.com) 
 */

FILE_DESCRIPTION(
/* description */ (''),
/* implementation_level */ '2;1');

FILE_NAME(
/* name */ 'motor_stand_2.step',
/* time_stamp */ '2026-05-25T07:12:01+05:30',
/* author */ (''),
/* organization */ (''),
/* preprocessor_version */ 'ST-DEVELOPER v20.1',
/* originating_system */ 'Autodesk Translation Framework v15.8.0.0',
/* authorisation */ '');

FILE_SCHEMA (('AUTOMOTIVE_DESIGN { 1 0 10303 214 3 1 1 }'));
ENDSEC;

DATA;
#10=MECHANICAL_DESIGN_GEOMETRIC_PRESENTATION_REPRESENTATION('',(#13),#1645);
#11=SHAPE_REPRESENTATION_RELATIONSHIP('SRR','None',#1652,#12);
#12=ADVANCED_BREP_SHAPE_REPRESENTATION('',(#14),#1644);
#13=STYLED_ITEM('',(#1661),#14);
#14=MANIFOLD_SOLID_BREP('Body1',#1029);
#15=FACE_BOUND('',#125,.T.);
#16=FACE_BOUND('',#127,.T.);
#17=CIRCLE('',#1047,22.);
#18=CIRCLE('',#1048,22.);
#19=CIRCLE('',#1089,20.0000000000004);
#20=CIRCLE('',#1090,20.0000000000004);
#21=CIRCLE('',#1095,20.0000000000004);
#22=CIRCLE('',#1096,20.0000000000004);
#23=CYLINDRICAL_SURFACE('',#1046,22.);
#24=CYLINDRICAL_SURFACE('',#1088,20.0000000000004);
#25=CYLINDRICAL_SURFACE('',#1094,20.0000000000004);
#26=FACE_OUTER_BOUND('',#76,.T.);
#27=FACE_OUTER_BOUND('',#77,.T.);
#28=FACE_OUTER_BOUND('',#78,.T.);
#29=FACE_OUTER_BOUND('',#79,.T.);
#30=FACE_OUTER_BOUND('',#80,.T.);
#31=FACE_OUTER_BOUND('',#81,.T.);
#32=FACE_OUTER_BOUND('',#82,.T.);
#33=FACE_OUTER_BOUND('',#83,.T.);
#34=FACE_OUTER_BOUND('',#84,.T.);
#35=FACE_OUTER_BOUND('',#85,.T.);
#36=FACE_OUTER_BOUND('',#86,.T.);
#37=FACE_OUTER_BOUND('',#87,.T.);
#38=FACE_OUTER_BOUND('',#88,.T.);
#39=FACE_OUTER_BOUND('',#89,.T.);
#40=FACE_OUTER_BOUND('',#90,.T.);
#41=FACE_OUTER_BOUND('',#91,.T.);
#42=FACE_OUTER_BOUND('',#92,.T.);
#43=FACE_OUTER_BOUND('',#93,.T.);
#44=FACE_OUTER_BOUND('',#94,.T.);
#45=FACE_OUTER_BOUND('',#95,.T.);
#46=FACE_OUTER_BOUND('',#96,.T.);
#47=FACE_OUTER_BOUND('',#97,.T.);
#48=FACE_OUTER_BOUND('',#98,.T.);
#49=FACE_OUTER_BOUND('',#99,.T.);
#50=FACE_OUTER_BOUND('',#100,.T.);
#51=FACE_OUTER_BOUND('',#101,.T.);
#52=FACE_OUTER_BOUND('',#102,.T.);
#53=FACE_OUTER_BOUND('',#103,.T.);
#54=FACE_OUTER_BOUND('',#104,.T.);
#55=FACE_OUTER_BOUND('',#105,.T.);
#56=FACE_OUTER_BOUND('',#106,.T.);
#57=FACE_OUTER_BOUND('',#107,.T.);
#58=FACE_OUTER_BOUND('',#108,.T.);
#59=FACE_OUTER_BOUND('',#109,.T.);
#60=FACE_OUTER_BOUND('',#110,.T.);
#61=FACE_OUTER_BOUND('',#111,.T.);
#62=FACE_OUTER_BOUND('',#112,.T.);
#63=FACE_OUTER_BOUND('',#113,.T.);
#64=FACE_OUTER_BOUND('',#114,.T.);
#65=FACE_OUTER_BOUND('',#115,.T.);
#66=FACE_OUTER_BOUND('',#116,.T.);
#67=FACE_OUTER_BOUND('',#117,.T.);
#68=FACE_OUTER_BOUND('',#118,.T.);
#69=FACE_OUTER_BOUND('',#119,.T.);
#70=FACE_OUTER_BOUND('',#120,.T.);
#71=FACE_OUTER_BOUND('',#121,.T.);
#72=FACE_OUTER_BOUND('',#122,.T.);
#73=FACE_OUTER_BOUND('',#123,.T.);
#74=FACE_OUTER_BOUND('',#124,.T.);
#75=FACE_OUTER_BOUND('',#126,.T.);
#76=EDGE_LOOP('',(#644,#645,#646,#647));
#77=EDGE_LOOP('',(#648,#649,#650,#651));
#78=EDGE_LOOP('',(#652,#653,#654,#655));
#79=EDGE_LOOP('',(#656,#657,#658,#659));
#80=EDGE_LOOP('',(#660,#661,#662,#663));
#81=EDGE_LOOP('',(#664,#665,#666,#667));
#82=EDGE_LOOP('',(#668,#669,#670,#671));
#83=EDGE_LOOP('',(#672,#673,#674,#675));
#84=EDGE_LOOP('',(#676,#677,#678,#679));
#85=EDGE_LOOP('',(#680,#681,#682,#683));
#86=EDGE_LOOP('',(#684,#685,#686,#687));
#87=EDGE_LOOP('',(#688,#689,#690,#691));
#88=EDGE_LOOP('',(#692,#693,#694,#695));
#89=EDGE_LOOP('',(#696,#697,#698,#699));
#90=EDGE_LOOP('',(#700,#701,#702,#703));
#91=EDGE_LOOP('',(#704,#705,#706,#707));
#92=EDGE_LOOP('',(#708,#709,#710,#711));
#93=EDGE_LOOP('',(#712,#713,#714,#715));
#94=EDGE_LOOP('',(#716,#717,#718,#719));
#95=EDGE_LOOP('',(#720,#721,#722,#723));
#96=EDGE_LOOP('',(#724,#725,#726,#727));
#97=EDGE_LOOP('',(#728,#729,#730,#731));
#98=EDGE_LOOP('',(#732,#733,#734,#735));
#99=EDGE_LOOP('',(#736,#737,#738,#739));
#100=EDGE_LOOP('',(#740,#741,#742,#743));
#101=EDGE_LOOP('',(#744,#745,#746,#747));
#102=EDGE_LOOP('',(#748,#749,#750,#751));
#103=EDGE_LOOP('',(#752,#753,#754,#755));
#104=EDGE_LOOP('',(#756,#757,#758,#759));
#105=EDGE_LOOP('',(#760,#761,#762,#763));
#106=EDGE_LOOP('',(#764,#765,#766,#767));
#107=EDGE_LOOP('',(#768,#769,#770,#771));
#108=EDGE_LOOP('',(#772,#773,#774,#775));
#109=EDGE_LOOP('',(#776,#777,#778,#779));
#110=EDGE_LOOP('',(#780,#781,#782,#783));
#111=EDGE_LOOP('',(#784,#785,#786,#787));
#112=EDGE_LOOP('',(#788,#789,#790,#791));
#113=EDGE_LOOP('',(#792,#793,#794,#795));
#114=EDGE_LOOP('',(#796,#797,#798,#799));
#115=EDGE_LOOP('',(#800,#801,#802,#803));
#116=EDGE_LOOP('',(#804,#805,#806,#807));
#117=EDGE_LOOP('',(#808,#809,#810,#811));
#118=EDGE_LOOP('',(#812,#813,#814,#815));
#119=EDGE_LOOP('',(#816,#817,#818,#819));
#120=EDGE_LOOP('',(#820,#821,#822,#823));
#121=EDGE_LOOP('',(#824,#825,#826,#827));
#122=EDGE_LOOP('',(#828,#829,#830,#831));
#123=EDGE_LOOP('',(#832,#833,#834,#835));
#124=EDGE_LOOP('',(#836,#837,#838,#839,#840,#841,#842,#843,#844,#845,#846,
#847,#848,#849,#850,#851,#852,#853,#854,#855,#856,#857,#858,#859,#860,#861,
#862,#863,#864,#865,#866,#867,#868,#869,#870,#871,#872,#873,#874,#875,#876,
#877,#878,#879));
#125=EDGE_LOOP('',(#880,#881,#882,#883));
#126=EDGE_LOOP('',(#884,#885,#886,#887,#888,#889,#890,#891,#892,#893,#894,
#895,#896,#897,#898,#899,#900,#901,#902,#903,#904,#905,#906,#907,#908,#909,
#910,#911,#912,#913,#914,#915,#916,#917,#918,#919,#920,#921,#922,#923,#924,
#925,#926,#927));
#127=EDGE_LOOP('',(#928,#929,#930,#931));
#128=LINE('',#1355,#266);
#129=LINE('',#1357,#267);
#130=LINE('',#1359,#268);
#131=LINE('',#1360,#269);
#132=LINE('',#1363,#270);
#133=LINE('',#1365,#271);
#134=LINE('',#1366,#272);
#135=LINE('',#1369,#273);
#136=LINE('',#1371,#274);
#137=LINE('',#1372,#275);
#138=LINE('',#1379,#276);
#139=LINE('',#1381,#277);
#140=LINE('',#1383,#278);
#141=LINE('',#1384,#279);
#142=LINE('',#1387,#280);
#143=LINE('',#1389,#281);
#144=LINE('',#1390,#282);
#145=LINE('',#1393,#283);
#146=LINE('',#1395,#284);
#147=LINE('',#1396,#285);
#148=LINE('',#1399,#286);
#149=LINE('',#1401,#287);
#150=LINE('',#1402,#288);
#151=LINE('',#1405,#289);
#152=LINE('',#1407,#290);
#153=LINE('',#1408,#291);
#154=LINE('',#1411,#292);
#155=LINE('',#1413,#293);
#156=LINE('',#1414,#294);
#157=LINE('',#1417,#295);
#158=LINE('',#1419,#296);
#159=LINE('',#1420,#297);
#160=LINE('',#1423,#298);
#161=LINE('',#1425,#299);
#162=LINE('',#1426,#300);
#163=LINE('',#1429,#301);
#164=LINE('',#1431,#302);
#165=LINE('',#1432,#303);
#166=LINE('',#1435,#304);
#167=LINE('',#1437,#305);
#168=LINE('',#1438,#306);
#169=LINE('',#1441,#307);
#170=LINE('',#1443,#308);
#171=LINE('',#1444,#309);
#172=LINE('',#1447,#310);
#173=LINE('',#1449,#311);
#174=LINE('',#1450,#312);
#175=LINE('',#1453,#313);
#176=LINE('',#1455,#314);
#177=LINE('',#1456,#315);
#178=LINE('',#1459,#316);
#179=LINE('',#1461,#317);
#180=LINE('',#1462,#318);
#181=LINE('',#1465,#319);
#182=LINE('',#1467,#320);
#183=LINE('',#1468,#321);
#184=LINE('',#1471,#322);
#185=LINE('',#1473,#323);
#186=LINE('',#1474,#324);
#187=LINE('',#1477,#325);
#188=LINE('',#1479,#326);
#189=LINE('',#1480,#327);
#190=LINE('',#1483,#328);
#191=LINE('',#1485,#329);
#192=LINE('',#1486,#330);
#193=LINE('',#1489,#331);
#194=LINE('',#1491,#332);
#195=LINE('',#1492,#333);
#196=LINE('',#1495,#334);
#197=LINE('',#1497,#335);
#198=LINE('',#1498,#336);
#199=LINE('',#1501,#337);
#200=LINE('',#1503,#338);
#201=LINE('',#1504,#339);
#202=LINE('',#1507,#340);
#203=LINE('',#1509,#341);
#204=LINE('',#1510,#342);
#205=LINE('',#1513,#343);
#206=LINE('',#1515,#344);
#207=LINE('',#1516,#345);
#208=LINE('',#1519,#346);
#209=LINE('',#1521,#347);
#210=LINE('',#1522,#348);
#211=LINE('',#1525,#349);
#212=LINE('',#1527,#350);
#213=LINE('',#1528,#351);
#214=LINE('',#1531,#352);
#215=LINE('',#1533,#353);
#216=LINE('',#1534,#354);
#217=LINE('',#1537,#355);
#218=LINE('',#1539,#356);
#219=LINE('',#1540,#357);
#220=LINE('',#1543,#358);
#221=LINE('',#1545,#359);
#222=LINE('',#1546,#360);
#223=LINE('',#1549,#361);
#224=LINE('',#1551,#362);
#225=LINE('',#1552,#363);
#226=LINE('',#1555,#364);
#227=LINE('',#1557,#365);
#228=LINE('',#1558,#366);
#229=LINE('',#1561,#367);
#230=LINE('',#1563,#368);
#231=LINE('',#1564,#369);
#232=LINE('',#1567,#370);
#233=LINE('',#1569,#371);
#234=LINE('',#1570,#372);
#235=LINE('',#1573,#373);
#236=LINE('',#1575,#374);
#237=LINE('',#1576,#375);
#238=LINE('',#1579,#376);
#239=LINE('',#1581,#377);
#240=LINE('',#1582,#378);
#241=LINE('',#1585,#379);
#242=LINE('',#1587,#380);
#243=LINE('',#1588,#381);
#244=LINE('',#1591,#382);
#245=LINE('',#1593,#383);
#246=LINE('',#1594,#384);
#247=LINE('',#1597,#385);
#248=LINE('',#1599,#386);
#249=LINE('',#1600,#387);
#250=LINE('',#1603,#388);
#251=LINE('',#1605,#389);
#252=LINE('',#1606,#390);
#253=LINE('',#1609,#391);
#254=LINE('',#1611,#392);
#255=LINE('',#1612,#393);
#256=LINE('',#1618,#394);
#257=LINE('',#1621,#395);
#258=LINE('',#1623,#396);
#259=LINE('',#1624,#397);
#260=LINE('',#1627,#398);
#261=LINE('',#1629,#399);
#262=LINE('',#1630,#400);
#263=LINE('',#1633,#401);
#264=LINE('',#1635,#402);
#265=LINE('',#1636,#403);
#266=VECTOR('',#1103,10.);
#267=VECTOR('',#1104,10.);
#268=VECTOR('',#1105,10.);
#269=VECTOR('',#1106,10.);
#270=VECTOR('',#1109,10.);
#271=VECTOR('',#1110,10.);
#272=VECTOR('',#1111,10.);
#273=VECTOR('',#1114,10.);
#274=VECTOR('',#1115,10.);
#275=VECTOR('',#1116,10.);
#276=VECTOR('',#1125,10.);
#277=VECTOR('',#1126,10.);
#278=VECTOR('',#1127,10.);
#279=VECTOR('',#1128,10.);
#280=VECTOR('',#1131,10.);
#281=VECTOR('',#1132,10.);
#282=VECTOR('',#1133,10.);
#283=VECTOR('',#1136,10.);
#284=VECTOR('',#1137,10.);
#285=VECTOR('',#1138,10.);
#286=VECTOR('',#1141,10.);
#287=VECTOR('',#1142,10.);
#288=VECTOR('',#1143,10.);
#289=VECTOR('',#1146,10.);
#290=VECTOR('',#1147,10.);
#291=VECTOR('',#1148,10.);
#292=VECTOR('',#1151,10.);
#293=VECTOR('',#1152,10.);
#294=VECTOR('',#1153,10.);
#295=VECTOR('',#1156,10.);
#296=VECTOR('',#1157,10.);
#297=VECTOR('',#1158,10.);
#298=VECTOR('',#1161,10.);
#299=VECTOR('',#1162,10.);
#300=VECTOR('',#1163,10.);
#301=VECTOR('',#1166,10.);
#302=VECTOR('',#1167,10.);
#303=VECTOR('',#1168,10.);
#304=VECTOR('',#1171,10.);
#305=VECTOR('',#1172,10.);
#306=VECTOR('',#1173,10.);
#307=VECTOR('',#1176,10.);
#308=VECTOR('',#1177,10.);
#309=VECTOR('',#1178,10.);
#310=VECTOR('',#1181,10.);
#311=VECTOR('',#1182,10.);
#312=VECTOR('',#1183,10.);
#313=VECTOR('',#1186,10.);
#314=VECTOR('',#1187,10.);
#315=VECTOR('',#1188,10.);
#316=VECTOR('',#1191,10.);
#317=VECTOR('',#1192,10.);
#318=VECTOR('',#1193,10.);
#319=VECTOR('',#1196,10.);
#320=VECTOR('',#1197,10.);
#321=VECTOR('',#1198,10.);
#322=VECTOR('',#1201,10.);
#323=VECTOR('',#1202,10.);
#324=VECTOR('',#1203,10.);
#325=VECTOR('',#1206,10.);
#326=VECTOR('',#1207,10.);
#327=VECTOR('',#1208,10.);
#328=VECTOR('',#1211,10.);
#329=VECTOR('',#1212,10.);
#330=VECTOR('',#1213,10.);
#331=VECTOR('',#1216,10.);
#332=VECTOR('',#1217,10.);
#333=VECTOR('',#1218,10.);
#334=VECTOR('',#1221,10.);
#335=VECTOR('',#1222,10.);
#336=VECTOR('',#1223,10.);
#337=VECTOR('',#1226,10.);
#338=VECTOR('',#1227,10.);
#339=VECTOR('',#1228,10.);
#340=VECTOR('',#1231,10.);
#341=VECTOR('',#1232,10.);
#342=VECTOR('',#1233,10.);
#343=VECTOR('',#1236,10.);
#344=VECTOR('',#1237,10.);
#345=VECTOR('',#1238,10.);
#346=VECTOR('',#1241,10.);
#347=VECTOR('',#1242,10.);
#348=VECTOR('',#1243,10.);
#349=VECTOR('',#1246,10.);
#350=VECTOR('',#1247,10.);
#351=VECTOR('',#1248,10.);
#352=VECTOR('',#1251,10.);
#353=VECTOR('',#1252,10.);
#354=VECTOR('',#1253,10.);
#355=VECTOR('',#1256,10.);
#356=VECTOR('',#1257,10.);
#357=VECTOR('',#1258,10.);
#358=VECTOR('',#1261,10.);
#359=VECTOR('',#1262,10.);
#360=VECTOR('',#1263,10.);
#361=VECTOR('',#1266,10.);
#362=VECTOR('',#1267,10.);
#363=VECTOR('',#1268,10.);
#364=VECTOR('',#1271,10.);
#365=VECTOR('',#1272,10.);
#366=VECTOR('',#1273,10.);
#367=VECTOR('',#1276,10.);
#368=VECTOR('',#1277,10.);
#369=VECTOR('',#1278,10.);
#370=VECTOR('',#1281,10.);
#371=VECTOR('',#1282,10.);
#372=VECTOR('',#1283,10.);
#373=VECTOR('',#1286,10.);
#374=VECTOR('',#1287,10.);
#375=VECTOR('',#1288,10.);
#376=VECTOR('',#1291,10.);
#377=VECTOR('',#1292,10.);
#378=VECTOR('',#1293,10.);
#379=VECTOR('',#1296,10.);
#380=VECTOR('',#1297,10.);
#381=VECTOR('',#1298,10.);
#382=VECTOR('',#1301,10.);
#383=VECTOR('',#1302,10.);
#384=VECTOR('',#1303,10.);
#385=VECTOR('',#1306,10.);
#386=VECTOR('',#1307,10.);
#387=VECTOR('',#1308,10.);
#388=VECTOR('',#1311,10.);
#389=VECTOR('',#1312,10.);
#390=VECTOR('',#1313,10.);
#391=VECTOR('',#1316,10.);
#392=VECTOR('',#1317,10.);
#393=VECTOR('',#1318,10.);
#394=VECTOR('',#1325,10.);
#395=VECTOR('',#1328,10.);
#396=VECTOR('',#1329,10.);
#397=VECTOR('',#1330,10.);
#398=VECTOR('',#1333,10.);
#399=VECTOR('',#1334,10.);
#400=VECTOR('',#1335,10.);
#401=VECTOR('',#1338,10.);
#402=VECTOR('',#1339,10.);
#403=VECTOR('',#1340,10.);
#404=VERTEX_POINT('',#1353);
#405=VERTEX_POINT('',#1354);
#406=VERTEX_POINT('',#1356);
#407=VERTEX_POINT('',#1358);
#408=VERTEX_POINT('',#1362);
#409=VERTEX_POINT('',#1364);
#410=VERTEX_POINT('',#1368);
#411=VERTEX_POINT('',#1370);
#412=VERTEX_POINT('',#1377);
#413=VERTEX_POINT('',#1378);
#414=VERTEX_POINT('',#1380);
#415=VERTEX_POINT('',#1382);
#416=VERTEX_POINT('',#1386);
#417=VERTEX_POINT('',#1388);
#418=VERTEX_POINT('',#1392);
#419=VERTEX_POINT('',#1394);
#420=VERTEX_POINT('',#1398);
#421=VERTEX_POINT('',#1400);
#422=VERTEX_POINT('',#1404);
#423=VERTEX_POINT('',#1406);
#424=VERTEX_POINT('',#1410);
#425=VERTEX_POINT('',#1412);
#426=VERTEX_POINT('',#1416);
#427=VERTEX_POINT('',#1418);
#428=VERTEX_POINT('',#1422);
#429=VERTEX_POINT('',#1424);
#430=VERTEX_POINT('',#1428);
#431=VERTEX_POINT('',#1430);
#432=VERTEX_POINT('',#1434);
#433=VERTEX_POINT('',#1436);
#434=VERTEX_POINT('',#1440);
#435=VERTEX_POINT('',#1442);
#436=VERTEX_POINT('',#1446);
#437=VERTEX_POINT('',#1448);
#438=VERTEX_POINT('',#1452);
#439=VERTEX_POINT('',#1454);
#440=VERTEX_POINT('',#1458);
#441=VERTEX_POINT('',#1460);
#442=VERTEX_POINT('',#1464);
#443=VERTEX_POINT('',#1466);
#444=VERTEX_POINT('',#1470);
#445=VERTEX_POINT('',#1472);
#446=VERTEX_POINT('',#1476);
#447=VERTEX_POINT('',#1478);
#448=VERTEX_POINT('',#1482);
#449=VERTEX_POINT('',#1484);
#450=VERTEX_POINT('',#1488);
#451=VERTEX_POINT('',#1490);
#452=VERTEX_POINT('',#1494);
#453=VERTEX_POINT('',#1496);
#454=VERTEX_POINT('',#1500);
#455=VERTEX_POINT('',#1502);
#456=VERTEX_POINT('',#1506);
#457=VERTEX_POINT('',#1508);
#458=VERTEX_POINT('',#1512);
#459=VERTEX_POINT('',#1514);
#460=VERTEX_POINT('',#1518);
#461=VERTEX_POINT('',#1520);
#462=VERTEX_POINT('',#1524);
#463=VERTEX_POINT('',#1526);
#464=VERTEX_POINT('',#1530);
#465=VERTEX_POINT('',#1532);
#466=VERTEX_POINT('',#1536);
#467=VERTEX_POINT('',#1538);
#468=VERTEX_POINT('',#1542);
#469=VERTEX_POINT('',#1544);
#470=VERTEX_POINT('',#1548);
#471=VERTEX_POINT('',#1550);
#472=VERTEX_POINT('',#1554);
#473=VERTEX_POINT('',#1556);
#474=VERTEX_POINT('',#1560);
#475=VERTEX_POINT('',#1562);
#476=VERTEX_POINT('',#1566);
#477=VERTEX_POINT('',#1568);
#478=VERTEX_POINT('',#1572);
#479=VERTEX_POINT('',#1574);
#480=VERTEX_POINT('',#1578);
#481=VERTEX_POINT('',#1580);
#482=VERTEX_POINT('',#1584);
#483=VERTEX_POINT('',#1586);
#484=VERTEX_POINT('',#1590);
#485=VERTEX_POINT('',#1592);
#486=VERTEX_POINT('',#1596);
#487=VERTEX_POINT('',#1598);
#488=VERTEX_POINT('',#1602);
#489=VERTEX_POINT('',#1604);
#490=VERTEX_POINT('',#1608);
#491=VERTEX_POINT('',#1610);
#492=VERTEX_POINT('',#1614);
#493=VERTEX_POINT('',#1616);
#494=VERTEX_POINT('',#1620);
#495=VERTEX_POINT('',#1622);
#496=VERTEX_POINT('',#1626);
#497=VERTEX_POINT('',#1628);
#498=VERTEX_POINT('',#1632);
#499=VERTEX_POINT('',#1634);
#500=EDGE_CURVE('',#404,#405,#128,.T.);
#501=EDGE_CURVE('',#405,#406,#129,.T.);
#502=EDGE_CURVE('',#407,#406,#130,.T.);
#503=EDGE_CURVE('',#404,#407,#131,.T.);
#504=EDGE_CURVE('',#408,#404,#132,.T.);
#505=EDGE_CURVE('',#409,#407,#133,.T.);
#506=EDGE_CURVE('',#408,#409,#134,.T.);
#507=EDGE_CURVE('',#410,#408,#135,.T.);
#508=EDGE_CURVE('',#411,#409,#136,.T.);
#509=EDGE_CURVE('',#410,#411,#137,.T.);
#510=EDGE_CURVE('',#405,#410,#17,.T.);
#511=EDGE_CURVE('',#406,#411,#18,.T.);
#512=EDGE_CURVE('',#412,#413,#138,.T.);
#513=EDGE_CURVE('',#412,#414,#139,.T.);
#514=EDGE_CURVE('',#415,#414,#140,.T.);
#515=EDGE_CURVE('',#413,#415,#141,.T.);
#516=EDGE_CURVE('',#416,#413,#142,.T.);
#517=EDGE_CURVE('',#417,#415,#143,.T.);
#518=EDGE_CURVE('',#416,#417,#144,.T.);
#519=EDGE_CURVE('',#418,#416,#145,.T.);
#520=EDGE_CURVE('',#419,#417,#146,.T.);
#521=EDGE_CURVE('',#418,#419,#147,.T.);
#522=EDGE_CURVE('',#420,#418,#148,.T.);
#523=EDGE_CURVE('',#421,#419,#149,.T.);
#524=EDGE_CURVE('',#420,#421,#150,.T.);
#525=EDGE_CURVE('',#420,#422,#151,.T.);
#526=EDGE_CURVE('',#423,#421,#152,.T.);
#527=EDGE_CURVE('',#422,#423,#153,.T.);
#528=EDGE_CURVE('',#424,#422,#154,.T.);
#529=EDGE_CURVE('',#425,#423,#155,.T.);
#530=EDGE_CURVE('',#424,#425,#156,.T.);
#531=EDGE_CURVE('',#426,#424,#157,.T.);
#532=EDGE_CURVE('',#427,#425,#158,.T.);
#533=EDGE_CURVE('',#426,#427,#159,.T.);
#534=EDGE_CURVE('',#428,#426,#160,.T.);
#535=EDGE_CURVE('',#429,#427,#161,.T.);
#536=EDGE_CURVE('',#428,#429,#162,.T.);
#537=EDGE_CURVE('',#428,#430,#163,.T.);
#538=EDGE_CURVE('',#431,#429,#164,.T.);
#539=EDGE_CURVE('',#430,#431,#165,.T.);
#540=EDGE_CURVE('',#430,#432,#166,.T.);
#541=EDGE_CURVE('',#433,#431,#167,.T.);
#542=EDGE_CURVE('',#432,#433,#168,.T.);
#543=EDGE_CURVE('',#432,#434,#169,.T.);
#544=EDGE_CURVE('',#435,#433,#170,.T.);
#545=EDGE_CURVE('',#434,#435,#171,.T.);
#546=EDGE_CURVE('',#434,#436,#172,.T.);
#547=EDGE_CURVE('',#437,#435,#173,.T.);
#548=EDGE_CURVE('',#436,#437,#174,.T.);
#549=EDGE_CURVE('',#436,#438,#175,.T.);
#550=EDGE_CURVE('',#439,#437,#176,.T.);
#551=EDGE_CURVE('',#438,#439,#177,.T.);
#552=EDGE_CURVE('',#440,#438,#178,.T.);
#553=EDGE_CURVE('',#441,#439,#179,.T.);
#554=EDGE_CURVE('',#440,#441,#180,.T.);
#555=EDGE_CURVE('',#440,#442,#181,.T.);
#556=EDGE_CURVE('',#443,#441,#182,.T.);
#557=EDGE_CURVE('',#442,#443,#183,.T.);
#558=EDGE_CURVE('',#442,#444,#184,.T.);
#559=EDGE_CURVE('',#445,#443,#185,.T.);
#560=EDGE_CURVE('',#444,#445,#186,.T.);
#561=EDGE_CURVE('',#444,#446,#187,.T.);
#562=EDGE_CURVE('',#447,#445,#188,.T.);
#563=EDGE_CURVE('',#446,#447,#189,.T.);
#564=EDGE_CURVE('',#448,#446,#190,.T.);
#565=EDGE_CURVE('',#449,#447,#191,.T.);
#566=EDGE_CURVE('',#448,#449,#192,.T.);
#567=EDGE_CURVE('',#448,#450,#193,.T.);
#568=EDGE_CURVE('',#451,#449,#194,.T.);
#569=EDGE_CURVE('',#450,#451,#195,.T.);
#570=EDGE_CURVE('',#450,#452,#196,.T.);
#571=EDGE_CURVE('',#453,#451,#197,.T.);
#572=EDGE_CURVE('',#452,#453,#198,.T.);
#573=EDGE_CURVE('',#452,#454,#199,.T.);
#574=EDGE_CURVE('',#455,#453,#200,.T.);
#575=EDGE_CURVE('',#454,#455,#201,.T.);
#576=EDGE_CURVE('',#456,#454,#202,.T.);
#577=EDGE_CURVE('',#457,#455,#203,.T.);
#578=EDGE_CURVE('',#456,#457,#204,.T.);
#579=EDGE_CURVE('',#458,#456,#205,.T.);
#580=EDGE_CURVE('',#459,#457,#206,.T.);
#581=EDGE_CURVE('',#458,#459,#207,.T.);
#582=EDGE_CURVE('',#460,#458,#208,.T.);
#583=EDGE_CURVE('',#461,#459,#209,.T.);
#584=EDGE_CURVE('',#460,#461,#210,.T.);
#585=EDGE_CURVE('',#462,#460,#211,.T.);
#586=EDGE_CURVE('',#463,#461,#212,.T.);
#587=EDGE_CURVE('',#462,#463,#213,.T.);
#588=EDGE_CURVE('',#464,#462,#214,.T.);
#589=EDGE_CURVE('',#465,#463,#215,.T.);
#590=EDGE_CURVE('',#464,#465,#216,.T.);
#591=EDGE_CURVE('',#464,#466,#217,.T.);
#592=EDGE_CURVE('',#467,#465,#218,.T.);
#593=EDGE_CURVE('',#466,#467,#219,.T.);
#594=EDGE_CURVE('',#468,#466,#220,.T.);
#595=EDGE_CURVE('',#469,#467,#221,.T.);
#596=EDGE_CURVE('',#468,#469,#222,.T.);
#597=EDGE_CURVE('',#470,#468,#223,.T.);
#598=EDGE_CURVE('',#471,#469,#224,.T.);
#599=EDGE_CURVE('',#470,#471,#225,.T.);
#600=EDGE_CURVE('',#472,#470,#226,.T.);
#601=EDGE_CURVE('',#473,#471,#227,.T.);
#602=EDGE_CURVE('',#472,#473,#228,.T.);
#603=EDGE_CURVE('',#472,#474,#229,.T.);
#604=EDGE_CURVE('',#475,#473,#230,.T.);
#605=EDGE_CURVE('',#474,#475,#231,.T.);
#606=EDGE_CURVE('',#474,#476,#232,.T.);
#607=EDGE_CURVE('',#477,#475,#233,.T.);
#608=EDGE_CURVE('',#476,#477,#234,.T.);
#609=EDGE_CURVE('',#476,#478,#235,.T.);
#610=EDGE_CURVE('',#479,#477,#236,.T.);
#611=EDGE_CURVE('',#478,#479,#237,.T.);
#612=EDGE_CURVE('',#478,#480,#238,.T.);
#613=EDGE_CURVE('',#481,#479,#239,.T.);
#614=EDGE_CURVE('',#480,#481,#240,.T.);
#615=EDGE_CURVE('',#480,#482,#241,.T.);
#616=EDGE_CURVE('',#483,#481,#242,.T.);
#617=EDGE_CURVE('',#482,#483,#243,.T.);
#618=EDGE_CURVE('',#484,#482,#244,.T.);
#619=EDGE_CURVE('',#485,#483,#245,.T.);
#620=EDGE_CURVE('',#484,#485,#246,.T.);
#621=EDGE_CURVE('',#486,#484,#247,.T.);
#622=EDGE_CURVE('',#487,#485,#248,.T.);
#623=EDGE_CURVE('',#486,#487,#249,.T.);
#624=EDGE_CURVE('',#488,#486,#250,.T.);
#625=EDGE_CURVE('',#489,#487,#251,.T.);
#626=EDGE_CURVE('',#488,#489,#252,.T.);
#627=EDGE_CURVE('',#488,#490,#253,.T.);
#628=EDGE_CURVE('',#491,#489,#254,.T.);
#629=EDGE_CURVE('',#490,#491,#255,.T.);
#630=EDGE_CURVE('',#492,#490,#19,.T.);
#631=EDGE_CURVE('',#493,#491,#20,.T.);
#632=EDGE_CURVE('',#492,#493,#256,.T.);
#633=EDGE_CURVE('',#494,#492,#257,.T.);
#634=EDGE_CURVE('',#495,#493,#258,.T.);
#635=EDGE_CURVE('',#494,#495,#259,.T.);
#636=EDGE_CURVE('',#496,#494,#260,.T.);
#637=EDGE_CURVE('',#497,#495,#261,.T.);
#638=EDGE_CURVE('',#496,#497,#262,.T.);
#639=EDGE_CURVE('',#498,#496,#263,.T.);
#640=EDGE_CURVE('',#499,#497,#264,.T.);
#641=EDGE_CURVE('',#498,#499,#265,.T.);
#642=EDGE_CURVE('',#412,#498,#21,.T.);
#643=EDGE_CURVE('',#414,#499,#22,.T.);
#644=ORIENTED_EDGE('',*,*,#500,.T.);
#645=ORIENTED_EDGE('',*,*,#501,.T.);
#646=ORIENTED_EDGE('',*,*,#502,.F.);
#647=ORIENTED_EDGE('',*,*,#503,.F.);
#648=ORIENTED_EDGE('',*,*,#504,.T.);
#649=ORIENTED_EDGE('',*,*,#503,.T.);
#650=ORIENTED_EDGE('',*,*,#505,.F.);
#651=ORIENTED_EDGE('',*,*,#506,.F.);
#652=ORIENTED_EDGE('',*,*,#507,.T.);
#653=ORIENTED_EDGE('',*,*,#506,.T.);
#654=ORIENTED_EDGE('',*,*,#508,.F.);
#655=ORIENTED_EDGE('',*,*,#509,.F.);
#656=ORIENTED_EDGE('',*,*,#510,.T.);
#657=ORIENTED_EDGE('',*,*,#509,.T.);
#658=ORIENTED_EDGE('',*,*,#511,.F.);
#659=ORIENTED_EDGE('',*,*,#501,.F.);
#660=ORIENTED_EDGE('',*,*,#512,.F.);
#661=ORIENTED_EDGE('',*,*,#513,.T.);
#662=ORIENTED_EDGE('',*,*,#514,.F.);
#663=ORIENTED_EDGE('',*,*,#515,.F.);
#664=ORIENTED_EDGE('',*,*,#516,.T.);
#665=ORIENTED_EDGE('',*,*,#515,.T.);
#666=ORIENTED_EDGE('',*,*,#517,.F.);
#667=ORIENTED_EDGE('',*,*,#518,.F.);
#668=ORIENTED_EDGE('',*,*,#519,.T.);
#669=ORIENTED_EDGE('',*,*,#518,.T.);
#670=ORIENTED_EDGE('',*,*,#520,.F.);
#671=ORIENTED_EDGE('',*,*,#521,.F.);
#672=ORIENTED_EDGE('',*,*,#522,.T.);
#673=ORIENTED_EDGE('',*,*,#521,.T.);
#674=ORIENTED_EDGE('',*,*,#523,.F.);
#675=ORIENTED_EDGE('',*,*,#524,.F.);
#676=ORIENTED_EDGE('',*,*,#525,.F.);
#677=ORIENTED_EDGE('',*,*,#524,.T.);
#678=ORIENTED_EDGE('',*,*,#526,.F.);
#679=ORIENTED_EDGE('',*,*,#527,.F.);
#680=ORIENTED_EDGE('',*,*,#528,.T.);
#681=ORIENTED_EDGE('',*,*,#527,.T.);
#682=ORIENTED_EDGE('',*,*,#529,.F.);
#683=ORIENTED_EDGE('',*,*,#530,.F.);
#684=ORIENTED_EDGE('',*,*,#531,.T.);
#685=ORIENTED_EDGE('',*,*,#530,.T.);
#686=ORIENTED_EDGE('',*,*,#532,.F.);
#687=ORIENTED_EDGE('',*,*,#533,.F.);
#688=ORIENTED_EDGE('',*,*,#534,.T.);
#689=ORIENTED_EDGE('',*,*,#533,.T.);
#690=ORIENTED_EDGE('',*,*,#535,.F.);
#691=ORIENTED_EDGE('',*,*,#536,.F.);
#692=ORIENTED_EDGE('',*,*,#537,.F.);
#693=ORIENTED_EDGE('',*,*,#536,.T.);
#694=ORIENTED_EDGE('',*,*,#538,.F.);
#695=ORIENTED_EDGE('',*,*,#539,.F.);
#696=ORIENTED_EDGE('',*,*,#540,.F.);
#697=ORIENTED_EDGE('',*,*,#539,.T.);
#698=ORIENTED_EDGE('',*,*,#541,.F.);
#699=ORIENTED_EDGE('',*,*,#542,.F.);
#700=ORIENTED_EDGE('',*,*,#543,.F.);
#701=ORIENTED_EDGE('',*,*,#542,.T.);
#702=ORIENTED_EDGE('',*,*,#544,.F.);
#703=ORIENTED_EDGE('',*,*,#545,.F.);
#704=ORIENTED_EDGE('',*,*,#546,.F.);
#705=ORIENTED_EDGE('',*,*,#545,.T.);
#706=ORIENTED_EDGE('',*,*,#547,.F.);
#707=ORIENTED_EDGE('',*,*,#548,.F.);
#708=ORIENTED_EDGE('',*,*,#549,.F.);
#709=ORIENTED_EDGE('',*,*,#548,.T.);
#710=ORIENTED_EDGE('',*,*,#550,.F.);
#711=ORIENTED_EDGE('',*,*,#551,.F.);
#712=ORIENTED_EDGE('',*,*,#552,.T.);
#713=ORIENTED_EDGE('',*,*,#551,.T.);
#714=ORIENTED_EDGE('',*,*,#553,.F.);
#715=ORIENTED_EDGE('',*,*,#554,.F.);
#716=ORIENTED_EDGE('',*,*,#555,.F.);
#717=ORIENTED_EDGE('',*,*,#554,.T.);
#718=ORIENTED_EDGE('',*,*,#556,.F.);
#719=ORIENTED_EDGE('',*,*,#557,.F.);
#720=ORIENTED_EDGE('',*,*,#558,.F.);
#721=ORIENTED_EDGE('',*,*,#557,.T.);
#722=ORIENTED_EDGE('',*,*,#559,.F.);
#723=ORIENTED_EDGE('',*,*,#560,.F.);
#724=ORIENTED_EDGE('',*,*,#561,.F.);
#725=ORIENTED_EDGE('',*,*,#560,.T.);
#726=ORIENTED_EDGE('',*,*,#562,.F.);
#727=ORIENTED_EDGE('',*,*,#563,.F.);
#728=ORIENTED_EDGE('',*,*,#564,.T.);
#729=ORIENTED_EDGE('',*,*,#563,.T.);
#730=ORIENTED_EDGE('',*,*,#565,.F.);
#731=ORIENTED_EDGE('',*,*,#566,.F.);
#732=ORIENTED_EDGE('',*,*,#567,.F.);
#733=ORIENTED_EDGE('',*,*,#566,.T.);
#734=ORIENTED_EDGE('',*,*,#568,.F.);
#735=ORIENTED_EDGE('',*,*,#569,.F.);
#736=ORIENTED_EDGE('',*,*,#570,.F.);
#737=ORIENTED_EDGE('',*,*,#569,.T.);
#738=ORIENTED_EDGE('',*,*,#571,.F.);
#739=ORIENTED_EDGE('',*,*,#572,.F.);
#740=ORIENTED_EDGE('',*,*,#573,.F.);
#741=ORIENTED_EDGE('',*,*,#572,.T.);
#742=ORIENTED_EDGE('',*,*,#574,.F.);
#743=ORIENTED_EDGE('',*,*,#575,.F.);
#744=ORIENTED_EDGE('',*,*,#576,.T.);
#745=ORIENTED_EDGE('',*,*,#575,.T.);
#746=ORIENTED_EDGE('',*,*,#577,.F.);
#747=ORIENTED_EDGE('',*,*,#578,.F.);
#748=ORIENTED_EDGE('',*,*,#579,.T.);
#749=ORIENTED_EDGE('',*,*,#578,.T.);
#750=ORIENTED_EDGE('',*,*,#580,.F.);
#751=ORIENTED_EDGE('',*,*,#581,.F.);
#752=ORIENTED_EDGE('',*,*,#582,.T.);
#753=ORIENTED_EDGE('',*,*,#581,.T.);
#754=ORIENTED_EDGE('',*,*,#583,.F.);
#755=ORIENTED_EDGE('',*,*,#584,.F.);
#756=ORIENTED_EDGE('',*,*,#585,.T.);
#757=ORIENTED_EDGE('',*,*,#584,.T.);
#758=ORIENTED_EDGE('',*,*,#586,.F.);
#759=ORIENTED_EDGE('',*,*,#587,.F.);
#760=ORIENTED_EDGE('',*,*,#588,.T.);
#761=ORIENTED_EDGE('',*,*,#587,.T.);
#762=ORIENTED_EDGE('',*,*,#589,.F.);
#763=ORIENTED_EDGE('',*,*,#590,.F.);
#764=ORIENTED_EDGE('',*,*,#591,.F.);
#765=ORIENTED_EDGE('',*,*,#590,.T.);
#766=ORIENTED_EDGE('',*,*,#592,.F.);
#767=ORIENTED_EDGE('',*,*,#593,.F.);
#768=ORIENTED_EDGE('',*,*,#594,.T.);
#769=ORIENTED_EDGE('',*,*,#593,.T.);
#770=ORIENTED_EDGE('',*,*,#595,.F.);
#771=ORIENTED_EDGE('',*,*,#596,.F.);
#772=ORIENTED_EDGE('',*,*,#597,.T.);
#773=ORIENTED_EDGE('',*,*,#596,.T.);
#774=ORIENTED_EDGE('',*,*,#598,.F.);
#775=ORIENTED_EDGE('',*,*,#599,.F.);
#776=ORIENTED_EDGE('',*,*,#600,.T.);
#777=ORIENTED_EDGE('',*,*,#599,.T.);
#778=ORIENTED_EDGE('',*,*,#601,.F.);
#779=ORIENTED_EDGE('',*,*,#602,.F.);
#780=ORIENTED_EDGE('',*,*,#603,.F.);
#781=ORIENTED_EDGE('',*,*,#602,.T.);
#782=ORIENTED_EDGE('',*,*,#604,.F.);
#783=ORIENTED_EDGE('',*,*,#605,.F.);
#784=ORIENTED_EDGE('',*,*,#606,.F.);
#785=ORIENTED_EDGE('',*,*,#605,.T.);
#786=ORIENTED_EDGE('',*,*,#607,.F.);
#787=ORIENTED_EDGE('',*,*,#608,.F.);
#788=ORIENTED_EDGE('',*,*,#609,.F.);
#789=ORIENTED_EDGE('',*,*,#608,.T.);
#790=ORIENTED_EDGE('',*,*,#610,.F.);
#791=ORIENTED_EDGE('',*,*,#611,.F.);
#792=ORIENTED_EDGE('',*,*,#612,.F.);
#793=ORIENTED_EDGE('',*,*,#611,.T.);
#794=ORIENTED_EDGE('',*,*,#613,.F.);
#795=ORIENTED_EDGE('',*,*,#614,.F.);
#796=ORIENTED_EDGE('',*,*,#615,.F.);
#797=ORIENTED_EDGE('',*,*,#614,.T.);
#798=ORIENTED_EDGE('',*,*,#616,.F.);
#799=ORIENTED_EDGE('',*,*,#617,.F.);
#800=ORIENTED_EDGE('',*,*,#618,.T.);
#801=ORIENTED_EDGE('',*,*,#617,.T.);
#802=ORIENTED_EDGE('',*,*,#619,.F.);
#803=ORIENTED_EDGE('',*,*,#620,.F.);
#804=ORIENTED_EDGE('',*,*,#621,.T.);
#805=ORIENTED_EDGE('',*,*,#620,.T.);
#806=ORIENTED_EDGE('',*,*,#622,.F.);
#807=ORIENTED_EDGE('',*,*,#623,.F.);
#808=ORIENTED_EDGE('',*,*,#624,.T.);
#809=ORIENTED_EDGE('',*,*,#623,.T.);
#810=ORIENTED_EDGE('',*,*,#625,.F.);
#811=ORIENTED_EDGE('',*,*,#626,.F.);
#812=ORIENTED_EDGE('',*,*,#627,.F.);
#813=ORIENTED_EDGE('',*,*,#626,.T.);
#814=ORIENTED_EDGE('',*,*,#628,.F.);
#815=ORIENTED_EDGE('',*,*,#629,.F.);
#816=ORIENTED_EDGE('',*,*,#630,.T.);
#817=ORIENTED_EDGE('',*,*,#629,.T.);
#818=ORIENTED_EDGE('',*,*,#631,.F.);
#819=ORIENTED_EDGE('',*,*,#632,.F.);
#820=ORIENTED_EDGE('',*,*,#633,.T.);
#821=ORIENTED_EDGE('',*,*,#632,.T.);
#822=ORIENTED_EDGE('',*,*,#634,.F.);
#823=ORIENTED_EDGE('',*,*,#635,.F.);
#824=ORIENTED_EDGE('',*,*,#636,.T.);
#825=ORIENTED_EDGE('',*,*,#635,.T.);
#826=ORIENTED_EDGE('',*,*,#637,.F.);
#827=ORIENTED_EDGE('',*,*,#638,.F.);
#828=ORIENTED_EDGE('',*,*,#639,.T.);
#829=ORIENTED_EDGE('',*,*,#638,.T.);
#830=ORIENTED_EDGE('',*,*,#640,.F.);
#831=ORIENTED_EDGE('',*,*,#641,.F.);
#832=ORIENTED_EDGE('',*,*,#642,.T.);
#833=ORIENTED_EDGE('',*,*,#641,.T.);
#834=ORIENTED_EDGE('',*,*,#643,.F.);
#835=ORIENTED_EDGE('',*,*,#513,.F.);
#836=ORIENTED_EDGE('',*,*,#643,.T.);
#837=ORIENTED_EDGE('',*,*,#640,.T.);
#838=ORIENTED_EDGE('',*,*,#637,.T.);
#839=ORIENTED_EDGE('',*,*,#634,.T.);
#840=ORIENTED_EDGE('',*,*,#631,.T.);
#841=ORIENTED_EDGE('',*,*,#628,.T.);
#842=ORIENTED_EDGE('',*,*,#625,.T.);
#843=ORIENTED_EDGE('',*,*,#622,.T.);
#844=ORIENTED_EDGE('',*,*,#619,.T.);
#845=ORIENTED_EDGE('',*,*,#616,.T.);
#846=ORIENTED_EDGE('',*,*,#613,.T.);
#847=ORIENTED_EDGE('',*,*,#610,.T.);
#848=ORIENTED_EDGE('',*,*,#607,.T.);
#849=ORIENTED_EDGE('',*,*,#604,.T.);
#850=ORIENTED_EDGE('',*,*,#601,.T.);
#851=ORIENTED_EDGE('',*,*,#598,.T.);
#852=ORIENTED_EDGE('',*,*,#595,.T.);
#853=ORIENTED_EDGE('',*,*,#592,.T.);
#854=ORIENTED_EDGE('',*,*,#589,.T.);
#855=ORIENTED_EDGE('',*,*,#586,.T.);
#856=ORIENTED_EDGE('',*,*,#583,.T.);
#857=ORIENTED_EDGE('',*,*,#580,.T.);
#858=ORIENTED_EDGE('',*,*,#577,.T.);
#859=ORIENTED_EDGE('',*,*,#574,.T.);
#860=ORIENTED_EDGE('',*,*,#571,.T.);
#861=ORIENTED_EDGE('',*,*,#568,.T.);
#862=ORIENTED_EDGE('',*,*,#565,.T.);
#863=ORIENTED_EDGE('',*,*,#562,.T.);
#864=ORIENTED_EDGE('',*,*,#559,.T.);
#865=ORIENTED_EDGE('',*,*,#556,.T.);
#866=ORIENTED_EDGE('',*,*,#553,.T.);
#867=ORIENTED_EDGE('',*,*,#550,.T.);
#868=ORIENTED_EDGE('',*,*,#547,.T.);
#869=ORIENTED_EDGE('',*,*,#544,.T.);
#870=ORIENTED_EDGE('',*,*,#541,.T.);
#871=ORIENTED_EDGE('',*,*,#538,.T.);
#872=ORIENTED_EDGE('',*,*,#535,.T.);
#873=ORIENTED_EDGE('',*,*,#532,.T.);
#874=ORIENTED_EDGE('',*,*,#529,.T.);
#875=ORIENTED_EDGE('',*,*,#526,.T.);
#876=ORIENTED_EDGE('',*,*,#523,.T.);
#877=ORIENTED_EDGE('',*,*,#520,.T.);
#878=ORIENTED_EDGE('',*,*,#517,.T.);
#879=ORIENTED_EDGE('',*,*,#514,.T.);
#880=ORIENTED_EDGE('',*,*,#511,.T.);
#881=ORIENTED_EDGE('',*,*,#508,.T.);
#882=ORIENTED_EDGE('',*,*,#505,.T.);
#883=ORIENTED_EDGE('',*,*,#502,.T.);
#884=ORIENTED_EDGE('',*,*,#642,.F.);
#885=ORIENTED_EDGE('',*,*,#512,.T.);
#886=ORIENTED_EDGE('',*,*,#516,.F.);
#887=ORIENTED_EDGE('',*,*,#519,.F.);
#888=ORIENTED_EDGE('',*,*,#522,.F.);
#889=ORIENTED_EDGE('',*,*,#525,.T.);
#890=ORIENTED_EDGE('',*,*,#528,.F.);
#891=ORIENTED_EDGE('',*,*,#531,.F.);
#892=ORIENTED_EDGE('',*,*,#534,.F.);
#893=ORIENTED_EDGE('',*,*,#537,.T.);
#894=ORIENTED_EDGE('',*,*,#540,.T.);
#895=ORIENTED_EDGE('',*,*,#543,.T.);
#896=ORIENTED_EDGE('',*,*,#546,.T.);
#897=ORIENTED_EDGE('',*,*,#549,.T.);
#898=ORIENTED_EDGE('',*,*,#552,.F.);
#899=ORIENTED_EDGE('',*,*,#555,.T.);
#900=ORIENTED_EDGE('',*,*,#558,.T.);
#901=ORIENTED_EDGE('',*,*,#561,.T.);
#902=ORIENTED_EDGE('',*,*,#564,.F.);
#903=ORIENTED_EDGE('',*,*,#567,.T.);
#904=ORIENTED_EDGE('',*,*,#570,.T.);
#905=ORIENTED_EDGE('',*,*,#573,.T.);
#906=ORIENTED_EDGE('',*,*,#576,.F.);
#907=ORIENTED_EDGE('',*,*,#579,.F.);
#908=ORIENTED_EDGE('',*,*,#582,.F.);
#909=ORIENTED_EDGE('',*,*,#585,.F.);
#910=ORIENTED_EDGE('',*,*,#588,.F.);
#911=ORIENTED_EDGE('',*,*,#591,.T.);
#912=ORIENTED_EDGE('',*,*,#594,.F.);
#913=ORIENTED_EDGE('',*,*,#597,.F.);
#914=ORIENTED_EDGE('',*,*,#600,.F.);
#915=ORIENTED_EDGE('',*,*,#603,.T.);
#916=ORIENTED_EDGE('',*,*,#606,.T.);
#917=ORIENTED_EDGE('',*,*,#609,.T.);
#918=ORIENTED_EDGE('',*,*,#612,.T.);
#919=ORIENTED_EDGE('',*,*,#615,.T.);
#920=ORIENTED_EDGE('',*,*,#618,.F.);
#921=ORIENTED_EDGE('',*,*,#621,.F.);
#922=ORIENTED_EDGE('',*,*,#624,.F.);
#923=ORIENTED_EDGE('',*,*,#627,.T.);
#924=ORIENTED_EDGE('',*,*,#630,.F.);
#925=ORIENTED_EDGE('',*,*,#633,.F.);
#926=ORIENTED_EDGE('',*,*,#636,.F.);
#927=ORIENTED_EDGE('',*,*,#639,.F.);
#928=ORIENTED_EDGE('',*,*,#510,.F.);
#929=ORIENTED_EDGE('',*,*,#500,.F.);
#930=ORIENTED_EDGE('',*,*,#504,.F.);
#931=ORIENTED_EDGE('',*,*,#507,.F.);
#932=PLANE('',#1043);
#933=PLANE('',#1044);
#934=PLANE('',#1045);
#935=PLANE('',#1049);
#936=PLANE('',#1050);
#937=PLANE('',#1051);
#938=PLANE('',#1052);
#939=PLANE('',#1053);
#940=PLANE('',#1054);
#941=PLANE('',#1055);
#942=PLANE('',#1056);
#943=PLANE('',#1057);
#944=PLANE('',#1058);
#945=PLANE('',#1059);
#946=PLANE('',#1060);
#947=PLANE('',#1061);
#948=PLANE('',#1062);
#949=PLANE('',#1063);
#950=PLANE('',#1064);
#951=PLANE('',#1065);
#952=PLANE('',#1066);
#953=PLANE('',#1067);
#954=PLANE('',#1068);
#955=PLANE('',#1069);
#956=PLANE('',#1070);
#957=PLANE('',#1071);
#958=PLANE('',#1072);
#959=PLANE('',#1073);
#960=PLANE('',#1074);
#961=PLANE('',#1075);
#962=PLANE('',#1076);
#963=PLANE('',#1077);
#964=PLANE('',#1078);
#965=PLANE('',#1079);
#966=PLANE('',#1080);
#967=PLANE('',#1081);
#968=PLANE('',#1082);
#969=PLANE('',#1083);
#970=PLANE('',#1084);
#971=PLANE('',#1085);
#972=PLANE('',#1086);
#973=PLANE('',#1087);
#974=PLANE('',#1091);
#975=PLANE('',#1092);
#976=PLANE('',#1093);
#977=PLANE('',#1097);
#978=PLANE('',#1098);
#979=ADVANCED_FACE('',(#26),#932,.T.);
#980=ADVANCED_FACE('',(#27),#933,.T.);
#981=ADVANCED_FACE('',(#28),#934,.T.);
#982=ADVANCED_FACE('',(#29),#23,.F.);
#983=ADVANCED_FACE('',(#30),#935,.T.);
#984=ADVANCED_FACE('',(#31),#936,.T.);
#985=ADVANCED_FACE('',(#32),#937,.T.);
#986=ADVANCED_FACE('',(#33),#938,.T.);
#987=ADVANCED_FACE('',(#34),#939,.T.);
#988=ADVANCED_FACE('',(#35),#940,.T.);
#989=ADVANCED_FACE('',(#36),#941,.T.);
#990=ADVANCED_FACE('',(#37),#942,.T.);
#991=ADVANCED_FACE('',(#38),#943,.T.);
#992=ADVANCED_FACE('',(#39),#944,.T.);
#993=ADVANCED_FACE('',(#40),#945,.T.);
#994=ADVANCED_FACE('',(#41),#946,.T.);
#995=ADVANCED_FACE('',(#42),#947,.T.);
#996=ADVANCED_FACE('',(#43),#948,.T.);
#997=ADVANCED_FACE('',(#44),#949,.T.);
#998=ADVANCED_FACE('',(#45),#950,.T.);
#999=ADVANCED_FACE('',(#46),#951,.T.);
#1000=ADVANCED_FACE('',(#47),#952,.T.);
#1001=ADVANCED_FACE('',(#48),#953,.T.);
#1002=ADVANCED_FACE('',(#49),#954,.T.);
#1003=ADVANCED_FACE('',(#50),#955,.T.);
#1004=ADVANCED_FACE('',(#51),#956,.T.);
#1005=ADVANCED_FACE('',(#52),#957,.T.);
#1006=ADVANCED_FACE('',(#53),#958,.T.);
#1007=ADVANCED_FACE('',(#54),#959,.T.);
#1008=ADVANCED_FACE('',(#55),#960,.T.);
#1009=ADVANCED_FACE('',(#56),#961,.T.);
#1010=ADVANCED_FACE('',(#57),#962,.T.);
#1011=ADVANCED_FACE('',(#58),#963,.T.);
#1012=ADVANCED_FACE('',(#59),#964,.T.);
#1013=ADVANCED_FACE('',(#60),#965,.T.);
#1014=ADVANCED_FACE('',(#61),#966,.T.);
#1015=ADVANCED_FACE('',(#62),#967,.T.);
#1016=ADVANCED_FACE('',(#63),#968,.T.);
#1017=ADVANCED_FACE('',(#64),#969,.T.);
#1018=ADVANCED_FACE('',(#65),#970,.T.);
#1019=ADVANCED_FACE('',(#66),#971,.T.);
#1020=ADVANCED_FACE('',(#67),#972,.T.);
#1021=ADVANCED_FACE('',(#68),#973,.T.);
#1022=ADVANCED_FACE('',(#69),#24,.T.);
#1023=ADVANCED_FACE('',(#70),#974,.T.);
#1024=ADVANCED_FACE('',(#71),#975,.T.);
#1025=ADVANCED_FACE('',(#72),#976,.T.);
#1026=ADVANCED_FACE('',(#73),#25,.T.);
#1027=ADVANCED_FACE('',(#74,#15),#977,.T.);
#1028=ADVANCED_FACE('',(#75,#16),#978,.F.);
#1029=CLOSED_SHELL('',(#979,#980,#981,#982,#983,#984,#985,#986,#987,#988,
#989,#990,#991,#992,#993,#994,#995,#996,#997,#998,#999,#1000,#1001,#1002,
#1003,#1004,#1005,#1006,#1007,#1008,#1009,#1010,#1011,#1012,#1013,#1014,
#1015,#1016,#1017,#1018,#1019,#1020,#1021,#1022,#1023,#1024,#1025,#1026,
#1027,#1028));
#1030=DERIVED_UNIT_ELEMENT(#1032,1.);
#1031=DERIVED_UNIT_ELEMENT(#1647,-3.);
#1032=(
MASS_UNIT()
NAMED_UNIT(*)
SI_UNIT(.KILO.,.GRAM.)
);
#1033=DERIVED_UNIT((#1030,#1031));
#1034=MEASURE_REPRESENTATION_ITEM('density measure',
POSITIVE_RATIO_MEASURE(7850.),#1033);
#1035=PROPERTY_DEFINITION_REPRESENTATION(#1040,#1037);
#1036=PROPERTY_DEFINITION_REPRESENTATION(#1041,#1038);
#1037=REPRESENTATION('material name',(#1039),#1644);
#1038=REPRESENTATION('density',(#1034),#1644);
#1039=DESCRIPTIVE_REPRESENTATION_ITEM('Steel','Steel');
#1040=PROPERTY_DEFINITION('material property','material name',#1654);
#1041=PROPERTY_DEFINITION('material property','density of part',#1654);
#1042=AXIS2_PLACEMENT_3D('',#1351,#1099,#1100);
#1043=AXIS2_PLACEMENT_3D('',#1352,#1101,#1102);
#1044=AXIS2_PLACEMENT_3D('',#1361,#1107,#1108);
#1045=AXIS2_PLACEMENT_3D('',#1367,#1112,#1113);
#1046=AXIS2_PLACEMENT_3D('',#1373,#1117,#1118);
#1047=AXIS2_PLACEMENT_3D('',#1374,#1119,#1120);
#1048=AXIS2_PLACEMENT_3D('',#1375,#1121,#1122);
#1049=AXIS2_PLACEMENT_3D('',#1376,#1123,#1124);
#1050=AXIS2_PLACEMENT_3D('',#1385,#1129,#1130);
#1051=AXIS2_PLACEMENT_3D('',#1391,#1134,#1135);
#1052=AXIS2_PLACEMENT_3D('',#1397,#1139,#1140);
#1053=AXIS2_PLACEMENT_3D('',#1403,#1144,#1145);
#1054=AXIS2_PLACEMENT_3D('',#1409,#1149,#1150);
#1055=AXIS2_PLACEMENT_3D('',#1415,#1154,#1155);
#1056=AXIS2_PLACEMENT_3D('',#1421,#1159,#1160);
#1057=AXIS2_PLACEMENT_3D('',#1427,#1164,#1165);
#1058=AXIS2_PLACEMENT_3D('',#1433,#1169,#1170);
#1059=AXIS2_PLACEMENT_3D('',#1439,#1174,#1175);
#1060=AXIS2_PLACEMENT_3D('',#1445,#1179,#1180);
#1061=AXIS2_PLACEMENT_3D('',#1451,#1184,#1185);
#1062=AXIS2_PLACEMENT_3D('',#1457,#1189,#1190);
#1063=AXIS2_PLACEMENT_3D('',#1463,#1194,#1195);
#1064=AXIS2_PLACEMENT_3D('',#1469,#1199,#1200);
#1065=AXIS2_PLACEMENT_3D('',#1475,#1204,#1205);
#1066=AXIS2_PLACEMENT_3D('',#1481,#1209,#1210);
#1067=AXIS2_PLACEMENT_3D('',#1487,#1214,#1215);
#1068=AXIS2_PLACEMENT_3D('',#1493,#1219,#1220);
#1069=AXIS2_PLACEMENT_3D('',#1499,#1224,#1225);
#1070=AXIS2_PLACEMENT_3D('',#1505,#1229,#1230);
#1071=AXIS2_PLACEMENT_3D('',#1511,#1234,#1235);
#1072=AXIS2_PLACEMENT_3D('',#1517,#1239,#1240);
#1073=AXIS2_PLACEMENT_3D('',#1523,#1244,#1245);
#1074=AXIS2_PLACEMENT_3D('',#1529,#1249,#1250);
#1075=AXIS2_PLACEMENT_3D('',#1535,#1254,#1255);
#1076=AXIS2_PLACEMENT_3D('',#1541,#1259,#1260);
#1077=AXIS2_PLACEMENT_3D('',#1547,#1264,#1265);
#1078=AXIS2_PLACEMENT_3D('',#1553,#1269,#1270);
#1079=AXIS2_PLACEMENT_3D('',#1559,#1274,#1275);
#1080=AXIS2_PLACEMENT_3D('',#1565,#1279,#1280);
#1081=AXIS2_PLACEMENT_3D('',#1571,#1284,#1285);
#1082=AXIS2_PLACEMENT_3D('',#1577,#1289,#1290);
#1083=AXIS2_PLACEMENT_3D('',#1583,#1294,#1295);
#1084=AXIS2_PLACEMENT_3D('',#1589,#1299,#1300);
#1085=AXIS2_PLACEMENT_3D('',#1595,#1304,#1305);
#1086=AXIS2_PLACEMENT_3D('',#1601,#1309,#1310);
#1087=AXIS2_PLACEMENT_3D('',#1607,#1314,#1315);
#1088=AXIS2_PLACEMENT_3D('',#1613,#1319,#1320);
#1089=AXIS2_PLACEMENT_3D('',#1615,#1321,#1322);
#1090=AXIS2_PLACEMENT_3D('',#1617,#1323,#1324);
#1091=AXIS2_PLACEMENT_3D('',#1619,#1326,#1327);
#1092=AXIS2_PLACEMENT_3D('',#1625,#1331,#1332);
#1093=AXIS2_PLACEMENT_3D('',#1631,#1336,#1337);
#1094=AXIS2_PLACEMENT_3D('',#1637,#1341,#1342);
#1095=AXIS2_PLACEMENT_3D('',#1638,#1343,#1344);
#1096=AXIS2_PLACEMENT_3D('',#1639,#1345,#1346);
#1097=AXIS2_PLACEMENT_3D('',#1640,#1347,#1348);
#1098=AXIS2_PLACEMENT_3D('',#1641,#1349,#1350);
#1099=DIRECTION('axis',(0.,0.,1.));
#1100=DIRECTION('refdir',(1.,0.,0.));
#1101=DIRECTION('center_axis',(-1.,0.,0.));
#1102=DIRECTION('ref_axis',(0.,-1.80411241501588E-16,-1.));
#1103=DIRECTION('',(0.,-1.80411241501588E-16,-1.));
#1104=DIRECTION('',(0.,-1.,0.));
#1105=DIRECTION('',(0.,-1.80411241501588E-16,-1.));
#1106=DIRECTION('',(0.,-1.,0.));
#1107=DIRECTION('center_axis',(0.,0.,1.));
#1108=DIRECTION('ref_axis',(-1.,0.,0.));
#1109=DIRECTION('',(-1.,0.,0.));
#1110=DIRECTION('',(-1.,0.,0.));
#1111=DIRECTION('',(0.,-1.,0.));
#1112=DIRECTION('center_axis',(1.,0.,0.));
#1113=DIRECTION('ref_axis',(0.,1.80411241501588E-16,1.));
#1114=DIRECTION('',(0.,1.80411241501588E-16,1.));
#1115=DIRECTION('',(0.,1.80411241501588E-16,1.));
#1116=DIRECTION('',(0.,-1.,0.));
#1117=DIRECTION('center_axis',(0.,-1.,0.));
#1118=DIRECTION('ref_axis',(-7.69586414796983E-16,0.,1.));
#1119=DIRECTION('center_axis',(0.,1.,-1.80411241501588E-16));
#1120=DIRECTION('ref_axis',(0.0795454545454545,-1.7983956154169E-16,-0.996831239810008));
#1121=DIRECTION('center_axis',(0.,1.,-1.80411241501588E-16));
#1122=DIRECTION('ref_axis',(0.0795454545454545,-1.7983956154169E-16,-0.996831239810008));
#1123=DIRECTION('center_axis',(0.977352667250009,0.,0.21161702157268));
#1124=DIRECTION('ref_axis',(-0.21161702157268,1.76325408083462E-16,0.977352667250009));
#1125=DIRECTION('',(0.21161702157268,-1.76325408083462E-16,-0.977352667250009));
#1126=DIRECTION('',(0.,-1.,0.));
#1127=DIRECTION('',(-0.21161702157268,1.76325408083462E-16,0.977352667250009));
#1128=DIRECTION('',(0.,-1.,0.));
#1129=DIRECTION('center_axis',(0.,0.,-1.));
#1130=DIRECTION('ref_axis',(1.,0.,0.));
#1131=DIRECTION('',(1.,0.,0.));
#1132=DIRECTION('',(1.,0.,0.));
#1133=DIRECTION('',(0.,-1.,0.));
#1134=DIRECTION('center_axis',(1.,0.,1.27611841910937E-15));
#1135=DIRECTION('ref_axis',(-1.27611841910937E-15,1.80411241501588E-16,
1.));
#1136=DIRECTION('',(-1.27611841910937E-15,1.80411241501588E-16,1.));
#1137=DIRECTION('',(-1.27611841910937E-15,1.80411241501588E-16,1.));
#1138=DIRECTION('',(0.,-1.,0.));
#1139=DIRECTION('center_axis',(0.,0.,1.));
#1140=DIRECTION('ref_axis',(-1.,0.,0.));
#1141=DIRECTION('',(-1.,0.,0.));
#1142=DIRECTION('',(-1.,0.,0.));
#1143=DIRECTION('',(0.,-1.,0.));
#1144=DIRECTION('center_axis',(0.977352667250009,0.,0.21161702157268));
#1145=DIRECTION('ref_axis',(-0.21161702157268,1.76325408083462E-16,0.977352667250009));
#1146=DIRECTION('',(0.21161702157268,-1.76325408083462E-16,-0.977352667250009));
#1147=DIRECTION('',(-0.21161702157268,1.76325408083462E-16,0.977352667250009));
#1148=DIRECTION('',(0.,-1.,0.));
#1149=DIRECTION('center_axis',(0.,0.,-1.));
#1150=DIRECTION('ref_axis',(1.,0.,0.));
#1151=DIRECTION('',(1.,0.,0.));
#1152=DIRECTION('',(1.,0.,0.));
#1153=DIRECTION('',(0.,-1.,0.));
#1154=DIRECTION('center_axis',(1.,0.,1.27611841910938E-15));
#1155=DIRECTION('ref_axis',(-1.27611841910938E-15,1.80411241501588E-16,
1.));
#1156=DIRECTION('',(-1.27611841910938E-15,1.80411241501588E-16,1.));
#1157=DIRECTION('',(-1.27611841910938E-15,1.80411241501588E-16,1.));
#1158=DIRECTION('',(0.,-1.,0.));
#1159=DIRECTION('center_axis',(0.,0.,1.));
#1160=DIRECTION('ref_axis',(-1.,0.,0.));
#1161=DIRECTION('',(-1.,0.,0.));
#1162=DIRECTION('',(-1.,0.,0.));
#1163=DIRECTION('',(0.,-1.,0.));
#1164=DIRECTION('center_axis',(0.977352667250009,0.,0.21161702157268));
#1165=DIRECTION('ref_axis',(-0.21161702157268,1.76325408083462E-16,0.977352667250009));
#1166=DIRECTION('',(0.21161702157268,-1.76325408083462E-16,-0.977352667250009));
#1167=DIRECTION('',(-0.21161702157268,1.76325408083462E-16,0.977352667250009));
#1168=DIRECTION('',(0.,-1.,0.));
#1169=DIRECTION('center_axis',(0.,0.,-1.));
#1170=DIRECTION('ref_axis',(1.,0.,0.));
#1171=DIRECTION('',(-1.,0.,0.));
#1172=DIRECTION('',(1.,0.,0.));
#1173=DIRECTION('',(0.,-1.,0.));
#1174=DIRECTION('center_axis',(1.,0.,0.));
#1175=DIRECTION('ref_axis',(0.,1.80411241501588E-16,1.));
#1176=DIRECTION('',(0.,-1.80411241501588E-16,-1.));
#1177=DIRECTION('',(0.,1.80411241501588E-16,1.));
#1178=DIRECTION('',(0.,-1.,0.));
#1179=DIRECTION('center_axis',(0.,0.,1.));
#1180=DIRECTION('ref_axis',(-1.,0.,0.));
#1181=DIRECTION('',(1.,0.,0.));
#1182=DIRECTION('',(-1.,0.,0.));
#1183=DIRECTION('',(0.,-1.,0.));
#1184=DIRECTION('center_axis',(0.977352667250009,0.,0.21161702157268));
#1185=DIRECTION('ref_axis',(-0.21161702157268,1.76325408083462E-16,0.977352667250009));
#1186=DIRECTION('',(0.21161702157268,-1.76325408083462E-16,-0.977352667250009));
#1187=DIRECTION('',(-0.21161702157268,1.76325408083462E-16,0.977352667250009));
#1188=DIRECTION('',(0.,-1.,0.));
#1189=DIRECTION('center_axis',(2.46519032881566E-32,0.,-1.));
#1190=DIRECTION('ref_axis',(1.,4.44748047759341E-48,2.46519032881566E-32));
#1191=DIRECTION('',(1.,4.44748047759341E-48,2.46519032881566E-32));
#1192=DIRECTION('',(1.,4.44748047759341E-48,2.46519032881566E-32));
#1193=DIRECTION('',(0.,-1.,0.));
#1194=DIRECTION('center_axis',(1.,0.,0.));
#1195=DIRECTION('ref_axis',(0.,1.80411241501588E-16,1.));
#1196=DIRECTION('',(0.,-1.80411241501588E-16,-1.));
#1197=DIRECTION('',(0.,1.80411241501588E-16,1.));
#1198=DIRECTION('',(0.,-1.,0.));
#1199=DIRECTION('center_axis',(0.,0.,-1.));
#1200=DIRECTION('ref_axis',(1.,0.,0.));
#1201=DIRECTION('',(-1.,0.,0.));
#1202=DIRECTION('',(1.,0.,0.));
#1203=DIRECTION('',(0.,-1.,0.));
#1204=DIRECTION('center_axis',(-1.,0.,0.));
#1205=DIRECTION('ref_axis',(0.,-1.80411241501588E-16,-1.));
#1206=DIRECTION('',(0.,1.80411241501588E-16,1.));
#1207=DIRECTION('',(0.,-1.80411241501588E-16,-1.));
#1208=DIRECTION('',(0.,-1.,0.));
#1209=DIRECTION('center_axis',(0.,0.,-1.));
#1210=DIRECTION('ref_axis',(1.,0.,0.));
#1211=DIRECTION('',(1.,0.,0.));
#1212=DIRECTION('',(1.,0.,0.));
#1213=DIRECTION('',(0.,-1.,0.));
#1214=DIRECTION('center_axis',(1.,0.,0.));
#1215=DIRECTION('ref_axis',(0.,1.80411241501588E-16,1.));
#1216=DIRECTION('',(0.,-1.80411241501588E-16,-1.));
#1217=DIRECTION('',(0.,1.80411241501588E-16,1.));
#1218=DIRECTION('',(0.,-1.,0.));
#1219=DIRECTION('center_axis',(0.,0.,-1.));
#1220=DIRECTION('ref_axis',(1.,0.,0.));
#1221=DIRECTION('',(-1.,0.,0.));
#1222=DIRECTION('',(1.,0.,0.));
#1223=DIRECTION('',(0.,-1.,0.));
#1224=DIRECTION('center_axis',(-1.,0.,0.));
#1225=DIRECTION('ref_axis',(0.,-1.80411241501588E-16,-1.));
#1226=DIRECTION('',(0.,1.80411241501588E-16,1.));
#1227=DIRECTION('',(0.,-1.80411241501588E-16,-1.));
#1228=DIRECTION('',(0.,-1.,0.));
#1229=DIRECTION('center_axis',(0.,0.,-1.));
#1230=DIRECTION('ref_axis',(1.,0.,0.));
#1231=DIRECTION('',(1.,0.,0.));
#1232=DIRECTION('',(1.,0.,0.));
#1233=DIRECTION('',(0.,-1.,0.));
#1234=DIRECTION('center_axis',(1.,0.,0.));
#1235=DIRECTION('ref_axis',(0.,1.80411241501588E-16,1.));
#1236=DIRECTION('',(0.,1.80411241501588E-16,1.));
#1237=DIRECTION('',(0.,1.80411241501588E-16,1.));
#1238=DIRECTION('',(0.,-1.,0.));
#1239=DIRECTION('center_axis',(0.,0.,-1.));
#1240=DIRECTION('ref_axis',(1.,0.,0.));
#1241=DIRECTION('',(1.,0.,0.));
#1242=DIRECTION('',(1.,0.,0.));
#1243=DIRECTION('',(0.,-1.,0.));
#1244=DIRECTION('center_axis',(-1.,0.,0.));
#1245=DIRECTION('ref_axis',(0.,-1.80411241501588E-16,-1.));
#1246=DIRECTION('',(0.,-1.80411241501588E-16,-1.));
#1247=DIRECTION('',(0.,-1.80411241501588E-16,-1.));
#1248=DIRECTION('',(0.,-1.,0.));
#1249=DIRECTION('center_axis',(0.,0.,-1.));
#1250=DIRECTION('ref_axis',(1.,0.,0.));
#1251=DIRECTION('',(1.,0.,0.));
#1252=DIRECTION('',(1.,0.,0.));
#1253=DIRECTION('',(0.,-1.,0.));
#1254=DIRECTION('center_axis',(-0.977352667250009,0.,0.21161702157268));
#1255=DIRECTION('ref_axis',(-0.21161702157268,-1.76325408083462E-16,-0.977352667250009));
#1256=DIRECTION('',(0.21161702157268,1.76325408083462E-16,0.977352667250009));
#1257=DIRECTION('',(-0.21161702157268,-1.76325408083462E-16,-0.977352667250009));
#1258=DIRECTION('',(0.,-1.,0.));
#1259=DIRECTION('center_axis',(0.,0.,1.));
#1260=DIRECTION('ref_axis',(-1.,0.,0.));
#1261=DIRECTION('',(-1.,0.,0.));
#1262=DIRECTION('',(-1.,0.,0.));
#1263=DIRECTION('',(0.,-1.,0.));
#1264=DIRECTION('center_axis',(-1.,0.,0.));
#1265=DIRECTION('ref_axis',(0.,-1.80411241501588E-16,-1.));
#1266=DIRECTION('',(0.,-1.80411241501588E-16,-1.));
#1267=DIRECTION('',(0.,-1.80411241501588E-16,-1.));
#1268=DIRECTION('',(0.,-1.,0.));
#1269=DIRECTION('center_axis',(0.,0.,-1.));
#1270=DIRECTION('ref_axis',(1.,0.,0.));
#1271=DIRECTION('',(1.,0.,0.));
#1272=DIRECTION('',(1.,0.,0.));
#1273=DIRECTION('',(0.,-1.,0.));
#1274=DIRECTION('center_axis',(-0.977352667250009,0.,0.21161702157268));
#1275=DIRECTION('ref_axis',(-0.21161702157268,-1.76325408083462E-16,-0.977352667250009));
#1276=DIRECTION('',(0.21161702157268,1.76325408083462E-16,0.977352667250009));
#1277=DIRECTION('',(-0.21161702157268,-1.76325408083462E-16,-0.977352667250009));
#1278=DIRECTION('',(0.,-1.,0.));
#1279=DIRECTION('center_axis',(0.,0.,1.));
#1280=DIRECTION('ref_axis',(-1.,0.,0.));
#1281=DIRECTION('',(1.,0.,0.));
#1282=DIRECTION('',(-1.,0.,0.));
#1283=DIRECTION('',(0.,-1.,0.));
#1284=DIRECTION('center_axis',(-1.,0.,-1.27611841910938E-15));
#1285=DIRECTION('ref_axis',(1.27611841910938E-15,-1.80411241501588E-16,
-1.));
#1286=DIRECTION('',(-1.27611841910938E-15,1.80411241501588E-16,1.));
#1287=DIRECTION('',(1.27611841910938E-15,-1.80411241501588E-16,-1.));
#1288=DIRECTION('',(0.,-1.,0.));
#1289=DIRECTION('center_axis',(0.,0.,-1.));
#1290=DIRECTION('ref_axis',(1.,0.,0.));
#1291=DIRECTION('',(-1.,0.,0.));
#1292=DIRECTION('',(1.,0.,0.));
#1293=DIRECTION('',(0.,-1.,0.));
#1294=DIRECTION('center_axis',(-0.977352667250009,0.,0.21161702157268));
#1295=DIRECTION('ref_axis',(-0.21161702157268,-1.76325408083462E-16,-0.977352667250009));
#1296=DIRECTION('',(0.21161702157268,1.76325408083462E-16,0.977352667250009));
#1297=DIRECTION('',(-0.21161702157268,-1.76325408083462E-16,-0.977352667250009));
#1298=DIRECTION('',(0.,-1.,0.));
#1299=DIRECTION('center_axis',(0.,0.,1.));
#1300=DIRECTION('ref_axis',(-1.,0.,0.));
#1301=DIRECTION('',(-1.,0.,0.));
#1302=DIRECTION('',(-1.,0.,0.));
#1303=DIRECTION('',(0.,-1.,0.));
#1304=DIRECTION('center_axis',(-1.,0.,1.27611841910937E-15));
#1305=DIRECTION('ref_axis',(-1.27611841910937E-15,-1.80411241501588E-16,
-1.));
#1306=DIRECTION('',(-1.27611841910937E-15,-1.80411241501588E-16,-1.));
#1307=DIRECTION('',(-1.27611841910937E-15,-1.80411241501588E-16,-1.));
#1308=DIRECTION('',(0.,-1.,0.));
#1309=DIRECTION('center_axis',(0.,0.,-1.));
#1310=DIRECTION('ref_axis',(1.,0.,0.));
#1311=DIRECTION('',(1.,0.,0.));
#1312=DIRECTION('',(1.,0.,0.));
#1313=DIRECTION('',(0.,-1.,0.));
#1314=DIRECTION('center_axis',(-0.977352667250009,0.,0.21161702157268));
#1315=DIRECTION('ref_axis',(-0.21161702157268,-1.76325408083462E-16,-0.977352667250009));
#1316=DIRECTION('',(0.21161702157268,1.76325408083462E-16,0.977352667250009));
#1317=DIRECTION('',(-0.21161702157268,-1.76325408083462E-16,-0.977352667250009));
#1318=DIRECTION('',(0.,-1.,0.));
#1319=DIRECTION('center_axis',(0.,-1.,0.));
#1320=DIRECTION('ref_axis',(0.977352667250009,0.,0.211617021572682));
#1321=DIRECTION('center_axis',(0.,-1.,1.80411241501588E-16));
#1322=DIRECTION('ref_axis',(0.977352667250009,3.81780895847958E-17,0.211617021572682));
#1323=DIRECTION('center_axis',(0.,-1.,1.80411241501588E-16));
#1324=DIRECTION('ref_axis',(0.977352667250009,3.81780895847958E-17,0.211617021572682));
#1325=DIRECTION('',(0.,-1.,0.));
#1326=DIRECTION('center_axis',(1.,0.,0.));
#1327=DIRECTION('ref_axis',(0.,1.80411241501588E-16,1.));
#1328=DIRECTION('',(0.,1.80411241501588E-16,1.));
#1329=DIRECTION('',(0.,1.80411241501588E-16,1.));
#1330=DIRECTION('',(0.,-1.,0.));
#1331=DIRECTION('center_axis',(0.,0.,1.));
#1332=DIRECTION('ref_axis',(-1.,0.,0.));
#1333=DIRECTION('',(-1.,0.,0.));
#1334=DIRECTION('',(-1.,0.,0.));
#1335=DIRECTION('',(0.,-1.,0.));
#1336=DIRECTION('center_axis',(-1.,0.,0.));
#1337=DIRECTION('ref_axis',(0.,-1.80411241501588E-16,-1.));
#1338=DIRECTION('',(0.,-1.80411241501588E-16,-1.));
#1339=DIRECTION('',(0.,-1.80411241501588E-16,-1.));
#1340=DIRECTION('',(0.,-1.,0.));
#1341=DIRECTION('center_axis',(0.,-1.,0.));
#1342=DIRECTION('ref_axis',(0.977352667250009,0.,0.211617021572682));
#1343=DIRECTION('center_axis',(0.,-1.,1.80411241501588E-16));
#1344=DIRECTION('ref_axis',(0.977352667250009,3.81780895847958E-17,0.211617021572682));
#1345=DIRECTION('center_axis',(0.,-1.,1.80411241501588E-16));
#1346=DIRECTION('ref_axis',(0.977352667250009,3.81780895847958E-17,0.211617021572682));
#1347=DIRECTION('center_axis',(0.,-1.,1.80411241501588E-16));
#1348=DIRECTION('ref_axis',(1.,0.,0.));
#1349=DIRECTION('center_axis',(0.,-1.,1.80411241501588E-16));
#1350=DIRECTION('ref_axis',(1.,0.,0.));
#1351=CARTESIAN_POINT('',(0.,0.,0.));
#1352=CARTESIAN_POINT('Origin',(-1.75,2.4980018054066E-14,132.));
#1353=CARTESIAN_POINT('',(-1.75,2.4980018054066E-14,132.));
#1354=CARTESIAN_POINT('',(-1.74999999999997,2.48121837716822E-14,131.06971272418));
#1355=CARTESIAN_POINT('',(-1.75,2.47996068125644E-14,131.));
#1356=CARTESIAN_POINT('',(-1.74999999999997,-3.47999999999998,131.06971272418));
#1357=CARTESIAN_POINT('',(-1.74999999999997,2.48121837716822E-14,131.06971272418));
#1358=CARTESIAN_POINT('',(-1.75,-3.47999999999998,132.));
#1359=CARTESIAN_POINT('',(-1.75,-3.47999999999998,131.));
#1360=CARTESIAN_POINT('',(-1.75,2.4980018054066E-14,132.));
#1361=CARTESIAN_POINT('Origin',(1.75,2.4980018054066E-14,132.));
#1362=CARTESIAN_POINT('',(1.75,2.4980018054066E-14,132.));
#1363=CARTESIAN_POINT('',(-1.75,2.4980018054066E-14,132.));
#1364=CARTESIAN_POINT('',(1.75,-3.47999999999998,132.));
#1365=CARTESIAN_POINT('',(-1.75,-3.47999999999998,132.));
#1366=CARTESIAN_POINT('',(1.75,2.4980018054066E-14,132.));
#1367=CARTESIAN_POINT('Origin',(1.75,2.48121837716822E-14,131.06971272418));
#1368=CARTESIAN_POINT('',(1.75,2.48121837716822E-14,131.06971272418));
#1369=CARTESIAN_POINT('',(1.75,2.4980018054066E-14,132.));
#1370=CARTESIAN_POINT('',(1.75,-3.47999999999998,131.06971272418));
#1371=CARTESIAN_POINT('',(1.75,-3.47999999999998,132.));
#1372=CARTESIAN_POINT('',(1.75,2.48121837716822E-14,131.06971272418));
#1373=CARTESIAN_POINT('Origin',(0.,2.87686541255994E-14,153.));
#1374=CARTESIAN_POINT('Origin',(0.,2.87686541255994E-14,153.));
#1375=CARTESIAN_POINT('Origin',(0.,-3.47999999999997,153.));
#1376=CARTESIAN_POINT('Origin',(39.7596509023964,2.30820917934693E-14,121.48));
#1377=CARTESIAN_POINT('',(19.5470533450005,3.99238112650316E-14,214.831829583269));
#1378=CARTESIAN_POINT('',(39.7596509023964,2.30820917934693E-14,121.48));
#1379=CARTESIAN_POINT('',(19.5470533450005,3.99238112650316E-14,214.831829583269));
#1380=CARTESIAN_POINT('',(19.5470533450005,-3.47999999999996,214.831829583269));
#1381=CARTESIAN_POINT('',(19.5470533450005,3.99238112650316E-14,214.831829583269));
#1382=CARTESIAN_POINT('',(39.7596509023964,-3.47999999999998,121.48));
#1383=CARTESIAN_POINT('',(19.5470533450005,-3.47999999999996,214.831829583269));
#1384=CARTESIAN_POINT('',(39.7596509023964,2.30820917934693E-14,121.48));
#1385=CARTESIAN_POINT('Origin',(25.5131427173265,2.30820917934693E-14,121.48));
#1386=CARTESIAN_POINT('',(25.5131427173265,2.30820917934693E-14,121.48));
#1387=CARTESIAN_POINT('',(25.5131427173265,2.30820917934693E-14,121.48));
#1388=CARTESIAN_POINT('',(25.5131427173265,-3.47999999999998,121.48));
#1389=CARTESIAN_POINT('',(25.5131427173265,-3.47999999999998,121.48));
#1390=CARTESIAN_POINT('',(25.5131427173265,2.30820917934693E-14,121.48));
#1391=CARTESIAN_POINT('Origin',(25.5131427173265,2.24542606730438E-14,118.));
#1392=CARTESIAN_POINT('',(25.5131427173265,2.24542606730438E-14,118.));
#1393=CARTESIAN_POINT('',(25.5131427173265,2.24542606730438E-14,118.));
#1394=CARTESIAN_POINT('',(25.5131427173265,-3.47999999999998,118.));
#1395=CARTESIAN_POINT('',(25.5131427173265,-3.47999999999998,118.));
#1396=CARTESIAN_POINT('',(25.5131427173265,2.24542606730438E-14,118.));
#1397=CARTESIAN_POINT('Origin',(40.5131427173265,2.24542606730438E-14,118.));
#1398=CARTESIAN_POINT('',(40.5131427173265,2.24542606730438E-14,118.));
#1399=CARTESIAN_POINT('',(40.5131427173265,2.24542606730438E-14,118.));
#1400=CARTESIAN_POINT('',(40.5131427173265,-3.47999999999998,118.));
#1401=CARTESIAN_POINT('',(40.5131427173265,-3.47999999999998,118.));
#1402=CARTESIAN_POINT('',(40.5131427173265,2.24542606730438E-14,118.));
#1403=CARTESIAN_POINT('Origin',(46.2552699966209,1.76697545484217E-14,91.48));
#1404=CARTESIAN_POINT('',(46.2552699966209,1.76697545484217E-14,91.48));
#1405=CARTESIAN_POINT('',(19.5470533450005,3.99238112650316E-14,214.831829583269));
#1406=CARTESIAN_POINT('',(46.2552699966209,-3.47999999999998,91.48));
#1407=CARTESIAN_POINT('',(19.5470533450005,-3.47999999999996,214.831829583269));
#1408=CARTESIAN_POINT('',(46.2552699966209,1.76697545484217E-14,91.48));
#1409=CARTESIAN_POINT('Origin',(32.008761811551,1.76697545484217E-14,91.48));
#1410=CARTESIAN_POINT('',(32.008761811551,1.76697545484217E-14,91.48));
#1411=CARTESIAN_POINT('',(32.008761811551,1.76697545484217E-14,91.48));
#1412=CARTESIAN_POINT('',(32.008761811551,-3.47999999999998,91.48));
#1413=CARTESIAN_POINT('',(32.008761811551,-3.47999999999998,91.48));
#1414=CARTESIAN_POINT('',(32.008761811551,1.76697545484217E-14,91.48));
#1415=CARTESIAN_POINT('Origin',(32.008761811551,1.70419234279961E-14,88.));
#1416=CARTESIAN_POINT('',(32.008761811551,1.70419234279961E-14,88.));
#1417=CARTESIAN_POINT('',(32.008761811551,1.70419234279961E-14,88.));
#1418=CARTESIAN_POINT('',(32.008761811551,-3.47999999999998,88.));
#1419=CARTESIAN_POINT('',(32.008761811551,-3.47999999999998,88.));
#1420=CARTESIAN_POINT('',(32.008761811551,1.70419234279961E-14,88.));
#1421=CARTESIAN_POINT('Origin',(47.008761811551,1.70419234279961E-14,88.));
#1422=CARTESIAN_POINT('',(47.008761811551,1.70419234279961E-14,88.));
#1423=CARTESIAN_POINT('',(47.008761811551,1.70419234279961E-14,88.));
#1424=CARTESIAN_POINT('',(47.008761811551,-3.47999999999998,88.));
#1425=CARTESIAN_POINT('',(47.008761811551,-3.47999999999998,88.));
#1426=CARTESIAN_POINT('',(47.008761811551,1.70419234279961E-14,88.));
#1427=CARTESIAN_POINT('Origin',(52.7508890908454,1.2257417303374E-14,61.48));
#1428=CARTESIAN_POINT('',(52.7508890908454,1.2257417303374E-14,61.48));
#1429=CARTESIAN_POINT('',(19.5470533450005,3.99238112650316E-14,214.831829583269));
#1430=CARTESIAN_POINT('',(52.7508890908454,-3.47999999999999,61.48));
#1431=CARTESIAN_POINT('',(19.5470533450005,-3.47999999999996,214.831829583269));
#1432=CARTESIAN_POINT('',(52.7508890908454,1.2257417303374E-14,61.48));
#1433=CARTESIAN_POINT('Origin',(33.5043809057755,1.2257417303374E-14,61.48));
#1434=CARTESIAN_POINT('',(33.5043809057755,1.2257417303374E-14,61.48));
#1435=CARTESIAN_POINT('',(53.5043809057755,1.2257417303374E-14,61.48));
#1436=CARTESIAN_POINT('',(33.5043809057755,-3.47999999999999,61.48));
#1437=CARTESIAN_POINT('',(53.5043809057755,-3.47999999999999,61.48));
#1438=CARTESIAN_POINT('',(33.5043809057755,1.2257417303374E-14,61.48));
#1439=CARTESIAN_POINT('Origin',(33.5043809057755,1.16295861829485E-14,58.));
#1440=CARTESIAN_POINT('',(33.5043809057755,1.16295861829485E-14,58.));
#1441=CARTESIAN_POINT('',(33.5043809057755,1.2257417303374E-14,61.48));
#1442=CARTESIAN_POINT('',(33.5043809057755,-3.47999999999999,58.));
#1443=CARTESIAN_POINT('',(33.5043809057755,-3.47999999999999,61.48));
#1444=CARTESIAN_POINT('',(33.5043809057755,1.16295861829485E-14,58.));
#1445=CARTESIAN_POINT('Origin',(53.5043809057755,1.16295861829485E-14,58.));
#1446=CARTESIAN_POINT('',(53.5043809057755,1.16295861829485E-14,58.));
#1447=CARTESIAN_POINT('',(33.5043809057755,1.16295861829485E-14,58.));
#1448=CARTESIAN_POINT('',(53.5043809057755,-3.47999999999999,58.));
#1449=CARTESIAN_POINT('',(33.5043809057755,-3.47999999999999,58.));
#1450=CARTESIAN_POINT('',(53.5043809057755,1.16295861829485E-14,58.));
#1451=CARTESIAN_POINT('Origin',(60.,6.21724893790088E-15,28.));
#1452=CARTESIAN_POINT('',(60.,6.21724893790088E-15,28.));
#1453=CARTESIAN_POINT('',(19.5470533450005,3.99238112650316E-14,214.831829583269));
#1454=CARTESIAN_POINT('',(60.,-3.47999999999999,28.));
#1455=CARTESIAN_POINT('',(19.5470533450005,-3.47999999999996,214.831829583269));
#1456=CARTESIAN_POINT('',(60.,6.21724893790088E-15,28.));
#1457=CARTESIAN_POINT('Origin',(50.,6.21724893790088E-15,28.));
#1458=CARTESIAN_POINT('',(50.,6.21724893790088E-15,28.));
#1459=CARTESIAN_POINT('',(50.,6.21724893790088E-15,28.));
#1460=CARTESIAN_POINT('',(50.,-3.47999999999999,28.));
#1461=CARTESIAN_POINT('',(50.,-3.47999999999999,28.));
#1462=CARTESIAN_POINT('',(50.,6.21724893790088E-15,28.));
#1463=CARTESIAN_POINT('Origin',(50.,1.16573417585642E-15,4.44089209850063E-15));
#1464=CARTESIAN_POINT('',(50.,1.16573417585642E-15,4.44089209850063E-15));
#1465=CARTESIAN_POINT('',(50.,6.21724893790088E-15,28.));
#1466=CARTESIAN_POINT('',(50.,-3.48,0.));
#1467=CARTESIAN_POINT('',(50.,-3.47999999999999,28.));
#1468=CARTESIAN_POINT('',(50.,1.16573417585642E-15,4.44089209850063E-15));
#1469=CARTESIAN_POINT('Origin',(30.,1.16573417585642E-15,4.44089209850063E-15));
#1470=CARTESIAN_POINT('',(30.,1.16573417585642E-15,4.44089209850063E-15));
#1471=CARTESIAN_POINT('',(50.,1.16573417585642E-15,4.44089209850063E-15));
#1472=CARTESIAN_POINT('',(30.,-3.48,0.));
#1473=CARTESIAN_POINT('',(50.,-3.48,4.44089209850063E-15));
#1474=CARTESIAN_POINT('',(30.,1.16573417585642E-15,4.44089209850063E-15));
#1475=CARTESIAN_POINT('Origin',(30.,6.21724893790088E-15,28.));
#1476=CARTESIAN_POINT('',(30.,6.21724893790088E-15,28.));
#1477=CARTESIAN_POINT('',(30.,1.16573417585642E-15,4.44089209850063E-15));
#1478=CARTESIAN_POINT('',(30.,-3.47999999999999,28.));
#1479=CARTESIAN_POINT('',(30.,-3.48,4.44089209850063E-15));
#1480=CARTESIAN_POINT('',(30.,6.21724893790088E-15,28.));
#1481=CARTESIAN_POINT('Origin',(10.,6.21724893790088E-15,28.));
#1482=CARTESIAN_POINT('',(10.,6.21724893790088E-15,28.));
#1483=CARTESIAN_POINT('',(10.,6.21724893790088E-15,28.));
#1484=CARTESIAN_POINT('',(10.,-3.47999999999999,28.));
#1485=CARTESIAN_POINT('',(10.,-3.47999999999999,28.));
#1486=CARTESIAN_POINT('',(10.,6.21724893790088E-15,28.));
#1487=CARTESIAN_POINT('Origin',(10.,1.16573417585642E-15,4.44089209850063E-15));
#1488=CARTESIAN_POINT('',(10.,1.16573417585642E-15,4.44089209850063E-15));
#1489=CARTESIAN_POINT('',(10.,6.21724893790088E-15,28.));
#1490=CARTESIAN_POINT('',(10.,-3.48,0.));
#1491=CARTESIAN_POINT('',(10.,-3.47999999999999,28.));
#1492=CARTESIAN_POINT('',(10.,1.16573417585642E-15,4.44089209850063E-15));
#1493=CARTESIAN_POINT('Origin',(-10.,1.16573417585642E-15,4.44089209850063E-15));
#1494=CARTESIAN_POINT('',(-10.,1.16573417585642E-15,4.44089209850063E-15));
#1495=CARTESIAN_POINT('',(10.,1.16573417585642E-15,4.44089209850063E-15));
#1496=CARTESIAN_POINT('',(-10.,-3.48,0.));
#1497=CARTESIAN_POINT('',(10.,-3.48,4.44089209850063E-15));
#1498=CARTESIAN_POINT('',(-10.,1.16573417585642E-15,4.44089209850063E-15));
#1499=CARTESIAN_POINT('Origin',(-10.,6.21724893790088E-15,28.));
#1500=CARTESIAN_POINT('',(-10.,6.21724893790088E-15,28.));
#1501=CARTESIAN_POINT('',(-10.,1.16573417585642E-15,4.44089209850063E-15));
#1502=CARTESIAN_POINT('',(-10.,-3.47999999999999,28.));
#1503=CARTESIAN_POINT('',(-10.,-3.48,4.44089209850063E-15));
#1504=CARTESIAN_POINT('',(-10.,6.21724893790088E-15,28.));
#1505=CARTESIAN_POINT('Origin',(-30.,6.21724893790088E-15,28.));
#1506=CARTESIAN_POINT('',(-30.,6.21724893790088E-15,28.));
#1507=CARTESIAN_POINT('',(-30.,6.21724893790088E-15,28.));
#1508=CARTESIAN_POINT('',(-30.,-3.47999999999999,28.));
#1509=CARTESIAN_POINT('',(-30.,-3.47999999999999,28.));
#1510=CARTESIAN_POINT('',(-30.,6.21724893790088E-15,28.));
#1511=CARTESIAN_POINT('Origin',(-30.,1.16573417585642E-15,0.));
#1512=CARTESIAN_POINT('',(-30.,1.16573417585642E-15,0.));
#1513=CARTESIAN_POINT('',(-30.,1.16573417585642E-15,0.));
#1514=CARTESIAN_POINT('',(-30.,-3.48,0.));
#1515=CARTESIAN_POINT('',(-30.,-3.48,0.));
#1516=CARTESIAN_POINT('',(-30.,1.16573417585642E-15,0.));
#1517=CARTESIAN_POINT('Origin',(-50.,1.16573417585642E-15,0.));
#1518=CARTESIAN_POINT('',(-50.,1.16573417585642E-15,0.));
#1519=CARTESIAN_POINT('',(-50.,1.16573417585642E-15,0.));
#1520=CARTESIAN_POINT('',(-50.,-3.48,0.));
#1521=CARTESIAN_POINT('',(-50.,-3.48,0.));
#1522=CARTESIAN_POINT('',(-50.,1.16573417585642E-15,0.));
#1523=CARTESIAN_POINT('Origin',(-50.,6.21724893790088E-15,28.));
#1524=CARTESIAN_POINT('',(-50.,6.21724893790088E-15,28.));
#1525=CARTESIAN_POINT('',(-50.,6.21724893790088E-15,28.));
#1526=CARTESIAN_POINT('',(-50.,-3.47999999999999,28.));
#1527=CARTESIAN_POINT('',(-50.,-3.47999999999999,28.));
#1528=CARTESIAN_POINT('',(-50.,6.21724893790088E-15,28.));
#1529=CARTESIAN_POINT('Origin',(-60.,6.21724893790088E-15,28.));
#1530=CARTESIAN_POINT('',(-60.,6.21724893790088E-15,28.));
#1531=CARTESIAN_POINT('',(-60.,6.21724893790088E-15,28.));
#1532=CARTESIAN_POINT('',(-60.,-3.47999999999999,28.));
#1533=CARTESIAN_POINT('',(-60.,-3.47999999999999,28.));
#1534=CARTESIAN_POINT('',(-60.,6.21724893790088E-15,28.));
#1535=CARTESIAN_POINT('Origin',(-53.5043809057755,1.16295861829485E-14,
58.));
#1536=CARTESIAN_POINT('',(-53.5043809057755,1.16295861829485E-14,58.));
#1537=CARTESIAN_POINT('',(-60.,6.21724893790088E-15,28.));
#1538=CARTESIAN_POINT('',(-53.5043809057755,-3.47999999999999,58.));
#1539=CARTESIAN_POINT('',(-60.,-3.47999999999999,28.));
#1540=CARTESIAN_POINT('',(-53.5043809057755,1.16295861829485E-14,58.));
#1541=CARTESIAN_POINT('Origin',(-33.5043809057755,1.16295861829485E-14,
58.));
#1542=CARTESIAN_POINT('',(-33.5043809057755,1.16295861829485E-14,58.));
#1543=CARTESIAN_POINT('',(-33.5043809057755,1.16295861829485E-14,58.));
#1544=CARTESIAN_POINT('',(-33.5043809057755,-3.47999999999999,58.));
#1545=CARTESIAN_POINT('',(-33.5043809057755,-3.47999999999999,58.));
#1546=CARTESIAN_POINT('',(-33.5043809057755,1.16295861829485E-14,58.));
#1547=CARTESIAN_POINT('Origin',(-33.5043809057755,1.2257417303374E-14,61.48));
#1548=CARTESIAN_POINT('',(-33.5043809057755,1.2257417303374E-14,61.48));
#1549=CARTESIAN_POINT('',(-33.5043809057755,1.2257417303374E-14,61.48));
#1550=CARTESIAN_POINT('',(-33.5043809057755,-3.47999999999999,61.48));
#1551=CARTESIAN_POINT('',(-33.5043809057755,-3.47999999999999,61.48));
#1552=CARTESIAN_POINT('',(-33.5043809057755,1.2257417303374E-14,61.48));
#1553=CARTESIAN_POINT('Origin',(-52.7508890908455,1.2257417303374E-14,61.48));
#1554=CARTESIAN_POINT('',(-52.7508890908455,1.2257417303374E-14,61.48));
#1555=CARTESIAN_POINT('',(-53.5043809057755,1.2257417303374E-14,61.48));
#1556=CARTESIAN_POINT('',(-52.7508890908455,-3.47999999999999,61.48));
#1557=CARTESIAN_POINT('',(-53.5043809057755,-3.47999999999999,61.48));
#1558=CARTESIAN_POINT('',(-52.7508890908455,1.2257417303374E-14,61.48));
#1559=CARTESIAN_POINT('Origin',(-47.008761811551,1.70419234279961E-14,88.));
#1560=CARTESIAN_POINT('',(-47.008761811551,1.70419234279961E-14,88.));
#1561=CARTESIAN_POINT('',(-60.,6.21724893790088E-15,28.));
#1562=CARTESIAN_POINT('',(-47.008761811551,-3.47999999999998,88.));
#1563=CARTESIAN_POINT('',(-60.,-3.47999999999999,28.));
#1564=CARTESIAN_POINT('',(-47.008761811551,1.70419234279961E-14,88.));
#1565=CARTESIAN_POINT('Origin',(-32.008761811551,1.70419234279961E-14,88.));
#1566=CARTESIAN_POINT('',(-32.008761811551,1.70419234279961E-14,88.));
#1567=CARTESIAN_POINT('',(-47.008761811551,1.70419234279961E-14,88.));
#1568=CARTESIAN_POINT('',(-32.008761811551,-3.47999999999998,88.));
#1569=CARTESIAN_POINT('',(-47.008761811551,-3.47999999999998,88.));
#1570=CARTESIAN_POINT('',(-32.008761811551,1.70419234279961E-14,88.));
#1571=CARTESIAN_POINT('Origin',(-32.008761811551,1.76697545484217E-14,91.48));
#1572=CARTESIAN_POINT('',(-32.008761811551,1.76697545484217E-14,91.48));
#1573=CARTESIAN_POINT('',(-32.008761811551,1.70419234279961E-14,88.));
#1574=CARTESIAN_POINT('',(-32.008761811551,-3.47999999999998,91.48));
#1575=CARTESIAN_POINT('',(-32.008761811551,-3.47999999999998,88.));
#1576=CARTESIAN_POINT('',(-32.008761811551,1.76697545484217E-14,91.48));
#1577=CARTESIAN_POINT('Origin',(-46.255269996621,1.76697545484217E-14,91.48));
#1578=CARTESIAN_POINT('',(-46.255269996621,1.76697545484217E-14,91.48));
#1579=CARTESIAN_POINT('',(-32.008761811551,1.76697545484217E-14,91.48));
#1580=CARTESIAN_POINT('',(-46.255269996621,-3.47999999999998,91.48));
#1581=CARTESIAN_POINT('',(-32.008761811551,-3.47999999999998,91.48));
#1582=CARTESIAN_POINT('',(-46.255269996621,1.76697545484217E-14,91.48));
#1583=CARTESIAN_POINT('Origin',(-40.5131427173265,2.24542606730438E-14,
118.));
#1584=CARTESIAN_POINT('',(-40.5131427173265,2.24542606730438E-14,118.));
#1585=CARTESIAN_POINT('',(-60.,6.21724893790088E-15,28.));
#1586=CARTESIAN_POINT('',(-40.5131427173265,-3.47999999999998,118.));
#1587=CARTESIAN_POINT('',(-60.,-3.47999999999999,28.));
#1588=CARTESIAN_POINT('',(-40.5131427173265,2.24542606730438E-14,118.));
#1589=CARTESIAN_POINT('Origin',(-25.5131427173265,2.24542606730438E-14,
118.));
#1590=CARTESIAN_POINT('',(-25.5131427173265,2.24542606730438E-14,118.));
#1591=CARTESIAN_POINT('',(-25.5131427173265,2.24542606730438E-14,118.));
#1592=CARTESIAN_POINT('',(-25.5131427173265,-3.47999999999998,118.));
#1593=CARTESIAN_POINT('',(-25.5131427173265,-3.47999999999998,118.));
#1594=CARTESIAN_POINT('',(-25.5131427173265,2.24542606730438E-14,118.));
#1595=CARTESIAN_POINT('Origin',(-25.5131427173265,2.30820917934693E-14,
121.48));
#1596=CARTESIAN_POINT('',(-25.5131427173265,2.30820917934693E-14,121.48));
#1597=CARTESIAN_POINT('',(-25.5131427173265,2.30820917934693E-14,121.48));
#1598=CARTESIAN_POINT('',(-25.5131427173265,-3.47999999999998,121.48));
#1599=CARTESIAN_POINT('',(-25.5131427173265,-3.47999999999998,121.48));
#1600=CARTESIAN_POINT('',(-25.5131427173265,2.30820917934693E-14,121.48));
#1601=CARTESIAN_POINT('Origin',(-39.7596509023964,2.30820917934693E-14,
121.48));
#1602=CARTESIAN_POINT('',(-39.7596509023964,2.30820917934693E-14,121.48));
#1603=CARTESIAN_POINT('',(-40.5131427173265,2.30820917934693E-14,121.48));
#1604=CARTESIAN_POINT('',(-39.7596509023964,-3.47999999999998,121.48));
#1605=CARTESIAN_POINT('',(-40.5131427173265,-3.47999999999998,121.48));
#1606=CARTESIAN_POINT('',(-39.7596509023964,2.30820917934693E-14,121.48));
#1607=CARTESIAN_POINT('Origin',(-19.5470533450005,3.99238112650316E-14,
214.831829583269));
#1608=CARTESIAN_POINT('',(-19.5470533450005,3.99238112650316E-14,214.831829583269));
#1609=CARTESIAN_POINT('',(-60.,6.21724893790088E-15,28.));
#1610=CARTESIAN_POINT('',(-19.5470533450005,-3.47999999999996,214.831829583269));
#1611=CARTESIAN_POINT('',(-60.,-3.47999999999999,28.));
#1612=CARTESIAN_POINT('',(-19.5470533450005,3.99238112650316E-14,214.831829583269));
#1613=CARTESIAN_POINT('Origin',(-1.66533453693773E-15,3.91602494733357E-14,
210.599489151816));
#1614=CARTESIAN_POINT('',(-1.5,4.27583118599436E-14,230.543159826995));
#1615=CARTESIAN_POINT('Origin',(-1.66533453693773E-15,3.91602494733357E-14,
210.599489151816));
#1616=CARTESIAN_POINT('',(-1.5,-3.47999999999996,230.543159826995));
#1617=CARTESIAN_POINT('Origin',(-1.66533453693773E-15,-3.47999999999996,
210.599489151816));
#1618=CARTESIAN_POINT('',(-1.5,4.27583118599436E-14,230.543159826995));
#1619=CARTESIAN_POINT('Origin',(-1.5,3.91685687513982E-14,210.645602010379));
#1620=CARTESIAN_POINT('',(-1.5,3.91685687513982E-14,210.645602010379));
#1621=CARTESIAN_POINT('',(-1.5,3.91685687513982E-14,210.645602010379));
#1622=CARTESIAN_POINT('',(-1.5,-3.47999999999996,210.645602010379));
#1623=CARTESIAN_POINT('',(-1.5,-3.47999999999996,210.645602010379));
#1624=CARTESIAN_POINT('',(-1.5,3.91685687513982E-14,210.645602010379));
#1625=CARTESIAN_POINT('Origin',(1.98,3.91685687513982E-14,210.645602010379));
#1626=CARTESIAN_POINT('',(1.98,3.91685687513982E-14,210.645602010379));
#1627=CARTESIAN_POINT('',(1.98,3.91685687513982E-14,210.645602010379));
#1628=CARTESIAN_POINT('',(1.98,-3.47999999999996,210.645602010379));
#1629=CARTESIAN_POINT('',(1.98,-3.47999999999996,210.645602010379));
#1630=CARTESIAN_POINT('',(1.98,3.91685687513982E-14,210.645602010379));
#1631=CARTESIAN_POINT('Origin',(1.98,4.27507486583817E-14,230.501237818705));
#1632=CARTESIAN_POINT('',(1.98,4.27507486583817E-14,230.501237818705));
#1633=CARTESIAN_POINT('',(1.98,4.277679358143E-14,230.645602010379));
#1634=CARTESIAN_POINT('',(1.98,-3.47999999999996,230.501237818705));
#1635=CARTESIAN_POINT('',(1.98,-3.47999999999996,230.645602010379));
#1636=CARTESIAN_POINT('',(1.98,4.27507486583817E-14,230.501237818705));
#1637=CARTESIAN_POINT('Origin',(-1.66533453693773E-15,3.91602494733357E-14,
210.599489151816));
#1638=CARTESIAN_POINT('Origin',(-1.66533453693773E-15,3.91602494733357E-14,
210.599489151816));
#1639=CARTESIAN_POINT('Origin',(-1.66533453693773E-15,-3.47999999999996,
210.599489151816));
#1640=CARTESIAN_POINT('Origin',(0.,-3.47999999999998,115.271579913498));
#1641=CARTESIAN_POINT('Origin',(0.,2.19620230179E-14,115.271579913498));
#1642=UNCERTAINTY_MEASURE_WITH_UNIT(LENGTH_MEASURE(0.01),#1646,
'DISTANCE_ACCURACY_VALUE',
'Maximum model space distance between geometric entities at asserted c
onnectivities');
#1643=UNCERTAINTY_MEASURE_WITH_UNIT(LENGTH_MEASURE(0.01),#1646,
'DISTANCE_ACCURACY_VALUE',
'Maximum model space distance between geometric entities at asserted c
onnectivities');
#1644=(
GEOMETRIC_REPRESENTATION_CONTEXT(3)
GLOBAL_UNCERTAINTY_ASSIGNED_CONTEXT((#1642))
GLOBAL_UNIT_ASSIGNED_CONTEXT((#1646,#1648,#1649))
REPRESENTATION_CONTEXT('','3D')
);
#1645=(
GEOMETRIC_REPRESENTATION_CONTEXT(3)
GLOBAL_UNCERTAINTY_ASSIGNED_CONTEXT((#1643))
GLOBAL_UNIT_ASSIGNED_CONTEXT((#1646,#1648,#1649))
REPRESENTATION_CONTEXT('','3D')
);
#1646=(
LENGTH_UNIT()
NAMED_UNIT(*)
SI_UNIT(.MILLI.,.METRE.)
);
#1647=(
LENGTH_UNIT()
NAMED_UNIT(*)
SI_UNIT($,.METRE.)
);
#1648=(
NAMED_UNIT(*)
PLANE_ANGLE_UNIT()
SI_UNIT($,.RADIAN.)
);
#1649=(
NAMED_UNIT(*)
SI_UNIT($,.STERADIAN.)
SOLID_ANGLE_UNIT()
);
#1650=SHAPE_DEFINITION_REPRESENTATION(#1651,#1652);
#1651=PRODUCT_DEFINITION_SHAPE('',$,#1654);
#1652=SHAPE_REPRESENTATION('',(#1042),#1644);
#1653=PRODUCT_DEFINITION_CONTEXT('part definition',#1658,'design');
#1654=PRODUCT_DEFINITION('motor_stand_2','motor_stand_2',#1655,#1653);
#1655=PRODUCT_DEFINITION_FORMATION('',$,#1660);
#1656=PRODUCT_RELATED_PRODUCT_CATEGORY('motor_stand_2','motor_stand_2',
(#1660));
#1657=APPLICATION_PROTOCOL_DEFINITION('international standard',
'automotive_design',2009,#1658);
#1658=APPLICATION_CONTEXT(
'Core Data for Automotive Mechanical Design Process');
#1659=PRODUCT_CONTEXT('part definition',#1658,'mechanical');
#1660=PRODUCT('motor_stand_2','motor_stand_2',$,(#1659));
#1661=PRESENTATION_STYLE_ASSIGNMENT((#1662));
#1662=SURFACE_STYLE_USAGE(.BOTH.,#1663);
#1663=SURFACE_SIDE_STYLE('',(#1664));
#1664=SURFACE_STYLE_FILL_AREA(#1665);
#1665=FILL_AREA_STYLE('Steel - Satin',(#1666));
#1666=FILL_AREA_STYLE_COLOUR('Steel - Satin',#1667);
#1667=COLOUR_RGB('Steel - Satin',0.627450980392157,0.627450980392157,0.627450980392157);
ENDSEC;
END-ISO-10303-21;
