ISO-10303-21;
HEADER;
/* Generated by software containing ST-Developer
 * from STEP Tools, Inc. (www.steptools.com) 
 */

FILE_DESCRIPTION(
/* description */ (''),
/* implementation_level */ '2;1');

FILE_NAME(
/* name */ 'motor_stand_1.step',
/* time_stamp */ '2026-05-25T07:11:27+05:30',
/* author */ (''),
/* organization */ (''),
/* preprocessor_version */ 'ST-DEVELOPER v20.1',
/* originating_system */ 'Autodesk Translation Framework v15.8.0.0',
/* authorisation */ '');

FILE_SCHEMA (('AUTOMOTIVE_DESIGN { 1 0 10303 214 3 1 1 }'));
ENDSEC;

DATA;
#10=MECHANICAL_DESIGN_GEOMETRIC_PRESENTATION_REPRESENTATION('',(#13),#1624);
#11=SHAPE_REPRESENTATION_RELATIONSHIP('SRR','None',#1631,#12);
#12=ADVANCED_BREP_SHAPE_REPRESENTATION('',(#14),#1623);
#13=STYLED_ITEM('',(#1640),#14);
#14=MANIFOLD_SOLID_BREP('Body1',#1012);
#15=FACE_BOUND('',#162,.T.);
#16=FACE_BOUND('',#163,.T.);
#17=FACE_BOUND('',#164,.T.);
#18=FACE_BOUND('',#166,.T.);
#19=FACE_BOUND('',#167,.T.);
#20=FACE_BOUND('',#168,.T.);
#21=PLANE('',#1035);
#22=PLANE('',#1036);
#23=PLANE('',#1037);
#24=PLANE('',#1038);
#25=PLANE('',#1039);
#26=PLANE('',#1040);
#27=PLANE('',#1041);
#28=PLANE('',#1042);
#29=PLANE('',#1043);
#30=PLANE('',#1044);
#31=PLANE('',#1045);
#32=PLANE('',#1046);
#33=PLANE('',#1047);
#34=PLANE('',#1048);
#35=PLANE('',#1049);
#36=PLANE('',#1050);
#37=PLANE('',#1051);
#38=PLANE('',#1052);
#39=PLANE('',#1053);
#40=PLANE('',#1054);
#41=PLANE('',#1055);
#42=PLANE('',#1056);
#43=PLANE('',#1057);
#44=PLANE('',#1058);
#45=PLANE('',#1059);
#46=PLANE('',#1060);
#47=PLANE('',#1061);
#48=PLANE('',#1062);
#49=PLANE('',#1063);
#50=PLANE('',#1064);
#51=PLANE('',#1065);
#52=PLANE('',#1066);
#53=PLANE('',#1067);
#54=PLANE('',#1068);
#55=PLANE('',#1069);
#56=PLANE('',#1070);
#57=PLANE('',#1071);
#58=PLANE('',#1072);
#59=PLANE('',#1073);
#60=PLANE('',#1077);
#61=PLANE('',#1078);
#62=PLANE('',#1079);
#63=PLANE('',#1083);
#64=PLANE('',#1084);
#65=FACE_OUTER_BOUND('',#114,.T.);
#66=FACE_OUTER_BOUND('',#115,.T.);
#67=FACE_OUTER_BOUND('',#116,.T.);
#68=FACE_OUTER_BOUND('',#117,.T.);
#69=FACE_OUTER_BOUND('',#118,.T.);
#70=FACE_OUTER_BOUND('',#119,.T.);
#71=FACE_OUTER_BOUND('',#120,.T.);
#72=FACE_OUTER_BOUND('',#121,.T.);
#73=FACE_OUTER_BOUND('',#122,.T.);
#74=FACE_OUTER_BOUND('',#123,.T.);
#75=FACE_OUTER_BOUND('',#124,.T.);
#76=FACE_OUTER_BOUND('',#125,.T.);
#77=FACE_OUTER_BOUND('',#126,.T.);
#78=FACE_OUTER_BOUND('',#127,.T.);
#79=FACE_OUTER_BOUND('',#128,.T.);
#80=FACE_OUTER_BOUND('',#129,.T.);
#81=FACE_OUTER_BOUND('',#130,.T.);
#82=FACE_OUTER_BOUND('',#131,.T.);
#83=FACE_OUTER_BOUND('',#132,.T.);
#84=FACE_OUTER_BOUND('',#133,.T.);
#85=FACE_OUTER_BOUND('',#134,.T.);
#86=FACE_OUTER_BOUND('',#135,.T.);
#87=FACE_OUTER_BOUND('',#136,.T.);
#88=FACE_OUTER_BOUND('',#137,.T.);
#89=FACE_OUTER_BOUND('',#138,.T.);
#90=FACE_OUTER_BOUND('',#139,.T.);
#91=FACE_OUTER_BOUND('',#140,.T.);
#92=FACE_OUTER_BOUND('',#141,.T.);
#93=FACE_OUTER_BOUND('',#142,.T.);
#94=FACE_OUTER_BOUND('',#143,.T.);
#95=FACE_OUTER_BOUND('',#144,.T.);
#96=FACE_OUTER_BOUND('',#145,.T.);
#97=FACE_OUTER_BOUND('',#146,.T.);
#98=FACE_OUTER_BOUND('',#147,.T.);
#99=FACE_OUTER_BOUND('',#148,.T.);
#100=FACE_OUTER_BOUND('',#149,.T.);
#101=FACE_OUTER_BOUND('',#150,.T.);
#102=FACE_OUTER_BOUND('',#151,.T.);
#103=FACE_OUTER_BOUND('',#152,.T.);
#104=FACE_OUTER_BOUND('',#153,.T.);
#105=FACE_OUTER_BOUND('',#154,.T.);
#106=FACE_OUTER_BOUND('',#155,.T.);
#107=FACE_OUTER_BOUND('',#156,.T.);
#108=FACE_OUTER_BOUND('',#157,.T.);
#109=FACE_OUTER_BOUND('',#158,.T.);
#110=FACE_OUTER_BOUND('',#159,.T.);
#111=FACE_OUTER_BOUND('',#160,.T.);
#112=FACE_OUTER_BOUND('',#161,.T.);
#113=FACE_OUTER_BOUND('',#165,.T.);
#114=EDGE_LOOP('',(#676,#677,#678,#679));
#115=EDGE_LOOP('',(#680,#681,#682,#683));
#116=EDGE_LOOP('',(#684,#685,#686,#687));
#117=EDGE_LOOP('',(#688,#689,#690,#691));
#118=EDGE_LOOP('',(#692,#693,#694,#695));
#119=EDGE_LOOP('',(#696,#697,#698,#699));
#120=EDGE_LOOP('',(#700,#701,#702,#703));
#121=EDGE_LOOP('',(#704,#705,#706,#707));
#122=EDGE_LOOP('',(#708,#709,#710,#711));
#123=EDGE_LOOP('',(#712,#713,#714,#715));
#124=EDGE_LOOP('',(#716,#717,#718,#719));
#125=EDGE_LOOP('',(#720,#721,#722,#723));
#126=EDGE_LOOP('',(#724,#725,#726,#727));
#127=EDGE_LOOP('',(#728,#729,#730,#731));
#128=EDGE_LOOP('',(#732,#733,#734,#735));
#129=EDGE_LOOP('',(#736,#737,#738,#739));
#130=EDGE_LOOP('',(#740,#741,#742,#743));
#131=EDGE_LOOP('',(#744,#745,#746,#747));
#132=EDGE_LOOP('',(#748,#749,#750,#751));
#133=EDGE_LOOP('',(#752,#753,#754,#755));
#134=EDGE_LOOP('',(#756,#757,#758,#759));
#135=EDGE_LOOP('',(#760,#761,#762,#763));
#136=EDGE_LOOP('',(#764,#765,#766,#767));
#137=EDGE_LOOP('',(#768,#769,#770,#771));
#138=EDGE_LOOP('',(#772,#773,#774,#775));
#139=EDGE_LOOP('',(#776,#777,#778,#779));
#140=EDGE_LOOP('',(#780,#781,#782,#783));
#141=EDGE_LOOP('',(#784,#785,#786,#787));
#142=EDGE_LOOP('',(#788,#789,#790,#791));
#143=EDGE_LOOP('',(#792,#793,#794,#795));
#144=EDGE_LOOP('',(#796,#797,#798,#799));
#145=EDGE_LOOP('',(#800,#801,#802,#803));
#146=EDGE_LOOP('',(#804,#805,#806,#807));
#147=EDGE_LOOP('',(#808,#809,#810,#811));
#148=EDGE_LOOP('',(#812,#813,#814,#815));
#149=EDGE_LOOP('',(#816,#817,#818,#819));
#150=EDGE_LOOP('',(#820,#821,#822,#823));
#151=EDGE_LOOP('',(#824,#825,#826,#827));
#152=EDGE_LOOP('',(#828,#829,#830,#831));
#153=EDGE_LOOP('',(#832,#833,#834,#835));
#154=EDGE_LOOP('',(#836,#837,#838,#839));
#155=EDGE_LOOP('',(#840,#841,#842,#843));
#156=EDGE_LOOP('',(#844,#845,#846,#847));
#157=EDGE_LOOP('',(#848,#849,#850,#851));
#158=EDGE_LOOP('',(#852,#853,#854,#855));
#159=EDGE_LOOP('',(#856,#857,#858,#859));
#160=EDGE_LOOP('',(#860,#861,#862,#863));
#161=EDGE_LOOP('',(#864,#865,#866,#867,#868,#869,#870,#871,#872,#873,#874,
#875,#876,#877,#878,#879,#880,#881,#882,#883,#884,#885,#886,#887,#888,#889,
#890,#891,#892,#893,#894,#895,#896,#897,#898,#899,#900,#901,#902,#903,#904,
#905,#906,#907));
#162=EDGE_LOOP('',(#908));
#163=EDGE_LOOP('',(#909));
#164=EDGE_LOOP('',(#910));
#165=EDGE_LOOP('',(#911,#912,#913,#914,#915,#916,#917,#918,#919,#920,#921,
#922,#923,#924,#925,#926,#927,#928,#929,#930,#931,#932,#933,#934,#935,#936,
#937,#938,#939,#940,#941,#942,#943,#944,#945,#946,#947,#948,#949,#950,#951,
#952,#953,#954));
#166=EDGE_LOOP('',(#955));
#167=EDGE_LOOP('',(#956));
#168=EDGE_LOOP('',(#957));
#169=LINE('',#1341,#300);
#170=LINE('',#1347,#301);
#171=LINE('',#1353,#302);
#172=LINE('',#1358,#303);
#173=LINE('',#1360,#304);
#174=LINE('',#1362,#305);
#175=LINE('',#1363,#306);
#176=LINE('',#1366,#307);
#177=LINE('',#1368,#308);
#178=LINE('',#1369,#309);
#179=LINE('',#1372,#310);
#180=LINE('',#1374,#311);
#181=LINE('',#1375,#312);
#182=LINE('',#1378,#313);
#183=LINE('',#1380,#314);
#184=LINE('',#1381,#315);
#185=LINE('',#1384,#316);
#186=LINE('',#1386,#317);
#187=LINE('',#1387,#318);
#188=LINE('',#1390,#319);
#189=LINE('',#1392,#320);
#190=LINE('',#1393,#321);
#191=LINE('',#1396,#322);
#192=LINE('',#1398,#323);
#193=LINE('',#1399,#324);
#194=LINE('',#1402,#325);
#195=LINE('',#1404,#326);
#196=LINE('',#1405,#327);
#197=LINE('',#1408,#328);
#198=LINE('',#1410,#329);
#199=LINE('',#1411,#330);
#200=LINE('',#1414,#331);
#201=LINE('',#1416,#332);
#202=LINE('',#1417,#333);
#203=LINE('',#1420,#334);
#204=LINE('',#1422,#335);
#205=LINE('',#1423,#336);
#206=LINE('',#1426,#337);
#207=LINE('',#1428,#338);
#208=LINE('',#1429,#339);
#209=LINE('',#1432,#340);
#210=LINE('',#1434,#341);
#211=LINE('',#1435,#342);
#212=LINE('',#1438,#343);
#213=LINE('',#1440,#344);
#214=LINE('',#1441,#345);
#215=LINE('',#1444,#346);
#216=LINE('',#1446,#347);
#217=LINE('',#1447,#348);
#218=LINE('',#1450,#349);
#219=LINE('',#1452,#350);
#220=LINE('',#1453,#351);
#221=LINE('',#1456,#352);
#222=LINE('',#1458,#353);
#223=LINE('',#1459,#354);
#224=LINE('',#1462,#355);
#225=LINE('',#1464,#356);
#226=LINE('',#1465,#357);
#227=LINE('',#1468,#358);
#228=LINE('',#1470,#359);
#229=LINE('',#1471,#360);
#230=LINE('',#1474,#361);
#231=LINE('',#1476,#362);
#232=LINE('',#1477,#363);
#233=LINE('',#1480,#364);
#234=LINE('',#1482,#365);
#235=LINE('',#1483,#366);
#236=LINE('',#1486,#367);
#237=LINE('',#1488,#368);
#238=LINE('',#1489,#369);
#239=LINE('',#1492,#370);
#240=LINE('',#1494,#371);
#241=LINE('',#1495,#372);
#242=LINE('',#1498,#373);
#243=LINE('',#1500,#374);
#244=LINE('',#1501,#375);
#245=LINE('',#1504,#376);
#246=LINE('',#1506,#377);
#247=LINE('',#1507,#378);
#248=LINE('',#1510,#379);
#249=LINE('',#1512,#380);
#250=LINE('',#1513,#381);
#251=LINE('',#1516,#382);
#252=LINE('',#1518,#383);
#253=LINE('',#1519,#384);
#254=LINE('',#1522,#385);
#255=LINE('',#1524,#386);
#256=LINE('',#1525,#387);
#257=LINE('',#1528,#388);
#258=LINE('',#1530,#389);
#259=LINE('',#1531,#390);
#260=LINE('',#1534,#391);
#261=LINE('',#1536,#392);
#262=LINE('',#1537,#393);
#263=LINE('',#1540,#394);
#264=LINE('',#1542,#395);
#265=LINE('',#1543,#396);
#266=LINE('',#1546,#397);
#267=LINE('',#1548,#398);
#268=LINE('',#1549,#399);
#269=LINE('',#1552,#400);
#270=LINE('',#1554,#401);
#271=LINE('',#1555,#402);
#272=LINE('',#1558,#403);
#273=LINE('',#1560,#404);
#274=LINE('',#1561,#405);
#275=LINE('',#1564,#406);
#276=LINE('',#1566,#407);
#277=LINE('',#1567,#408);
#278=LINE('',#1570,#409);
#279=LINE('',#1572,#410);
#280=LINE('',#1573,#411);
#281=LINE('',#1576,#412);
#282=LINE('',#1578,#413);
#283=LINE('',#1579,#414);
#284=LINE('',#1582,#415);
#285=LINE('',#1584,#416);
#286=LINE('',#1585,#417);
#287=LINE('',#1588,#418);
#288=LINE('',#1590,#419);
#289=LINE('',#1591,#420);
#290=LINE('',#1597,#421);
#291=LINE('',#1600,#422);
#292=LINE('',#1602,#423);
#293=LINE('',#1603,#424);
#294=LINE('',#1606,#425);
#295=LINE('',#1608,#426);
#296=LINE('',#1609,#427);
#297=LINE('',#1612,#428);
#298=LINE('',#1614,#429);
#299=LINE('',#1615,#430);
#300=VECTOR('',#1091,1.99999999999999);
#301=VECTOR('',#1098,1.99999999999999);
#302=VECTOR('',#1105,7.5);
#303=VECTOR('',#1110,10.);
#304=VECTOR('',#1111,10.);
#305=VECTOR('',#1112,10.);
#306=VECTOR('',#1113,10.);
#307=VECTOR('',#1116,10.);
#308=VECTOR('',#1117,10.);
#309=VECTOR('',#1118,10.);
#310=VECTOR('',#1121,10.);
#311=VECTOR('',#1122,10.);
#312=VECTOR('',#1123,10.);
#313=VECTOR('',#1126,10.);
#314=VECTOR('',#1127,10.);
#315=VECTOR('',#1128,10.);
#316=VECTOR('',#1131,10.);
#317=VECTOR('',#1132,10.);
#318=VECTOR('',#1133,10.);
#319=VECTOR('',#1136,10.);
#320=VECTOR('',#1137,10.);
#321=VECTOR('',#1138,10.);
#322=VECTOR('',#1141,10.);
#323=VECTOR('',#1142,10.);
#324=VECTOR('',#1143,10.);
#325=VECTOR('',#1146,10.);
#326=VECTOR('',#1147,10.);
#327=VECTOR('',#1148,10.);
#328=VECTOR('',#1151,10.);
#329=VECTOR('',#1152,10.);
#330=VECTOR('',#1153,10.);
#331=VECTOR('',#1156,10.);
#332=VECTOR('',#1157,10.);
#333=VECTOR('',#1158,10.);
#334=VECTOR('',#1161,10.);
#335=VECTOR('',#1162,10.);
#336=VECTOR('',#1163,10.);
#337=VECTOR('',#1166,10.);
#338=VECTOR('',#1167,10.);
#339=VECTOR('',#1168,10.);
#340=VECTOR('',#1171,10.);
#341=VECTOR('',#1172,10.);
#342=VECTOR('',#1173,10.);
#343=VECTOR('',#1176,10.);
#344=VECTOR('',#1177,10.);
#345=VECTOR('',#1178,10.);
#346=VECTOR('',#1181,10.);
#347=VECTOR('',#1182,10.);
#348=VECTOR('',#1183,10.);
#349=VECTOR('',#1186,10.);
#350=VECTOR('',#1187,10.);
#351=VECTOR('',#1188,10.);
#352=VECTOR('',#1191,10.);
#353=VECTOR('',#1192,10.);
#354=VECTOR('',#1193,10.);
#355=VECTOR('',#1196,10.);
#356=VECTOR('',#1197,10.);
#357=VECTOR('',#1198,10.);
#358=VECTOR('',#1201,10.);
#359=VECTOR('',#1202,10.);
#360=VECTOR('',#1203,10.);
#361=VECTOR('',#1206,10.);
#362=VECTOR('',#1207,10.);
#363=VECTOR('',#1208,10.);
#364=VECTOR('',#1211,10.);
#365=VECTOR('',#1212,10.);
#366=VECTOR('',#1213,10.);
#367=VECTOR('',#1216,10.);
#368=VECTOR('',#1217,10.);
#369=VECTOR('',#1218,10.);
#370=VECTOR('',#1221,10.);
#371=VECTOR('',#1222,10.);
#372=VECTOR('',#1223,10.);
#373=VECTOR('',#1226,10.);
#374=VECTOR('',#1227,10.);
#375=VECTOR('',#1228,10.);
#376=VECTOR('',#1231,10.);
#377=VECTOR('',#1232,10.);
#378=VECTOR('',#1233,10.);
#379=VECTOR('',#1236,10.);
#380=VECTOR('',#1237,10.);
#381=VECTOR('',#1238,10.);
#382=VECTOR('',#1241,10.);
#383=VECTOR('',#1242,10.);
#384=VECTOR('',#1243,10.);
#385=VECTOR('',#1246,10.);
#386=VECTOR('',#1247,10.);
#387=VECTOR('',#1248,10.);
#388=VECTOR('',#1251,10.);
#389=VECTOR('',#1252,10.);
#390=VECTOR('',#1253,10.);
#391=VECTOR('',#1256,10.);
#392=VECTOR('',#1257,10.);
#393=VECTOR('',#1258,10.);
#394=VECTOR('',#1261,10.);
#395=VECTOR('',#1262,10.);
#396=VECTOR('',#1263,10.);
#397=VECTOR('',#1266,10.);
#398=VECTOR('',#1267,10.);
#399=VECTOR('',#1268,10.);
#400=VECTOR('',#1271,10.);
#401=VECTOR('',#1272,10.);
#402=VECTOR('',#1273,10.);
#403=VECTOR('',#1276,10.);
#404=VECTOR('',#1277,10.);
#405=VECTOR('',#1278,10.);
#406=VECTOR('',#1281,10.);
#407=VECTOR('',#1282,10.);
#408=VECTOR('',#1283,10.);
#409=VECTOR('',#1286,10.);
#410=VECTOR('',#1287,10.);
#411=VECTOR('',#1288,10.);
#412=VECTOR('',#1291,10.);
#413=VECTOR('',#1292,10.);
#414=VECTOR('',#1293,10.);
#415=VECTOR('',#1296,10.);
#416=VECTOR('',#1297,10.);
#417=VECTOR('',#1298,10.);
#418=VECTOR('',#1301,10.);
#419=VECTOR('',#1302,10.);
#420=VECTOR('',#1303,10.);
#421=VECTOR('',#1310,10.);
#422=VECTOR('',#1313,10.);
#423=VECTOR('',#1314,10.);
#424=VECTOR('',#1315,10.);
#425=VECTOR('',#1318,10.);
#426=VECTOR('',#1319,10.);
#427=VECTOR('',#1320,10.);
#428=VECTOR('',#1323,10.);
#429=VECTOR('',#1324,10.);
#430=VECTOR('',#1325,10.);
#431=CIRCLE('',#1027,1.99999999999999);
#432=CIRCLE('',#1028,1.99999999999999);
#433=CIRCLE('',#1030,1.99999999999999);
#434=CIRCLE('',#1031,1.99999999999999);
#435=CIRCLE('',#1033,7.5);
#436=CIRCLE('',#1034,7.5);
#437=CIRCLE('',#1075,20.0000000000004);
#438=CIRCLE('',#1076,20.0000000000004);
#439=CIRCLE('',#1081,20.0000000000004);
#440=CIRCLE('',#1082,20.0000000000004);
#441=VERTEX_POINT('',#1338);
#442=VERTEX_POINT('',#1340);
#443=VERTEX_POINT('',#1344);
#444=VERTEX_POINT('',#1346);
#445=VERTEX_POINT('',#1350);
#446=VERTEX_POINT('',#1352);
#447=VERTEX_POINT('',#1356);
#448=VERTEX_POINT('',#1357);
#449=VERTEX_POINT('',#1359);
#450=VERTEX_POINT('',#1361);
#451=VERTEX_POINT('',#1365);
#452=VERTEX_POINT('',#1367);
#453=VERTEX_POINT('',#1371);
#454=VERTEX_POINT('',#1373);
#455=VERTEX_POINT('',#1377);
#456=VERTEX_POINT('',#1379);
#457=VERTEX_POINT('',#1383);
#458=VERTEX_POINT('',#1385);
#459=VERTEX_POINT('',#1389);
#460=VERTEX_POINT('',#1391);
#461=VERTEX_POINT('',#1395);
#462=VERTEX_POINT('',#1397);
#463=VERTEX_POINT('',#1401);
#464=VERTEX_POINT('',#1403);
#465=VERTEX_POINT('',#1407);
#466=VERTEX_POINT('',#1409);
#467=VERTEX_POINT('',#1413);
#468=VERTEX_POINT('',#1415);
#469=VERTEX_POINT('',#1419);
#470=VERTEX_POINT('',#1421);
#471=VERTEX_POINT('',#1425);
#472=VERTEX_POINT('',#1427);
#473=VERTEX_POINT('',#1431);
#474=VERTEX_POINT('',#1433);
#475=VERTEX_POINT('',#1437);
#476=VERTEX_POINT('',#1439);
#477=VERTEX_POINT('',#1443);
#478=VERTEX_POINT('',#1445);
#479=VERTEX_POINT('',#1449);
#480=VERTEX_POINT('',#1451);
#481=VERTEX_POINT('',#1455);
#482=VERTEX_POINT('',#1457);
#483=VERTEX_POINT('',#1461);
#484=VERTEX_POINT('',#1463);
#485=VERTEX_POINT('',#1467);
#486=VERTEX_POINT('',#1469);
#487=VERTEX_POINT('',#1473);
#488=VERTEX_POINT('',#1475);
#489=VERTEX_POINT('',#1479);
#490=VERTEX_POINT('',#1481);
#491=VERTEX_POINT('',#1485);
#492=VERTEX_POINT('',#1487);
#493=VERTEX_POINT('',#1491);
#494=VERTEX_POINT('',#1493);
#495=VERTEX_POINT('',#1497);
#496=VERTEX_POINT('',#1499);
#497=VERTEX_POINT('',#1503);
#498=VERTEX_POINT('',#1505);
#499=VERTEX_POINT('',#1509);
#500=VERTEX_POINT('',#1511);
#501=VERTEX_POINT('',#1515);
#502=VERTEX_POINT('',#1517);
#503=VERTEX_POINT('',#1521);
#504=VERTEX_POINT('',#1523);
#505=VERTEX_POINT('',#1527);
#506=VERTEX_POINT('',#1529);
#507=VERTEX_POINT('',#1533);
#508=VERTEX_POINT('',#1535);
#509=VERTEX_POINT('',#1539);
#510=VERTEX_POINT('',#1541);
#511=VERTEX_POINT('',#1545);
#512=VERTEX_POINT('',#1547);
#513=VERTEX_POINT('',#1551);
#514=VERTEX_POINT('',#1553);
#515=VERTEX_POINT('',#1557);
#516=VERTEX_POINT('',#1559);
#517=VERTEX_POINT('',#1563);
#518=VERTEX_POINT('',#1565);
#519=VERTEX_POINT('',#1569);
#520=VERTEX_POINT('',#1571);
#521=VERTEX_POINT('',#1575);
#522=VERTEX_POINT('',#1577);
#523=VERTEX_POINT('',#1581);
#524=VERTEX_POINT('',#1583);
#525=VERTEX_POINT('',#1587);
#526=VERTEX_POINT('',#1589);
#527=VERTEX_POINT('',#1593);
#528=VERTEX_POINT('',#1595);
#529=VERTEX_POINT('',#1599);
#530=VERTEX_POINT('',#1601);
#531=VERTEX_POINT('',#1605);
#532=VERTEX_POINT('',#1607);
#533=VERTEX_POINT('',#1611);
#534=VERTEX_POINT('',#1613);
#535=EDGE_CURVE('',#441,#441,#431,.T.);
#536=EDGE_CURVE('',#441,#442,#169,.T.);
#537=EDGE_CURVE('',#442,#442,#432,.T.);
#538=EDGE_CURVE('',#443,#443,#433,.T.);
#539=EDGE_CURVE('',#443,#444,#170,.T.);
#540=EDGE_CURVE('',#444,#444,#434,.T.);
#541=EDGE_CURVE('',#445,#445,#435,.T.);
#542=EDGE_CURVE('',#445,#446,#171,.T.);
#543=EDGE_CURVE('',#446,#446,#436,.T.);
#544=EDGE_CURVE('',#447,#448,#172,.T.);
#545=EDGE_CURVE('',#447,#449,#173,.T.);
#546=EDGE_CURVE('',#450,#449,#174,.T.);
#547=EDGE_CURVE('',#448,#450,#175,.T.);
#548=EDGE_CURVE('',#451,#448,#176,.T.);
#549=EDGE_CURVE('',#452,#450,#177,.T.);
#550=EDGE_CURVE('',#451,#452,#178,.T.);
#551=EDGE_CURVE('',#453,#451,#179,.T.);
#552=EDGE_CURVE('',#454,#452,#180,.T.);
#553=EDGE_CURVE('',#453,#454,#181,.T.);
#554=EDGE_CURVE('',#455,#453,#182,.T.);
#555=EDGE_CURVE('',#456,#454,#183,.T.);
#556=EDGE_CURVE('',#455,#456,#184,.T.);
#557=EDGE_CURVE('',#455,#457,#185,.T.);
#558=EDGE_CURVE('',#458,#456,#186,.T.);
#559=EDGE_CURVE('',#457,#458,#187,.T.);
#560=EDGE_CURVE('',#459,#457,#188,.T.);
#561=EDGE_CURVE('',#460,#458,#189,.T.);
#562=EDGE_CURVE('',#459,#460,#190,.T.);
#563=EDGE_CURVE('',#461,#459,#191,.T.);
#564=EDGE_CURVE('',#462,#460,#192,.T.);
#565=EDGE_CURVE('',#461,#462,#193,.T.);
#566=EDGE_CURVE('',#463,#461,#194,.T.);
#567=EDGE_CURVE('',#464,#462,#195,.T.);
#568=EDGE_CURVE('',#463,#464,#196,.T.);
#569=EDGE_CURVE('',#463,#465,#197,.T.);
#570=EDGE_CURVE('',#466,#464,#198,.T.);
#571=EDGE_CURVE('',#465,#466,#199,.T.);
#572=EDGE_CURVE('',#465,#467,#200,.T.);
#573=EDGE_CURVE('',#468,#466,#201,.T.);
#574=EDGE_CURVE('',#467,#468,#202,.T.);
#575=EDGE_CURVE('',#467,#469,#203,.T.);
#576=EDGE_CURVE('',#470,#468,#204,.T.);
#577=EDGE_CURVE('',#469,#470,#205,.T.);
#578=EDGE_CURVE('',#469,#471,#206,.T.);
#579=EDGE_CURVE('',#472,#470,#207,.T.);
#580=EDGE_CURVE('',#471,#472,#208,.T.);
#581=EDGE_CURVE('',#471,#473,#209,.T.);
#582=EDGE_CURVE('',#474,#472,#210,.T.);
#583=EDGE_CURVE('',#473,#474,#211,.T.);
#584=EDGE_CURVE('',#475,#473,#212,.T.);
#585=EDGE_CURVE('',#476,#474,#213,.T.);
#586=EDGE_CURVE('',#475,#476,#214,.T.);
#587=EDGE_CURVE('',#475,#477,#215,.T.);
#588=EDGE_CURVE('',#478,#476,#216,.T.);
#589=EDGE_CURVE('',#477,#478,#217,.T.);
#590=EDGE_CURVE('',#477,#479,#218,.T.);
#591=EDGE_CURVE('',#480,#478,#219,.T.);
#592=EDGE_CURVE('',#479,#480,#220,.T.);
#593=EDGE_CURVE('',#479,#481,#221,.T.);
#594=EDGE_CURVE('',#482,#480,#222,.T.);
#595=EDGE_CURVE('',#481,#482,#223,.T.);
#596=EDGE_CURVE('',#483,#481,#224,.T.);
#597=EDGE_CURVE('',#484,#482,#225,.T.);
#598=EDGE_CURVE('',#483,#484,#226,.T.);
#599=EDGE_CURVE('',#483,#485,#227,.T.);
#600=EDGE_CURVE('',#486,#484,#228,.T.);
#601=EDGE_CURVE('',#485,#486,#229,.T.);
#602=EDGE_CURVE('',#485,#487,#230,.T.);
#603=EDGE_CURVE('',#488,#486,#231,.T.);
#604=EDGE_CURVE('',#487,#488,#232,.T.);
#605=EDGE_CURVE('',#487,#489,#233,.T.);
#606=EDGE_CURVE('',#490,#488,#234,.T.);
#607=EDGE_CURVE('',#489,#490,#235,.T.);
#608=EDGE_CURVE('',#491,#489,#236,.T.);
#609=EDGE_CURVE('',#492,#490,#237,.T.);
#610=EDGE_CURVE('',#491,#492,#238,.T.);
#611=EDGE_CURVE('',#493,#491,#239,.T.);
#612=EDGE_CURVE('',#494,#492,#240,.T.);
#613=EDGE_CURVE('',#493,#494,#241,.T.);
#614=EDGE_CURVE('',#495,#493,#242,.T.);
#615=EDGE_CURVE('',#496,#494,#243,.T.);
#616=EDGE_CURVE('',#495,#496,#244,.T.);
#617=EDGE_CURVE('',#497,#495,#245,.T.);
#618=EDGE_CURVE('',#498,#496,#246,.T.);
#619=EDGE_CURVE('',#497,#498,#247,.T.);
#620=EDGE_CURVE('',#499,#497,#248,.T.);
#621=EDGE_CURVE('',#500,#498,#249,.T.);
#622=EDGE_CURVE('',#499,#500,#250,.T.);
#623=EDGE_CURVE('',#499,#501,#251,.T.);
#624=EDGE_CURVE('',#502,#500,#252,.T.);
#625=EDGE_CURVE('',#501,#502,#253,.T.);
#626=EDGE_CURVE('',#503,#501,#254,.T.);
#627=EDGE_CURVE('',#504,#502,#255,.T.);
#628=EDGE_CURVE('',#503,#504,#256,.T.);
#629=EDGE_CURVE('',#505,#503,#257,.T.);
#630=EDGE_CURVE('',#506,#504,#258,.T.);
#631=EDGE_CURVE('',#505,#506,#259,.T.);
#632=EDGE_CURVE('',#507,#505,#260,.T.);
#633=EDGE_CURVE('',#508,#506,#261,.T.);
#634=EDGE_CURVE('',#507,#508,#262,.T.);
#635=EDGE_CURVE('',#507,#509,#263,.T.);
#636=EDGE_CURVE('',#510,#508,#264,.T.);
#637=EDGE_CURVE('',#509,#510,#265,.T.);
#638=EDGE_CURVE('',#509,#511,#266,.T.);
#639=EDGE_CURVE('',#512,#510,#267,.T.);
#640=EDGE_CURVE('',#511,#512,#268,.T.);
#641=EDGE_CURVE('',#511,#513,#269,.T.);
#642=EDGE_CURVE('',#514,#512,#270,.T.);
#643=EDGE_CURVE('',#513,#514,#271,.T.);
#644=EDGE_CURVE('',#513,#515,#272,.T.);
#645=EDGE_CURVE('',#516,#514,#273,.T.);
#646=EDGE_CURVE('',#515,#516,#274,.T.);
#647=EDGE_CURVE('',#515,#517,#275,.T.);
#648=EDGE_CURVE('',#518,#516,#276,.T.);
#649=EDGE_CURVE('',#517,#518,#277,.T.);
#650=EDGE_CURVE('',#519,#517,#278,.T.);
#651=EDGE_CURVE('',#520,#518,#279,.T.);
#652=EDGE_CURVE('',#519,#520,#280,.T.);
#653=EDGE_CURVE('',#521,#519,#281,.T.);
#654=EDGE_CURVE('',#522,#520,#282,.T.);
#655=EDGE_CURVE('',#521,#522,#283,.T.);
#656=EDGE_CURVE('',#523,#521,#284,.T.);
#657=EDGE_CURVE('',#524,#522,#285,.T.);
#658=EDGE_CURVE('',#523,#524,#286,.T.);
#659=EDGE_CURVE('',#523,#525,#287,.T.);
#660=EDGE_CURVE('',#526,#524,#288,.T.);
#661=EDGE_CURVE('',#525,#526,#289,.T.);
#662=EDGE_CURVE('',#527,#525,#437,.T.);
#663=EDGE_CURVE('',#528,#526,#438,.T.);
#664=EDGE_CURVE('',#527,#528,#290,.T.);
#665=EDGE_CURVE('',#529,#527,#291,.T.);
#666=EDGE_CURVE('',#530,#528,#292,.T.);
#667=EDGE_CURVE('',#529,#530,#293,.T.);
#668=EDGE_CURVE('',#531,#529,#294,.T.);
#669=EDGE_CURVE('',#532,#530,#295,.T.);
#670=EDGE_CURVE('',#531,#532,#296,.T.);
#671=EDGE_CURVE('',#533,#531,#297,.T.);
#672=EDGE_CURVE('',#534,#532,#298,.T.);
#673=EDGE_CURVE('',#533,#534,#299,.T.);
#674=EDGE_CURVE('',#447,#533,#439,.T.);
#675=EDGE_CURVE('',#449,#534,#440,.T.);
#676=ORIENTED_EDGE('',*,*,#535,.F.);
#677=ORIENTED_EDGE('',*,*,#536,.T.);
#678=ORIENTED_EDGE('',*,*,#537,.T.);
#679=ORIENTED_EDGE('',*,*,#536,.F.);
#680=ORIENTED_EDGE('',*,*,#538,.F.);
#681=ORIENTED_EDGE('',*,*,#539,.T.);
#682=ORIENTED_EDGE('',*,*,#540,.T.);
#683=ORIENTED_EDGE('',*,*,#539,.F.);
#684=ORIENTED_EDGE('',*,*,#541,.F.);
#685=ORIENTED_EDGE('',*,*,#542,.T.);
#686=ORIENTED_EDGE('',*,*,#543,.T.);
#687=ORIENTED_EDGE('',*,*,#542,.F.);
#688=ORIENTED_EDGE('',*,*,#544,.F.);
#689=ORIENTED_EDGE('',*,*,#545,.T.);
#690=ORIENTED_EDGE('',*,*,#546,.F.);
#691=ORIENTED_EDGE('',*,*,#547,.F.);
#692=ORIENTED_EDGE('',*,*,#548,.T.);
#693=ORIENTED_EDGE('',*,*,#547,.T.);
#694=ORIENTED_EDGE('',*,*,#549,.F.);
#695=ORIENTED_EDGE('',*,*,#550,.F.);
#696=ORIENTED_EDGE('',*,*,#551,.T.);
#697=ORIENTED_EDGE('',*,*,#550,.T.);
#698=ORIENTED_EDGE('',*,*,#552,.F.);
#699=ORIENTED_EDGE('',*,*,#553,.F.);
#700=ORIENTED_EDGE('',*,*,#554,.T.);
#701=ORIENTED_EDGE('',*,*,#553,.T.);
#702=ORIENTED_EDGE('',*,*,#555,.F.);
#703=ORIENTED_EDGE('',*,*,#556,.F.);
#704=ORIENTED_EDGE('',*,*,#557,.F.);
#705=ORIENTED_EDGE('',*,*,#556,.T.);
#706=ORIENTED_EDGE('',*,*,#558,.F.);
#707=ORIENTED_EDGE('',*,*,#559,.F.);
#708=ORIENTED_EDGE('',*,*,#560,.T.);
#709=ORIENTED_EDGE('',*,*,#559,.T.);
#710=ORIENTED_EDGE('',*,*,#561,.F.);
#711=ORIENTED_EDGE('',*,*,#562,.F.);
#712=ORIENTED_EDGE('',*,*,#563,.T.);
#713=ORIENTED_EDGE('',*,*,#562,.T.);
#714=ORIENTED_EDGE('',*,*,#564,.F.);
#715=ORIENTED_EDGE('',*,*,#565,.F.);
#716=ORIENTED_EDGE('',*,*,#566,.T.);
#717=ORIENTED_EDGE('',*,*,#565,.T.);
#718=ORIENTED_EDGE('',*,*,#567,.F.);
#719=ORIENTED_EDGE('',*,*,#568,.F.);
#720=ORIENTED_EDGE('',*,*,#569,.F.);
#721=ORIENTED_EDGE('',*,*,#568,.T.);
#722=ORIENTED_EDGE('',*,*,#570,.F.);
#723=ORIENTED_EDGE('',*,*,#571,.F.);
#724=ORIENTED_EDGE('',*,*,#572,.F.);
#725=ORIENTED_EDGE('',*,*,#571,.T.);
#726=ORIENTED_EDGE('',*,*,#573,.F.);
#727=ORIENTED_EDGE('',*,*,#574,.F.);
#728=ORIENTED_EDGE('',*,*,#575,.F.);
#729=ORIENTED_EDGE('',*,*,#574,.T.);
#730=ORIENTED_EDGE('',*,*,#576,.F.);
#731=ORIENTED_EDGE('',*,*,#577,.F.);
#732=ORIENTED_EDGE('',*,*,#578,.F.);
#733=ORIENTED_EDGE('',*,*,#577,.T.);
#734=ORIENTED_EDGE('',*,*,#579,.F.);
#735=ORIENTED_EDGE('',*,*,#580,.F.);
#736=ORIENTED_EDGE('',*,*,#581,.F.);
#737=ORIENTED_EDGE('',*,*,#580,.T.);
#738=ORIENTED_EDGE('',*,*,#582,.F.);
#739=ORIENTED_EDGE('',*,*,#583,.F.);
#740=ORIENTED_EDGE('',*,*,#584,.T.);
#741=ORIENTED_EDGE('',*,*,#583,.T.);
#742=ORIENTED_EDGE('',*,*,#585,.F.);
#743=ORIENTED_EDGE('',*,*,#586,.F.);
#744=ORIENTED_EDGE('',*,*,#587,.F.);
#745=ORIENTED_EDGE('',*,*,#586,.T.);
#746=ORIENTED_EDGE('',*,*,#588,.F.);
#747=ORIENTED_EDGE('',*,*,#589,.F.);
#748=ORIENTED_EDGE('',*,*,#590,.F.);
#749=ORIENTED_EDGE('',*,*,#589,.T.);
#750=ORIENTED_EDGE('',*,*,#591,.F.);
#751=ORIENTED_EDGE('',*,*,#592,.F.);
#752=ORIENTED_EDGE('',*,*,#593,.F.);
#753=ORIENTED_EDGE('',*,*,#592,.T.);
#754=ORIENTED_EDGE('',*,*,#594,.F.);
#755=ORIENTED_EDGE('',*,*,#595,.F.);
#756=ORIENTED_EDGE('',*,*,#596,.T.);
#757=ORIENTED_EDGE('',*,*,#595,.T.);
#758=ORIENTED_EDGE('',*,*,#597,.F.);
#759=ORIENTED_EDGE('',*,*,#598,.F.);
#760=ORIENTED_EDGE('',*,*,#599,.F.);
#761=ORIENTED_EDGE('',*,*,#598,.T.);
#762=ORIENTED_EDGE('',*,*,#600,.F.);
#763=ORIENTED_EDGE('',*,*,#601,.F.);
#764=ORIENTED_EDGE('',*,*,#602,.F.);
#765=ORIENTED_EDGE('',*,*,#601,.T.);
#766=ORIENTED_EDGE('',*,*,#603,.F.);
#767=ORIENTED_EDGE('',*,*,#604,.F.);
#768=ORIENTED_EDGE('',*,*,#605,.F.);
#769=ORIENTED_EDGE('',*,*,#604,.T.);
#770=ORIENTED_EDGE('',*,*,#606,.F.);
#771=ORIENTED_EDGE('',*,*,#607,.F.);
#772=ORIENTED_EDGE('',*,*,#608,.T.);
#773=ORIENTED_EDGE('',*,*,#607,.T.);
#774=ORIENTED_EDGE('',*,*,#609,.F.);
#775=ORIENTED_EDGE('',*,*,#610,.F.);
#776=ORIENTED_EDGE('',*,*,#611,.T.);
#777=ORIENTED_EDGE('',*,*,#610,.T.);
#778=ORIENTED_EDGE('',*,*,#612,.F.);
#779=ORIENTED_EDGE('',*,*,#613,.F.);
#780=ORIENTED_EDGE('',*,*,#614,.T.);
#781=ORIENTED_EDGE('',*,*,#613,.T.);
#782=ORIENTED_EDGE('',*,*,#615,.F.);
#783=ORIENTED_EDGE('',*,*,#616,.F.);
#784=ORIENTED_EDGE('',*,*,#617,.T.);
#785=ORIENTED_EDGE('',*,*,#616,.T.);
#786=ORIENTED_EDGE('',*,*,#618,.F.);
#787=ORIENTED_EDGE('',*,*,#619,.F.);
#788=ORIENTED_EDGE('',*,*,#620,.T.);
#789=ORIENTED_EDGE('',*,*,#619,.T.);
#790=ORIENTED_EDGE('',*,*,#621,.F.);
#791=ORIENTED_EDGE('',*,*,#622,.F.);
#792=ORIENTED_EDGE('',*,*,#623,.F.);
#793=ORIENTED_EDGE('',*,*,#622,.T.);
#794=ORIENTED_EDGE('',*,*,#624,.F.);
#795=ORIENTED_EDGE('',*,*,#625,.F.);
#796=ORIENTED_EDGE('',*,*,#626,.T.);
#797=ORIENTED_EDGE('',*,*,#625,.T.);
#798=ORIENTED_EDGE('',*,*,#627,.F.);
#799=ORIENTED_EDGE('',*,*,#628,.F.);
#800=ORIENTED_EDGE('',*,*,#629,.T.);
#801=ORIENTED_EDGE('',*,*,#628,.T.);
#802=ORIENTED_EDGE('',*,*,#630,.F.);
#803=ORIENTED_EDGE('',*,*,#631,.F.);
#804=ORIENTED_EDGE('',*,*,#632,.T.);
#805=ORIENTED_EDGE('',*,*,#631,.T.);
#806=ORIENTED_EDGE('',*,*,#633,.F.);
#807=ORIENTED_EDGE('',*,*,#634,.F.);
#808=ORIENTED_EDGE('',*,*,#635,.F.);
#809=ORIENTED_EDGE('',*,*,#634,.T.);
#810=ORIENTED_EDGE('',*,*,#636,.F.);
#811=ORIENTED_EDGE('',*,*,#637,.F.);
#812=ORIENTED_EDGE('',*,*,#638,.F.);
#813=ORIENTED_EDGE('',*,*,#637,.T.);
#814=ORIENTED_EDGE('',*,*,#639,.F.);
#815=ORIENTED_EDGE('',*,*,#640,.F.);
#816=ORIENTED_EDGE('',*,*,#641,.F.);
#817=ORIENTED_EDGE('',*,*,#640,.T.);
#818=ORIENTED_EDGE('',*,*,#642,.F.);
#819=ORIENTED_EDGE('',*,*,#643,.F.);
#820=ORIENTED_EDGE('',*,*,#644,.F.);
#821=ORIENTED_EDGE('',*,*,#643,.T.);
#822=ORIENTED_EDGE('',*,*,#645,.F.);
#823=ORIENTED_EDGE('',*,*,#646,.F.);
#824=ORIENTED_EDGE('',*,*,#647,.F.);
#825=ORIENTED_EDGE('',*,*,#646,.T.);
#826=ORIENTED_EDGE('',*,*,#648,.F.);
#827=ORIENTED_EDGE('',*,*,#649,.F.);
#828=ORIENTED_EDGE('',*,*,#650,.T.);
#829=ORIENTED_EDGE('',*,*,#649,.T.);
#830=ORIENTED_EDGE('',*,*,#651,.F.);
#831=ORIENTED_EDGE('',*,*,#652,.F.);
#832=ORIENTED_EDGE('',*,*,#653,.T.);
#833=ORIENTED_EDGE('',*,*,#652,.T.);
#834=ORIENTED_EDGE('',*,*,#654,.F.);
#835=ORIENTED_EDGE('',*,*,#655,.F.);
#836=ORIENTED_EDGE('',*,*,#656,.T.);
#837=ORIENTED_EDGE('',*,*,#655,.T.);
#838=ORIENTED_EDGE('',*,*,#657,.F.);
#839=ORIENTED_EDGE('',*,*,#658,.F.);
#840=ORIENTED_EDGE('',*,*,#659,.F.);
#841=ORIENTED_EDGE('',*,*,#658,.T.);
#842=ORIENTED_EDGE('',*,*,#660,.F.);
#843=ORIENTED_EDGE('',*,*,#661,.F.);
#844=ORIENTED_EDGE('',*,*,#662,.T.);
#845=ORIENTED_EDGE('',*,*,#661,.T.);
#846=ORIENTED_EDGE('',*,*,#663,.F.);
#847=ORIENTED_EDGE('',*,*,#664,.F.);
#848=ORIENTED_EDGE('',*,*,#665,.T.);
#849=ORIENTED_EDGE('',*,*,#664,.T.);
#850=ORIENTED_EDGE('',*,*,#666,.F.);
#851=ORIENTED_EDGE('',*,*,#667,.F.);
#852=ORIENTED_EDGE('',*,*,#668,.T.);
#853=ORIENTED_EDGE('',*,*,#667,.T.);
#854=ORIENTED_EDGE('',*,*,#669,.F.);
#855=ORIENTED_EDGE('',*,*,#670,.F.);
#856=ORIENTED_EDGE('',*,*,#671,.T.);
#857=ORIENTED_EDGE('',*,*,#670,.T.);
#858=ORIENTED_EDGE('',*,*,#672,.F.);
#859=ORIENTED_EDGE('',*,*,#673,.F.);
#860=ORIENTED_EDGE('',*,*,#674,.T.);
#861=ORIENTED_EDGE('',*,*,#673,.T.);
#862=ORIENTED_EDGE('',*,*,#675,.F.);
#863=ORIENTED_EDGE('',*,*,#545,.F.);
#864=ORIENTED_EDGE('',*,*,#675,.T.);
#865=ORIENTED_EDGE('',*,*,#672,.T.);
#866=ORIENTED_EDGE('',*,*,#669,.T.);
#867=ORIENTED_EDGE('',*,*,#666,.T.);
#868=ORIENTED_EDGE('',*,*,#663,.T.);
#869=ORIENTED_EDGE('',*,*,#660,.T.);
#870=ORIENTED_EDGE('',*,*,#657,.T.);
#871=ORIENTED_EDGE('',*,*,#654,.T.);
#872=ORIENTED_EDGE('',*,*,#651,.T.);
#873=ORIENTED_EDGE('',*,*,#648,.T.);
#874=ORIENTED_EDGE('',*,*,#645,.T.);
#875=ORIENTED_EDGE('',*,*,#642,.T.);
#876=ORIENTED_EDGE('',*,*,#639,.T.);
#877=ORIENTED_EDGE('',*,*,#636,.T.);
#878=ORIENTED_EDGE('',*,*,#633,.T.);
#879=ORIENTED_EDGE('',*,*,#630,.T.);
#880=ORIENTED_EDGE('',*,*,#627,.T.);
#881=ORIENTED_EDGE('',*,*,#624,.T.);
#882=ORIENTED_EDGE('',*,*,#621,.T.);
#883=ORIENTED_EDGE('',*,*,#618,.T.);
#884=ORIENTED_EDGE('',*,*,#615,.T.);
#885=ORIENTED_EDGE('',*,*,#612,.T.);
#886=ORIENTED_EDGE('',*,*,#609,.T.);
#887=ORIENTED_EDGE('',*,*,#606,.T.);
#888=ORIENTED_EDGE('',*,*,#603,.T.);
#889=ORIENTED_EDGE('',*,*,#600,.T.);
#890=ORIENTED_EDGE('',*,*,#597,.T.);
#891=ORIENTED_EDGE('',*,*,#594,.T.);
#892=ORIENTED_EDGE('',*,*,#591,.T.);
#893=ORIENTED_EDGE('',*,*,#588,.T.);
#894=ORIENTED_EDGE('',*,*,#585,.T.);
#895=ORIENTED_EDGE('',*,*,#582,.T.);
#896=ORIENTED_EDGE('',*,*,#579,.T.);
#897=ORIENTED_EDGE('',*,*,#576,.T.);
#898=ORIENTED_EDGE('',*,*,#573,.T.);
#899=ORIENTED_EDGE('',*,*,#570,.T.);
#900=ORIENTED_EDGE('',*,*,#567,.T.);
#901=ORIENTED_EDGE('',*,*,#564,.T.);
#902=ORIENTED_EDGE('',*,*,#561,.T.);
#903=ORIENTED_EDGE('',*,*,#558,.T.);
#904=ORIENTED_EDGE('',*,*,#555,.T.);
#905=ORIENTED_EDGE('',*,*,#552,.T.);
#906=ORIENTED_EDGE('',*,*,#549,.T.);
#907=ORIENTED_EDGE('',*,*,#546,.T.);
#908=ORIENTED_EDGE('',*,*,#541,.T.);
#909=ORIENTED_EDGE('',*,*,#538,.T.);
#910=ORIENTED_EDGE('',*,*,#535,.T.);
#911=ORIENTED_EDGE('',*,*,#674,.F.);
#912=ORIENTED_EDGE('',*,*,#544,.T.);
#913=ORIENTED_EDGE('',*,*,#548,.F.);
#914=ORIENTED_EDGE('',*,*,#551,.F.);
#915=ORIENTED_EDGE('',*,*,#554,.F.);
#916=ORIENTED_EDGE('',*,*,#557,.T.);
#917=ORIENTED_EDGE('',*,*,#560,.F.);
#918=ORIENTED_EDGE('',*,*,#563,.F.);
#919=ORIENTED_EDGE('',*,*,#566,.F.);
#920=ORIENTED_EDGE('',*,*,#569,.T.);
#921=ORIENTED_EDGE('',*,*,#572,.T.);
#922=ORIENTED_EDGE('',*,*,#575,.T.);
#923=ORIENTED_EDGE('',*,*,#578,.T.);
#924=ORIENTED_EDGE('',*,*,#581,.T.);
#925=ORIENTED_EDGE('',*,*,#584,.F.);
#926=ORIENTED_EDGE('',*,*,#587,.T.);
#927=ORIENTED_EDGE('',*,*,#590,.T.);
#928=ORIENTED_EDGE('',*,*,#593,.T.);
#929=ORIENTED_EDGE('',*,*,#596,.F.);
#930=ORIENTED_EDGE('',*,*,#599,.T.);
#931=ORIENTED_EDGE('',*,*,#602,.T.);
#932=ORIENTED_EDGE('',*,*,#605,.T.);
#933=ORIENTED_EDGE('',*,*,#608,.F.);
#934=ORIENTED_EDGE('',*,*,#611,.F.);
#935=ORIENTED_EDGE('',*,*,#614,.F.);
#936=ORIENTED_EDGE('',*,*,#617,.F.);
#937=ORIENTED_EDGE('',*,*,#620,.F.);
#938=ORIENTED_EDGE('',*,*,#623,.T.);
#939=ORIENTED_EDGE('',*,*,#626,.F.);
#940=ORIENTED_EDGE('',*,*,#629,.F.);
#941=ORIENTED_EDGE('',*,*,#632,.F.);
#942=ORIENTED_EDGE('',*,*,#635,.T.);
#943=ORIENTED_EDGE('',*,*,#638,.T.);
#944=ORIENTED_EDGE('',*,*,#641,.T.);
#945=ORIENTED_EDGE('',*,*,#644,.T.);
#946=ORIENTED_EDGE('',*,*,#647,.T.);
#947=ORIENTED_EDGE('',*,*,#650,.F.);
#948=ORIENTED_EDGE('',*,*,#653,.F.);
#949=ORIENTED_EDGE('',*,*,#656,.F.);
#950=ORIENTED_EDGE('',*,*,#659,.T.);
#951=ORIENTED_EDGE('',*,*,#662,.F.);
#952=ORIENTED_EDGE('',*,*,#665,.F.);
#953=ORIENTED_EDGE('',*,*,#668,.F.);
#954=ORIENTED_EDGE('',*,*,#671,.F.);
#955=ORIENTED_EDGE('',*,*,#543,.F.);
#956=ORIENTED_EDGE('',*,*,#540,.F.);
#957=ORIENTED_EDGE('',*,*,#537,.F.);
#958=CYLINDRICAL_SURFACE('',#1026,1.99999999999999);
#959=CYLINDRICAL_SURFACE('',#1029,1.99999999999999);
#960=CYLINDRICAL_SURFACE('',#1032,7.5);
#961=CYLINDRICAL_SURFACE('',#1074,20.0000000000004);
#962=CYLINDRICAL_SURFACE('',#1080,20.0000000000004);
#963=ADVANCED_FACE('',(#65),#958,.F.);
#964=ADVANCED_FACE('',(#66),#959,.F.);
#965=ADVANCED_FACE('',(#67),#960,.F.);
#966=ADVANCED_FACE('',(#68),#21,.T.);
#967=ADVANCED_FACE('',(#69),#22,.T.);
#968=ADVANCED_FACE('',(#70),#23,.T.);
#969=ADVANCED_FACE('',(#71),#24,.T.);
#970=ADVANCED_FACE('',(#72),#25,.T.);
#971=ADVANCED_FACE('',(#73),#26,.T.);
#972=ADVANCED_FACE('',(#74),#27,.T.);
#973=ADVANCED_FACE('',(#75),#28,.T.);
#974=ADVANCED_FACE('',(#76),#29,.T.);
#975=ADVANCED_FACE('',(#77),#30,.T.);
#976=ADVANCED_FACE('',(#78),#31,.T.);
#977=ADVANCED_FACE('',(#79),#32,.T.);
#978=ADVANCED_FACE('',(#80),#33,.T.);
#979=ADVANCED_FACE('',(#81),#34,.T.);
#980=ADVANCED_FACE('',(#82),#35,.T.);
#981=ADVANCED_FACE('',(#83),#36,.T.);
#982=ADVANCED_FACE('',(#84),#37,.T.);
#983=ADVANCED_FACE('',(#85),#38,.T.);
#984=ADVANCED_FACE('',(#86),#39,.T.);
#985=ADVANCED_FACE('',(#87),#40,.T.);
#986=ADVANCED_FACE('',(#88),#41,.T.);
#987=ADVANCED_FACE('',(#89),#42,.T.);
#988=ADVANCED_FACE('',(#90),#43,.T.);
#989=ADVANCED_FACE('',(#91),#44,.T.);
#990=ADVANCED_FACE('',(#92),#45,.T.);
#991=ADVANCED_FACE('',(#93),#46,.T.);
#992=ADVANCED_FACE('',(#94),#47,.T.);
#993=ADVANCED_FACE('',(#95),#48,.T.);
#994=ADVANCED_FACE('',(#96),#49,.T.);
#995=ADVANCED_FACE('',(#97),#50,.T.);
#996=ADVANCED_FACE('',(#98),#51,.T.);
#997=ADVANCED_FACE('',(#99),#52,.T.);
#998=ADVANCED_FACE('',(#100),#53,.T.);
#999=ADVANCED_FACE('',(#101),#54,.T.);
#1000=ADVANCED_FACE('',(#102),#55,.T.);
#1001=ADVANCED_FACE('',(#103),#56,.T.);
#1002=ADVANCED_FACE('',(#104),#57,.T.);
#1003=ADVANCED_FACE('',(#105),#58,.T.);
#1004=ADVANCED_FACE('',(#106),#59,.T.);
#1005=ADVANCED_FACE('',(#107),#961,.T.);
#1006=ADVANCED_FACE('',(#108),#60,.T.);
#1007=ADVANCED_FACE('',(#109),#61,.T.);
#1008=ADVANCED_FACE('',(#110),#62,.T.);
#1009=ADVANCED_FACE('',(#111),#962,.T.);
#1010=ADVANCED_FACE('',(#112,#15,#16,#17),#63,.T.);
#1011=ADVANCED_FACE('',(#113,#18,#19,#20),#64,.F.);
#1012=CLOSED_SHELL('',(#963,#964,#965,#966,#967,#968,#969,#970,#971,#972,
#973,#974,#975,#976,#977,#978,#979,#980,#981,#982,#983,#984,#985,#986,#987,
#988,#989,#990,#991,#992,#993,#994,#995,#996,#997,#998,#999,#1000,#1001,
#1002,#1003,#1004,#1005,#1006,#1007,#1008,#1009,#1010,#1011));
#1013=DERIVED_UNIT_ELEMENT(#1015,1.);
#1014=DERIVED_UNIT_ELEMENT(#1626,-3.);
#1015=(
MASS_UNIT()
NAMED_UNIT(*)
SI_UNIT(.KILO.,.GRAM.)
);
#1016=DERIVED_UNIT((#1013,#1014));
#1017=MEASURE_REPRESENTATION_ITEM('density measure',
POSITIVE_RATIO_MEASURE(7850.),#1016);
#1018=PROPERTY_DEFINITION_REPRESENTATION(#1023,#1020);
#1019=PROPERTY_DEFINITION_REPRESENTATION(#1024,#1021);
#1020=REPRESENTATION('material name',(#1022),#1623);
#1021=REPRESENTATION('density',(#1017),#1623);
#1022=DESCRIPTIVE_REPRESENTATION_ITEM('Steel','Steel');
#1023=PROPERTY_DEFINITION('material property','material name',#1633);
#1024=PROPERTY_DEFINITION('material property','density of part',#1633);
#1025=AXIS2_PLACEMENT_3D('',#1336,#1085,#1086);
#1026=AXIS2_PLACEMENT_3D('',#1337,#1087,#1088);
#1027=AXIS2_PLACEMENT_3D('',#1339,#1089,#1090);
#1028=AXIS2_PLACEMENT_3D('',#1342,#1092,#1093);
#1029=AXIS2_PLACEMENT_3D('',#1343,#1094,#1095);
#1030=AXIS2_PLACEMENT_3D('',#1345,#1096,#1097);
#1031=AXIS2_PLACEMENT_3D('',#1348,#1099,#1100);
#1032=AXIS2_PLACEMENT_3D('',#1349,#1101,#1102);
#1033=AXIS2_PLACEMENT_3D('',#1351,#1103,#1104);
#1034=AXIS2_PLACEMENT_3D('',#1354,#1106,#1107);
#1035=AXIS2_PLACEMENT_3D('',#1355,#1108,#1109);
#1036=AXIS2_PLACEMENT_3D('',#1364,#1114,#1115);
#1037=AXIS2_PLACEMENT_3D('',#1370,#1119,#1120);
#1038=AXIS2_PLACEMENT_3D('',#1376,#1124,#1125);
#1039=AXIS2_PLACEMENT_3D('',#1382,#1129,#1130);
#1040=AXIS2_PLACEMENT_3D('',#1388,#1134,#1135);
#1041=AXIS2_PLACEMENT_3D('',#1394,#1139,#1140);
#1042=AXIS2_PLACEMENT_3D('',#1400,#1144,#1145);
#1043=AXIS2_PLACEMENT_3D('',#1406,#1149,#1150);
#1044=AXIS2_PLACEMENT_3D('',#1412,#1154,#1155);
#1045=AXIS2_PLACEMENT_3D('',#1418,#1159,#1160);
#1046=AXIS2_PLACEMENT_3D('',#1424,#1164,#1165);
#1047=AXIS2_PLACEMENT_3D('',#1430,#1169,#1170);
#1048=AXIS2_PLACEMENT_3D('',#1436,#1174,#1175);
#1049=AXIS2_PLACEMENT_3D('',#1442,#1179,#1180);
#1050=AXIS2_PLACEMENT_3D('',#1448,#1184,#1185);
#1051=AXIS2_PLACEMENT_3D('',#1454,#1189,#1190);
#1052=AXIS2_PLACEMENT_3D('',#1460,#1194,#1195);
#1053=AXIS2_PLACEMENT_3D('',#1466,#1199,#1200);
#1054=AXIS2_PLACEMENT_3D('',#1472,#1204,#1205);
#1055=AXIS2_PLACEMENT_3D('',#1478,#1209,#1210);
#1056=AXIS2_PLACEMENT_3D('',#1484,#1214,#1215);
#1057=AXIS2_PLACEMENT_3D('',#1490,#1219,#1220);
#1058=AXIS2_PLACEMENT_3D('',#1496,#1224,#1225);
#1059=AXIS2_PLACEMENT_3D('',#1502,#1229,#1230);
#1060=AXIS2_PLACEMENT_3D('',#1508,#1234,#1235);
#1061=AXIS2_PLACEMENT_3D('',#1514,#1239,#1240);
#1062=AXIS2_PLACEMENT_3D('',#1520,#1244,#1245);
#1063=AXIS2_PLACEMENT_3D('',#1526,#1249,#1250);
#1064=AXIS2_PLACEMENT_3D('',#1532,#1254,#1255);
#1065=AXIS2_PLACEMENT_3D('',#1538,#1259,#1260);
#1066=AXIS2_PLACEMENT_3D('',#1544,#1264,#1265);
#1067=AXIS2_PLACEMENT_3D('',#1550,#1269,#1270);
#1068=AXIS2_PLACEMENT_3D('',#1556,#1274,#1275);
#1069=AXIS2_PLACEMENT_3D('',#1562,#1279,#1280);
#1070=AXIS2_PLACEMENT_3D('',#1568,#1284,#1285);
#1071=AXIS2_PLACEMENT_3D('',#1574,#1289,#1290);
#1072=AXIS2_PLACEMENT_3D('',#1580,#1294,#1295);
#1073=AXIS2_PLACEMENT_3D('',#1586,#1299,#1300);
#1074=AXIS2_PLACEMENT_3D('',#1592,#1304,#1305);
#1075=AXIS2_PLACEMENT_3D('',#1594,#1306,#1307);
#1076=AXIS2_PLACEMENT_3D('',#1596,#1308,#1309);
#1077=AXIS2_PLACEMENT_3D('',#1598,#1311,#1312);
#1078=AXIS2_PLACEMENT_3D('',#1604,#1316,#1317);
#1079=AXIS2_PLACEMENT_3D('',#1610,#1321,#1322);
#1080=AXIS2_PLACEMENT_3D('',#1616,#1326,#1327);
#1081=AXIS2_PLACEMENT_3D('',#1617,#1328,#1329);
#1082=AXIS2_PLACEMENT_3D('',#1618,#1330,#1331);
#1083=AXIS2_PLACEMENT_3D('',#1619,#1332,#1333);
#1084=AXIS2_PLACEMENT_3D('',#1620,#1334,#1335);
#1085=DIRECTION('axis',(0.,0.,1.));
#1086=DIRECTION('refdir',(1.,0.,0.));
#1087=DIRECTION('center_axis',(0.,-1.,0.));
#1088=DIRECTION('ref_axis',(1.,0.,0.));
#1089=DIRECTION('center_axis',(0.,1.,-1.2490009027033E-16));
#1090=DIRECTION('ref_axis',(1.,0.,0.));
#1091=DIRECTION('',(0.,1.,0.));
#1092=DIRECTION('center_axis',(0.,1.,-1.2490009027033E-16));
#1093=DIRECTION('ref_axis',(1.,0.,0.));
#1094=DIRECTION('center_axis',(0.,-1.,0.));
#1095=DIRECTION('ref_axis',(1.,0.,0.));
#1096=DIRECTION('center_axis',(0.,1.,-1.2490009027033E-16));
#1097=DIRECTION('ref_axis',(1.,0.,0.));
#1098=DIRECTION('',(0.,1.,0.));
#1099=DIRECTION('center_axis',(0.,1.,-1.2490009027033E-16));
#1100=DIRECTION('ref_axis',(1.,0.,0.));
#1101=DIRECTION('center_axis',(0.,-1.,0.));
#1102=DIRECTION('ref_axis',(1.,0.,0.));
#1103=DIRECTION('center_axis',(0.,1.,-1.2490009027033E-16));
#1104=DIRECTION('ref_axis',(1.,0.,0.));
#1105=DIRECTION('',(0.,1.,0.));
#1106=DIRECTION('center_axis',(0.,1.,-1.2490009027033E-16));
#1107=DIRECTION('ref_axis',(1.,0.,0.));
#1108=DIRECTION('center_axis',(0.977352667250009,0.,0.21161702157268));
#1109=DIRECTION('ref_axis',(-0.21161702157268,1.22071436365474E-16,0.977352667250009));
#1110=DIRECTION('',(0.21161702157268,-1.22071436365474E-16,-0.977352667250009));
#1111=DIRECTION('',(0.,-1.,0.));
#1112=DIRECTION('',(-0.21161702157268,1.22071436365474E-16,0.977352667250009));
#1113=DIRECTION('',(0.,-1.,0.));
#1114=DIRECTION('center_axis',(0.,0.,-1.));
#1115=DIRECTION('ref_axis',(1.,0.,0.));
#1116=DIRECTION('',(1.,0.,0.));
#1117=DIRECTION('',(1.,0.,0.));
#1118=DIRECTION('',(0.,-1.,0.));
#1119=DIRECTION('center_axis',(1.,0.,1.27611841910937E-15));
#1120=DIRECTION('ref_axis',(-1.27611841910937E-15,1.2490009027033E-16,1.));
#1121=DIRECTION('',(-1.27611841910937E-15,1.2490009027033E-16,1.));
#1122=DIRECTION('',(-1.27611841910937E-15,1.2490009027033E-16,1.));
#1123=DIRECTION('',(0.,-1.,0.));
#1124=DIRECTION('center_axis',(0.,0.,1.));
#1125=DIRECTION('ref_axis',(-1.,0.,0.));
#1126=DIRECTION('',(-1.,0.,0.));
#1127=DIRECTION('',(-1.,0.,0.));
#1128=DIRECTION('',(0.,-1.,0.));
#1129=DIRECTION('center_axis',(0.977352667250009,0.,0.21161702157268));
#1130=DIRECTION('ref_axis',(-0.21161702157268,1.22071436365474E-16,0.977352667250009));
#1131=DIRECTION('',(0.21161702157268,-1.22071436365474E-16,-0.977352667250009));
#1132=DIRECTION('',(-0.21161702157268,1.22071436365474E-16,0.977352667250009));
#1133=DIRECTION('',(0.,-1.,0.));
#1134=DIRECTION('center_axis',(0.,0.,-1.));
#1135=DIRECTION('ref_axis',(1.,0.,0.));
#1136=DIRECTION('',(1.,0.,0.));
#1137=DIRECTION('',(1.,0.,0.));
#1138=DIRECTION('',(0.,-1.,0.));
#1139=DIRECTION('center_axis',(1.,0.,1.27611841910938E-15));
#1140=DIRECTION('ref_axis',(-1.27611841910938E-15,1.2490009027033E-16,1.));
#1141=DIRECTION('',(-1.27611841910938E-15,1.2490009027033E-16,1.));
#1142=DIRECTION('',(-1.27611841910938E-15,1.2490009027033E-16,1.));
#1143=DIRECTION('',(0.,-1.,0.));
#1144=DIRECTION('center_axis',(0.,0.,1.));
#1145=DIRECTION('ref_axis',(-1.,0.,0.));
#1146=DIRECTION('',(-1.,0.,0.));
#1147=DIRECTION('',(-1.,0.,0.));
#1148=DIRECTION('',(0.,-1.,0.));
#1149=DIRECTION('center_axis',(0.977352667250009,0.,0.21161702157268));
#1150=DIRECTION('ref_axis',(-0.21161702157268,1.22071436365474E-16,0.977352667250009));
#1151=DIRECTION('',(0.21161702157268,-1.22071436365474E-16,-0.977352667250009));
#1152=DIRECTION('',(-0.21161702157268,1.22071436365474E-16,0.977352667250009));
#1153=DIRECTION('',(0.,-1.,0.));
#1154=DIRECTION('center_axis',(0.,0.,-1.));
#1155=DIRECTION('ref_axis',(1.,0.,0.));
#1156=DIRECTION('',(-1.,0.,0.));
#1157=DIRECTION('',(1.,0.,0.));
#1158=DIRECTION('',(0.,-1.,0.));
#1159=DIRECTION('center_axis',(1.,0.,0.));
#1160=DIRECTION('ref_axis',(0.,1.2490009027033E-16,1.));
#1161=DIRECTION('',(0.,-1.2490009027033E-16,-1.));
#1162=DIRECTION('',(0.,1.2490009027033E-16,1.));
#1163=DIRECTION('',(0.,-1.,0.));
#1164=DIRECTION('center_axis',(0.,0.,1.));
#1165=DIRECTION('ref_axis',(-1.,0.,0.));
#1166=DIRECTION('',(1.,0.,0.));
#1167=DIRECTION('',(-1.,0.,0.));
#1168=DIRECTION('',(0.,-1.,0.));
#1169=DIRECTION('center_axis',(0.977352667250009,0.,0.21161702157268));
#1170=DIRECTION('ref_axis',(-0.21161702157268,1.22071436365474E-16,0.977352667250009));
#1171=DIRECTION('',(0.21161702157268,-1.22071436365474E-16,-0.977352667250009));
#1172=DIRECTION('',(-0.21161702157268,1.22071436365474E-16,0.977352667250009));
#1173=DIRECTION('',(0.,-1.,0.));
#1174=DIRECTION('center_axis',(2.46519032881566E-32,0.,-1.));
#1175=DIRECTION('ref_axis',(1.,3.07902494602621E-48,2.46519032881566E-32));
#1176=DIRECTION('',(1.,3.07902494602621E-48,2.46519032881566E-32));
#1177=DIRECTION('',(1.,3.07902494602621E-48,2.46519032881566E-32));
#1178=DIRECTION('',(0.,-1.,0.));
#1179=DIRECTION('center_axis',(1.,0.,0.));
#1180=DIRECTION('ref_axis',(0.,1.2490009027033E-16,1.));
#1181=DIRECTION('',(0.,-1.2490009027033E-16,-1.));
#1182=DIRECTION('',(0.,1.2490009027033E-16,1.));
#1183=DIRECTION('',(0.,-1.,0.));
#1184=DIRECTION('center_axis',(0.,0.,-1.));
#1185=DIRECTION('ref_axis',(1.,0.,0.));
#1186=DIRECTION('',(-1.,0.,0.));
#1187=DIRECTION('',(1.,0.,0.));
#1188=DIRECTION('',(0.,-1.,0.));
#1189=DIRECTION('center_axis',(-1.,0.,0.));
#1190=DIRECTION('ref_axis',(0.,-1.2490009027033E-16,-1.));
#1191=DIRECTION('',(0.,1.2490009027033E-16,1.));
#1192=DIRECTION('',(0.,-1.2490009027033E-16,-1.));
#1193=DIRECTION('',(0.,-1.,0.));
#1194=DIRECTION('center_axis',(0.,0.,-1.));
#1195=DIRECTION('ref_axis',(1.,0.,0.));
#1196=DIRECTION('',(1.,0.,0.));
#1197=DIRECTION('',(1.,0.,0.));
#1198=DIRECTION('',(0.,-1.,0.));
#1199=DIRECTION('center_axis',(1.,0.,0.));
#1200=DIRECTION('ref_axis',(0.,1.2490009027033E-16,1.));
#1201=DIRECTION('',(0.,-1.2490009027033E-16,-1.));
#1202=DIRECTION('',(0.,1.2490009027033E-16,1.));
#1203=DIRECTION('',(0.,-1.,0.));
#1204=DIRECTION('center_axis',(0.,0.,-1.));
#1205=DIRECTION('ref_axis',(1.,0.,0.));
#1206=DIRECTION('',(-1.,0.,0.));
#1207=DIRECTION('',(1.,0.,0.));
#1208=DIRECTION('',(0.,-1.,0.));
#1209=DIRECTION('center_axis',(-1.,0.,0.));
#1210=DIRECTION('ref_axis',(0.,-1.2490009027033E-16,-1.));
#1211=DIRECTION('',(0.,1.2490009027033E-16,1.));
#1212=DIRECTION('',(0.,-1.2490009027033E-16,-1.));
#1213=DIRECTION('',(0.,-1.,0.));
#1214=DIRECTION('center_axis',(0.,0.,-1.));
#1215=DIRECTION('ref_axis',(1.,0.,0.));
#1216=DIRECTION('',(1.,0.,0.));
#1217=DIRECTION('',(1.,0.,0.));
#1218=DIRECTION('',(0.,-1.,0.));
#1219=DIRECTION('center_axis',(1.,0.,0.));
#1220=DIRECTION('ref_axis',(0.,1.2490009027033E-16,1.));
#1221=DIRECTION('',(0.,1.2490009027033E-16,1.));
#1222=DIRECTION('',(0.,1.2490009027033E-16,1.));
#1223=DIRECTION('',(0.,-1.,0.));
#1224=DIRECTION('center_axis',(0.,0.,-1.));
#1225=DIRECTION('ref_axis',(1.,0.,0.));
#1226=DIRECTION('',(1.,0.,0.));
#1227=DIRECTION('',(1.,0.,0.));
#1228=DIRECTION('',(0.,-1.,0.));
#1229=DIRECTION('center_axis',(-1.,0.,0.));
#1230=DIRECTION('ref_axis',(0.,-1.2490009027033E-16,-1.));
#1231=DIRECTION('',(0.,-1.2490009027033E-16,-1.));
#1232=DIRECTION('',(0.,-1.2490009027033E-16,-1.));
#1233=DIRECTION('',(0.,-1.,0.));
#1234=DIRECTION('center_axis',(0.,0.,-1.));
#1235=DIRECTION('ref_axis',(1.,0.,0.));
#1236=DIRECTION('',(1.,0.,0.));
#1237=DIRECTION('',(1.,0.,0.));
#1238=DIRECTION('',(0.,-1.,0.));
#1239=DIRECTION('center_axis',(-0.977352667250009,0.,0.21161702157268));
#1240=DIRECTION('ref_axis',(-0.21161702157268,-1.22071436365474E-16,-0.977352667250009));
#1241=DIRECTION('',(0.21161702157268,1.22071436365474E-16,0.977352667250009));
#1242=DIRECTION('',(-0.21161702157268,-1.22071436365474E-16,-0.977352667250009));
#1243=DIRECTION('',(0.,-1.,0.));
#1244=DIRECTION('center_axis',(0.,0.,1.));
#1245=DIRECTION('ref_axis',(-1.,0.,0.));
#1246=DIRECTION('',(-1.,0.,0.));
#1247=DIRECTION('',(-1.,0.,0.));
#1248=DIRECTION('',(0.,-1.,0.));
#1249=DIRECTION('center_axis',(-1.,0.,0.));
#1250=DIRECTION('ref_axis',(0.,-1.2490009027033E-16,-1.));
#1251=DIRECTION('',(0.,-1.2490009027033E-16,-1.));
#1252=DIRECTION('',(0.,-1.2490009027033E-16,-1.));
#1253=DIRECTION('',(0.,-1.,0.));
#1254=DIRECTION('center_axis',(0.,0.,-1.));
#1255=DIRECTION('ref_axis',(1.,0.,0.));
#1256=DIRECTION('',(1.,0.,0.));
#1257=DIRECTION('',(1.,0.,0.));
#1258=DIRECTION('',(0.,-1.,0.));
#1259=DIRECTION('center_axis',(-0.977352667250009,0.,0.21161702157268));
#1260=DIRECTION('ref_axis',(-0.21161702157268,-1.22071436365474E-16,-0.977352667250009));
#1261=DIRECTION('',(0.21161702157268,1.22071436365474E-16,0.977352667250009));
#1262=DIRECTION('',(-0.21161702157268,-1.22071436365474E-16,-0.977352667250009));
#1263=DIRECTION('',(0.,-1.,0.));
#1264=DIRECTION('center_axis',(0.,0.,1.));
#1265=DIRECTION('ref_axis',(-1.,0.,0.));
#1266=DIRECTION('',(1.,0.,0.));
#1267=DIRECTION('',(-1.,0.,0.));
#1268=DIRECTION('',(0.,-1.,0.));
#1269=DIRECTION('center_axis',(-1.,0.,-1.27611841910938E-15));
#1270=DIRECTION('ref_axis',(1.27611841910938E-15,-1.2490009027033E-16,-1.));
#1271=DIRECTION('',(-1.27611841910938E-15,1.2490009027033E-16,1.));
#1272=DIRECTION('',(1.27611841910938E-15,-1.2490009027033E-16,-1.));
#1273=DIRECTION('',(0.,-1.,0.));
#1274=DIRECTION('center_axis',(0.,0.,-1.));
#1275=DIRECTION('ref_axis',(1.,0.,0.));
#1276=DIRECTION('',(-1.,0.,0.));
#1277=DIRECTION('',(1.,0.,0.));
#1278=DIRECTION('',(0.,-1.,0.));
#1279=DIRECTION('center_axis',(-0.977352667250009,0.,0.21161702157268));
#1280=DIRECTION('ref_axis',(-0.21161702157268,-1.22071436365474E-16,-0.977352667250009));
#1281=DIRECTION('',(0.21161702157268,1.22071436365474E-16,0.977352667250009));
#1282=DIRECTION('',(-0.21161702157268,-1.22071436365474E-16,-0.977352667250009));
#1283=DIRECTION('',(0.,-1.,0.));
#1284=DIRECTION('center_axis',(0.,0.,1.));
#1285=DIRECTION('ref_axis',(-1.,0.,0.));
#1286=DIRECTION('',(-1.,0.,0.));
#1287=DIRECTION('',(-1.,0.,0.));
#1288=DIRECTION('',(0.,-1.,0.));
#1289=DIRECTION('center_axis',(-1.,0.,1.27611841910937E-15));
#1290=DIRECTION('ref_axis',(-1.27611841910937E-15,-1.2490009027033E-16,
-1.));
#1291=DIRECTION('',(-1.27611841910937E-15,-1.2490009027033E-16,-1.));
#1292=DIRECTION('',(-1.27611841910937E-15,-1.2490009027033E-16,-1.));
#1293=DIRECTION('',(0.,-1.,0.));
#1294=DIRECTION('center_axis',(0.,0.,-1.));
#1295=DIRECTION('ref_axis',(1.,0.,0.));
#1296=DIRECTION('',(1.,0.,0.));
#1297=DIRECTION('',(1.,0.,0.));
#1298=DIRECTION('',(0.,-1.,0.));
#1299=DIRECTION('center_axis',(-0.977352667250009,0.,0.21161702157268));
#1300=DIRECTION('ref_axis',(-0.21161702157268,-1.22071436365474E-16,-0.977352667250009));
#1301=DIRECTION('',(0.21161702157268,1.22071436365474E-16,0.977352667250009));
#1302=DIRECTION('',(-0.21161702157268,-1.22071436365474E-16,-0.977352667250009));
#1303=DIRECTION('',(0.,-1.,0.));
#1304=DIRECTION('center_axis',(0.,-1.,0.));
#1305=DIRECTION('ref_axis',(0.977352667250009,0.,0.211617021572682));
#1306=DIRECTION('center_axis',(0.,-1.,1.2490009027033E-16));
#1307=DIRECTION('ref_axis',(0.977352667250009,2.64309850971663E-17,0.211617021572682));
#1308=DIRECTION('center_axis',(0.,-1.,1.2490009027033E-16));
#1309=DIRECTION('ref_axis',(0.977352667250009,2.64309850971663E-17,0.211617021572682));
#1310=DIRECTION('',(0.,-1.,0.));
#1311=DIRECTION('center_axis',(1.,0.,0.));
#1312=DIRECTION('ref_axis',(0.,1.2490009027033E-16,1.));
#1313=DIRECTION('',(0.,1.2490009027033E-16,1.));
#1314=DIRECTION('',(0.,1.2490009027033E-16,1.));
#1315=DIRECTION('',(0.,-1.,0.));
#1316=DIRECTION('center_axis',(0.,0.,1.));
#1317=DIRECTION('ref_axis',(-1.,0.,0.));
#1318=DIRECTION('',(-1.,0.,0.));
#1319=DIRECTION('',(-1.,0.,0.));
#1320=DIRECTION('',(0.,-1.,0.));
#1321=DIRECTION('center_axis',(-1.,0.,0.));
#1322=DIRECTION('ref_axis',(0.,-1.2490009027033E-16,-1.));
#1323=DIRECTION('',(0.,-1.2490009027033E-16,-1.));
#1324=DIRECTION('',(0.,-1.2490009027033E-16,-1.));
#1325=DIRECTION('',(0.,-1.,0.));
#1326=DIRECTION('center_axis',(0.,-1.,0.));
#1327=DIRECTION('ref_axis',(0.977352667250009,0.,0.211617021572682));
#1328=DIRECTION('center_axis',(0.,-1.,1.2490009027033E-16));
#1329=DIRECTION('ref_axis',(0.977352667250009,2.64309850971663E-17,0.211617021572682));
#1330=DIRECTION('center_axis',(0.,-1.,1.2490009027033E-16));
#1331=DIRECTION('ref_axis',(0.977352667250009,2.64309850971663E-17,0.211617021572682));
#1332=DIRECTION('center_axis',(0.,-1.,1.2490009027033E-16));
#1333=DIRECTION('ref_axis',(1.,0.,0.));
#1334=DIRECTION('center_axis',(0.,-1.,1.2490009027033E-16));
#1335=DIRECTION('ref_axis',(1.,0.,0.));
#1336=CARTESIAN_POINT('',(0.,0.,0.));
#1337=CARTESIAN_POINT('Origin',(-14.5,-350.,225.));
#1338=CARTESIAN_POINT('',(-16.5,-353.48,225.));
#1339=CARTESIAN_POINT('Origin',(-14.5,-353.48,225.));
#1340=CARTESIAN_POINT('',(-16.5,-350.,225.));
#1341=CARTESIAN_POINT('',(-16.5,-350.,225.));
#1342=CARTESIAN_POINT('Origin',(-14.5,-350.,225.));
#1343=CARTESIAN_POINT('Origin',(14.5,-350.,225.));
#1344=CARTESIAN_POINT('',(12.5,-353.48,225.));
#1345=CARTESIAN_POINT('Origin',(14.5,-353.48,225.));
#1346=CARTESIAN_POINT('',(12.5,-350.,225.));
#1347=CARTESIAN_POINT('',(12.5,-350.,225.));
#1348=CARTESIAN_POINT('Origin',(14.5,-350.,225.));
#1349=CARTESIAN_POINT('Origin',(0.,-350.,225.));
#1350=CARTESIAN_POINT('',(-7.5,-353.48,225.));
#1351=CARTESIAN_POINT('Origin',(0.,-353.48,225.));
#1352=CARTESIAN_POINT('',(-7.5,-350.,225.));
#1353=CARTESIAN_POINT('',(-7.5,-350.,225.));
#1354=CARTESIAN_POINT('Origin',(0.,-350.,225.));
#1355=CARTESIAN_POINT('Origin',(39.7596509023964,-350.,193.48));
#1356=CARTESIAN_POINT('',(19.5470533450005,-350.,286.831829583269));
#1357=CARTESIAN_POINT('',(39.7596509023964,-350.,193.48));
#1358=CARTESIAN_POINT('',(19.5470533450005,-350.,286.831829583269));
#1359=CARTESIAN_POINT('',(19.5470533450005,-353.48,286.831829583269));
#1360=CARTESIAN_POINT('',(19.5470533450005,-350.,286.831829583269));
#1361=CARTESIAN_POINT('',(39.7596509023964,-353.48,193.48));
#1362=CARTESIAN_POINT('',(19.5470533450005,-353.48,286.831829583269));
#1363=CARTESIAN_POINT('',(39.7596509023964,-350.,193.48));
#1364=CARTESIAN_POINT('Origin',(25.5131427173265,-350.,193.48));
#1365=CARTESIAN_POINT('',(25.5131427173265,-350.,193.48));
#1366=CARTESIAN_POINT('',(25.5131427173265,-350.,193.48));
#1367=CARTESIAN_POINT('',(25.5131427173265,-353.48,193.48));
#1368=CARTESIAN_POINT('',(25.5131427173265,-353.48,193.48));
#1369=CARTESIAN_POINT('',(25.5131427173265,-350.,193.48));
#1370=CARTESIAN_POINT('Origin',(25.5131427173265,-350.,190.));
#1371=CARTESIAN_POINT('',(25.5131427173265,-350.,190.));
#1372=CARTESIAN_POINT('',(25.5131427173265,-350.,190.));
#1373=CARTESIAN_POINT('',(25.5131427173265,-353.48,190.));
#1374=CARTESIAN_POINT('',(25.5131427173265,-353.48,190.));
#1375=CARTESIAN_POINT('',(25.5131427173265,-350.,190.));
#1376=CARTESIAN_POINT('Origin',(40.5131427173265,-350.,190.));
#1377=CARTESIAN_POINT('',(40.5131427173265,-350.,190.));
#1378=CARTESIAN_POINT('',(40.5131427173265,-350.,190.));
#1379=CARTESIAN_POINT('',(40.5131427173265,-353.48,190.));
#1380=CARTESIAN_POINT('',(40.5131427173265,-353.48,190.));
#1381=CARTESIAN_POINT('',(40.5131427173265,-350.,190.));
#1382=CARTESIAN_POINT('Origin',(46.2552699966209,-350.,163.48));
#1383=CARTESIAN_POINT('',(46.2552699966209,-350.,163.48));
#1384=CARTESIAN_POINT('',(19.5470533450005,-350.,286.831829583269));
#1385=CARTESIAN_POINT('',(46.2552699966209,-353.48,163.48));
#1386=CARTESIAN_POINT('',(19.5470533450005,-353.48,286.831829583269));
#1387=CARTESIAN_POINT('',(46.2552699966209,-350.,163.48));
#1388=CARTESIAN_POINT('Origin',(32.008761811551,-350.,163.48));
#1389=CARTESIAN_POINT('',(32.008761811551,-350.,163.48));
#1390=CARTESIAN_POINT('',(32.008761811551,-350.,163.48));
#1391=CARTESIAN_POINT('',(32.008761811551,-353.48,163.48));
#1392=CARTESIAN_POINT('',(32.008761811551,-353.48,163.48));
#1393=CARTESIAN_POINT('',(32.008761811551,-350.,163.48));
#1394=CARTESIAN_POINT('Origin',(32.008761811551,-350.,160.));
#1395=CARTESIAN_POINT('',(32.008761811551,-350.,160.));
#1396=CARTESIAN_POINT('',(32.008761811551,-350.,160.));
#1397=CARTESIAN_POINT('',(32.008761811551,-353.48,160.));
#1398=CARTESIAN_POINT('',(32.008761811551,-353.48,160.));
#1399=CARTESIAN_POINT('',(32.008761811551,-350.,160.));
#1400=CARTESIAN_POINT('Origin',(47.008761811551,-350.,160.));
#1401=CARTESIAN_POINT('',(47.008761811551,-350.,160.));
#1402=CARTESIAN_POINT('',(47.008761811551,-350.,160.));
#1403=CARTESIAN_POINT('',(47.008761811551,-353.48,160.));
#1404=CARTESIAN_POINT('',(47.008761811551,-353.48,160.));
#1405=CARTESIAN_POINT('',(47.008761811551,-350.,160.));
#1406=CARTESIAN_POINT('Origin',(52.7508890908454,-350.,133.48));
#1407=CARTESIAN_POINT('',(52.7508890908454,-350.,133.48));
#1408=CARTESIAN_POINT('',(19.5470533450005,-350.,286.831829583269));
#1409=CARTESIAN_POINT('',(52.7508890908454,-353.48,133.48));
#1410=CARTESIAN_POINT('',(19.5470533450005,-353.48,286.831829583269));
#1411=CARTESIAN_POINT('',(52.7508890908454,-350.,133.48));
#1412=CARTESIAN_POINT('Origin',(33.5043809057755,-350.,133.48));
#1413=CARTESIAN_POINT('',(33.5043809057755,-350.,133.48));
#1414=CARTESIAN_POINT('',(53.5043809057755,-350.,133.48));
#1415=CARTESIAN_POINT('',(33.5043809057755,-353.48,133.48));
#1416=CARTESIAN_POINT('',(53.5043809057755,-353.48,133.48));
#1417=CARTESIAN_POINT('',(33.5043809057755,-350.,133.48));
#1418=CARTESIAN_POINT('Origin',(33.5043809057755,-350.,130.));
#1419=CARTESIAN_POINT('',(33.5043809057755,-350.,130.));
#1420=CARTESIAN_POINT('',(33.5043809057755,-350.,133.48));
#1421=CARTESIAN_POINT('',(33.5043809057755,-353.48,130.));
#1422=CARTESIAN_POINT('',(33.5043809057755,-353.48,133.48));
#1423=CARTESIAN_POINT('',(33.5043809057755,-350.,130.));
#1424=CARTESIAN_POINT('Origin',(53.5043809057755,-350.,130.));
#1425=CARTESIAN_POINT('',(53.5043809057755,-350.,130.));
#1426=CARTESIAN_POINT('',(33.5043809057755,-350.,130.));
#1427=CARTESIAN_POINT('',(53.5043809057755,-353.48,130.));
#1428=CARTESIAN_POINT('',(33.5043809057755,-353.48,130.));
#1429=CARTESIAN_POINT('',(53.5043809057755,-350.,130.));
#1430=CARTESIAN_POINT('Origin',(60.,-350.,100.));
#1431=CARTESIAN_POINT('',(60.,-350.,100.));
#1432=CARTESIAN_POINT('',(19.5470533450005,-350.,286.831829583269));
#1433=CARTESIAN_POINT('',(60.,-353.48,100.));
#1434=CARTESIAN_POINT('',(19.5470533450005,-353.48,286.831829583269));
#1435=CARTESIAN_POINT('',(60.,-350.,100.));
#1436=CARTESIAN_POINT('Origin',(50.,-350.,100.));
#1437=CARTESIAN_POINT('',(50.,-350.,100.));
#1438=CARTESIAN_POINT('',(50.,-350.,100.));
#1439=CARTESIAN_POINT('',(50.,-353.48,100.));
#1440=CARTESIAN_POINT('',(50.,-353.48,100.));
#1441=CARTESIAN_POINT('',(50.,-350.,100.));
#1442=CARTESIAN_POINT('Origin',(50.,-350.,72.0000000000001));
#1443=CARTESIAN_POINT('',(50.,-350.,72.0000000000001));
#1444=CARTESIAN_POINT('',(50.,-350.,100.));
#1445=CARTESIAN_POINT('',(50.,-353.48,72.0000000000001));
#1446=CARTESIAN_POINT('',(50.,-353.48,100.));
#1447=CARTESIAN_POINT('',(50.,-350.,72.0000000000001));
#1448=CARTESIAN_POINT('Origin',(30.,-350.,72.0000000000001));
#1449=CARTESIAN_POINT('',(30.,-350.,72.0000000000001));
#1450=CARTESIAN_POINT('',(50.,-350.,72.0000000000001));
#1451=CARTESIAN_POINT('',(30.,-353.48,72.0000000000001));
#1452=CARTESIAN_POINT('',(50.,-353.48,72.0000000000001));
#1453=CARTESIAN_POINT('',(30.,-350.,72.0000000000001));
#1454=CARTESIAN_POINT('Origin',(30.,-350.,100.));
#1455=CARTESIAN_POINT('',(30.,-350.,100.));
#1456=CARTESIAN_POINT('',(30.,-350.,72.0000000000001));
#1457=CARTESIAN_POINT('',(30.,-353.48,100.));
#1458=CARTESIAN_POINT('',(30.,-353.48,72.0000000000001));
#1459=CARTESIAN_POINT('',(30.,-350.,100.));
#1460=CARTESIAN_POINT('Origin',(10.,-350.,100.));
#1461=CARTESIAN_POINT('',(10.,-350.,100.));
#1462=CARTESIAN_POINT('',(10.,-350.,100.));
#1463=CARTESIAN_POINT('',(10.,-353.48,100.));
#1464=CARTESIAN_POINT('',(10.,-353.48,100.));
#1465=CARTESIAN_POINT('',(10.,-350.,100.));
#1466=CARTESIAN_POINT('Origin',(10.,-350.,72.0000000000001));
#1467=CARTESIAN_POINT('',(10.,-350.,72.0000000000001));
#1468=CARTESIAN_POINT('',(10.,-350.,100.));
#1469=CARTESIAN_POINT('',(10.,-353.48,72.0000000000001));
#1470=CARTESIAN_POINT('',(10.,-353.48,100.));
#1471=CARTESIAN_POINT('',(10.,-350.,72.0000000000001));
#1472=CARTESIAN_POINT('Origin',(-10.,-350.,72.0000000000001));
#1473=CARTESIAN_POINT('',(-10.,-350.,72.0000000000001));
#1474=CARTESIAN_POINT('',(10.,-350.,72.0000000000001));
#1475=CARTESIAN_POINT('',(-10.,-353.48,72.0000000000001));
#1476=CARTESIAN_POINT('',(10.,-353.48,72.0000000000001));
#1477=CARTESIAN_POINT('',(-10.,-350.,72.0000000000001));
#1478=CARTESIAN_POINT('Origin',(-10.,-350.,100.));
#1479=CARTESIAN_POINT('',(-10.,-350.,100.));
#1480=CARTESIAN_POINT('',(-10.,-350.,72.0000000000001));
#1481=CARTESIAN_POINT('',(-10.,-353.48,100.));
#1482=CARTESIAN_POINT('',(-10.,-353.48,72.0000000000001));
#1483=CARTESIAN_POINT('',(-10.,-350.,100.));
#1484=CARTESIAN_POINT('Origin',(-30.,-350.,100.));
#1485=CARTESIAN_POINT('',(-30.,-350.,100.));
#1486=CARTESIAN_POINT('',(-30.,-350.,100.));
#1487=CARTESIAN_POINT('',(-30.,-353.48,100.));
#1488=CARTESIAN_POINT('',(-30.,-353.48,100.));
#1489=CARTESIAN_POINT('',(-30.,-350.,100.));
#1490=CARTESIAN_POINT('Origin',(-30.,-350.,72.0000000000001));
#1491=CARTESIAN_POINT('',(-30.,-350.,72.0000000000001));
#1492=CARTESIAN_POINT('',(-30.,-350.,72.0000000000001));
#1493=CARTESIAN_POINT('',(-30.,-353.48,72.0000000000001));
#1494=CARTESIAN_POINT('',(-30.,-353.48,72.0000000000001));
#1495=CARTESIAN_POINT('',(-30.,-350.,72.0000000000001));
#1496=CARTESIAN_POINT('Origin',(-50.,-350.,72.0000000000001));
#1497=CARTESIAN_POINT('',(-50.,-350.,72.0000000000001));
#1498=CARTESIAN_POINT('',(-50.,-350.,72.0000000000001));
#1499=CARTESIAN_POINT('',(-50.,-353.48,72.0000000000001));
#1500=CARTESIAN_POINT('',(-50.,-353.48,72.0000000000001));
#1501=CARTESIAN_POINT('',(-50.,-350.,72.0000000000001));
#1502=CARTESIAN_POINT('Origin',(-50.,-350.,100.));
#1503=CARTESIAN_POINT('',(-50.,-350.,100.));
#1504=CARTESIAN_POINT('',(-50.,-350.,100.));
#1505=CARTESIAN_POINT('',(-50.,-353.48,100.));
#1506=CARTESIAN_POINT('',(-50.,-353.48,100.));
#1507=CARTESIAN_POINT('',(-50.,-350.,100.));
#1508=CARTESIAN_POINT('Origin',(-60.,-350.,100.));
#1509=CARTESIAN_POINT('',(-60.,-350.,100.));
#1510=CARTESIAN_POINT('',(-60.,-350.,100.));
#1511=CARTESIAN_POINT('',(-60.,-353.48,100.));
#1512=CARTESIAN_POINT('',(-60.,-353.48,100.));
#1513=CARTESIAN_POINT('',(-60.,-350.,100.));
#1514=CARTESIAN_POINT('Origin',(-53.5043809057755,-350.,130.));
#1515=CARTESIAN_POINT('',(-53.5043809057755,-350.,130.));
#1516=CARTESIAN_POINT('',(-60.,-350.,100.));
#1517=CARTESIAN_POINT('',(-53.5043809057755,-353.48,130.));
#1518=CARTESIAN_POINT('',(-60.,-353.48,100.));
#1519=CARTESIAN_POINT('',(-53.5043809057755,-350.,130.));
#1520=CARTESIAN_POINT('Origin',(-33.5043809057755,-350.,130.));
#1521=CARTESIAN_POINT('',(-33.5043809057755,-350.,130.));
#1522=CARTESIAN_POINT('',(-33.5043809057755,-350.,130.));
#1523=CARTESIAN_POINT('',(-33.5043809057755,-353.48,130.));
#1524=CARTESIAN_POINT('',(-33.5043809057755,-353.48,130.));
#1525=CARTESIAN_POINT('',(-33.5043809057755,-350.,130.));
#1526=CARTESIAN_POINT('Origin',(-33.5043809057755,-350.,133.48));
#1527=CARTESIAN_POINT('',(-33.5043809057755,-350.,133.48));
#1528=CARTESIAN_POINT('',(-33.5043809057755,-350.,133.48));
#1529=CARTESIAN_POINT('',(-33.5043809057755,-353.48,133.48));
#1530=CARTESIAN_POINT('',(-33.5043809057755,-353.48,133.48));
#1531=CARTESIAN_POINT('',(-33.5043809057755,-350.,133.48));
#1532=CARTESIAN_POINT('Origin',(-52.7508890908455,-350.,133.48));
#1533=CARTESIAN_POINT('',(-52.7508890908455,-350.,133.48));
#1534=CARTESIAN_POINT('',(-53.5043809057755,-350.,133.48));
#1535=CARTESIAN_POINT('',(-52.7508890908455,-353.48,133.48));
#1536=CARTESIAN_POINT('',(-53.5043809057755,-353.48,133.48));
#1537=CARTESIAN_POINT('',(-52.7508890908455,-350.,133.48));
#1538=CARTESIAN_POINT('Origin',(-47.008761811551,-350.,160.));
#1539=CARTESIAN_POINT('',(-47.008761811551,-350.,160.));
#1540=CARTESIAN_POINT('',(-60.,-350.,100.));
#1541=CARTESIAN_POINT('',(-47.008761811551,-353.48,160.));
#1542=CARTESIAN_POINT('',(-60.,-353.48,100.));
#1543=CARTESIAN_POINT('',(-47.008761811551,-350.,160.));
#1544=CARTESIAN_POINT('Origin',(-32.008761811551,-350.,160.));
#1545=CARTESIAN_POINT('',(-32.008761811551,-350.,160.));
#1546=CARTESIAN_POINT('',(-47.008761811551,-350.,160.));
#1547=CARTESIAN_POINT('',(-32.008761811551,-353.48,160.));
#1548=CARTESIAN_POINT('',(-47.008761811551,-353.48,160.));
#1549=CARTESIAN_POINT('',(-32.008761811551,-350.,160.));
#1550=CARTESIAN_POINT('Origin',(-32.008761811551,-350.,163.48));
#1551=CARTESIAN_POINT('',(-32.008761811551,-350.,163.48));
#1552=CARTESIAN_POINT('',(-32.008761811551,-350.,160.));
#1553=CARTESIAN_POINT('',(-32.008761811551,-353.48,163.48));
#1554=CARTESIAN_POINT('',(-32.008761811551,-353.48,160.));
#1555=CARTESIAN_POINT('',(-32.008761811551,-350.,163.48));
#1556=CARTESIAN_POINT('Origin',(-46.255269996621,-350.,163.48));
#1557=CARTESIAN_POINT('',(-46.255269996621,-350.,163.48));
#1558=CARTESIAN_POINT('',(-32.008761811551,-350.,163.48));
#1559=CARTESIAN_POINT('',(-46.255269996621,-353.48,163.48));
#1560=CARTESIAN_POINT('',(-32.008761811551,-353.48,163.48));
#1561=CARTESIAN_POINT('',(-46.255269996621,-350.,163.48));
#1562=CARTESIAN_POINT('Origin',(-40.5131427173265,-350.,190.));
#1563=CARTESIAN_POINT('',(-40.5131427173265,-350.,190.));
#1564=CARTESIAN_POINT('',(-60.,-350.,100.));
#1565=CARTESIAN_POINT('',(-40.5131427173265,-353.48,190.));
#1566=CARTESIAN_POINT('',(-60.,-353.48,100.));
#1567=CARTESIAN_POINT('',(-40.5131427173265,-350.,190.));
#1568=CARTESIAN_POINT('Origin',(-25.5131427173265,-350.,190.));
#1569=CARTESIAN_POINT('',(-25.5131427173265,-350.,190.));
#1570=CARTESIAN_POINT('',(-25.5131427173265,-350.,190.));
#1571=CARTESIAN_POINT('',(-25.5131427173265,-353.48,190.));
#1572=CARTESIAN_POINT('',(-25.5131427173265,-353.48,190.));
#1573=CARTESIAN_POINT('',(-25.5131427173265,-350.,190.));
#1574=CARTESIAN_POINT('Origin',(-25.5131427173265,-350.,193.48));
#1575=CARTESIAN_POINT('',(-25.5131427173265,-350.,193.48));
#1576=CARTESIAN_POINT('',(-25.5131427173265,-350.,193.48));
#1577=CARTESIAN_POINT('',(-25.5131427173265,-353.48,193.48));
#1578=CARTESIAN_POINT('',(-25.5131427173265,-353.48,193.48));
#1579=CARTESIAN_POINT('',(-25.5131427173265,-350.,193.48));
#1580=CARTESIAN_POINT('Origin',(-39.7596509023964,-350.,193.48));
#1581=CARTESIAN_POINT('',(-39.7596509023964,-350.,193.48));
#1582=CARTESIAN_POINT('',(-40.5131427173265,-350.,193.48));
#1583=CARTESIAN_POINT('',(-39.7596509023964,-353.48,193.48));
#1584=CARTESIAN_POINT('',(-40.5131427173265,-353.48,193.48));
#1585=CARTESIAN_POINT('',(-39.7596509023964,-350.,193.48));
#1586=CARTESIAN_POINT('Origin',(-19.5470533450005,-350.,286.83182958327));
#1587=CARTESIAN_POINT('',(-19.5470533450005,-350.,286.83182958327));
#1588=CARTESIAN_POINT('',(-60.,-350.,100.));
#1589=CARTESIAN_POINT('',(-19.5470533450005,-353.48,286.83182958327));
#1590=CARTESIAN_POINT('',(-60.,-353.48,100.));
#1591=CARTESIAN_POINT('',(-19.5470533450005,-350.,286.83182958327));
#1592=CARTESIAN_POINT('Origin',(-1.66533453693773E-15,-350.,282.599489151816));
#1593=CARTESIAN_POINT('',(-1.5,-350.,302.543159826995));
#1594=CARTESIAN_POINT('Origin',(-1.66533453693773E-15,-350.,282.599489151816));
#1595=CARTESIAN_POINT('',(-1.5,-353.48,302.543159826995));
#1596=CARTESIAN_POINT('Origin',(-1.66533453693773E-15,-353.48,282.599489151816));
#1597=CARTESIAN_POINT('',(-1.5,-350.,302.543159826995));
#1598=CARTESIAN_POINT('Origin',(-1.5,-350.,282.645602010379));
#1599=CARTESIAN_POINT('',(-1.5,-350.,282.645602010379));
#1600=CARTESIAN_POINT('',(-1.5,-350.,282.645602010379));
#1601=CARTESIAN_POINT('',(-1.5,-353.48,282.645602010379));
#1602=CARTESIAN_POINT('',(-1.5,-353.48,282.645602010379));
#1603=CARTESIAN_POINT('',(-1.5,-350.,282.645602010379));
#1604=CARTESIAN_POINT('Origin',(1.98,-350.,282.645602010379));
#1605=CARTESIAN_POINT('',(1.98,-350.,282.645602010379));
#1606=CARTESIAN_POINT('',(1.98,-350.,282.645602010379));
#1607=CARTESIAN_POINT('',(1.98,-353.48,282.645602010379));
#1608=CARTESIAN_POINT('',(1.98,-353.48,282.645602010379));
#1609=CARTESIAN_POINT('',(1.98,-350.,282.645602010379));
#1610=CARTESIAN_POINT('Origin',(1.98,-350.,302.501237818705));
#1611=CARTESIAN_POINT('',(1.98,-350.,302.501237818705));
#1612=CARTESIAN_POINT('',(1.98,-350.,302.645602010379));
#1613=CARTESIAN_POINT('',(1.98,-353.48,302.501237818705));
#1614=CARTESIAN_POINT('',(1.98,-353.48,302.645602010379));
#1615=CARTESIAN_POINT('',(1.98,-350.,302.501237818705));
#1616=CARTESIAN_POINT('Origin',(-1.66533453693773E-15,-350.,282.599489151816));
#1617=CARTESIAN_POINT('Origin',(-1.66533453693773E-15,-350.,282.599489151816));
#1618=CARTESIAN_POINT('Origin',(-1.66533453693773E-15,-353.48,282.599489151816));
#1619=CARTESIAN_POINT('Origin',(0.,-353.48,187.271579913498));
#1620=CARTESIAN_POINT('Origin',(0.,-350.,187.271579913498));
#1621=UNCERTAINTY_MEASURE_WITH_UNIT(LENGTH_MEASURE(0.01),#1625,
'DISTANCE_ACCURACY_VALUE',
'Maximum model space distance between geometric entities at asserted c
onnectivities');
#1622=UNCERTAINTY_MEASURE_WITH_UNIT(LENGTH_MEASURE(0.01),#1625,
'DISTANCE_ACCURACY_VALUE',
'Maximum model space distance between geometric entities at asserted c
onnectivities');
#1623=(
GEOMETRIC_REPRESENTATION_CONTEXT(3)
GLOBAL_UNCERTAINTY_ASSIGNED_CONTEXT((#1621))
GLOBAL_UNIT_ASSIGNED_CONTEXT((#1625,#1627,#1628))
REPRESENTATION_CONTEXT('','3D')
);
#1624=(
GEOMETRIC_REPRESENTATION_CONTEXT(3)
GLOBAL_UNCERTAINTY_ASSIGNED_CONTEXT((#1622))
GLOBAL_UNIT_ASSIGNED_CONTEXT((#1625,#1627,#1628))
REPRESENTATION_CONTEXT('','3D')
);
#1625=(
LENGTH_UNIT()
NAMED_UNIT(*)
SI_UNIT(.MILLI.,.METRE.)
);
#1626=(
LENGTH_UNIT()
NAMED_UNIT(*)
SI_UNIT($,.METRE.)
);
#1627=(
NAMED_UNIT(*)
PLANE_ANGLE_UNIT()
SI_UNIT($,.RADIAN.)
);
#1628=(
NAMED_UNIT(*)
SI_UNIT($,.STERADIAN.)
SOLID_ANGLE_UNIT()
);
#1629=SHAPE_DEFINITION_REPRESENTATION(#1630,#1631);
#1630=PRODUCT_DEFINITION_SHAPE('',$,#1633);
#1631=SHAPE_REPRESENTATION('',(#1025),#1623);
#1632=PRODUCT_DEFINITION_CONTEXT('part definition',#1637,'design');
#1633=PRODUCT_DEFINITION('motor_stand_1','motor_stand_1',#1634,#1632);
#1634=PRODUCT_DEFINITION_FORMATION('',$,#1639);
#1635=PRODUCT_RELATED_PRODUCT_CATEGORY('motor_stand_1','motor_stand_1',
(#1639));
#1636=APPLICATION_PROTOCOL_DEFINITION('international standard',
'automotive_design',2009,#1637);
#1637=APPLICATION_CONTEXT(
'Core Data for Automotive Mechanical Design Process');
#1638=PRODUCT_CONTEXT('part definition',#1637,'mechanical');
#1639=PRODUCT('motor_stand_1','motor_stand_1',$,(#1638));
#1640=PRESENTATION_STYLE_ASSIGNMENT((#1641));
#1641=SURFACE_STYLE_USAGE(.BOTH.,#1642);
#1642=SURFACE_SIDE_STYLE('',(#1643));
#1643=SURFACE_STYLE_FILL_AREA(#1644);
#1644=FILL_AREA_STYLE('Steel - Satin',(#1645));
#1645=FILL_AREA_STYLE_COLOUR('Steel - Satin',#1646);
#1646=COLOUR_RGB('Steel - Satin',0.627450980392157,0.627450980392157,0.627450980392157);
ENDSEC;
END-ISO-10303-21;
